<svg width="52" height="52" viewBox="0 0 52 52" fill="none" xmlns="http://www.w3.org/2000/svg">
<rect width="52" height="52" rx="6" fill="#ECC500"/>
<path d="M40.8 15H12V36.6H40.8V15ZM39.6 35.4H13.2V16.2H39.6V35.4Z" fill="white"/>
<path d="M25.2 27C25.2 25.5306 24.1362 24.3102 22.7394 24.0546C23.1462 23.5422 23.4 22.9032 23.4 22.2C23.4 20.5458 22.0542 19.2 20.4 19.2C18.7458 19.2 17.4 20.5458 17.4 22.2C17.4 22.9032 17.6532 23.5422 18.0606 24.0546C16.6638 24.3102 15.6 25.5306 15.6 27V31.2H25.2V27ZM20.4 20.4C21.3924 20.4 22.2 21.2076 22.2 22.2C22.2 23.1924 21.3924 24 20.4 24C19.4076 24 18.6 23.1924 18.6 22.2C18.6 21.2076 19.4076 20.4 20.4 20.4ZM24 30H16.8V27C16.8 26.0076 17.6076 25.2 18.6 25.2H22.2C23.1924 25.2 24 26.0076 24 27V30Z" fill="white"/>
<path d="M31.2 21H27V22.2H31.2V21Z" fill="white"/>
<path d="M37.2 21H33V22.2H37.2V21Z" fill="white"/>
<path d="M28.8 24H27V25.2H28.8V24Z" fill="white"/>
<path d="M37.2 24H30.6V25.2H37.2V24Z" fill="white"/>
<path d="M31.8 27H27V28.2H31.8V27Z" fill="white"/>
<path d="M37.1999 27H34.7999V28.2H37.1999V27Z" fill="white"/>
<path d="M28.2 30H27V31.2H28.2V30Z" fill="white"/>
<path d="M30.6 30H29.4V31.2H30.6V30Z" fill="white"/>
<path d="M32.9999 30H31.7999V31.2H32.9999V30Z" fill="white"/>
<path d="M37.2 30H36V31.2H37.2V30Z" fill="white"/>
</svg>
