<svg width="37" height="28" viewBox="0 0 37 28" fill="none" xmlns="http://www.w3.org/2000/svg">
<path d="M36.6665 0H0V27.4999H36.6665V0ZM35.1388 25.9721H1.52777V1.52777H35.1388V25.9721Z" fill="#ED4422"/>
<path d="M16.8054 15.2777C16.8054 13.4069 15.4511 11.8532 13.6727 11.5278C14.1906 10.8754 14.5138 10.0619 14.5138 9.1666C14.5138 7.06056 12.8004 5.34717 10.6943 5.34717C8.58831 5.34717 6.87491 7.06056 6.87491 9.1666C6.87491 10.0619 7.19727 10.8754 7.71595 11.5278C5.93762 11.8532 4.58325 13.4069 4.58325 15.2777V20.6249H16.8054V15.2777ZM10.6943 6.87494C11.9578 6.87494 12.986 7.90313 12.986 9.1666C12.986 10.4301 11.9578 11.4583 10.6943 11.4583C9.43087 11.4583 8.40268 10.4301 8.40268 9.1666C8.40268 7.90313 9.43087 6.87494 10.6943 6.87494ZM15.2777 19.0971H6.11102V15.2777C6.11102 14.0142 7.13921 12.986 8.40268 12.986H12.986C14.2495 12.986 15.2777 14.0142 15.2777 15.2777V19.0971Z" fill="#ED4422"/>
<path d="M24.4442 7.63879H19.097V9.16657H24.4442V7.63879Z" fill="#ED4422"/>
<path d="M32.0832 7.63879H26.736V9.16657H32.0832V7.63879Z" fill="#ED4422"/>
<path d="M21.3887 11.4583H19.097V12.9861H21.3887V11.4583Z" fill="#ED4422"/>
<path d="M32.083 11.4583H23.6803V12.9861H32.083V11.4583Z" fill="#ED4422"/>
<path d="M25.2081 15.2777H19.097V16.8055H25.2081V15.2777Z" fill="#ED4422"/>
<path d="M32.0831 15.2777H29.0276V16.8055H32.0831V15.2777Z" fill="#ED4422"/>
<path d="M20.6248 19.0971H19.097V20.6249H20.6248V19.0971Z" fill="#ED4422"/>
<path d="M23.6804 19.0971H22.1526V20.6249H23.6804V19.0971Z" fill="#ED4422"/>
<path d="M26.7358 19.0971H25.208V20.6249H26.7358V19.0971Z" fill="#ED4422"/>
<path d="M32.0831 19.0971H30.5553V20.6249H32.0831V19.0971Z" fill="#ED4422"/>
</svg>
