<svg width="19" height="19" viewBox="0 0 19 19" fill="none" xmlns="http://www.w3.org/2000/svg">
<path d="M9.08799 18.296C4.11599 18.296 0.0679932 14.248 0.0679932 9.276C0.0679932 4.304 4.11599 0.212006 9.08799 0.212006C14.06 0.212006 18.108 4.26 18.108 9.23201C18.108 14.204 14.06 18.296 9.08799 18.296ZM9.08799 1.09201C4.59999 1.09201 0.947993 4.74401 0.947993 9.23201C0.947993 13.72 4.59999 17.416 9.08799 17.416C13.576 17.416 17.228 13.764 17.228 9.276C17.228 4.788 13.576 1.09201 9.08799 1.09201Z" fill="#E6FFF2"/>
<path d="M9.08801 5.404C8.82401 5.404 8.64801 5.228 8.64801 4.964V4.216C8.64801 3.952 8.82401 3.776 9.08801 3.776C9.35201 3.776 9.52801 3.952 9.52801 4.216V4.964C9.52801 5.228 9.35201 5.404 9.08801 5.404Z" fill="#E6FFF2"/>
<path d="M9.08801 14.688C8.82401 14.688 8.64801 14.512 8.64801 14.248V6.724C8.64801 6.46 8.82401 6.284 9.08801 6.284C9.35201 6.284 9.52801 6.46 9.52801 6.724V14.248C9.52801 14.512 9.35201 14.688 9.08801 14.688Z" fill="#E6FFF2"/>
</svg>
