<svg width="52" height="52" viewBox="0 0 52 52" fill="none" xmlns="http://www.w3.org/2000/svg">
<rect width="52" height="52" rx="6" fill="#E86850"/>
<path d="M22.3396 26.0546C22.747 25.5422 23.0002 24.9032 23.0002 24.2C23.0002 22.5458 21.6544 21.2 20.0002 21.2C18.346 21.2 17.0002 22.5458 17.0002 24.2C17.0002 24.9032 17.2534 25.5422 17.6608 26.0546C16.264 26.3102 15.2002 27.5306 15.2002 29V33.2H24.8002V29C24.8002 27.5306 23.7364 26.3102 22.3396 26.0546ZM20.0002 22.4C20.9926 22.4 21.8002 23.2076 21.8002 24.2C21.8002 25.1924 20.9926 26 20.0002 26C19.0078 26 18.2002 25.1924 18.2002 24.2C18.2002 23.2076 19.0078 22.4 20.0002 22.4ZM23.6002 32H16.4002V29C16.4002 28.0076 17.2078 27.2 18.2002 27.2H21.8002C22.7926 27.2 23.6002 28.0076 23.6002 29V32Z" fill="white"/>
<path d="M30.8001 23H26.6001V24.2H30.8001V23Z" fill="white"/>
<path d="M36.8001 23H32.6001V24.2H36.8001V23Z" fill="white"/>
<path d="M28.4001 26H26.6001V27.2H28.4001V26Z" fill="white"/>
<path d="M36.8002 26H30.2002V27.2H36.8002V26Z" fill="white"/>
<path d="M31.4001 29H26.6001V30.2H31.4001V29Z" fill="white"/>
<path d="M36.8001 29H34.4001V30.2H36.8001V29Z" fill="white"/>
<path d="M27.8001 32H26.6001V33.2H27.8001V32Z" fill="white"/>
<path d="M30.2 32H29V33.2H30.2V32Z" fill="white"/>
<path d="M32.6001 32H31.4001V33.2H32.6001V32Z" fill="white"/>
<path d="M36.8001 32H35.6001V33.2H36.8001V32Z" fill="white"/>
<path d="M28.4001 13.4H23.6001V17H11.6001V38.6H40.4001V17H28.4001V13.4ZM24.8001 14.6H27.2001V17V19.4H24.8001V17V14.6ZM39.2001 18.2V37.4H12.8001V18.2H23.6001V20.6H28.4001V18.2H39.2001Z" fill="white"/>
</svg>
