<svg width="22" height="22" viewBox="0 0 22 22" fill="none" xmlns="http://www.w3.org/2000/svg">
<path d="M21.56 3.08H0.440002V18.92H21.56V3.08ZM20.68 18.04H1.32V3.96H20.68V18.04Z" fill="#E6FFF2"/>
<path d="M10.12 11.88C10.12 10.8024 9.3399 9.90748 8.31558 9.72004C8.6139 9.34428 8.80002 8.87568 8.80002 8.36C8.80002 7.14692 7.8131 6.16 6.60002 6.16C5.38694 6.16 4.40002 7.14692 4.40002 8.36C4.40002 8.87568 4.5857 9.34428 4.88446 9.72004C3.86014 9.90748 3.08002 10.8024 3.08002 11.88V14.96H10.12V11.88ZM6.60002 7.04C7.32778 7.04 7.92002 7.63224 7.92002 8.36C7.92002 9.08776 7.32778 9.68 6.60002 9.68C5.87226 9.68 5.28002 9.08776 5.28002 8.36C5.28002 7.63224 5.87226 7.04 6.60002 7.04ZM9.24002 14.08H3.96002V11.88C3.96002 11.1522 4.55226 10.56 5.28002 10.56H7.92002C8.64778 10.56 9.24002 11.1522 9.24002 11.88V14.08Z" fill="#E6FFF2"/>
<path d="M14.52 7.48H11.44V8.36H14.52V7.48Z" fill="#E6FFF2"/>
<path d="M18.92 7.48H15.84V8.36H18.92V7.48Z" fill="#E6FFF2"/>
<path d="M12.76 9.68001H11.44V10.56H12.76V9.68001Z" fill="#E6FFF2"/>
<path d="M18.92 9.68001H14.08V10.56H18.92V9.68001Z" fill="#E6FFF2"/>
<path d="M14.96 11.88H11.44V12.76H14.96V11.88Z" fill="#E6FFF2"/>
<path d="M18.92 11.88H17.16V12.76H18.92V11.88Z" fill="#E6FFF2"/>
<path d="M12.32 14.08H11.44V14.96H12.32V14.08Z" fill="#E6FFF2"/>
<path d="M14.08 14.08H13.2V14.96H14.08V14.08Z" fill="#E6FFF2"/>
<path d="M15.84 14.08H14.96V14.96H15.84V14.08Z" fill="#E6FFF2"/>
<path d="M18.92 14.08H18.04V14.96H18.92V14.08Z" fill="#E6FFF2"/>
</svg>
