<svg width="34" height="28" viewBox="0 0 34 28" fill="none" xmlns="http://www.w3.org/2000/svg">
<path d="M1.12891 1.05078C0.996094 1.18359 0.996094 1.26992 0.996094 8.98633C0.996094 16.7027 0.996094 16.7891 1.12891 16.9219C1.26172 17.0547 1.34805 17.0547 4.84766 17.0547H8.43359V21.9355C8.43359 26.7301 8.43359 26.8164 8.56641 26.9492C8.69922 27.082 8.78555 27.082 16.9734 27.082C22.4254 27.082 25.2875 27.0621 25.3672 27.0156C25.4402 26.9758 25.5266 26.8363 25.5664 26.6969C25.6063 26.5375 25.6328 24.7977 25.6328 21.7496V17.0547H29.1855C32.652 17.0547 32.7383 17.0547 32.8711 16.9219C33.0039 16.7891 33.0039 16.7027 33.0039 8.98633C33.0039 1.26992 33.0039 1.18359 32.8711 1.05078C32.7383 0.917969 32.652 0.917969 17 0.917969C1.34805 0.917969 1.26172 0.917969 1.12891 1.05078ZM31.9414 8.98633V15.9922H28.7539H25.5664V14.0664V12.1406H27.4258C29.1988 12.1406 29.2918 12.134 29.418 12.0078C29.5441 11.8816 29.5508 11.7887 29.5508 8.98633C29.5508 6.18398 29.5441 6.09101 29.418 5.96484C29.2852 5.83203 29.1988 5.83203 17 5.83203C4.80117 5.83203 4.71484 5.83203 4.58203 5.96484C4.45586 6.09101 4.44922 6.18398 4.44922 8.98633C4.44922 11.7887 4.45586 11.8816 4.58203 12.0078C4.7082 12.134 4.80117 12.1406 6.57422 12.1406H8.43359V14.0664V15.9922H5.24609H2.05859V8.98633V1.98047H17H31.9414V8.98633ZM8.43359 8.98633V11.0781H6.97266H5.51172V8.98633V6.89453H6.97266H8.43359V8.98633ZM24.5039 14.6906V22.4867L23.8266 22.5133C23.209 22.5332 23.0961 22.5598 22.6445 22.7723C21.4758 23.3301 20.7852 24.366 20.7852 25.5613V26.0195H16.9336H13.082V25.5547C13.082 24.7313 12.7301 23.9344 12.0992 23.35C11.4816 22.7656 10.8109 22.5 9.98086 22.5H9.49609V14.6973V6.89453H17H24.5039V14.6906ZM28.4883 8.98633V11.0781H27.0273H25.5664V8.98633V6.89453H27.0273H28.4883V8.98633ZM10.7246 23.7883C11.4152 24.1004 11.8203 24.6449 11.9465 25.4219C11.9863 25.6609 12.0195 25.8934 12.0195 25.9332C12.0195 25.9996 11.7207 26.0195 10.7578 26.0195H9.49609V24.7844V23.5492L9.94766 23.5957C10.1934 23.6156 10.5453 23.7086 10.7246 23.7883ZM24.5039 24.791V26.0195H23.1758H21.841L21.8875 25.6012C22.0137 24.366 22.8902 23.6156 24.2582 23.5691L24.5039 23.5625V24.791Z" fill="white"/>
<path d="M16.0174 7.95703C14.749 8.18945 13.4143 8.97969 12.624 9.96914C12.1924 10.5004 11.7209 11.4367 11.5416 12.1074C11.3557 12.8047 11.3424 14.1527 11.5084 14.7969C11.9666 16.5301 13.069 17.8781 14.6162 18.6086C15.3533 18.9605 15.7983 19.0601 16.7877 19.0934C17.5315 19.1266 17.7639 19.1066 18.2885 18.9871C20.0549 18.5754 21.5026 17.3402 22.1998 15.6602C22.5186 14.8766 22.6049 14.4316 22.5983 13.5019C22.5916 12.4594 22.4588 11.8684 22.0205 10.9785C21.3365 9.59727 20.035 8.52148 18.5276 8.08984C17.9565 7.93047 16.5951 7.85742 16.0174 7.95703ZM18.0361 9.15234C18.7799 9.33828 19.4506 9.69687 19.9951 10.2016C21.0244 11.1578 21.476 12.1871 21.4693 13.5684C21.4693 14.166 21.4361 14.3984 21.29 14.8301C20.8385 16.2379 19.7494 17.3402 18.3615 17.7984C17.9631 17.9312 17.7639 17.9512 16.967 17.9512C16.0904 17.9445 16.0041 17.9312 15.4994 17.7387C13.8592 17.1144 12.81 15.8129 12.5443 14.0797C12.3983 13.1035 12.6506 11.9746 13.2283 11.0914C14.2643 9.49766 16.2432 8.70078 18.0361 9.15234Z" fill="white"/>
</svg>
