<svg width="52" height="52" viewBox="0 0 52 52" fill="none" xmlns="http://www.w3.org/2000/svg">
<rect width="52" height="52" rx="2" fill="#5185B3"/>
<path d="M45.4667 11H7.33337V39.6H45.4667V11ZM43.8778 38.0111H8.92226V12.5889H43.8778V38.0111Z" fill="white"/>
<path d="M24.8111 26.8889C24.8111 24.9433 23.4025 23.3274 21.5531 22.9889C22.0917 22.3105 22.4278 21.4644 22.4278 20.5333C22.4278 18.343 20.6458 16.5611 18.4555 16.5611C16.2652 16.5611 14.4833 18.343 14.4833 20.5333C14.4833 21.4644 14.8186 22.3105 15.358 22.9889C13.5085 23.3274 12.1 24.9433 12.1 26.8889V32.45H24.8111V26.8889ZM18.4555 18.15C19.7695 18.15 20.8389 19.2193 20.8389 20.5333C20.8389 21.8473 19.7695 22.9167 18.4555 22.9167C17.1415 22.9167 16.0722 21.8473 16.0722 20.5333C16.0722 19.2193 17.1415 18.15 18.4555 18.15ZM23.2222 30.8611H13.6889V26.8889C13.6889 25.5749 14.7582 24.5055 16.0722 24.5055H20.8389C22.1529 24.5055 23.2222 25.5749 23.2222 26.8889V30.8611Z" fill="white"/>
<path d="M32.7556 18.9444H27.1945V20.5333H32.7556V18.9444Z" fill="white"/>
<path d="M40.7 18.9444H35.1389V20.5333H40.7V18.9444Z" fill="white"/>
<path d="M29.5778 22.9167H27.1945V24.5055H29.5778V22.9167Z" fill="white"/>
<path d="M40.7 22.9167H31.9611V24.5055H40.7V22.9167Z" fill="white"/>
<path d="M33.55 26.8889H27.1945V28.4778H33.55V26.8889Z" fill="white"/>
<path d="M40.7 26.8889H37.5222V28.4778H40.7V26.8889Z" fill="white"/>
<path d="M28.7833 30.8611H27.1945V32.45H28.7833V30.8611Z" fill="white"/>
<path d="M31.9612 30.8611H30.3723V32.45H31.9612V30.8611Z" fill="white"/>
<path d="M35.1388 30.8611H33.5499V32.45H35.1388V30.8611Z" fill="white"/>
<path d="M40.7001 30.8611H39.1112V32.45H40.7001V30.8611Z" fill="white"/>
</svg>
