<svg width="32" height="32" viewBox="0 0 32 32" fill="none" xmlns="http://www.w3.org/2000/svg">
<path d="M1.71875 0.118774C1.41875 0.256275 1.2875 0.393774 1.15625 0.706274C1.075 0.906275 1.0625 1.91877 1.0625 9.36877V17.8063L1.20625 17.975C1.38125 18.175 1.69375 18.2063 1.8625 18.0375C1.9625 17.9375 1.96875 17.3313 2 9.45003L2.03125 0.968775L9.925 0.950024L17.8125 0.937525V3.08127C17.8125 5.53127 17.8313 5.66877 18.2563 6.15002C18.7625 6.72503 18.7063 6.71877 21.3313 6.73752L23.625 6.75628V8.40627V10.0563L20.6438 10.075C17.7563 10.0938 17.6438 10.1 17.3688 10.225C16.775 10.5 16.375 11.025 16.2812 11.6438L16.2375 11.9375L12.4375 11.95C8.8 11.9688 8.63125 11.975 8.50625 12.0875C8.3375 12.2438 8.325 12.625 8.4875 12.7688C8.59375 12.8625 8.95625 12.875 12.425 12.875H16.25V14.5V16.125H12.4188C8.78125 16.125 8.575 16.1313 8.48125 16.2375C8.33125 16.4063 8.34375 16.7688 8.50625 16.9125C8.63125 17.025 8.8 17.0313 12.4438 17.05L16.25 17.0688V18.6563V20.25H12.4188C8.78125 20.25 8.575 20.2563 8.48125 20.3625C8.33125 20.5313 8.34375 20.8938 8.50625 21.0375C8.63125 21.15 8.8 21.1563 12.4438 21.175L16.25 21.1875V22.7813V24.375H12.45C8.18125 24.375 8.375 24.3563 8.375 24.8125C8.375 25 8.4125 25.0813 8.5375 25.1813C8.7 25.3125 8.75625 25.3125 12.475 25.3125H16.25V26.2188C16.25 27.2188 16.2937 27.4 16.575 27.4938C16.7875 27.5688 17.0813 27.4563 17.15 27.2813C17.1688 27.225 17.1875 23.7 17.1875 19.45C17.1875 12.025 17.1938 11.7063 17.3063 11.5C17.3688 11.3813 17.5188 11.225 17.6313 11.1563C17.8375 11.0313 17.9563 11.0313 23.5938 11.0313C30.0938 11.0313 29.6438 10.9938 29.8813 11.5188C29.9875 11.7563 30 11.95 30 13.7938C30 15.7313 30.0063 15.8188 30.125 15.9375C30.3125 16.125 30.6438 16.1063 30.8125 15.8938C30.9438 15.7313 30.9438 15.6875 30.925 13.6L30.9062 11.4688L30.7313 11.1125C30.5313 10.7125 30.2313 10.4188 29.8188 10.225C29.5438 10.1 29.4188 10.0938 27.05 10.075L24.5625 10.0563V8.07503V6.09377L21.5125 3.04377L18.4688 2.47955e-05H10.2188C2.35 2.47955e-05 1.95625 0.00627518 1.71875 0.118774ZM21.15 5.80002C18.5938 5.81877 18.75 5.98127 18.75 3.37502V1.59377L20.8438 3.68752L22.9375 5.78127L21.15 5.80002Z" fill="#EC1B24"/>
<path d="M4.64391 7.875C4.36891 7.9875 4.28766 8.4125 4.50016 8.625C4.61891 8.74375 4.70641 8.75 5.77516 8.75H6.93141L7.05641 8.5875C7.23141 8.3625 7.21891 8.2125 7.00641 7.99375L6.82516 7.8125L5.80016 7.81875C5.23766 7.81875 4.71891 7.84375 4.64391 7.875Z" fill="#EC1B24"/>
<path d="M8.68748 7.85625C8.47498 7.9375 8.37498 8.0875 8.37498 8.31875C8.37498 8.775 8.08748 8.75 13.3562 8.75C17.9812 8.75 18.0625 8.75 18.1875 8.625C18.3437 8.46875 18.35 8.18125 18.1937 7.99375L18.075 7.84375L13.425 7.83125C10.875 7.825 8.73748 7.8375 8.68748 7.85625Z" fill="#EC1B24"/>
<path d="M4.64369 12C4.36245 12.1125 4.28745 12.5375 4.49995 12.75C4.61869 12.8688 4.70619 12.875 5.77494 12.875H6.93119L7.05619 12.7125C7.22494 12.4938 7.21869 12.3563 7.03744 12.1438L6.88744 11.9688L5.83119 11.9563C5.25619 11.95 4.71869 11.9688 4.64369 12Z" fill="#EC1B24"/>
<path d="M19.2752 12.3687C18.9814 12.5062 18.7752 12.7375 18.6814 13.0562C18.6377 13.2 18.6252 13.8437 18.6377 14.8187C18.6564 16.3375 18.6564 16.3562 18.8127 16.5812C18.8939 16.7062 19.0814 16.8687 19.2189 16.95L19.4689 17.0938H23.6252C27.5877 17.0938 27.7939 17.0875 28.0189 16.975C28.1564 16.9062 28.3377 16.7437 28.4252 16.6062L28.5939 16.3562L28.6127 14.725C28.6314 12.8875 28.6189 12.8437 28.1627 12.4687L27.9252 12.2812L23.7314 12.2687C19.7439 12.25 19.5189 12.2562 19.2752 12.3687ZM27.6564 14.6562V16.0937H23.6252H19.5939L19.5752 14.7812C19.5689 14.0562 19.5752 13.4062 19.5939 13.325L19.6252 13.1875L23.6439 13.2L27.6564 13.2187V14.6562Z" fill="#EC1B24"/>
<path d="M4.5 16.25C4.34375 16.4062 4.3375 16.6937 4.49375 16.8812C4.6125 17.0312 4.63125 17.0312 5.75 17.0312H6.8875L7.0375 16.8563C7.21875 16.6437 7.225 16.5062 7.05625 16.2875L6.93125 16.125H5.775C4.70625 16.125 4.61875 16.1312 4.5 16.25Z" fill="#EC1B24"/>
<path d="M30.125 17.1875C30 17.3125 30 17.3937 30 23.825C30 29.9062 29.9937 30.3562 29.8875 30.5562C29.8313 30.675 29.7 30.8312 29.6063 30.9C29.4312 31.0312 29.3813 31.0312 23.6688 31.05C18.275 31.0625 17.8938 31.0562 17.6938 30.9562C17.275 30.7375 17.2188 30.5937 17.2 29.625C17.1812 28.875 17.1625 28.75 17.0563 28.6312C16.875 28.4375 16.5437 28.4562 16.3813 28.6625C16.2625 28.8125 16.25 28.9125 16.25 29.625C16.25 30.15 16.2812 30.525 16.3438 30.725C16.3938 30.8937 16.4375 31.0375 16.4375 31.05C16.4375 31.0562 13.1938 31.0562 9.2375 31.05L2.03125 31.0312L2 25.1687C1.96875 19.45 1.96875 19.3 1.85 19.2125C1.64375 19.0687 1.3375 19.1 1.19375 19.2875C1.0625 19.4562 1.0625 19.4812 1.0625 25.275C1.0625 30.7875 1.06875 31.1062 1.18125 31.3437C1.31875 31.6437 1.45625 31.775 1.76875 31.9062C1.96875 31.9875 3.50625 32 15.675 32C27.6313 32 29.3938 31.9875 29.6688 31.9062C30.0625 31.7875 30.5125 31.4 30.7375 30.975L30.9062 30.6562L30.925 24.025L30.9375 17.3937L30.8062 17.2312C30.6438 17.0187 30.3125 17 30.125 17.1875Z" fill="#EC1B24"/>
<path d="M19.3499 19.0625C19.0937 19.1438 18.7624 19.4875 18.6874 19.75C18.6062 20.0313 18.6062 20.9688 18.6874 21.25C18.7562 21.5063 19.0687 21.8375 19.3312 21.9313C19.4312 21.9688 19.7937 22 20.1499 22C21.3186 22 21.6249 21.6875 21.6249 20.4938C21.6249 19.675 21.4999 19.375 21.0624 19.1438C20.8311 19.0188 20.7061 19 20.1624 19.0063C19.8124 19.0063 19.4499 19.0375 19.3499 19.0625ZM20.6561 20.5V21.0313H20.1249H19.5937L19.5749 20.5688C19.5624 20.3125 19.5687 20.0688 19.5874 20.0188C19.6124 19.95 19.7437 19.9375 20.1374 19.95L20.6561 19.9688V20.5Z" fill="#EC1B24"/>
<path d="M22.8499 19.0625C22.5937 19.1438 22.2624 19.4875 22.1874 19.75C22.1062 20.0313 22.1062 20.9688 22.1874 21.25C22.2562 21.5063 22.5687 21.8375 22.8312 21.9313C22.9312 21.9688 23.2999 22 23.6499 22C24.8186 22 25.1249 21.6875 25.1249 20.4938C25.1249 19.675 24.9999 19.375 24.5624 19.1438C24.3311 19.0188 24.2061 19 23.6624 19.0063C23.3124 19.0063 22.9499 19.0375 22.8499 19.0625ZM24.1561 20.5V21.0313H23.6249H23.0937L23.0749 20.5688C23.0624 20.3125 23.0687 20.0688 23.0874 20.0188C23.1124 19.95 23.2437 19.9375 23.6374 19.95L24.1561 19.9688V20.5Z" fill="#EC1B24"/>
<path d="M26.3502 19.0625C26.094 19.1438 25.7627 19.4875 25.6877 19.75C25.6065 20.0438 25.6065 21.075 25.694 21.2938C25.7815 21.5313 26.0502 21.8125 26.294 21.9125C26.4252 21.9688 26.7315 22 27.144 22C27.944 22 28.2502 21.8688 28.4815 21.4375C28.6065 21.2063 28.6252 21.075 28.6252 20.5C28.6252 19.675 28.5002 19.375 28.0627 19.1438C27.8315 19.0188 27.7065 19 27.1627 19.0063C26.8127 19.0063 26.4502 19.0375 26.3502 19.0625ZM27.6565 20.5V21.0313H27.1252H26.594L26.5752 20.5688C26.5627 20.3125 26.569 20.0688 26.5877 20.0188C26.6127 19.95 26.744 19.9375 27.1377 19.95L27.6565 19.9688V20.5Z" fill="#EC1B24"/>
<path d="M4.5 20.375C4.34375 20.5312 4.3375 20.8187 4.49375 21.0062C4.6125 21.1562 4.63125 21.1562 5.75 21.1562H6.8875L7.0375 20.9813C7.21875 20.7687 7.225 20.6312 7.05625 20.4125L6.93125 20.25H5.775C4.70625 20.25 4.61875 20.2562 4.5 20.375Z" fill="#EC1B24"/>
<path d="M19.3562 22.9062C18.7874 23.1062 18.6062 23.5 18.6374 24.45C18.6562 25.0312 18.6749 25.1312 18.8249 25.3562C19.0749 25.7312 19.2999 25.8125 20.1249 25.8125C20.9312 25.8125 21.1562 25.7375 21.4249 25.3875C21.5812 25.1812 21.5937 25.1125 21.6124 24.475C21.6249 24.0812 21.6062 23.6875 21.5687 23.5562C21.4812 23.275 21.1499 22.9687 20.8312 22.8812C20.4999 22.7875 19.6374 22.8 19.3562 22.9062ZM20.5874 23.7875C20.6687 23.8187 20.6874 23.9312 20.6874 24.35V24.8812L20.1437 24.8625L19.5937 24.8437L19.5749 24.35C19.5624 23.9937 19.5812 23.8375 19.6374 23.8062C19.7312 23.7437 20.4437 23.7312 20.5874 23.7875Z" fill="#EC1B24"/>
<path d="M22.8562 22.9062C22.2874 23.1062 22.1062 23.5 22.1374 24.45C22.1562 25.0312 22.1749 25.1312 22.3249 25.3562C22.5874 25.7562 22.8124 25.825 23.7062 25.8C24.3874 25.7812 24.4937 25.7625 24.6749 25.6375C25.0249 25.3812 25.1249 25.1 25.1249 24.3437C25.1249 23.925 25.0937 23.6062 25.0374 23.4812C24.9312 23.2187 24.6249 22.9625 24.3249 22.875C23.9999 22.7875 23.1374 22.8 22.8562 22.9062ZM24.0874 23.7875C24.1687 23.8187 24.1874 23.9312 24.1874 24.35V24.8812L23.6437 24.8625L23.0937 24.8437L23.0749 24.35C23.0624 23.9937 23.0812 23.8375 23.1374 23.8062C23.2312 23.7437 23.9437 23.7312 24.0874 23.7875Z" fill="#EC1B24"/>
<path d="M26.6562 22.8375C26.625 22.85 26.5188 22.8812 26.425 22.9C26.1813 22.9562 25.875 23.2375 25.7437 23.5312C25.6375 23.7625 25.625 23.9875 25.625 26.2375C25.625 28.875 25.6313 28.9562 25.9563 29.3C26.2312 29.5937 26.425 29.6562 27.125 29.6562C27.6187 29.6562 27.8312 29.6312 27.9688 29.55C28.2188 29.4187 28.475 29.1375 28.5563 28.9187C28.6 28.8062 28.625 27.8562 28.625 26.25C28.625 24.6437 28.6 23.6937 28.5563 23.5812C28.475 23.3625 28.2125 23.0812 27.9688 22.9562C27.8 22.8625 26.8125 22.775 26.6562 22.8375ZM27.5688 23.8125C27.6813 23.875 27.6875 23.9687 27.6875 26.25C27.6875 28.95 27.7313 28.75 27.125 28.75C26.5188 28.75 26.5625 28.95 26.5625 26.25C26.5625 24.0625 26.5688 23.875 26.675 23.8187C26.8125 23.7312 27.4125 23.7312 27.5688 23.8125Z" fill="#EC1B24"/>
<path d="M4.5 24.5C4.34375 24.6563 4.3375 24.9438 4.49375 25.1313C4.6125 25.275 4.64375 25.2813 5.7125 25.3L6.8125 25.3188L7 25.1313C7.21875 24.9125 7.2375 24.7625 7.05625 24.5375L6.93125 24.375H5.775C4.70625 24.375 4.61875 24.3813 4.5 24.5Z" fill="#EC1B24"/>
<path d="M19.3126 26.7312C19.0813 26.8187 18.8501 27.0375 18.7438 27.275C18.5626 27.6687 18.5751 28.6875 18.7688 29.0625C19.0188 29.5688 19.5126 29.7438 20.4438 29.6688C20.9251 29.625 21.1688 29.525 21.3938 29.25C21.6063 29.0062 21.6438 28.7812 21.6126 27.9875C21.5938 27.3812 21.5813 27.3187 21.4126 27.1C21.1501 26.7562 20.9376 26.6875 20.1126 26.6937C19.7251 26.6937 19.3626 26.7125 19.3126 26.7312ZM20.6876 28.15C20.6876 28.75 20.6876 28.75 20.1251 28.75C19.5626 28.75 19.5626 28.75 19.5626 28.1937C19.5626 27.925 19.5813 27.6875 19.6063 27.6687C19.6251 27.6437 19.8813 27.625 20.1688 27.625H20.6876V28.15Z" fill="#EC1B24"/>
<path d="M22.8126 26.7312C22.5813 26.8187 22.3501 27.0375 22.2438 27.275C22.0626 27.6687 22.0751 28.6875 22.2688 29.0625C22.5188 29.5688 23.0126 29.7438 23.9438 29.6688C24.4251 29.625 24.6688 29.525 24.8938 29.25C25.1063 29.0062 25.1438 28.7812 25.1126 27.9875C25.0938 27.3812 25.0813 27.3187 24.9126 27.1C24.6501 26.7562 24.4376 26.6875 23.6126 26.6937C23.2251 26.6937 22.8626 26.7125 22.8126 26.7312ZM24.1876 28.15C24.1876 28.75 24.1876 28.75 23.6251 28.75C23.0626 28.75 23.0626 28.75 23.0626 28.1937C23.0626 27.925 23.0813 27.6875 23.1063 27.6687C23.1251 27.6437 23.3813 27.625 23.6688 27.625H24.1876V28.15Z" fill="#EC1B24"/>
</svg>
