<svg width="30" height="26" viewBox="0 0 30 26" fill="none" xmlns="http://www.w3.org/2000/svg">
<path d="M21.3972 0.25C26.2831 0.25 29.1668 3.06151 29.1668 7.87422H23.1728V7.92333C20.3909 7.92333 18.1357 10.122 18.1357 12.8343C18.1357 15.5465 20.3909 17.7452 23.1728 17.7452H29.1668V18.1872C29.1668 22.9385 26.2831 25.75 21.3972 25.75H8.60313C3.7172 25.75 0.833496 22.9385 0.833496 18.1872L0.833496 7.81283C0.833496 3.06151 3.7172 0.25 8.60313 0.25L21.3972 0.25ZM28.1091 9.98592C28.6932 9.98592 29.1668 10.4476 29.1668 11.0172V14.6022C29.16 15.169 28.6904 15.6269 28.1091 15.6335H23.2861C21.8778 15.652 20.6463 14.7119 20.3268 13.3745C20.1669 12.5442 20.3914 11.6875 20.9403 11.034C21.4893 10.3804 22.3064 9.99677 23.1728 9.98592H28.1091ZM23.8528 11.6434H23.3868C23.1008 11.6401 22.8253 11.7486 22.6218 11.9446C22.4183 12.1407 22.3039 12.408 22.3039 12.6869C22.3038 13.2721 22.7867 13.7483 23.3868 13.7551H23.8528C24.4509 13.7551 24.9357 13.2823 24.9357 12.6992C24.9357 12.1161 24.4509 11.6434 23.8528 11.6434ZM15.5416 5.76252H7.54535C6.95213 5.76248 6.46928 6.22776 6.46238 6.80609C6.46238 7.39124 6.94521 7.86749 7.54535 7.87422H15.5416C16.1397 7.87422 16.6246 7.4015 16.6246 6.81837C16.6246 6.23524 16.1397 5.76252 15.5416 5.76252Z" fill="#A5A5A5"/>
</svg>
