<svg width="22" height="20" viewBox="0 0 22 20" fill="none" xmlns="http://www.w3.org/2000/svg">
<path d="M1.81445 16.6667H19.9604V18.3333H1.81445V16.6667ZM3.62905 10H5.44364V15.8333H3.62905V10ZM8.16554 10H9.98013V15.8333H8.16554V10ZM11.7947 10H13.6093V15.8333H11.7947V10ZM16.3312 10H18.1458V15.8333H16.3312V10ZM1.81445 5.83333L10.8874 1.66667L19.9604 5.83333V9.16667H1.81445V5.83333ZM10.8874 6.66667C11.1281 6.66667 11.3588 6.57887 11.529 6.42259C11.6991 6.26631 11.7947 6.05435 11.7947 5.83333C11.7947 5.61232 11.6991 5.40036 11.529 5.24408C11.3588 5.0878 11.1281 5 10.8874 5C10.6468 5 10.416 5.0878 10.2459 5.24408C10.0757 5.40036 9.98013 5.61232 9.98013 5.83333C9.98013 6.05435 10.0757 6.26631 10.2459 6.42259C10.416 6.57887 10.6468 6.66667 10.8874 6.66667Z" fill="#5C5C5C"/>
</svg>
