<svg width="30" height="34" viewBox="0 0 30 34" fill="none" xmlns="http://www.w3.org/2000/svg">
<path d="M2.18705 0.194302C1.67875 0.433956 1.20956 0.887356 0.96193 1.39258L0.772949 1.7812V13.0191V24.257L0.968447 24.6067C1.32686 25.2544 1.94593 25.6366 2.73444 25.6949C3.17757 25.7273 3.21667 25.7208 3.37306 25.5653C3.57508 25.3646 3.58811 25.1379 3.41868 24.9306C3.32745 24.814 3.21015 24.7751 2.86477 24.7363C2.34996 24.6845 1.98503 24.4772 1.82863 24.1404C1.72437 23.9331 1.71785 23.0263 1.71785 13.0061C1.71785 2.53256 1.72437 2.09211 1.84167 1.8395C2.40209 0.621792 4.16157 0.621792 4.722 1.84598C4.83929 2.09211 4.84581 2.71392 4.84581 16.8924C4.84581 27.5797 4.86536 31.7575 4.91749 31.9713C5.04782 32.47 5.25636 32.5931 6.54012 32.8975C7.1592 33.04 7.70659 33.1631 7.76524 33.1631C7.8304 33.1631 8.39735 33.04 9.03597 32.891L10.1959 32.619L11.3494 32.891C11.9815 33.04 12.5549 33.1631 12.6201 33.1631C12.6853 33.1631 13.2522 33.04 13.8778 32.891L15.0117 32.619L16.2238 32.904L17.4293 33.189L18.3547 32.9687C19.9969 32.5801 19.7427 32.5866 21.046 32.904C22.3559 33.2149 22.1669 33.2214 23.783 32.8392L24.7083 32.619L25.8422 32.891C26.4678 33.04 27.0348 33.1631 27.1064 33.1631C27.3345 33.1631 29.3156 32.6643 29.5241 32.5542C29.6479 32.4959 29.7978 32.334 29.8695 32.1915C29.9998 31.9389 29.9998 31.8352 29.9998 17.1126C29.9998 0.939175 30.0194 1.90427 29.6414 1.25008C29.4003 0.848495 28.9376 0.421001 28.514 0.213734L28.1426 0.0323715L15.3701 0.0129395L2.59759 -1.52588e-05L2.18705 0.194302ZM28.0774 1.08167C28.3837 1.2436 28.6965 1.56098 28.8659 1.87836C28.9832 2.09859 28.9897 2.61028 29.0093 16.9183C29.0223 31.0062 29.0158 31.7316 28.9115 31.7575C28.8464 31.7769 28.4098 31.8806 27.9406 31.9907L27.0869 32.1915L26.0247 31.9324C25.4382 31.7899 24.8387 31.6733 24.6953 31.6733C24.5519 31.6733 23.9459 31.7899 23.3529 31.9324L22.2646 32.1915L21.1959 31.9324C20.6094 31.7899 20.0034 31.6733 19.86 31.6733C19.7101 31.6733 19.1041 31.7899 18.5111 31.9324L17.4358 32.1915L16.3476 31.9324C15.7546 31.7899 15.1485 31.6733 15.0117 31.6733C14.8748 31.6733 14.2818 31.7899 13.6888 31.9324L12.6071 32.1915L11.5253 31.9324C10.9258 31.7899 10.3263 31.6733 10.1894 31.6733C10.0526 31.6733 9.45955 31.7899 8.86654 31.9324L7.78479 32.1915L6.8073 31.9583L5.8233 31.7251V16.8665C5.8233 2.38358 5.8233 1.99495 5.69948 1.65166C5.6278 1.45735 5.5105 1.21121 5.4323 1.1011L5.28894 0.906788L16.5561 0.919743L27.8167 0.939175L28.0774 1.08167Z" fill="white"/>
<path d="M24.5463 3.6079C24.5007 3.62085 24.4616 3.69858 24.4616 3.77631C24.4616 3.8929 24.3964 3.93824 24.0836 4.02892C23.458 4.21028 23.0931 4.67664 23.0931 5.27903C23.0931 5.86198 23.4059 6.26357 24.0966 6.5421L24.4616 6.69755V7.37118V8.04482L24.253 8.00596C24.1357 7.98652 23.9142 7.87641 23.7643 7.77277C23.445 7.53959 23.2039 7.52664 23.067 7.72096C22.9171 7.92823 22.9367 8.12255 23.1322 8.35573C23.3472 8.60834 23.5753 8.72493 24.051 8.82857C24.3508 8.89982 24.4355 8.94516 24.4485 9.05527C24.4876 9.33379 24.9177 9.28198 24.9177 9.00345C24.9177 8.92573 24.9959 8.86095 25.1654 8.80914C25.5955 8.67311 25.8692 8.44641 26.0516 8.09016C26.4622 7.27403 26.1103 6.41255 25.224 6.04982L24.9177 5.92676V5.32437C24.9177 4.74789 24.9243 4.72846 25.0676 4.72846C25.1458 4.73494 25.2827 4.7738 25.3739 4.82562C25.7323 5.02642 26.0907 4.86449 26.0907 4.49528C26.0907 4.24267 25.5955 3.95767 25.1328 3.95119C24.9634 3.95119 24.9177 3.92528 24.9177 3.82165C24.9177 3.71801 24.7288 3.54312 24.644 3.56903C24.631 3.56903 24.5854 3.58847 24.5463 3.6079ZM24.4616 5.24664V5.7713L24.2661 5.66767C23.8816 5.47335 23.8425 5.01346 24.1879 4.8321C24.2856 4.7738 24.3834 4.73494 24.416 4.72846C24.442 4.72846 24.4616 4.96164 24.4616 5.24664ZM25.3087 7.18334C25.426 7.40357 25.3869 7.70152 25.211 7.86993C24.9112 8.16789 24.8526 8.09664 24.8526 7.44891V6.85948L25.0481 6.96312C25.1523 7.01494 25.2696 7.11857 25.3087 7.18334Z" fill="white"/>
<path d="M8.18907 3.88639L8.03918 3.94469V6.33471C8.03918 8.10295 8.05873 8.7377 8.11738 8.79599C8.22165 8.89962 10.1506 8.89962 10.4568 8.80247C11.115 8.58225 11.4669 7.68841 11.2258 6.83992C11.1541 6.58732 10.8934 6.26994 10.711 6.20517C10.6393 6.18574 10.6654 6.12745 10.8218 5.96552C11.1737 5.61576 11.2649 4.98749 11.0433 4.49523C10.8869 4.15195 10.6523 3.97707 10.2483 3.89287C9.85731 3.80867 8.39108 3.80867 8.18907 3.88639ZM10.0984 4.81261C10.3004 5.05226 10.3069 5.37611 10.1049 5.60929C9.96809 5.76473 9.8964 5.78417 9.45328 5.81655L8.9515 5.84894V5.21419V4.58591L9.44676 4.61182C9.8964 4.63125 9.96157 4.65068 10.0984 4.81261ZM10.1115 6.60027C10.4829 6.80106 10.4568 7.81796 10.0724 8.02522C9.99415 8.06408 9.71394 8.09647 9.44676 8.09647H8.9515V7.28036V6.45778L9.46631 6.49664C9.74652 6.51607 10.0398 6.56141 10.1115 6.60027Z" fill="white"/>
<path d="M12.0995 3.88662L11.9496 3.94491V6.3415C11.9496 8.64741 11.9561 8.74457 12.0734 8.80934C12.2754 8.91298 12.6338 8.88707 12.7511 8.75752C12.8489 8.64741 12.8619 8.38832 12.8619 6.37389C12.8619 4.65741 12.8424 4.08093 12.7772 3.99673C12.6795 3.86071 12.3015 3.80241 12.0995 3.88662Z" fill="white"/>
<path d="M13.9035 3.86704C13.6493 3.95772 13.6428 4.04193 13.6428 6.34788C13.6428 8.27166 13.6559 8.60848 13.7471 8.73155C13.8448 8.86758 13.8774 8.87405 15.1416 8.87405H16.4449L16.4905 8.69269C16.5427 8.48541 16.5231 8.29109 16.4319 8.1745C16.3798 8.12268 16.1061 8.09677 15.4609 8.09677H14.5551V6.02401V3.95125L14.3857 3.88647C14.2098 3.81522 14.0599 3.80874 13.9035 3.86704Z" fill="white"/>
<path d="M17.175 3.92566L17.0316 4.02282V6.34804C17.0316 8.37533 17.0446 8.68622 17.1359 8.77042C17.2206 8.85462 17.4356 8.87405 18.4913 8.87405C19.8403 8.87405 19.8989 8.8611 19.8989 8.53078C19.8989 8.11625 19.8598 8.09682 18.8563 8.09682H17.9439V6.06306C17.9439 4.0293 17.9439 4.02282 17.8006 3.92566C17.7224 3.86737 17.579 3.82203 17.4878 3.82203C17.3965 3.82203 17.2532 3.86737 17.175 3.92566Z" fill="white"/>
<path d="M7.58277 14.3278C7.30907 14.6194 7.48502 15.0469 7.92163 15.1247C8.03893 15.1441 10.9714 15.1506 14.4382 15.1441L20.7398 15.1247L20.8831 14.9821C21.0591 14.8072 21.0721 14.4963 20.9092 14.3149C20.7919 14.1853 20.7202 14.1853 14.2558 14.1853H7.71962L7.58277 14.3278Z" fill="white"/>
<path d="M22.5126 14.3536C22.3367 14.5803 22.3432 14.7228 22.5322 14.9431L22.6886 15.1245H24.4611H26.2336L26.39 14.9431C26.579 14.7228 26.5855 14.5803 26.4095 14.3536L26.2792 14.1851H24.4611H22.643L22.5126 14.3536Z" fill="white"/>
<path d="M7.61555 18.363C7.52432 18.4472 7.45264 18.5962 7.45264 18.6869C7.45264 18.7775 7.52432 18.9265 7.61555 19.0107L7.77195 19.1727H14.2234C17.7684 19.1727 20.7204 19.1532 20.7791 19.1338C20.9615 19.0626 21.0788 18.7516 21.0071 18.5508C20.8638 18.1881 21.2287 18.2075 14.2429 18.2011H7.77195L7.61555 18.363Z" fill="white"/>
<path d="M22.5382 18.363C22.4469 18.4472 22.3752 18.5962 22.3752 18.6869C22.3752 18.7775 22.4469 18.9265 22.5382 19.0107L22.6946 19.1727H24.4605H26.2265L26.3829 19.0107C26.4742 18.9265 26.5459 18.7775 26.5459 18.6869C26.5459 18.5962 26.4742 18.4472 26.3829 18.363L26.2265 18.2011H24.4605H22.6946L22.5382 18.363Z" fill="white"/>
<path d="M7.59607 22.431C7.33541 22.7094 7.47226 23.1302 7.85674 23.2209C7.94145 23.2403 10.8739 23.2468 14.3733 23.2403L20.74 23.2209L20.8834 23.0784C21.0593 22.9036 21.0724 22.5929 20.9095 22.4116C20.7922 22.2821 20.7205 22.2821 14.2625 22.2821H7.73292L7.59607 22.431Z" fill="white"/>
<path d="M22.5121 22.4503C22.4339 22.5475 22.3752 22.664 22.3752 22.7094C22.3752 22.8972 22.5382 23.1239 22.7206 23.1886C22.9813 23.2728 25.9398 23.2728 26.2005 23.1886C26.3829 23.1239 26.5459 22.8972 26.5459 22.7094C26.5459 22.664 26.4872 22.5475 26.409 22.4503L26.2787 22.2819H24.4605H22.6424L22.5121 22.4503Z" fill="white"/>
<path d="M7.61555 26.4595C7.52432 26.5437 7.45264 26.6927 7.45264 26.7834C7.45264 26.874 7.52432 27.023 7.61555 27.1072L7.77195 27.2692H14.2234C17.7684 27.2692 20.7204 27.2497 20.7791 27.2303C20.8312 27.2044 20.9224 27.1072 20.9745 27.0101C21.0984 26.7769 21.0006 26.4724 20.7725 26.3688C20.6552 26.317 18.8501 26.2975 14.1908 26.2975H7.77195L7.61555 26.4595Z" fill="white"/>
</svg>
