<svg width="37" height="37" viewBox="0 0 37 37" fill="none" xmlns="http://www.w3.org/2000/svg">
<path d="M36.3551 24.9914C36.1956 25.8064 36.0847 26.6351 35.8657 27.4338C35.2843 29.5628 34.1622 31.3756 32.5722 32.8912C30.939 34.4504 29.0192 35.4754 26.8181 35.9579C25.3093 36.2877 23.7923 36.3204 22.2727 36.056C19.7498 35.6171 17.5812 34.4859 15.7695 32.6649C15.5397 32.436 15.3099 32.3542 14.9935 32.3569C12.3895 32.3705 9.78557 32.3678 7.18161 32.3624C5.20498 32.3569 3.75834 30.8467 3.83675 28.8568C3.8692 28.0117 4.22883 27.2975 4.82372 26.7033C4.8832 26.6433 4.94269 26.5888 4.99948 26.5288C5.00488 26.5234 5.00488 26.507 5.00488 26.4961C3.42034 25.0459 3.43115 22.7779 5.00488 21.3413C3.40952 19.8802 3.43926 17.6122 5.02111 16.1702C4.45327 15.6577 4.04496 15.0471 3.89624 14.2811C3.49875 12.223 4.99136 10.353 7.07074 10.3149C7.67103 10.304 8.27132 10.3121 8.88513 10.3121C8.1902 8.80197 8.18209 8.1014 8.88513 6.58577C8.74452 6.58577 8.61744 6.58577 8.49305 6.58577C6.75167 6.58577 5.013 6.59667 3.27162 6.58304C1.17872 6.56669 -0.313896 4.7294 0.0565529 2.65495C0.321546 1.17476 1.65732 0.0407615 3.20131 0.00805009C3.94762 -0.00830561 4.69392 0.00532408 5.43752 0.00532408C10.4805 0.00532408 15.5235 0.00259819 20.5664 0.00805009C22.5728 0.010776 24.0519 1.57275 23.9005 3.57905C23.8599 4.10788 23.6247 4.62036 23.4732 5.1601C23.549 5.1601 23.676 5.1601 23.8004 5.1601C25.5418 5.1601 27.2805 5.14919 29.0219 5.16282C31.1039 5.17918 32.5912 6.98376 32.245 9.05276C31.9936 10.5548 30.6578 11.7051 29.0976 11.7405C28.4865 11.7542 27.8727 11.7433 27.2399 11.7433C27.3481 12.114 27.5184 12.3375 27.8808 12.4575C32.0476 13.8641 34.7327 16.7181 35.9549 20.9624C36.1199 21.5294 36.174 22.1291 36.2794 22.7152C36.301 22.8297 36.3281 22.9442 36.3551 23.0587C36.3551 23.7047 36.3551 24.3481 36.3551 24.9914ZM24.2331 34.8021C30.0061 34.7721 34.8625 30.2416 34.9166 24.1273C34.968 18.3074 30.409 13.3816 24.3277 13.338C18.5574 13.2943 13.6956 17.8903 13.6442 23.9964C13.5901 29.8245 18.1572 34.6876 24.2331 34.8021ZM11.9947 1.43372C11.3809 1.43372 10.7644 1.43372 10.1506 1.43372C7.90358 1.43372 5.65655 1.42827 3.40682 1.43645C1.96828 1.4419 1.06244 2.68766 1.54646 3.97431C1.83308 4.73212 2.5199 5.1601 3.46901 5.1601C9.12308 5.1601 14.7772 5.1601 20.4312 5.1601C20.5151 5.1601 20.5962 5.16282 20.68 5.15465C21.8833 5.06742 22.6702 4.07517 22.4484 2.92754C22.27 2.0089 21.5182 1.43372 20.4772 1.43372C17.6515 1.431 14.8231 1.43372 11.9947 1.43372ZM20.3717 6.5885C19.5903 6.5885 18.8115 6.5885 18.0301 6.5885C15.948 6.5885 13.8659 6.58304 11.7838 6.59122C10.3615 6.59667 9.46108 7.81517 9.92077 9.0991C10.1993 9.87599 10.8915 10.3149 11.8568 10.3149C17.5109 10.3149 23.165 10.3149 28.8191 10.3149C28.9029 10.3149 28.984 10.3176 29.0678 10.3094C30.2711 10.2195 31.0553 9.22722 30.8308 8.07959C30.6497 7.16367 29.898 6.59122 28.8542 6.5885C26.0258 6.5885 23.2001 6.5885 20.3717 6.5885ZM24.9794 11.9423C24.9821 11.9014 24.9821 11.8578 24.9848 11.8169C24.7333 11.7923 24.4818 11.7487 24.2277 11.7487C18.5979 11.746 12.9655 11.746 7.33574 11.746C7.2411 11.746 7.14646 11.7433 7.05182 11.7514C5.8242 11.8496 5.03733 12.8936 5.31314 14.0603C5.51324 14.9135 6.26495 15.4696 7.24921 15.4696C9.83965 15.4751 12.4301 15.4587 15.0205 15.4833C15.5154 15.4887 15.8723 15.3524 16.24 15.0144C18.2194 13.2017 20.5583 12.1849 23.2191 11.9504C23.8031 11.8986 24.3926 11.9423 24.9794 11.9423ZM14.4202 16.9144C14.4175 16.9144 14.3959 16.9008 14.3743 16.9008C11.9623 16.9008 9.55032 16.8871 7.13834 16.9035C6.05404 16.9117 5.23743 17.7513 5.24824 18.7735C5.26176 19.8039 6.07297 20.6081 7.16268 20.619C8.92569 20.6353 10.686 20.6217 12.449 20.6271C12.6356 20.6271 12.7167 20.5644 12.7735 20.3927C12.8979 20.022 13.0114 19.6431 13.1845 19.2914C13.5766 18.4982 13.9984 17.7186 14.4202 16.9144ZM14.2418 30.9258C14.2418 30.8767 14.2499 30.8467 14.2418 30.8304C13.5495 29.7564 13.0141 28.606 12.6491 27.3766C12.6275 27.303 12.4869 27.2158 12.4003 27.2158C10.6373 27.2076 8.87432 27.1858 7.1113 27.2185C5.87557 27.2403 5.06167 28.2898 5.30232 29.4674C5.48349 30.3506 6.2325 30.9312 7.22758 30.934C9.48813 30.9394 11.7487 30.9367 14.0092 30.9367C14.0876 30.9367 14.1661 30.9285 14.2418 30.9258ZM12.276 25.7819C12.276 24.5143 12.276 23.2986 12.276 22.0692C12.2868 22.0719 12.2651 22.061 12.2408 22.061C10.5373 22.0583 8.83646 22.0474 7.13294 22.0664C6.84631 22.0692 6.54076 22.1482 6.28117 22.2709C5.50242 22.6362 5.12386 23.4649 5.30232 24.3208C5.47808 25.1659 6.19465 25.7519 7.12482 25.7765C7.82246 25.7955 8.52009 25.7819 9.21772 25.7819C10.2344 25.7819 11.2484 25.7819 12.276 25.7819Z" fill="white"/>
<path d="M25.0039 28.8159C24.9606 29.5056 24.7389 29.8163 24.3008 29.8381C23.8601 29.8599 23.6221 29.5465 23.541 28.8132C22.7974 28.6087 22.1322 28.2353 21.7483 27.5402C21.5211 27.1285 21.3913 26.6406 21.3156 26.1717C21.2453 25.7383 21.5536 25.4221 21.9538 25.3839C22.3323 25.3485 22.6838 25.6347 22.7082 26.0709C22.7704 27.2812 24.217 27.7991 25.1904 27.1885C25.6636 26.8914 25.907 26.368 25.8042 25.8855C25.6798 25.294 25.1931 24.8524 24.5658 24.7733C23.9817 24.6997 23.3923 24.6752 22.8515 24.389C21.8104 23.841 21.2291 22.8406 21.3075 21.6739C21.3751 20.6789 22.1701 19.6785 23.1976 19.3432C23.4761 19.2533 23.5924 19.1415 23.5843 18.8307C23.5734 18.4273 23.9141 18.1247 24.2873 18.1302C24.6469 18.1356 24.993 18.43 24.9741 18.8117C24.9579 19.1715 25.1255 19.256 25.4122 19.3568C26.4694 19.7276 27.2482 20.7961 27.259 21.8375C27.2644 22.2927 27.0183 22.6035 26.6235 22.6362C26.1882 22.6743 25.9043 22.4317 25.8475 21.9465C25.7745 21.3114 25.45 20.8834 24.8497 20.6871C24.2359 20.4854 23.6492 20.5644 23.1597 21.0088C22.7677 21.3631 22.6081 21.8184 22.8028 22.3363C23.0272 22.9333 23.5031 23.2277 24.1115 23.274C24.8416 23.3313 25.5419 23.454 26.1395 23.9201C26.9724 24.5689 27.3888 25.4248 27.2319 26.4798C27.067 27.5865 26.3775 28.3061 25.3527 28.7096C25.2391 28.7478 25.1255 28.7777 25.0039 28.8159Z" fill="white"/>
<path d="M15.045 24.1164C15.045 22.6008 15.3938 21.1697 16.0617 19.8121C16.2753 19.376 16.6701 19.207 17.0513 19.3869C17.4163 19.5586 17.5299 19.943 17.3758 20.3928C17.1081 21.1751 16.7674 21.9493 16.616 22.7562C16.1752 25.1359 16.8134 27.2594 18.3195 29.124C18.9684 29.9309 19.7661 30.5606 20.68 31.0376C20.7638 31.0812 20.8477 31.1248 20.9261 31.1794C21.2938 31.4274 21.402 31.82 21.2019 32.1689C21.0099 32.5096 20.6043 32.6214 20.2095 32.4197C18.214 31.4056 16.7458 29.8791 15.8291 27.821C15.3073 26.6461 15.0531 25.4085 15.045 24.1164Z" fill="white"/>
<path d="M33.5509 24.0074C33.5103 25.5394 33.1588 26.9841 32.4801 28.3471C32.2827 28.7451 31.9014 28.9086 31.539 28.756C31.1713 28.6006 31.0307 28.1972 31.174 27.7637C31.4444 26.9568 31.7959 26.1609 31.9474 25.3295C32.3827 22.947 31.7283 20.8289 30.2167 18.9698C29.5705 18.1766 28.7836 17.555 27.8777 17.0834C27.8155 17.0507 27.7506 17.018 27.6911 16.9799C27.2801 16.7263 27.1503 16.3502 27.3396 15.9849C27.537 15.6087 27.948 15.4915 28.3806 15.7205C31.1064 17.1598 32.7937 19.3896 33.3643 22.4508C33.4617 22.9633 33.4914 23.4894 33.5509 24.0074Z" fill="white"/>
<path d="M25.3606 14.7555C25.7635 14.7528 26.0988 15.0744 26.1015 15.4642C26.1069 15.8513 25.7716 16.1784 25.3714 16.1839C24.9631 16.1866 24.6413 15.8758 24.6386 15.4751C24.6359 15.0744 24.955 14.7582 25.3606 14.7555Z" fill="white"/>
</svg>
