<svg width="18" height="23" viewBox="0 0 18 23" fill="none" xmlns="http://www.w3.org/2000/svg">
<path d="M11.1552 6.45823L10.9149 6H8.99297H7.07101L6.91084 6.53461C6.43035 7.83294 5.46937 8.97852 4.18806 9.81862C-0.696927 12.9499 0.183972 19.3652 5.7897 21.4272C7.87182 22.1909 10.1942 22.1909 12.1962 21.4272C17.802 19.3652 18.6829 12.8735 13.878 9.74224C12.5966 8.90215 11.6357 7.83294 11.1552 6.45823Z" stroke="#E6FFF2" stroke-miterlimit="10" stroke-linecap="round" stroke-linejoin="round"/>
<path d="M5 1L7 6" stroke="#E6FFF2" stroke-miterlimit="10" stroke-linecap="round" stroke-linejoin="round"/>
<path d="M6 2L6.75 1.29032C7.15909 0.903226 7.84091 0.903226 8.25 1.29032C8.65909 1.67742 9.34091 1.67742 9.75 1.29032C10.1591 0.903226 10.8409 0.903226 11.25 1.29032L12 2" stroke="#E6FFF2" stroke-miterlimit="10" stroke-linecap="round" stroke-linejoin="round"/>
<path d="M13 6H11L13 1" stroke="#E6FFF2" stroke-miterlimit="10" stroke-linecap="round" stroke-linejoin="round"/>
<path d="M9 11V12" stroke="#E6FFF2" stroke-miterlimit="10" stroke-linecap="round" stroke-linejoin="round"/>
<path d="M10 12H8.5C7.7 12 7 12.5833 7 13.25C7 13.9167 7.7 14.5 8.5 14.5H9.5C10.3 14.5 11 15.0833 11 15.75C11 16.4167 10.3 17 9.5 17H8" stroke="#E6FFF2" stroke-miterlimit="10" stroke-linecap="round" stroke-linejoin="round"/>
</svg>
