<svg width="52" height="52" viewBox="0 0 52 52" fill="none" xmlns="http://www.w3.org/2000/svg">
<rect width="52" height="52" rx="6" fill="#587498"/>
<path d="M37.7045 15.8261H14.1596C12.9689 15.8261 12 16.9213 12 18.2673V19.8989V23.4148V33.9858C12 35.3318 12.9689 36.4268 14.1596 36.4268H37.7045C38.8952 36.4268 39.8637 35.3318 39.8637 33.9858V23.4148V19.8989V18.2673C39.8637 16.9213 38.8952 15.8261 37.7045 15.8261ZM12.8965 18.2673C12.8968 17.4799 13.463 16.8399 14.1593 16.8399H37.7042C38.4004 16.8399 38.9666 17.4803 38.9666 18.2673V19.392H12.8965V18.2673ZM38.9669 33.9855C38.9669 34.7722 38.4004 35.4126 37.7045 35.4126H14.1596C13.4633 35.4126 12.8968 34.7722 12.8968 33.9855V23.9214H38.9669V33.9855ZM38.9669 22.9076H12.8968V20.4055H38.9669V22.9076Z" fill="white"/>
<path d="M16.3337 33.4144C17.1961 33.4144 17.8975 32.6219 17.8975 31.648C17.8975 30.6734 17.1961 29.8802 16.3337 29.8802C15.4718 29.8802 14.7705 30.6734 14.7705 31.648C14.7705 32.6219 15.4718 33.4144 16.3337 33.4144ZM16.3337 30.8941C16.7014 30.8941 17.0006 31.2323 17.0006 31.648C17.0006 32.063 16.7014 32.4006 16.3337 32.4006C15.9663 32.4006 15.6673 32.063 15.6673 31.648C15.6673 31.2323 15.9663 30.8941 16.3337 30.8941Z" fill="white"/>
<path d="M19.6779 32.2144H32.3125C32.5603 32.2144 32.7609 31.9876 32.7609 31.7075C32.7609 31.4273 32.5603 31.2006 32.3125 31.2006H19.6779C19.4301 31.2006 19.2295 31.4273 19.2295 31.7075C19.2295 31.9876 19.4301 32.2144 19.6779 32.2144Z" fill="white"/>
</svg>
