<svg width="22" height="22" viewBox="0 0 22 22" fill="none" xmlns="http://www.w3.org/2000/svg">
<g clip-path="url(#clip0)">
<path d="M21.082 20.1678H2.40602L5.80914 13.3616L10.412 17.2047C10.5138 17.2895 10.6328 17.3513 10.7607 17.3858C10.8887 17.4202 11.0226 17.4266 11.1533 17.4044C11.2839 17.3822 11.4082 17.3319 11.5176 17.2571C11.627 17.1823 11.7189 17.0846 11.787 16.9709L17.1873 7.98874L17.6376 9.39468C17.6966 9.58002 17.8129 9.74182 17.9699 9.85674C18.1268 9.97166 18.3162 10.0338 18.5107 10.0341C18.6053 10.0343 18.6994 10.0193 18.7891 9.98937C19.02 9.91444 19.2119 9.75146 19.3232 9.53584C19.4346 9.32023 19.4564 9.06938 19.3838 8.8378L18.2185 5.27312C18.1822 5.1583 18.1235 5.05179 18.0459 4.9597C17.9683 4.86762 17.8733 4.79177 17.7663 4.73651C17.6593 4.68125 17.5424 4.64768 17.4224 4.63771C17.3024 4.62774 17.1816 4.64158 17.067 4.67843L13.5882 5.78874C13.3688 5.87216 13.1896 6.03648 13.0877 6.24793C12.9857 6.45937 12.9686 6.70185 13.0399 6.92551C13.1112 7.14917 13.2655 7.337 13.4711 7.45036C13.6767 7.56373 13.9179 7.59401 14.1451 7.53499L15.5854 7.0778L10.766 15.125L6.08758 11.2131C5.98115 11.1249 5.85623 11.0618 5.72208 11.0284C5.58793 10.995 5.44799 10.9922 5.31263 11.0203C5.17727 11.0484 5.04995 11.1065 4.94013 11.1905C4.83031 11.2744 4.74079 11.382 4.6782 11.5053L1.83195 17.1875V0.917803C1.83961 0.79278 1.82161 0.667512 1.77903 0.549711C1.73646 0.43191 1.67022 0.324071 1.58441 0.232831C1.49859 0.141592 1.395 0.0688848 1.28002 0.0191856C1.16505 -0.0305135 1.04112 -0.0561523 0.915859 -0.0561523C0.790602 -0.0561523 0.66667 -0.0305135 0.551694 0.0191856C0.436718 0.0688848 0.333132 0.141592 0.247313 0.232831C0.161494 0.324071 0.0952594 0.43191 0.0526865 0.549711C0.0101135 0.667512 -0.00789636 0.79278 -0.00023431 0.917803V21.0822C0.0054918 21.125 0.0135243 21.1674 0.0238282 21.2094C0.0302525 21.276 0.044088 21.3417 0.0650782 21.4053C0.0890317 21.4582 0.117798 21.5089 0.151016 21.5566C0.178671 21.6075 0.210886 21.6558 0.247266 21.7009C0.294225 21.7466 0.346105 21.787 0.401953 21.8212C0.433913 21.8516 0.468414 21.8792 0.505078 21.9037H0.542891L0.594453 21.9209C0.696059 21.9623 0.804456 21.9844 0.914141 21.9862H21.082C21.207 21.9939 21.3322 21.9759 21.45 21.9333C21.5678 21.8907 21.6757 21.8245 21.7669 21.7387C21.8582 21.6529 21.9309 21.5493 21.9806 21.4343C22.0303 21.3193 22.0559 21.1954 22.0559 21.0701C22.0559 20.9449 22.0303 20.821 21.9806 20.706C21.9309 20.591 21.8582 20.4874 21.7669 20.4016C21.6757 20.3158 21.5678 20.2495 21.45 20.207C21.3322 20.1644 21.207 20.1464 21.082 20.1541V20.1678Z" fill="white"/>
</g>
<defs>
<clipPath id="clip0">
<rect width="22" height="22" fill="white"/>
</clipPath>
</defs>
</svg>
