<svg width="22" height="22" viewBox="0 0 22 22" fill="none" xmlns="http://www.w3.org/2000/svg">
<path d="M6.2 21.9C6.28655 21.9649 6.39182 22 6.5 22C6.63261 22 6.75979 21.9473 6.85355 21.8536C6.94732 21.7598 7 21.6326 7 21.5V19H16.5C16.6326 19 16.7598 18.9473 16.8536 18.8536C16.9473 18.7598 17 18.6326 17 18.5C17 18.3674 16.9473 18.2402 16.8536 18.1464C16.7598 18.0527 16.6326 18 16.5 18H6.5C6.36739 18 6.24022 18.0527 6.14645 18.1464C6.05268 18.2402 6 18.3674 6 18.5V20.5L1.3335 17L6 13.5V15.5C6 15.6326 6.05268 15.7598 6.14645 15.8536C6.24022 15.9473 6.36739 16 6.5 16H20.5C20.6326 16 20.7598 15.9473 20.8536 15.8536C20.9473 15.7598 21 15.6326 21 15.5V8.5C21 8.36739 20.9473 8.24021 20.8536 8.14645C20.7598 8.05268 20.6326 8 20.5 8C20.3674 8 20.2402 8.05268 20.1464 8.14645C20.0527 8.24021 20 8.36739 20 8.5V15H7V12.5C7 12.4071 6.97414 12.3161 6.92533 12.2371C6.87651 12.1581 6.80666 12.0943 6.72361 12.0528C6.64055 12.0113 6.54758 11.9937 6.4551 12.002C6.36262 12.0104 6.27429 12.0443 6.2 12.1L0.2 16.6C0.137902 16.6466 0.0875002 16.707 0.0527864 16.7764C0.0180725 16.8458 0 16.9224 0 17C0 17.0776 0.0180725 17.1542 0.0527864 17.2236C0.0875002 17.293 0.137902 17.3534 0.2 17.4L6.2 21.9Z" fill="#0C78D8"/>
<path d="M12.5 9.5C12.6326 9.5 12.7598 9.44732 12.8536 9.35355C12.9473 9.25979 13 9.13261 13 9C13 8.86739 12.9473 8.74021 12.8536 8.64645C12.7598 8.55268 12.6326 8.5 12.5 8.5H11.5V8C11.5 7.86739 11.4473 7.74021 11.3536 7.64645C11.2598 7.55268 11.1326 7.5 11 7.5C10.8674 7.5 10.7402 7.55268 10.6464 7.64645C10.5527 7.74021 10.5 7.86739 10.5 8V8.5H9.5C9.36739 8.5 9.24021 8.55268 9.14645 8.64645C9.05268 8.74021 9 8.86739 9 9V11C9 11.1326 9.05268 11.2598 9.14645 11.3536C9.24021 11.4473 9.36739 11.5 9.5 11.5H12V12.5H9.5C9.36739 12.5 9.24021 12.5527 9.14645 12.6464C9.05268 12.7402 9 12.8674 9 13C9 13.1326 9.05268 13.2598 9.14645 13.3536C9.24021 13.4473 9.36739 13.5 9.5 13.5H10.5V14C10.5 14.1326 10.5527 14.2598 10.6464 14.3536C10.7402 14.4473 10.8674 14.5 11 14.5C11.1326 14.5 11.2598 14.4473 11.3536 14.3536C11.4473 14.2598 11.5 14.1326 11.5 14V13.5H12.5C12.6326 13.5 12.7598 13.4473 12.8536 13.3536C12.9473 13.2598 13 13.1326 13 13V11C13 10.8674 12.9473 10.7402 12.8536 10.6464C12.7598 10.5527 12.6326 10.5 12.5 10.5H10V9.5H12.5Z" fill="#0C78D8"/>
<path d="M15.2765 9.95C15.3598 9.99112 15.4529 10.0082 15.5454 9.99938C15.6378 9.99055 15.726 9.95614 15.8 9.9L21.8 5.4C21.8621 5.35343 21.9125 5.29303 21.9472 5.22361C21.9819 5.15418 22 5.07762 22 5C22 4.92238 21.9819 4.84582 21.9472 4.77639C21.9125 4.70697 21.8621 4.64657 21.8 4.6L15.8 0.1C15.7257 0.0442867 15.6374 0.0103596 15.5449 0.00202058C15.4524 -0.0063184 15.3594 0.0112601 15.2764 0.0527866C15.1933 0.094313 15.1235 0.158147 15.0747 0.237135C15.0259 0.316123 15 0.407144 15 0.5V3H5.5C5.36739 3 5.24021 3.05268 5.14645 3.14645C5.05268 3.24022 5 3.36739 5 3.5C5 3.63261 5.05268 3.75979 5.14645 3.85355C5.24021 3.94732 5.36739 4 5.5 4H15.5C15.6326 4 15.7598 3.94732 15.8536 3.85355C15.9473 3.75979 16 3.63261 16 3.5V1.5L20.6665 5L16 8.5V6.5C16 6.36739 15.9473 6.24022 15.8536 6.14645C15.7598 6.05268 15.6326 6 15.5 6H1.5C1.36739 6 1.24021 6.05268 1.14645 6.14645C1.05268 6.24022 1 6.36739 1 6.5V13.5C1 13.6326 1.05268 13.7598 1.14645 13.8536C1.24021 13.9473 1.36739 14 1.5 14C1.63261 14 1.75979 13.9473 1.85355 13.8536C1.94732 13.7598 2 13.6326 2 13.5V7H15V9.5C14.9995 9.59334 15.0251 9.68496 15.074 9.76449C15.1228 9.84402 15.193 9.90828 15.2765 9.95Z" fill="#0C78D8"/>
</svg>
