<svg width="52" height="52" viewBox="0 0 52 52" fill="none" xmlns="http://www.w3.org/2000/svg">
<rect width="52" height="52" rx="2" fill="#07C963"/>
<path d="M40.9477 31.4732C40.8147 32.1528 40.7223 32.8437 40.5397 33.5096C40.055 35.2847 39.1193 36.7961 37.7937 38.0598C36.432 39.3598 34.8313 40.2144 32.9961 40.6167C31.7381 40.8917 30.4734 40.9189 29.2063 40.6985C27.1029 40.3326 25.2948 39.3894 23.7843 37.8711C23.5926 37.6802 23.401 37.612 23.1372 37.6143C20.9661 37.6257 18.7951 37.6234 16.624 37.6188C14.9759 37.6143 13.7698 36.3552 13.8352 34.696C13.8622 33.9915 14.1621 33.396 14.6581 32.9005C14.7077 32.8505 14.7573 32.8051 14.8046 32.7551C14.8091 32.7505 14.8091 32.7369 14.8091 32.7278C13.488 31.5187 13.497 29.6277 14.8091 28.4299C13.479 27.2117 13.5038 25.3208 14.8226 24.1185C14.3492 23.6912 14.0088 23.1821 13.8848 22.5434C13.5534 20.8275 14.7978 19.2683 16.5315 19.2365C17.032 19.2274 17.5325 19.2342 18.0443 19.2342C17.4649 17.9751 17.4581 17.391 18.0443 16.1273C17.9271 16.1273 17.8211 16.1273 17.7174 16.1273C16.2655 16.1273 14.8159 16.1364 13.364 16.125C11.619 16.1114 10.3745 14.5795 10.6834 12.8499C10.9043 11.6158 12.018 10.6703 13.3054 10.6431C13.9276 10.6294 14.5498 10.6408 15.1698 10.6408C19.3745 10.6408 23.5791 10.6385 27.7837 10.6431C29.4566 10.6453 30.6898 11.9476 30.5635 13.6204C30.5297 14.0613 30.3336 14.4886 30.2073 14.9386C30.2704 14.9386 30.3764 14.9386 30.4801 14.9386C31.932 14.9386 33.3817 14.9296 34.8335 14.9409C36.5695 14.9546 37.8095 16.4591 37.5209 18.1842C37.3112 19.4365 36.1975 20.3956 34.8967 20.4252C34.3872 20.4365 33.8754 20.4274 33.3478 20.4274C33.438 20.7365 33.58 20.9229 33.8822 21.0229C37.3563 22.1957 39.595 24.5753 40.6141 28.114C40.7516 28.5868 40.7967 29.0868 40.8846 29.5754C40.9027 29.6709 40.9252 29.7663 40.9477 29.8618C40.9477 30.4005 40.9477 30.9368 40.9477 31.4732ZM30.8408 39.653C35.6542 39.628 39.7033 35.8506 39.7483 30.7527C39.7912 25.9003 35.9901 21.7934 30.9197 21.757C26.1086 21.7207 22.0551 25.5526 22.0122 30.6436C21.9671 35.5029 25.775 39.5575 30.8408 39.653ZM20.637 11.8317C20.1252 11.8317 19.6112 11.8317 19.0994 11.8317C17.2259 11.8317 15.3524 11.8272 13.4767 11.834C12.2773 11.8386 11.5221 12.8772 11.9256 13.95C12.1646 14.5818 12.7372 14.9386 13.5286 14.9386C18.2427 14.9386 22.9569 14.9386 27.671 14.9386C27.7409 14.9386 27.8085 14.9409 27.8784 14.9341C28.8817 14.8614 29.5377 14.0341 29.3529 13.0772C29.2041 12.3113 28.5773 11.8317 27.7093 11.8317C25.3534 11.8295 22.9952 11.8317 20.637 11.8317ZM27.6214 16.1296C26.9699 16.1296 26.3206 16.1296 25.669 16.1296C23.9331 16.1296 22.1971 16.125 20.4611 16.1319C19.2753 16.1364 18.5245 17.1523 18.9078 18.2228C19.14 18.8706 19.7171 19.2365 20.522 19.2365C25.2362 19.2365 29.9503 19.2365 34.6645 19.2365C34.7344 19.2365 34.802 19.2388 34.8719 19.232C35.8751 19.1569 36.5289 18.3297 36.3418 17.3728C36.1908 16.6091 35.564 16.1319 34.6938 16.1296C32.3356 16.1296 29.9796 16.1296 27.6214 16.1296ZM31.4631 20.5934C31.4653 20.5593 31.4653 20.5229 31.4676 20.4888C31.2579 20.4683 31.0482 20.432 30.8363 20.432C26.1425 20.4297 21.4463 20.4297 16.7525 20.4297C16.6736 20.4297 16.5947 20.4274 16.5158 20.4343C15.4922 20.5161 14.8362 21.3866 15.0661 22.3593C15.233 23.0707 15.8597 23.5343 16.6803 23.5343C18.8402 23.5389 21 23.5253 23.1598 23.5457C23.5723 23.5503 23.8699 23.4366 24.1765 23.1548C25.8268 21.6434 27.777 20.7956 29.9954 20.6002C30.4824 20.557 30.9738 20.5934 31.4631 20.5934ZM22.6593 24.7389C22.657 24.7389 22.639 24.7276 22.6209 24.7276C20.6099 24.7276 18.5989 24.7162 16.5879 24.7298C15.6839 24.7367 15.003 25.4367 15.012 26.289C15.0233 27.1481 15.6996 27.8186 16.6082 27.8277C18.0781 27.8413 19.5458 27.8299 21.0157 27.8345C21.1713 27.8345 21.2389 27.7822 21.2863 27.639C21.39 27.3299 21.4847 27.014 21.629 26.7208C21.9559 26.0594 22.3076 25.4094 22.6593 24.7389ZM22.5105 36.4211C22.5105 36.3802 22.5172 36.3552 22.5105 36.3415C21.9333 35.4461 21.4869 34.4869 21.1826 33.4619C21.1645 33.4005 21.0473 33.3278 20.9752 33.3278C19.5052 33.321 18.0353 33.3028 16.5654 33.3301C15.5351 33.3483 14.8565 34.2233 15.0571 35.2051C15.2082 35.9415 15.8327 36.4256 16.6623 36.4279C18.5471 36.4325 20.4318 36.4302 22.3166 36.4302C22.382 36.4302 22.4473 36.4234 22.5105 36.4211ZM20.8715 32.1323C20.8715 31.0755 20.8715 30.0618 20.8715 29.0368C20.8805 29.0391 20.8624 29.03 20.8421 29.03C19.4218 29.0277 18.0037 29.0186 16.5834 29.0345C16.3444 29.0368 16.0897 29.1027 15.8732 29.205C15.2239 29.5095 14.9083 30.2005 15.0571 30.9141C15.2036 31.6187 15.8011 32.1073 16.5766 32.1278C17.1583 32.1437 17.74 32.1323 18.3216 32.1323C19.1693 32.1323 20.0147 32.1323 20.8715 32.1323Z" fill="white"/>
<path d="M31.4835 34.6619C31.4474 35.237 31.2625 35.4961 30.8973 35.5142C30.5298 35.5324 30.3314 35.2711 30.2638 34.6597C29.6438 34.4892 29.0892 34.1778 28.7691 33.5983C28.5797 33.2551 28.4715 32.8483 28.4084 32.4573C28.3498 32.096 28.6068 31.8323 28.9404 31.8005C29.2561 31.771 29.5491 32.0096 29.5694 32.3732C29.6213 33.3824 30.8274 33.8142 31.639 33.3051C32.0336 33.0574 32.2365 32.621 32.1508 32.2187C32.0471 31.7255 31.6413 31.3573 31.1183 31.2914C30.6313 31.23 30.1398 31.2096 29.6889 30.9709C28.8209 30.5141 28.3362 29.68 28.4016 28.7072C28.458 27.8777 29.1208 27.0435 29.9775 26.764C30.2097 26.689 30.3066 26.5958 30.2999 26.3367C30.2909 26.0003 30.5749 25.748 30.886 25.7526C31.1859 25.7571 31.4745 26.0026 31.4587 26.3208C31.4452 26.6208 31.5849 26.6913 31.8239 26.7754C32.7054 27.0845 33.3547 27.9754 33.3637 28.8436C33.3682 29.2231 33.1631 29.4822 32.8339 29.5095C32.4709 29.5413 32.2342 29.3391 32.1869 28.9345C32.126 28.4049 31.8555 28.0481 31.355 27.8845C30.8432 27.7163 30.354 27.7822 29.9459 28.1527C29.619 28.4481 29.486 28.8277 29.6483 29.2595C29.8355 29.7573 30.2322 30.0027 30.7395 30.0414C31.3482 30.0891 31.9321 30.1914 32.4304 30.58C33.1247 31.1209 33.4719 31.8346 33.3412 32.7142C33.2036 33.6369 32.6288 34.2369 31.7743 34.5733C31.6796 34.6051 31.5849 34.6301 31.4835 34.6619Z" fill="white"/>
<path d="M23.1802 30.7437C23.1802 29.48 23.471 28.2868 24.0279 27.155C24.206 26.7913 24.5351 26.6504 24.853 26.8004C25.1573 26.9436 25.252 27.2641 25.1235 27.6391C24.9003 28.2914 24.6163 28.9368 24.49 29.6096C24.1225 31.5937 24.6546 33.3642 25.9103 34.9188C26.4514 35.5916 27.1164 36.1166 27.8785 36.5143C27.9483 36.5507 28.0182 36.5871 28.0836 36.6325C28.3902 36.8393 28.4804 37.1666 28.3136 37.4575C28.1535 37.7416 27.8153 37.8348 27.4862 37.6666C25.8224 36.8212 24.5982 35.5484 23.834 33.8324C23.3989 32.8529 23.1869 31.821 23.1802 30.7437Z" fill="white"/>
<path d="M38.6097 30.6528C38.5759 31.9301 38.2828 33.1347 37.7169 34.2711C37.5523 34.6029 37.2344 34.7393 36.9323 34.612C36.6257 34.4824 36.5084 34.1461 36.6279 33.7847C36.8534 33.1119 37.1465 32.4483 37.2727 31.7551C37.6357 29.7687 37.0901 28.0027 35.8298 26.4527C35.291 25.7913 34.6349 25.2731 33.8796 24.8799C33.8277 24.8526 33.7736 24.8253 33.724 24.7935C33.3813 24.5821 33.2731 24.2685 33.4309 23.9639C33.5955 23.6503 33.9382 23.5526 34.2989 23.7435C36.5716 24.9435 37.9784 26.8027 38.4541 29.355C38.5353 29.7823 38.5601 30.2209 38.6097 30.6528Z" fill="white"/>
<path d="M31.7809 22.9389C32.1168 22.9366 32.3964 23.2048 32.3987 23.5298C32.4032 23.8526 32.1236 24.1253 31.7899 24.1298C31.4495 24.1321 31.1812 23.873 31.179 23.5389C31.1767 23.2048 31.4427 22.9412 31.7809 22.9389Z" fill="white"/>
</svg>
