<svg width="32" height="32" viewBox="0 0 32 32" fill="none" xmlns="http://www.w3.org/2000/svg">
<path d="M14.4686 0.0687809C12.4998 0.26878 10.4373 0.86878 8.72484 1.74378C7.88109 2.18128 6.78734 2.88128 6.73109 3.02503C6.63109 3.28128 6.68734 3.56878 6.86859 3.75628C7.15609 4.04378 7.35609 4.00628 8.12484 3.52503C12.1186 1.02503 17.0623 0.562531 21.4373 2.28753C23.0623 2.93128 24.6811 3.95003 25.9686 5.13753C26.5436 5.66878 26.7373 5.73128 27.1061 5.50628L27.2998 5.38128L27.3311 5.51878C27.4811 6.13753 27.8123 7.95628 27.7873 7.98128C27.7623 8.01253 25.4998 7.60628 25.2623 7.52503C25.1998 7.50628 25.2123 7.45003 25.3123 7.28128C25.5186 6.94378 25.4498 6.71253 25.0123 6.30003C23.3123 4.69378 21.0061 3.50003 18.6873 3.03753C16.7936 2.65628 15.2061 2.65628 13.3248 3.03753C8.76234 3.95003 4.92484 7.35628 3.4436 11.8C3.18735 12.5625 2.91235 13.7813 2.8436 14.4688C2.82485 14.675 2.7936 14.9625 2.77485 15.1063L2.7436 15.375H1.9936H1.2436L1.2811 14.95C1.5061 12.4125 2.23735 10.175 3.52485 8.12503C4.00609 7.35628 4.0436 7.15628 3.7561 6.86878C3.5686 6.68753 3.2811 6.63128 3.02485 6.73128C2.8811 6.78753 2.1811 7.88128 1.7436 8.72503C0.843596 10.4875 0.256096 12.5375 0.0685961 14.5625C-0.0626538 15.975 -0.0126538 16.3625 0.318596 16.5375C0.549846 16.6563 3.4061 16.6688 3.6561 16.55C3.88735 16.4438 3.99985 16.1938 3.99985 15.7688C3.99985 15.5688 4.0311 15.1375 4.06235 14.8125C4.49985 10.5875 7.06234 6.97503 10.9061 5.15003C14.9998 3.20628 19.9436 3.78128 23.4561 6.60628L23.8873 6.95003L23.6373 7.21253C23.1936 7.67503 23.1248 8.01253 23.4248 8.30628C23.5811 8.46253 23.7686 8.51253 26.0373 8.95628C27.3873 9.21878 28.5686 9.43753 28.6748 9.43753C28.9248 9.43753 29.1748 9.22503 29.2186 8.97503C29.2623 8.76878 28.3873 4.18128 28.2373 3.79378C28.1623 3.60628 27.8998 3.43753 27.6873 3.43753C27.4936 3.43753 27.2498 3.58128 26.9748 3.86253L26.7373 4.11253L26.0998 3.60628C23.7248 1.68753 21.0248 0.52503 18.0311 0.125031C17.3311 0.0312805 15.1436 -0.00621986 14.4686 0.0687809Z" fill="white"/>
<path d="M4.71231 4.71259C4.48106 4.94384 4.44356 5.15009 4.58731 5.43134C4.68106 5.60634 4.91856 5.75009 5.12481 5.75009C5.44356 5.75009 5.74981 5.44384 5.74981 5.13134C5.74981 4.91884 5.60606 4.68134 5.43106 4.58759C5.14981 4.44384 4.94356 4.48134 4.71231 4.71259Z" fill="white"/>
<path d="M15.1249 7.4126C11.2874 7.90635 8.34985 10.5626 7.54985 14.2689C7.3561 15.1814 7.3561 16.8189 7.54985 17.7314C8.2936 21.1751 10.9499 23.7876 14.4186 24.4814C15.2436 24.6439 16.8874 24.6314 17.7311 24.4501C21.1749 23.7126 23.7874 21.0501 24.4811 17.5814C24.6311 16.8251 24.6311 15.1751 24.4811 14.4189C23.7936 10.9626 21.1624 8.2751 17.7624 7.5626C17.1686 7.4376 15.6249 7.3501 15.1249 7.4126ZM16.9686 8.6876C18.6061 8.9251 20.0186 9.63135 21.1936 10.8064C22.1936 11.8001 22.8249 12.9189 23.1749 14.3064C23.3186 14.8939 23.3374 15.0876 23.3374 16.0001C23.3374 16.9001 23.3186 17.1126 23.1686 17.6939C22.8311 19.0751 22.1936 20.1939 21.1936 21.1939C20.1936 22.1939 19.0749 22.8251 17.6936 23.1751C17.1061 23.3189 16.9124 23.3376 15.9999 23.3376C15.1311 23.3376 14.8749 23.3126 14.3749 23.1939C13.5874 23.0001 12.7249 22.6376 12.0749 22.2376C11.3499 21.7876 10.3124 20.7689 9.83735 20.0314C8.22485 17.5439 8.22485 14.4564 9.83735 11.9689C10.3124 11.2314 11.3499 10.2126 12.0749 9.7626C13.5499 8.8501 15.3436 8.45635 16.9686 8.6876Z" fill="white"/>
<path d="M28.3187 15.4626C28.0937 15.5876 28.0062 15.8001 28 16.2188C28 16.7751 27.8312 18.0813 27.6875 18.6876C27.15 20.9313 26.075 22.8688 24.475 24.4751C21.6187 27.3376 17.5125 28.5626 13.5312 27.7438C11.7875 27.3813 9.925 26.5063 8.54375 25.3938L8.1125 25.0501L8.3625 24.7876C8.80625 24.3251 8.875 23.9876 8.575 23.6938C8.41875 23.5313 8.2375 23.4876 5.96875 23.0438C4.625 22.7751 3.43125 22.5626 3.31875 22.5626C3.05625 22.5626 2.75 22.8501 2.75 23.1063C2.75 23.3313 3.66875 27.9751 3.7625 28.2063C3.8375 28.3938 4.1 28.5626 4.3125 28.5626C4.50625 28.5626 4.75 28.4188 5.025 28.1376L5.2625 27.8876L5.9 28.3938C8.0875 30.1626 10.5187 31.2813 13.1875 31.7438C18.4062 32.6563 23.5812 31.0251 27.3062 27.3063C29.975 24.6313 31.5812 21.2063 31.9312 17.4376C32.0625 16.0251 32.0125 15.6376 31.6812 15.4626C31.4375 15.3376 28.5437 15.3376 28.3187 15.4626ZM30.7125 17.0126C30.4687 19.7313 29.6937 22.0313 28.325 24.0938C25.9625 27.6501 22.3375 29.9563 18.0937 30.6001C17.0625 30.7563 14.9437 30.7626 13.9375 30.6063C10.9437 30.1438 8.36875 28.9438 6.2 27.0063C5.44375 26.3251 5.28125 26.2626 4.89375 26.4938L4.7 26.6188L4.66875 26.4813C4.51875 25.8626 4.1875 24.0438 4.2125 24.0188C4.2375 23.9876 6.49375 24.3938 6.73125 24.4688C6.7875 24.4876 6.775 24.5563 6.68125 24.7188C6.4875 25.0438 6.55625 25.2813 6.95625 25.6626C9.58125 28.2001 13.5562 29.5563 17.2562 29.1876C21.8812 28.7188 25.8562 25.9563 27.9062 21.7813C28.5375 20.4938 29.025 18.8376 29.1562 17.5313C29.175 17.3251 29.2062 17.0376 29.225 16.8876L29.2562 16.6251H30H30.75L30.7125 17.0126Z" fill="white"/>
<path d="M17.3221 21.2489L12.8878 17.0713L12.8892 16.7744L14.9676 16.7841C14.9676 16.7841 18.2323 17.0963 18.2461 14.1271C18.2586 11.4549 14.9925 11.4396 14.9925 11.4396L12.6172 11.4286" stroke="white" stroke-width="0.8" stroke-miterlimit="10"/>
<path d="M12.6172 11.4286L19.7432 11.4618" stroke="white" stroke-width="0.8" stroke-miterlimit="10"/>
<path d="M12.6088 13.2101L19.7347 13.2433" stroke="white" stroke-width="0.8" stroke-miterlimit="10"/>
</svg>
