<svg width="22" height="22" viewBox="0 0 22 22" fill="none" xmlns="http://www.w3.org/2000/svg">
<path d="M9.94712 0.0274696C8.59347 0.165129 7.17537 0.578104 5.99791 1.18036C5.41777 1.48149 4.66575 1.96329 4.62707 2.06223C4.55831 2.23861 4.59699 2.43649 4.72161 2.56555C4.91929 2.76343 5.0568 2.73762 5.58537 2.40638C8.33134 0.68565 11.7305 0.367314 14.7386 1.55462C15.8559 1.99771 16.9689 2.6989 17.8541 3.51625C18.2495 3.88191 18.3827 3.92493 18.6362 3.77006L18.7695 3.68402L18.791 3.77866C18.8941 4.20454 19.1218 5.45638 19.1047 5.47358C19.0875 5.49509 17.5318 5.21547 17.3685 5.15955C17.3256 5.14664 17.3342 5.10793 17.4029 4.99178C17.5447 4.75948 17.4975 4.60031 17.1967 4.31639C16.0278 3.21082 14.4421 2.38917 12.8478 2.07084C11.5457 1.80843 10.4542 1.80843 9.16072 2.07084C6.02369 2.6989 3.38515 5.0434 2.3667 8.102C2.19051 8.62682 2.00143 9.46568 1.95416 9.93888C1.94126 10.0808 1.91978 10.2787 1.90689 10.3777L1.8854 10.5626H1.36972H0.854048L0.879832 10.2701C1.03453 8.52358 1.53732 6.98353 2.42256 5.57253C2.75345 5.0434 2.77924 4.90574 2.58156 4.70786C2.45264 4.58311 2.25497 4.54439 2.07878 4.61322C1.97994 4.65193 1.49864 5.40475 1.19783 5.9855C0.579022 7.19862 0.175076 8.60962 0.0461573 10.0034C-0.0440859 10.9756 -0.00970755 11.2423 0.218049 11.3628C0.377049 11.4445 2.34091 11.4531 2.5128 11.3714C2.6718 11.2983 2.74915 11.1262 2.74915 10.8337C2.74915 10.696 2.77064 10.3992 2.79213 10.1755C3.09294 7.26745 4.85483 4.78099 7.49766 3.52486C10.3124 2.18699 13.7115 2.58276 16.1266 4.52718L16.4231 4.76378L16.2512 4.94446C15.9461 5.26279 15.8989 5.49509 16.1051 5.69728C16.2126 5.80482 16.3415 5.83924 17.9014 6.14467C18.8296 6.32535 19.6418 6.47591 19.7149 6.47591C19.8868 6.47591 20.0587 6.32965 20.0887 6.15757C20.1188 6.01561 19.5172 2.85807 19.4141 2.59136C19.3625 2.4623 19.182 2.34616 19.0359 2.34616C18.9027 2.34616 18.7351 2.4451 18.546 2.63868L18.3827 2.81075L17.9444 2.4623C16.3114 1.14164 14.455 0.341503 12.3966 0.066186C11.9153 0.00165939 10.4112 -0.0241518 9.94712 0.0274696Z" fill="#E6FFF2"/>
<path d="M3.23906 3.22312C3.08006 3.38243 3.05428 3.52452 3.15311 3.71828C3.21757 3.83884 3.38087 3.93787 3.52268 3.93787C3.74185 3.93787 3.95241 3.72689 3.95241 3.5116C3.95241 3.36521 3.85357 3.20159 3.73325 3.13701C3.53987 3.03798 3.39806 3.06381 3.23906 3.22312Z" fill="#E6FFF2"/>
<path d="M10.3983 5.08216C7.75978 5.42201 5.74005 7.25028 5.19 9.80127C5.05678 10.4293 5.05678 11.5564 5.19 12.1845C5.70138 14.5548 7.52773 16.353 9.91273 16.8305C10.48 16.9423 11.6102 16.9337 12.1903 16.8089C14.5581 16.3013 16.3544 14.4688 16.8314 12.0812C16.9345 11.5607 16.9345 10.425 16.8314 9.90451C16.3587 7.5256 14.5495 5.67581 12.2118 5.18541C11.8035 5.09937 10.7421 5.03914 10.3983 5.08216ZM11.666 5.95973C12.7919 6.12321 13.7631 6.60931 14.571 7.41805C15.2586 8.10205 15.6926 8.87207 15.9332 9.82708C16.0321 10.2315 16.045 10.3648 16.045 10.9929C16.045 11.6123 16.0321 11.7586 15.9289 12.1587C15.6969 13.1094 15.2586 13.8794 14.571 14.5677C13.8834 15.256 13.1142 15.6905 12.1645 15.9314C11.7606 16.0303 11.6273 16.0432 10.9999 16.0432C10.4026 16.0432 10.2264 16.026 9.88265 15.9443C9.34119 15.8109 8.74816 15.5614 8.30124 15.2861C7.80276 14.9764 7.0894 14.2752 6.76281 13.7676C5.65411 12.0554 5.65411 9.93032 6.76281 8.21819C7.0894 7.71058 7.80276 7.00938 8.30124 6.69965C9.3154 6.07158 10.5487 5.80057 11.666 5.95973Z" fill="#E6FFF2"/>
<path d="M10.8454 7.11685C10.6649 7.19429 10.5704 7.37066 10.5704 7.64168C10.5704 7.86107 10.5575 7.89548 10.493 7.89548C10.4457 7.89548 10.2953 7.95571 10.1492 8.02884C9.84413 8.17941 9.59488 8.44612 9.42299 8.79457C9.31556 9.00966 9.30267 9.08279 9.30267 9.46565C9.30267 9.85282 9.31556 9.92165 9.42729 10.1453C9.5648 10.4336 9.82694 10.6616 10.2782 10.8896L10.5704 11.0358V12.1371V13.2384L10.4114 13.2082C10.3211 13.1953 10.0891 13.1007 9.89569 13.0061L9.54332 12.834L9.38002 12.9114C9.07061 13.0663 9.02764 13.4319 9.29407 13.6341C9.52183 13.8062 9.99023 14.0084 10.291 14.06L10.5704 14.1073V14.3568C10.5704 14.5719 10.5876 14.6235 10.695 14.744C10.7981 14.8601 10.8497 14.886 11.0001 14.886C11.1505 14.886 11.2021 14.8601 11.3052 14.744C11.4126 14.6235 11.4298 14.5719 11.4298 14.3353V14.0643L11.7134 13.9439C12.2377 13.7159 12.6846 13.191 12.8264 12.649C13.0499 11.78 12.6717 11.01 11.8381 10.6228C11.6619 10.5411 11.5029 10.4766 11.4771 10.4766C11.4427 10.4766 11.4298 10.197 11.4298 9.61191V8.75155L11.692 8.88921C12.0357 9.07419 12.2205 9.07419 12.3881 8.88491C12.56 8.69132 12.5342 8.44612 12.328 8.27405C12.1819 8.15359 11.6189 7.89548 11.4986 7.89548C11.4427 7.89548 11.4298 7.84386 11.4298 7.63737C11.4298 7.41798 11.4126 7.36206 11.3138 7.25021C11.1849 7.11255 10.9915 7.05663 10.8454 7.11685ZM10.5704 9.42263C10.5704 9.85282 10.5575 10.0464 10.5231 10.0464C10.4973 10.0464 10.3985 9.97327 10.3082 9.87863C10.1621 9.73237 10.1406 9.68935 10.1406 9.51297C10.1406 9.40112 10.1707 9.24626 10.2008 9.16452C10.2696 9.00536 10.45 8.79887 10.5274 8.79887C10.5532 8.79887 10.5704 9.01826 10.5704 9.42263ZM11.6834 11.5133C11.9283 11.6897 12.0486 11.9607 12.0186 12.2618C11.9842 12.6103 11.8381 12.8469 11.5072 13.0964C11.4341 13.1523 11.4298 13.105 11.4298 12.2661C11.4298 11.78 11.447 11.38 11.4642 11.38C11.4857 11.38 11.5845 11.4402 11.6834 11.5133Z" fill="#E6FFF2"/>
<path d="M19.4701 10.6229C19.3154 10.7089 19.2552 10.8552 19.2509 11.1434C19.2509 11.5263 19.1349 12.4254 19.036 12.8426C18.6665 14.387 17.9273 15.7206 16.8272 16.8261C14.8634 18.7964 12.04 19.6395 9.30266 19.076C8.10372 18.8265 6.82312 18.2242 5.87342 17.4585L5.57691 17.2219L5.7488 17.0412C6.05391 16.7229 6.10118 16.4906 5.89491 16.2884C5.78748 16.1766 5.66285 16.1465 4.10294 15.841C3.17902 15.656 2.35824 15.5098 2.28089 15.5098C2.1004 15.5098 1.88983 15.7077 1.88983 15.884C1.88983 16.0389 2.52153 19.2352 2.58599 19.3943C2.63756 19.5234 2.81805 19.6395 2.96415 19.6395C3.09737 19.6395 3.26497 19.5406 3.45405 19.347L3.61734 19.1749L4.05567 19.5234C5.55972 20.7408 7.23137 21.5108 9.06631 21.8292C12.6546 22.4572 16.2127 21.3345 18.7739 18.7749C20.6088 16.9337 21.7132 14.5763 21.9539 11.9823C22.0441 11.0101 22.0098 10.7434 21.782 10.6229C21.6144 10.5369 19.6248 10.5369 19.4701 10.6229ZM21.1159 11.6898C20.9483 13.5611 20.4155 15.1441 19.4744 16.5637C17.85 19.0115 15.3575 20.5988 12.4397 21.0419C11.7306 21.1495 10.2739 21.1538 9.58199 21.0462C7.52358 20.7279 5.7531 19.9019 4.26194 18.5684C3.74196 18.0995 3.63024 18.0565 3.3638 18.2156L3.23059 18.3017L3.2091 18.207C3.10597 17.7811 2.87821 16.5293 2.8954 16.5121C2.91259 16.4906 4.46391 16.7702 4.62721 16.8218C4.66588 16.8347 4.65729 16.8821 4.59283 16.9939C4.45961 17.2176 4.50688 17.3811 4.78191 17.6435C6.58677 19.39 9.31985 20.3235 11.8638 20.0697C15.0438 19.7471 17.7769 17.8457 19.1864 14.9721C19.6205 14.0859 19.9557 12.9459 20.0459 12.0468C20.0588 11.9048 20.0803 11.707 20.0932 11.6037L20.1147 11.423H20.626H21.1417L21.1159 11.6898Z" fill="#E6FFF2"/>
</svg>
