<svg width="21" height="26" viewBox="0 0 21 26" fill="none" xmlns="http://www.w3.org/2000/svg">
<path d="M1 21.3009L2.95616 17.5706C4.08471 15.5278 5.96564 14.1956 8.07227 14.1956H13.0379C13.0379 16.1495 11.6836 17.7482 10.0284 17.7482H8.5237" stroke="#E6FFF2" stroke-width="0.8" stroke-miterlimit="10" stroke-linecap="round" stroke-linejoin="round"/>
<path d="M9.97233 17.6311H15.6548L16.5072 16.2569C17.2885 14.9686 18.5671 14.1956 19.9167 14.1956L17.9989 18.3182C17.0044 20.5513 15.0155 21.9255 12.9556 21.9255C9.61718 21.9255 6.34974 23.128 3.57953 25.3611" stroke="#E6FFF2" stroke-width="0.8" stroke-miterlimit="10" stroke-linecap="round" stroke-linejoin="round"/>
<path d="M18.197 1H2.71973V11.1504H18.197V1Z" stroke="#E6FFF2" stroke-width="0.8" stroke-miterlimit="10" stroke-linecap="round" stroke-linejoin="round"/>
<path d="M18.197 5.06018C16.7783 5.06018 15.6175 3.2331 15.6175 1" stroke="#E6FFF2" stroke-width="0.8" stroke-miterlimit="10" stroke-linecap="round" stroke-linejoin="round"/>
<path d="M2.71973 8.10532C4.13848 8.10532 5.29928 9.47563 5.29928 11.1505" stroke="#E6FFF2" stroke-width="0.8" stroke-miterlimit="10" stroke-linecap="round" stroke-linejoin="round"/>
<path d="M10.4583 9.12036C11.883 9.12036 13.0379 7.98423 13.0379 6.58275C13.0379 5.18126 11.883 4.04514 10.4583 4.04514C9.03369 4.04514 7.87878 5.18126 7.87878 6.58275C7.87878 7.98423 9.03369 9.12036 10.4583 9.12036Z" stroke="#E6FFF2" stroke-width="0.8" stroke-miterlimit="10" stroke-linecap="round" stroke-linejoin="round"/>
<path d="M5.29928 1C5.29928 3.2331 4.13848 5.06018 2.71973 5.06018" stroke="#E6FFF2" stroke-width="0.8" stroke-miterlimit="10" stroke-linecap="round" stroke-linejoin="round"/>
<path d="M18.197 8.10532C16.7783 8.10532 15.6175 9.47563 15.6175 11.1505" stroke="#E6FFF2" stroke-width="0.8" stroke-miterlimit="10" stroke-linecap="round" stroke-linejoin="round"/>
</svg>
