<svg width="25" height="29" viewBox="0 0 25 29" fill="none" xmlns="http://www.w3.org/2000/svg">
<path d="M22.2874 22.6562H2.71241C1.98741 22.6562 1.35303 22.2937 0.990533 21.6594C0.628033 21.025 0.718658 20.3 1.08116 19.6656L2.07803 18.125C3.70928 15.6781 4.52491 12.8687 4.52491 9.96875C4.52491 6.61562 6.69991 3.53437 9.87178 2.44687C10.4155 1.45 11.4124 0.90625 12.4999 0.90625C13.5874 0.90625 14.5843 1.45 15.128 2.44687C18.2999 3.53437 20.4749 6.61562 20.4749 9.96875C20.4749 12.8687 21.2905 15.6781 22.9218 18.125L23.9187 19.6656C24.2812 20.3 24.3718 21.025 24.0093 21.6594C23.7374 22.2937 23.0124 22.6562 22.2874 22.6562Z" fill="#A5A5A5"/>
<path d="M8.05957 24.4688C8.5127 26.5531 10.3252 28.0937 12.5002 28.0937C14.6752 28.0937 16.4877 26.5531 16.9408 24.4688H8.05957Z" fill="#A5A5A5"/>
</svg>
