<svg width="52" height="52" viewBox="0 0 52 52" fill="none" xmlns="http://www.w3.org/2000/svg">
<rect width="52" height="52" rx="2" fill="#FFD915"/>
<path d="M37.72 16.8354H14.1751C12.9844 16.8354 12.0155 17.8043 12.0155 18.995V20.4383V23.5485V32.8998C12.0155 34.0905 12.9844 35.0591 14.1751 35.0591H37.72C38.9107 35.0591 39.8792 34.0905 39.8792 32.8998V23.5485V20.4383V18.995C39.8792 17.8043 38.9107 16.8354 37.72 16.8354ZM12.912 18.995C12.9123 18.2985 13.4785 17.7323 14.1748 17.7323H37.7197C38.4159 17.7323 38.9821 18.2988 38.9821 18.995V19.9899H12.912V18.995ZM38.9824 32.8995C38.9824 33.5955 38.4159 34.162 37.72 34.162H14.1751C13.4788 34.162 12.9123 33.5955 12.9123 32.8995V23.9966H38.9824V32.8995ZM38.9824 23.0998H12.9123V20.8864H38.9824V23.0998Z" fill="white"/>
<path d="M16.3493 32.3943C17.2118 32.3943 17.9131 31.6933 17.9131 30.8317C17.9131 29.9695 17.2118 29.2679 16.3493 29.2679C15.4875 29.2679 14.7861 29.9695 14.7861 30.8317C14.7861 31.6933 15.4875 32.3943 16.3493 32.3943ZM16.3493 30.1647C16.717 30.1647 17.0163 30.464 17.0163 30.8317C17.0163 31.1988 16.717 31.4974 16.3493 31.4974C15.9819 31.4974 15.683 31.1988 15.683 30.8317C15.683 30.464 15.9819 30.1647 16.3493 30.1647Z" fill="white"/>
<path d="M19.6933 31.3327H32.3279C32.5757 31.3327 32.7763 31.1322 32.7763 30.8843C32.7763 30.6365 32.5757 30.4359 32.3279 30.4359H19.6933C19.4455 30.4359 19.2449 30.6365 19.2449 30.8843C19.2449 31.1322 19.4455 31.3327 19.6933 31.3327Z" fill="white"/>
</svg>
