<svg width="12" height="19" viewBox="0 0 12 19" fill="none" xmlns="http://www.w3.org/2000/svg">
<path d="M9.77734 0H2.27734C1.78006 0 1.30315 0.197544 0.951519 0.549175C0.599888 0.900805 0.402344 1.37772 0.402344 1.875V16.875C0.402344 17.3723 0.599888 17.8492 0.951519 18.2008C1.30315 18.5525 1.78006 18.75 2.27734 18.75H9.77734C10.2746 18.75 10.7515 18.5525 11.1032 18.2008C11.4548 17.8492 11.6523 17.3723 11.6523 16.875V1.875C11.6523 1.37772 11.4548 0.900805 11.1032 0.549175C10.7515 0.197544 10.2746 0 9.77734 0ZM6.02734 16.875C5.78012 16.875 5.53844 16.8017 5.33288 16.6643C5.12732 16.527 4.9671 16.3318 4.87249 16.1034C4.77788 15.8749 4.75313 15.6236 4.80136 15.3811C4.84959 15.1387 4.96865 14.9159 5.14346 14.7411C5.31828 14.5663 5.541 14.4472 5.78348 14.399C6.02596 14.3508 6.27729 14.3755 6.5057 14.4701C6.73411 14.5648 6.92933 14.725 7.06668 14.9305C7.20403 15.1361 7.27734 15.3778 7.27734 15.625C7.27734 15.9565 7.14565 16.2745 6.91123 16.5089C6.67681 16.7433 6.35886 16.875 6.02734 16.875Z" fill="#5C5C5C"/>
</svg>
