<svg width="19" height="23" viewBox="0 0 19 23" fill="none" xmlns="http://www.w3.org/2000/svg">
<path d="M17.9182 15.525L17.0882 14.28C15.7602 12.288 15.0962 9.881 15.0962 7.474C15.0962 4.901 13.4362 2.743 11.1952 2.079C10.9462 1.415 10.2822 1 9.61823 1C8.95423 1 8.29023 1.415 8.04123 2.079C5.80023 2.743 4.14023 4.901 4.14023 7.474C4.14023 9.881 3.47623 12.288 2.14823 14.28L1.31823 15.525C0.986233 16.106 1.31823 16.77 1.98223 16.77H17.1712C17.8352 16.77 18.2502 16.023 17.9182 15.525Z" stroke="#E91C29" stroke-width="1.5" stroke-miterlimit="10" stroke-linejoin="round"/>
<path d="M12.1082 19.26C12.1082 20.671 11.0292 21.75 9.61817 21.75C8.20717 21.75 7.12817 20.671 7.12817 19.26" stroke="#E91C29" stroke-width="1.5" stroke-miterlimit="10" stroke-linejoin="round"/>
</svg>
