<svg width="22" height="22" viewBox="0 0 22 22" fill="none" xmlns="http://www.w3.org/2000/svg">
<path d="M9.15491 9.94923C7.46884 9.94923 6.09692 11.3212 6.09692 13.0073C6.09692 14.6933 7.46862 16.065 9.15491 16.065C10.8412 16.065 12.2129 14.6933 12.2129 13.0073C12.2129 11.3212 10.841 9.94923 9.15491 9.94923ZM9.15491 15.4076C7.83144 15.4076 6.7546 14.331 6.7546 13.0075C6.7546 11.684 7.83144 10.6071 9.15491 10.6071C10.4786 10.6071 11.5552 11.684 11.5552 13.0075C11.5552 14.331 10.4784 15.4076 9.15491 15.4076Z" fill="#E6FFF2"/>
<path d="M2.71818 9.94946C2.53644 9.94946 2.38934 10.0966 2.38934 10.2783V15.7362C2.38934 15.9177 2.53644 16.0651 2.71818 16.0651C2.89992 16.0651 3.04702 15.9177 3.04702 15.7362V10.2783C3.04702 10.0966 2.89992 9.94946 2.71818 9.94946Z" fill="#E6FFF2"/>
<path d="M15.4879 9.94946C15.3064 9.94946 15.1591 10.0966 15.1591 10.2783V15.7362C15.1591 15.9177 15.3064 16.0651 15.4879 16.0651C15.6694 16.0651 15.8167 15.9177 15.8167 15.7362V10.2783C15.8167 10.0966 15.6696 9.94946 15.4879 9.94946Z" fill="#E6FFF2"/>
<path d="M20.8894 4.19647H4.79425C4.61251 4.19647 4.46541 4.34357 4.46541 4.52531V6.15177H2.99221C2.81048 6.15177 2.66338 6.29887 2.66338 6.48061V8.28881H1.03343C0.851691 8.28881 0.70459 8.43591 0.70459 8.61765V17.3971C0.70459 17.5786 0.851691 17.7259 1.03343 17.7259H17.1288C17.3103 17.7259 17.4576 17.5786 17.4576 17.3971V15.5889H19.0878C19.2693 15.5889 19.4166 15.4416 19.4166 15.2601V13.6336H20.8896C21.0711 13.6336 21.2185 13.4863 21.2185 13.3048V4.52531C21.2182 4.34357 21.0709 4.19647 20.8894 4.19647ZM1.36227 17.0682V8.94649H16.8V15.2579C16.8 15.2585 16.7997 15.2592 16.7997 15.2601C16.7997 15.2609 16.8 15.2614 16.8 15.2622V17.0682H1.36227ZM18.7587 14.9312H17.4574V8.61765C17.4574 8.43591 17.3101 8.28881 17.1286 8.28881H3.32105V6.80945H18.7587V14.9312ZM20.5606 12.9759H19.4164V6.48061C19.4164 6.29887 19.2691 6.15177 19.0876 6.15177H5.12309V4.85416H20.5606V12.9759Z" fill="#E6FFF2"/>
</svg>
