<svg width="34" height="26" viewBox="0 0 34 26" fill="none" xmlns="http://www.w3.org/2000/svg">
<path d="M32 19.225V25H1V4H32V9.775" stroke="white" stroke-width="1.2" stroke-miterlimit="10"/>
<path d="M3 1H28V4" stroke="white" stroke-width="1.2" stroke-miterlimit="10"/>
<path d="M3 1C1.8952 1 1 2.3434 1 4" stroke="white" stroke-width="1.2" stroke-miterlimit="10"/>
<path d="M22.6753 10C20.0925 10 18 12.0145 18 14.5C18 16.985 20.0925 19 22.6753 19H33V10H22.6753Z" stroke="white" stroke-width="1.2" stroke-miterlimit="10"/>
<path d="M23.5 16C24.3284 16 25 15.3284 25 14.5C25 13.6716 24.3284 13 23.5 13C22.6716 13 22 13.6716 22 14.5C22 15.3284 22.6716 16 23.5 16Z" stroke="white" stroke-width="1.2" stroke-miterlimit="10"/>
</svg>
