<svg width="52" height="52" viewBox="0 0 52 52" fill="none" xmlns="http://www.w3.org/2000/svg">
<rect width="52" height="52" rx="6" fill="#FF9900"/>
<path d="M34.9375 30.5625C34.6464 30.5625 34.4102 30.7987 34.4102 31.0898C34.4102 31.3809 34.6464 31.6172 34.9375 31.6172C35.2286 31.6172 35.4648 31.3809 35.4648 31.0898C35.4648 30.7987 35.2286 30.5625 34.9375 30.5625Z" fill="white"/>
<path d="M26.5 30.5625C26.2089 30.5625 25.9727 30.7987 25.9727 31.0898C25.9727 31.3809 26.2089 31.6172 26.5 31.6172C26.7911 31.6172 27.0273 31.3809 27.0273 31.0898C27.0273 30.7987 26.7911 30.5625 26.5 30.5625Z" fill="white"/>
<path d="M17.0078 17.5898C16.7167 17.5898 16.4805 17.8261 16.4805 18.1172C16.4805 18.4083 16.7167 18.6445 17.0078 18.6445C17.2989 18.6445 17.5352 18.4083 17.5352 18.1172C17.5352 17.8261 17.2989 17.5898 17.0078 17.5898Z" fill="white"/>
<path d="M36.9806 27.8921C36.1172 26.4393 35.0489 25.2946 33.8912 24.562C33.91 24.5449 33.9285 24.5273 33.9467 24.5092C34.2456 24.2103 34.4102 23.813 34.4102 23.3906C34.4102 23.1847 34.3702 22.9881 34.2983 22.8075C34.9697 22.6246 35.4648 22.0098 35.4648 21.2812C35.4648 20.888 35.322 20.5167 35.0612 20.2261C35.312 19.946 35.4648 19.5765 35.4648 19.1719C35.4648 18.7788 35.3222 18.4077 35.0616 18.1172C35.3222 17.8267 35.4648 17.4555 35.4648 17.0625C35.4648 16.1902 34.7551 15.4805 33.8828 15.4805H32.6977L33.3423 12.6442C33.3779 12.4878 33.3403 12.3237 33.2402 12.1983C33.1402 12.073 32.9885 12 32.8281 12H28.6094C28.449 12 28.2973 12.073 28.1973 12.1984C28.0972 12.3237 28.0596 12.4878 28.0952 12.6443L28.2833 13.4719L27.0457 14.0907C26.4763 14.3754 25.9593 14.748 25.5091 15.1983C24.7725 15.9348 23.8283 16.3874 22.8086 16.504V16.0078C22.8086 15.7166 22.5725 15.4805 22.2812 15.4805H14.8984C14.6072 15.4805 14.3711 15.7166 14.3711 16.0078V24.4453C14.3711 24.7366 14.6072 24.9727 14.8984 24.9727H22.2812C22.5725 24.9727 22.8086 24.7366 22.8086 24.4453V23.918H23.0027C23.8667 23.918 24.7206 24.0565 25.5405 24.3296C26.097 24.5153 26.665 24.6612 27.2403 24.7668C26.2007 25.5004 25.2437 26.5682 24.457 27.8921C23.4248 29.6289 22.8086 31.6129 22.8086 33.1992C22.8086 34.9727 23.5709 36.4546 25.013 37.4848C26.4007 38.476 28.3737 39 30.7188 39C33.0638 39 35.0368 38.476 36.4244 37.4848C37.8666 36.4546 38.6289 34.9727 38.6289 33.1992C38.6289 31.6128 38.0127 29.6289 36.9806 27.8921ZM21.7539 17.5898H19.1172C18.8259 17.5898 18.5898 17.8259 18.5898 18.1172C18.5898 18.4084 18.8259 18.6445 19.1172 18.6445H21.7539V23.918H15.4258V16.5352H21.7539V17.5898ZM32.1675 13.0547L31.6162 15.4805H29.8214L29.2701 13.0547H32.1675ZM25.8741 23.3291C24.9463 23.02 23.9802 22.8633 23.0027 22.8633H22.8086V17.5653C24.1106 17.4449 25.3188 16.8801 26.2549 15.9441C26.6248 15.5741 27.0495 15.2679 27.5174 15.034L28.5239 14.5308L28.7397 15.4805H28.6094C28.3182 15.4805 28.082 15.7166 28.082 16.0078C28.082 16.2991 28.3182 16.5352 28.6094 16.5352C29.7671 16.5352 32.739 16.5352 33.8828 16.5352C34.1736 16.5352 34.4102 16.7717 34.4102 17.0625C34.4102 17.2032 34.3553 17.3356 34.2556 17.4352C34.1559 17.5349 34.0235 17.5898 33.8828 17.5898H31.7734C31.4822 17.5898 31.2461 17.8259 31.2461 18.1172C31.2461 18.4084 31.4822 18.6445 31.7734 18.6445H33.8828C34.174 18.6445 34.4102 18.8807 34.4102 19.1719C34.4102 19.4627 34.1736 19.6992 33.8828 19.6992H31.7734C31.4822 19.6992 31.2461 19.9353 31.2461 20.2266C31.2461 20.5178 31.4822 20.7539 31.7734 20.7539H33.8828C34.174 20.7539 34.4102 20.9901 34.4102 21.2812C34.4102 21.572 34.1736 21.8086 33.8828 21.8086C33.1451 21.8086 32.5112 21.8086 31.7734 21.8086C31.4822 21.8086 31.2461 22.0447 31.2461 22.3359C31.2461 22.6272 31.4822 22.8633 31.7734 22.8633H32.8281C33.1189 22.8633 33.3555 23.0998 33.3555 23.3906C33.3555 23.6818 33.1193 23.918 32.8281 23.918H29.5016C29.336 23.918 29.164 23.9141 28.9903 23.9064C27.9299 23.8594 26.8816 23.6653 25.8741 23.3291ZM35.8114 36.6266C34.6037 37.4893 32.8426 37.9453 30.7188 37.9453C28.5949 37.9453 26.8338 37.4893 25.626 36.6266C24.4728 35.8028 23.8633 34.6177 23.8633 33.1992C23.8633 31.7943 24.4242 30.0118 25.3636 28.431C26.3887 26.706 27.7074 25.4781 29.0829 24.9647C29.2246 24.9694 29.3653 24.9727 29.5016 24.9727H32.3758C33.7437 25.4908 35.054 26.7149 36.0739 28.431C37.0133 30.0117 37.5742 31.7943 37.5742 33.1992C37.5742 34.6177 36.9647 35.8028 35.8114 36.6266Z" fill="white"/>
<path d="M30.9918 30.6614C30.2057 30.2459 29.6904 29.9437 29.6904 29.5453C29.6904 28.9637 30.1636 28.4906 30.7451 28.4906C31.3267 28.4906 31.7998 28.9637 31.7998 29.5453C31.7998 29.8365 32.0359 30.0726 32.3271 30.0726C32.6183 30.0726 32.8545 29.8365 32.8545 29.5453C32.8545 28.5642 32.1812 27.7374 31.2725 27.5026V26.9085C31.2725 26.6173 31.0363 26.3812 30.7451 26.3812C30.4539 26.3812 30.2178 26.6173 30.2178 26.9085V27.5026C29.309 27.7374 28.6357 28.5642 28.6357 29.5453C28.6357 30.609 29.6256 31.1322 30.4989 31.5938C31.2847 32.0092 31.7998 32.3112 31.7998 32.7093C31.7998 33.2909 31.3267 33.764 30.7451 33.764C30.1636 33.764 29.6904 33.2909 29.6904 32.7093C29.6904 32.4181 29.4543 32.182 29.1631 32.182C28.8719 32.182 28.6357 32.4181 28.6357 32.7093C28.6357 33.6904 29.309 34.5172 30.2178 34.7519V35.346C30.2178 35.6373 30.4539 35.8734 30.7451 35.8734C31.0363 35.8734 31.2725 35.6373 31.2725 35.346V34.7519C32.1812 34.5172 32.8545 33.6904 32.8545 32.7093C32.8545 31.646 31.8649 31.1229 30.9918 30.6614Z" fill="white"/>
</svg>
