<svg width="52" height="52" viewBox="0 0 52 52" fill="none" xmlns="http://www.w3.org/2000/svg">
<rect width="52" height="52" rx="6" fill="#6599FF"/>
<path d="M34.6719 21.4375H33.8281V13.8691L19.5097 13.8438L19.4844 16.3961H18.6406V13.8648C18.6417 13.6351 18.7338 13.4151 18.8967 13.253C19.0595 13.091 19.2799 13 19.5097 13H33.8028C34.0333 13 34.2544 13.0916 34.4173 13.2545C34.5803 13.4175 34.6719 13.6386 34.6719 13.8691V21.4375Z" fill="white"/>
<path d="M33.8028 38.3125H19.5097C19.3956 38.3125 19.2826 38.29 19.1771 38.2463C19.0717 38.2027 18.9759 38.1387 18.8952 38.058C18.8145 37.9773 18.7505 37.8815 18.7068 37.776C18.6631 37.6706 18.6406 37.5576 18.6406 37.4434V24.8125H19.4844V37.4688H33.8028L33.8281 29.875H34.6719V37.4434C34.6719 37.5576 34.6494 37.6706 34.6057 37.776C34.562 37.8815 34.498 37.9773 34.4173 38.058C34.3366 38.1387 34.2408 38.2027 34.1354 38.2463C34.0299 38.29 33.9169 38.3125 33.8028 38.3125Z" fill="white"/>
<path d="M34.25 34.5409H19.0625V35.3847H34.25V34.5409Z" fill="white"/>
<path d="M28.1454 15.5312H25.167C25.0551 15.5312 24.9478 15.4868 24.8687 15.4077C24.7896 15.3286 24.7451 15.2213 24.7451 15.1094C24.7451 14.9975 24.7896 14.8902 24.8687 14.8111C24.9478 14.7319 25.0551 14.6875 25.167 14.6875H28.1454C28.2573 14.6875 28.3646 14.7319 28.4437 14.8111C28.5229 14.8902 28.5673 14.9975 28.5673 15.1094C28.5673 15.2213 28.5229 15.3286 28.4437 15.4077C28.3646 15.4868 28.2573 15.5312 28.1454 15.5312Z" fill="white"/>
<path d="M29.9807 15.5312H29.4534C29.3415 15.5312 29.2342 15.4868 29.1551 15.4077C29.0759 15.3286 29.0315 15.2213 29.0315 15.1094C29.0315 14.9975 29.0759 14.8902 29.1551 14.8111C29.2342 14.7319 29.3415 14.6875 29.4534 14.6875H29.9807C30.0926 14.6875 30.1999 14.7319 30.279 14.8111C30.3581 14.8902 30.4026 14.9975 30.4026 15.1094C30.4026 15.2213 30.3581 15.3286 30.279 15.4077C30.1999 15.4868 30.0926 15.5312 29.9807 15.5312Z" fill="white"/>
<path d="M26.6563 37.1988C27.0664 37.1988 27.3988 36.8663 27.3988 36.4563C27.3988 36.0462 27.0664 35.7138 26.6563 35.7138C26.2462 35.7138 25.9138 36.0462 25.9138 36.4563C25.9138 36.8663 26.2462 37.1988 26.6563 37.1988Z" fill="white"/>
<path d="M37.625 30.2969H26.6562C26.5444 30.2969 26.4371 30.2524 26.3579 30.1733C26.2788 30.0942 26.2344 29.9869 26.2344 29.875V21.4375C26.2344 21.3256 26.2788 21.2183 26.3579 21.1392C26.4371 21.0601 26.5444 21.0156 26.6562 21.0156H37.625C37.7369 21.0156 37.8442 21.0601 37.9233 21.1392C38.0024 21.2183 38.0469 21.3256 38.0469 21.4375V29.875C38.0469 29.9869 38.0024 30.0942 37.9233 30.1733C37.8442 30.2524 37.7369 30.2969 37.625 30.2969ZM27.0781 29.4531H37.2031V21.8594H27.0781V29.4531Z" fill="white"/>
<path d="M26.6562 32.4062C26.5444 32.4062 26.4371 32.3618 26.3579 32.2827C26.2788 32.2036 26.2344 32.0963 26.2344 31.9844V19.75C26.2344 19.6381 26.2788 19.5308 26.3579 19.4517C26.4371 19.3726 26.5444 19.3281 26.6562 19.3281C26.7681 19.3281 26.8754 19.3726 26.9546 19.4517C27.0337 19.5308 27.0781 19.6381 27.0781 19.75V31.9844C27.0781 32.0963 27.0337 32.2036 26.9546 32.2827C26.8754 32.3618 26.7681 32.4062 26.6562 32.4062Z" fill="white"/>
<path d="M18.6406 25.2344C17.7228 25.2344 16.8256 24.9622 16.0624 24.4523C15.2993 23.9424 14.7045 23.2176 14.3532 22.3696C14.002 21.5217 13.9101 20.5886 14.0892 19.6884C14.2682 18.7882 14.7102 17.9613 15.3592 17.3123C16.0082 16.6633 16.8351 16.2214 17.7353 16.0423C18.6355 15.8632 19.5686 15.9551 20.4165 16.3064C21.2645 16.6576 21.9892 17.2524 22.4992 18.0156C23.0091 18.7787 23.2813 19.6759 23.2813 20.5938C23.2813 21.8245 22.7923 23.0049 21.922 23.8752C21.0518 24.7455 19.8714 25.2344 18.6406 25.2344ZM18.6406 16.7969C17.8897 16.7969 17.1556 17.0196 16.5312 17.4368C15.9068 17.854 15.4201 18.447 15.1328 19.1408C14.8454 19.8345 14.7702 20.598 14.9167 21.3345C15.0632 22.071 15.4248 22.7475 15.9558 23.2785C16.4868 23.8095 17.1634 24.1712 17.8999 24.3177C18.6364 24.4642 19.3998 24.389 20.0936 24.1016C20.7874 23.8142 21.3804 23.3276 21.7976 22.7032C22.2148 22.0788 22.4375 21.3447 22.4375 20.5938C22.4375 19.5868 22.0375 18.621 21.3254 17.909C20.6134 17.1969 19.6476 16.7969 18.6406 16.7969Z" fill="white"/>
<path d="M20.3281 23.125H16.9531C16.8412 23.125 16.7339 23.0806 16.6548 23.0014C16.5757 22.9223 16.5312 22.815 16.5312 22.7031V19.75C16.5312 19.6381 16.5757 19.5308 16.6548 19.4517C16.7339 19.3726 16.8412 19.3281 16.9531 19.3281H20.3281C20.44 19.3281 20.5473 19.3726 20.6264 19.4517C20.7056 19.5308 20.75 19.6381 20.75 19.75V22.7031C20.75 22.815 20.7056 22.9223 20.6264 23.0014C20.5473 23.0806 20.44 23.125 20.3281 23.125ZM17.375 22.2812H19.9062V20.1719H17.375V22.2812Z" fill="white"/>
<path d="M19.9063 20.1719H17.375C17.2631 20.1719 17.1558 20.1274 17.0767 20.0483C16.9976 19.9692 16.9531 19.8619 16.9531 19.75V18.9062C16.9531 18.4587 17.1309 18.0295 17.4474 17.713C17.7638 17.3965 18.1931 17.2188 18.6406 17.2188C19.0882 17.2188 19.5174 17.3965 19.8339 17.713C20.1503 18.0295 20.3281 18.4587 20.3281 18.9062V19.75C20.3281 19.8619 20.2837 19.9692 20.2046 20.0483C20.1254 20.1274 20.0181 20.1719 19.9063 20.1719ZM17.7969 19.3281H19.4844V18.9062C19.4844 18.6825 19.3955 18.4679 19.2372 18.3096C19.079 18.1514 18.8644 18.0625 18.6406 18.0625C18.4168 18.0625 18.2022 18.1514 18.044 18.3096C17.8858 18.4679 17.7969 18.6825 17.7969 18.9062V19.3281Z" fill="white"/>
<path d="M31.4741 27.2973V26.8755C31.2175 26.8675 30.9657 26.8042 30.7358 26.6898L30.8751 26.192C31.0956 26.3159 31.3436 26.3827 31.5965 26.3861C31.8412 26.3861 32.0183 26.2891 32.0183 26.1161C32.0183 25.9431 31.8833 25.8461 31.5585 25.7364C31.0944 25.5803 30.778 25.3652 30.778 24.9433C30.7855 24.7473 30.8641 24.5608 30.9993 24.4187C31.1344 24.2765 31.3167 24.1886 31.5121 24.1712V23.7494H31.934V24.1291C32.1511 24.1333 32.3651 24.1822 32.5626 24.2725L32.436 24.7619C32.2414 24.667 32.0281 24.6165 31.8116 24.6142C31.529 24.6142 31.4404 24.7366 31.4404 24.8589C31.4404 24.9812 31.5922 25.0909 31.9593 25.2302C32.474 25.4116 32.6849 25.652 32.6849 26.0402C32.6764 26.2454 32.5933 26.4406 32.4511 26.5889C32.309 26.7373 32.1176 26.8286 31.9129 26.8459V27.2678L31.4741 27.2973Z" fill="white"/>
</svg>
