<svg width="22" height="22" viewBox="0 0 22 22" fill="none" xmlns="http://www.w3.org/2000/svg">
<g clip-path="url(#clip0)">
<path d="M20.2192 5.66466C20.2079 5.07069 20.1972 4.50958 20.1972 3.96674C20.1972 3.54146 19.8525 3.19668 19.4271 3.19668C16.1338 3.19668 13.6264 2.25023 11.5364 0.218103C11.2374 -0.0726708 10.7616 -0.0725681 10.4627 0.218103C8.37289 2.25023 5.86589 3.19668 2.57283 3.19668C2.14755 3.19668 1.80277 3.54146 1.80277 3.96674C1.80277 4.50968 1.79209 5.071 1.78069 5.66507C1.67514 11.1926 1.53058 18.7629 10.7473 21.9576C10.8291 21.986 10.9143 22.0001 10.9995 22.0001C11.0847 22.0001 11.17 21.986 11.2517 21.9576C20.4691 18.7628 20.3248 11.1923 20.2192 5.66466ZM10.9996 20.4129C3.09503 17.5414 3.21454 11.2511 3.3206 5.69444C3.32697 5.36095 3.33313 5.03773 3.33744 4.72088C6.42177 4.59069 8.88821 3.65605 10.9996 1.81674C13.1112 3.65605 15.578 4.59079 18.6626 4.72088C18.6669 5.03763 18.6731 5.36064 18.6794 5.69392C18.7854 11.2508 18.9048 17.5413 10.9996 20.4129Z" fill="#E6FFF2"/>
<path d="M13.6513 8.32505L9.93464 12.0415L8.34863 10.4555C8.0479 10.1549 7.5603 10.1549 7.25967 10.4555C6.95894 10.7564 6.95894 11.2439 7.25967 11.5446L9.39016 13.6751C9.54047 13.8254 9.73761 13.9006 9.93464 13.9006C10.1317 13.9006 10.3288 13.8254 10.4791 13.6751L14.7402 9.41411C15.041 9.11338 15.041 8.62578 14.7403 8.32515C14.4397 8.02442 13.9521 8.02431 13.6513 8.32505Z" fill="#E6FFF2"/>
</g>
<defs>
<clipPath id="clip0">
<rect width="22" height="22" fill="white"/>
</clipPath>
</defs>
</svg>
