<svg width="12" height="23" viewBox="0 0 12 23" fill="none" xmlns="http://www.w3.org/2000/svg">
<path d="M4.33282 0.156132C4.25726 0.247972 3.34205 2.58076 2.2925 5.34521C0.294167 10.6078 0.268978 10.6996 0.672004 10.9384C0.77276 10.9935 1.36051 11.1221 1.98184 11.2139C2.60317 11.3058 3.12375 11.3976 3.13214 11.4068C3.14893 11.4252 2.44364 13.6661 1.56202 16.3938C0.688797 19.1215 -0.016499 21.4543 0.000293774 21.5737C0.0338793 21.8768 0.40332 22.1615 0.663607 22.088C0.907102 22.0237 11.7384 8.93624 11.856 8.56887C11.9064 8.39437 11.8896 8.27498 11.7636 8.09129C11.5621 7.80658 11.1423 7.74229 9.2447 7.72392C8.58979 7.72392 8.03562 7.68719 8.01883 7.64127C8.00204 7.60453 8.75771 6.25445 9.68971 4.63803C11.5201 1.49703 11.6209 1.25824 11.2095 0.964342C11.0163 0.835762 5.49992 0 4.78623 0C4.58471 0 4.40839 0.0551052 4.33282 0.156132ZM7.41429 1.60724C8.66535 1.78174 9.7065 1.92868 9.74849 1.92868C9.78207 1.92868 9.80726 1.96542 9.80726 2.00216C9.80726 2.03889 9.03479 3.40734 8.086 5.05132C6.29757 8.13721 6.19682 8.35764 6.52428 8.71582C6.65862 8.86277 6.87692 8.89032 8.3295 8.95461C9.23631 8.99135 9.97519 9.04645 9.9584 9.08319C9.92481 9.17503 2.13297 18.6256 2.10778 18.6072C2.09939 18.598 2.63676 16.8806 3.30007 14.7958C3.97178 12.711 4.51754 10.9292 4.51754 10.8374C4.51754 10.7455 4.45037 10.5802 4.36641 10.47C4.24046 10.3047 4.03895 10.2404 3.04818 10.0935C2.41005 9.99243 1.87269 9.90058 1.85589 9.8914C1.8391 9.87303 3.10695 6.49324 4.97934 1.57969C5.04651 1.42355 5.11369 1.28579 5.12208 1.28579C5.13888 1.28579 6.17163 1.43274 7.41429 1.60724Z" fill="#E6FFF2"/>
</svg>
