<svg width="52" height="52" viewBox="0 0 52 52" fill="none" xmlns="http://www.w3.org/2000/svg">
<rect width="52" height="52" rx="6" fill="#8C489F"/>
<path d="M23.5453 13.1817C23.4486 13.2886 22.2772 16.004 20.934 19.2219C18.3765 25.3475 18.3442 25.4544 18.86 25.7323C18.989 25.7965 19.7412 25.9462 20.5364 26.0531C21.3316 26.16 21.9979 26.2669 22.0086 26.2776C22.0301 26.2989 21.1274 28.9074 19.9991 32.0825C18.8815 35.2576 17.9789 37.9729 18.0004 38.1119C18.0434 38.4647 18.5162 38.7961 18.8493 38.7106C19.1609 38.6357 33.0232 23.4018 33.1736 22.9742C33.2381 22.7711 33.2166 22.6321 33.0554 22.4183C32.7975 22.0869 32.2602 22.0121 29.8316 21.9907C28.9934 21.9907 28.2842 21.9479 28.2627 21.8945C28.2412 21.8517 29.2084 20.2802 30.4012 18.3987C32.7438 14.7425 32.8727 14.4646 32.3462 14.1225C32.099 13.9728 25.0389 13 24.1255 13C23.8676 13 23.642 13.0641 23.5453 13.1817ZM27.489 14.8708C29.0902 15.074 30.4226 15.245 30.4764 15.245C30.5194 15.245 30.5516 15.2878 30.5516 15.3305C30.5516 15.3733 29.563 16.9662 28.3487 18.8798C26.0598 22.4718 25.9309 22.7283 26.3499 23.1453C26.5219 23.3163 26.8013 23.3484 28.6603 23.4232C29.8209 23.466 30.7665 23.5301 30.745 23.5729C30.702 23.6798 20.7298 34.6803 20.6976 34.6589C20.6869 34.6482 21.3746 32.6491 22.2235 30.2223C23.0832 27.7956 23.7817 25.7217 23.7817 25.6148C23.7817 25.5078 23.6957 25.3154 23.5882 25.1871C23.4271 24.9947 23.1692 24.9199 21.9011 24.7488C21.0845 24.6312 20.3967 24.5243 20.3752 24.5136C20.3537 24.4923 21.9764 20.5582 24.3727 14.8388C24.4587 14.657 24.5446 14.4967 24.5554 14.4967C24.5769 14.4967 25.8986 14.6677 27.489 14.8708Z" fill="white"/>
</svg>
