<svg width="19" height="32" viewBox="0 0 19 32" fill="none" xmlns="http://www.w3.org/2000/svg">
<path d="M6.68322 0.218668C6.56666 0.34729 5.15499 3.61429 3.53611 7.48581C0.453742 14.8558 0.414889 14.9845 1.03654 15.3189C1.19196 15.3961 2.09853 15.5761 3.05691 15.7048C4.0153 15.8334 4.81826 15.962 4.83122 15.9749C4.85712 16.0006 3.76923 19.139 2.40936 22.959C1.06244 26.7791 -0.0254491 30.0461 0.000453136 30.2133C0.0522576 30.6378 0.622106 31.0365 1.02359 30.9336C1.39917 30.8436 18.1061 12.5149 18.2874 12.0004C18.3651 11.7561 18.3392 11.5889 18.145 11.3316C17.8341 10.9329 17.1866 10.8428 14.2596 10.8171C13.2494 10.8171 12.3947 10.7657 12.3688 10.7014C12.3429 10.6499 13.5085 8.75917 14.946 6.49542C17.7694 2.09655 17.9248 1.76213 17.2902 1.35054C16.9923 1.17047 8.48343 9.53674e-06 7.38258 9.53674e-06C7.07176 9.53674e-06 6.79978 0.0771828 6.68322 0.218668ZM11.4363 2.25089C13.366 2.49528 14.9719 2.70107 15.0367 2.70107C15.0885 2.70107 15.1273 2.75252 15.1273 2.80397C15.1273 2.85542 13.9358 4.77188 12.4724 7.07422C9.71378 11.3959 9.55837 11.7046 10.0635 12.2062C10.2707 12.412 10.6074 12.4506 12.848 12.5407C14.2467 12.5921 15.3864 12.6693 15.3605 12.7207C15.3087 12.8493 3.29003 26.0845 3.25118 26.0588C3.23823 26.046 4.0671 23.6407 5.09024 20.721C6.12633 17.8013 6.96815 15.306 6.96815 15.1774C6.96815 15.0488 6.86454 14.8173 6.73503 14.6629C6.54076 14.4314 6.22994 14.3414 4.7017 14.1356C3.71742 13.9941 2.88855 13.8655 2.86265 13.8526C2.83675 13.8269 4.79236 9.09358 7.68046 2.21231C7.78407 1.99365 7.88768 1.80072 7.90063 1.80072C7.92653 1.80072 9.51952 2.00651 11.4363 2.25089Z" fill="white"/>
</svg>
