<svg width="22" height="22" viewBox="0 0 22 22" fill="none" xmlns="http://www.w3.org/2000/svg">
<path d="M12.4333 10.032C12.4333 10.2074 12.5752 10.3493 12.7506 10.3493C12.9259 10.3493 13.0679 10.2074 13.0679 10.032C13.0679 9.15157 12.2883 8.42224 11.2755 8.29406V6.94545C11.2755 6.77011 11.1336 6.62817 10.9583 6.62817C10.7829 6.62817 10.641 6.77011 10.641 6.94545V8.29406C9.62822 8.42246 8.84867 9.15179 8.84867 10.032C8.84867 10.9118 9.628 11.6409 10.641 11.7693V14.0165C9.97978 13.9055 9.48301 13.4551 9.48301 12.917C9.48301 12.7417 9.34107 12.5997 9.16573 12.5997C8.99039 12.5997 8.84845 12.7417 8.84845 12.917C8.84845 13.7981 9.62822 14.5279 10.641 14.6558V16.0038C10.641 16.1791 10.7829 16.3211 10.9583 16.3211C11.1336 16.3211 11.2755 16.1791 11.2755 16.0038V14.6556C12.2885 14.5268 13.0676 13.7974 13.0676 12.9172C13.0676 12.0372 12.2883 11.3081 11.2755 11.1795V8.93343C11.937 9.04457 12.4333 9.49462 12.4333 10.032ZM9.48345 10.032C9.48345 9.49462 9.98 9.04479 10.6412 8.93364V11.1299C9.98 11.0188 9.48345 10.569 9.48345 10.032ZM12.4331 12.9168C12.4331 13.4542 11.9367 13.9042 11.2755 14.0158V11.8184C11.937 11.93 12.4331 12.3798 12.4331 12.9168Z" fill="#E6FFF2"/>
<path d="M10.9567 5.30423C7.55467 5.30423 4.78693 8.07197 4.78693 11.4741C4.78693 14.8761 7.55467 17.6439 10.9567 17.6439C14.3588 17.6439 17.1266 14.8761 17.1266 11.4741C17.1266 8.07197 14.3588 5.30423 10.9567 5.30423ZM10.9567 17.0093C7.90448 17.0093 5.42149 14.5263 5.42149 11.4741C5.42149 8.42179 7.90448 5.93879 10.9567 5.93879C14.009 5.93879 16.492 8.42179 16.492 11.4741C16.492 14.5263 14.0088 17.0093 10.9567 17.0093Z" fill="#E6FFF2"/>
<path d="M21.5801 19.0473C21.4545 18.9254 21.2536 18.9283 21.1313 19.054L19.9939 20.2271V9.89177C19.9939 9.71643 19.8519 9.57449 19.6766 9.57449C19.5012 9.57449 19.3593 9.71643 19.3593 9.89177V20.2424L18.195 19.0416C18.0727 18.9158 17.872 18.913 17.7463 19.0348C17.6205 19.1569 17.6174 19.3578 17.7395 19.4836L19.4414 21.2385C19.501 21.3001 19.5831 21.3348 19.6692 21.3348C19.7552 21.3348 19.8373 21.3001 19.8969 21.2385L21.5868 19.496C21.7089 19.37 21.7058 19.1691 21.5801 19.0473Z" fill="#E6FFF2"/>
<path d="M2.48059 0.529076C2.47076 0.51925 2.4581 0.515319 2.44762 0.507022C2.44259 0.503528 2.43757 0.500034 2.43233 0.496759C2.30874 0.412689 2.14169 0.419677 2.03207 0.529295L0.32994 2.23077C0.206129 2.35458 0.20591 2.5557 0.32994 2.67951C0.391955 2.74152 0.472967 2.77253 0.554198 2.77253C0.635429 2.77253 0.71666 2.74152 0.778456 2.67951L1.94626 1.51214V11.5426C1.94626 11.718 2.08819 11.8599 2.26354 11.8599C2.43888 11.8599 2.58082 11.718 2.58082 11.5426V1.52656L3.72263 2.6675C3.84666 2.79153 4.04756 2.79109 4.17137 2.6675C4.29518 2.54347 4.29518 2.34257 4.17137 2.21876L2.48059 0.529076Z" fill="#E6FFF2"/>
</svg>
