<svg width="21" height="23" viewBox="0 0 21 23" fill="none" xmlns="http://www.w3.org/2000/svg">
<path d="M10.4719 14.3891C12.2118 14.3891 13.6223 12.9786 13.6223 11.2387C13.6223 9.49879 12.2118 8.08832 10.4719 8.08832C8.732 8.08832 7.32153 9.49879 7.32153 11.2387C7.32153 12.9786 8.732 14.3891 10.4719 14.3891Z" stroke="#E91C29" stroke-width="1.5" stroke-miterlimit="10" stroke-linecap="round" stroke-linejoin="round"/>
<path d="M19.7323 6.80142L18.9447 5.4373C18.51 4.68358 17.5468 4.42603 16.793 4.86079L16.3788 5.10021C14.8036 6.0091 12.8346 4.8726 12.8346 3.05404V2.57519C12.8346 1.7049 12.1297 1 11.2594 1H9.68422C8.81393 1 8.10903 1.7049 8.10903 2.57519V3.05404C8.10903 4.8726 6.14004 6.00989 4.56486 5.10021L4.15058 4.86079C3.39685 4.42603 2.43363 4.68358 1.99887 5.4373L1.21128 6.80142C0.776528 7.55514 1.03407 8.51837 1.7878 8.95312L2.20207 9.19255C3.77726 10.1022 3.77726 12.3752 2.20207 13.2849L1.7878 13.5243C1.03407 13.9591 0.776528 14.9223 1.21128 15.676L1.99887 17.0401C2.43363 17.7939 3.39685 18.0514 4.15058 17.6167L4.56486 17.3772C6.14004 16.4676 8.10903 17.6048 8.10903 19.4234V19.9023C8.10903 20.7725 8.81393 21.4774 9.68422 21.4774H11.2594C12.1297 21.4774 12.8346 20.7725 12.8346 19.9023V19.4234C12.8346 17.6048 14.8036 16.4676 16.3788 17.3772L16.793 17.6167C17.5468 18.0514 18.51 17.7939 18.9447 17.0401L19.7323 15.676C20.1671 14.9223 19.9095 13.9591 19.1558 13.5243L18.7415 13.2849C17.1664 12.3752 17.1664 10.1022 18.7415 9.19255L19.1558 8.95312C19.9095 8.51837 20.1679 7.55514 19.7323 6.80142Z" stroke="#E91C29" stroke-width="1.5" stroke-miterlimit="10" stroke-linecap="round" stroke-linejoin="round"/>
</svg>
