<svg width="28" height="28" viewBox="0 0 28 28" fill="none" xmlns="http://www.w3.org/2000/svg">
<path d="M14.0007 16.3439C15.2952 16.3439 16.3446 15.2945 16.3446 14C16.3446 12.7055 15.2952 11.6561 14.0007 11.6561C12.7062 11.6561 11.6567 12.7055 11.6567 14C11.6567 15.2945 12.7062 16.3439 14.0007 16.3439Z" fill="#A5A5A5"/>
<path d="M27.0462 11.6769L23.7696 11.0626C23.5705 10.4 23.3095 9.76437 22.9866 9.16644L24.8823 6.395C25.0578 6.1385 25.0218 5.75263 24.8018 5.53325L22.4646 3.1955C22.2447 2.97556 21.8594 2.94013 21.6029 3.11506L18.8309 5.01181C18.2155 4.67994 17.5602 4.41388 16.8773 4.21306L16.2665 0.953939C16.2085 0.648501 15.911 0.401001 15.5999 0.401001L12.2941 0.401001C11.983 0.401001 11.6855 0.648501 11.6275 0.953939L11.0105 4.24513C10.3551 4.44538 9.72683 4.70638 9.13508 5.02813L6.39796 3.15556C6.14146 2.98006 5.75558 3.01606 5.53621 3.236L3.19846 5.57375C2.97852 5.79369 2.94308 6.179 3.11802 6.4355L5.00239 9.1895C4.68514 9.78125 4.42808 10.409 4.23121 11.0632L0.955207 11.6769C0.650332 11.7348 0.402832 12.0324 0.402832 12.3434L0.402832 15.6492C0.402832 15.9603 0.650332 16.2579 0.955207 16.3158L4.22896 16.9295C4.42864 17.5977 4.69189 18.239 5.01702 18.8414L3.15402 21.5651C2.97852 21.8216 3.01452 22.2074 3.23446 22.4268L5.57164 24.7646C5.79158 24.9845 6.17689 25.0199 6.43339 24.845L9.15589 22.9814C9.74145 23.2981 10.363 23.5557 11.0116 23.7549L11.6286 27.0466C11.6866 27.3515 11.9841 27.599 12.2952 27.599H15.601C15.9121 27.599 16.2096 27.3515 16.2676 27.0466L16.8785 23.7864C17.554 23.5872 18.2026 23.3246 18.8123 22.9983L21.5697 24.8849C21.8262 25.0604 22.2121 25.0244 22.4315 24.8045L24.7686 22.4679C24.9886 22.2479 25.024 21.8626 24.8491 21.6061L22.9731 18.8645C23.3045 18.2547 23.5711 17.6062 23.7736 16.9295L27.0468 16.3158C27.3516 16.2579 27.5991 15.9603 27.5991 15.6492V12.3434C27.5991 12.0324 27.3511 11.7348 27.0462 11.6769ZM14.0007 19.6728C10.8687 19.6728 8.32902 17.1331 8.32902 13.9994C8.32902 10.868 10.8687 8.32775 14.0007 8.32775C17.1338 8.32775 19.6741 10.868 19.6741 13.9994C19.6741 17.1331 17.1333 19.6728 14.0007 19.6728Z" fill="#A5A5A5"/>
</svg>
