<svg width="25" height="32" viewBox="0 0 25 32" fill="none" xmlns="http://www.w3.org/2000/svg">
<path d="M2.74059 0.0687733C2.57443 0.100035 2.22216 0.218824 1.94965 0.343868C1.03242 0.75651 0.321232 1.6068 0.101894 2.55713C-0.0243913 3.11357 -0.0310379 6.39594 0.0952475 6.62728C0.268059 6.94613 0.646915 7.01491 0.972598 6.78983C1.09888 6.7023 1.10553 6.60852 1.13876 4.70787C1.172 2.71968 1.172 2.71968 1.34481 2.36956C1.59073 1.87564 1.943 1.53803 2.45479 1.30045L2.90011 1.09413L9.39384 1.07537L15.8876 1.06286L15.9075 3.51371C15.9341 5.86452 15.9407 5.9833 16.0803 6.33968C16.4858 7.35878 17.177 8.009 18.2471 8.37162C18.719 8.52793 18.7323 8.52793 21.2979 8.55294L23.8701 8.57795V18.7439C23.8701 26.9843 23.8502 28.985 23.7771 29.2663C23.6109 29.954 23.1789 30.448 22.4743 30.7543L22.1088 30.9169H12.5044H2.90011L2.45479 30.7105C1.943 30.473 1.59073 30.1354 1.34481 29.6414L1.172 29.2913L1.15206 18.9378C1.13876 8.66548 1.13876 8.5842 1.00583 8.4529C0.733321 8.17781 0.274706 8.23408 0.0952475 8.56544C-0.0376845 8.80927 -0.0243913 28.8724 0.101894 29.4539C0.381051 30.6855 1.50433 31.7234 2.80706 31.9485C3.05298 31.9922 6.38958 32.0047 12.7437 31.9985L22.3082 31.9797L22.707 31.8297C23.9034 31.3795 24.7408 30.4355 24.9336 29.3226C24.9735 29.0537 25 25.3149 25 18.4251C25 9.44074 24.9868 7.90897 24.907 7.76517C24.8538 7.67138 22.9928 5.88952 20.7662 3.79505L16.725 0L9.87904 0.00625229C6.11042 0.0125046 2.90011 0.0375118 2.74059 0.0687733ZM20.0816 4.65785L23.0393 7.44005H20.9323C19.1245 7.44005 18.7788 7.42755 18.5396 7.33377C18.1075 7.17746 17.6556 6.8461 17.4296 6.51474C17.0707 5.9833 17.0241 5.67695 17.0241 3.67626C17.0241 2.68842 17.0441 1.87564 17.0773 1.87564C17.1039 1.87564 18.4531 3.12607 20.0816 4.65785Z" fill="#ED4422"/>
<path d="M4.16304 10.8473C3.95035 11.0411 3.95035 11.3163 4.1564 11.5477L4.31591 11.7228L12.0857 11.7415C16.3528 11.7478 19.9154 11.7415 20.0018 11.7228C20.4139 11.629 20.5668 11.0974 20.261 10.8285L20.1082 10.6909H12.212H4.32256L4.16304 10.8473Z" fill="#ED4422"/>
<path d="M4.25608 13.9609C3.95034 14.1797 3.92376 14.5111 4.18962 14.7612L4.38902 14.9425L12.2719 14.93L20.1614 14.9112L20.2877 14.7612C20.4671 14.5549 20.4538 14.2235 20.2478 14.0359L20.0883 13.8796H12.2254C6.15036 13.8859 4.33584 13.8984 4.25608 13.9609Z" fill="#ED4422"/>
<path d="M4.18985 17.2496C3.98381 17.4434 3.95058 17.6185 4.07686 17.8373C4.24303 18.1374 3.89741 18.1249 12.2255 18.1312H20.0884L20.2479 17.9749C20.4539 17.7873 20.4672 17.4559 20.2878 17.2496L20.1615 17.0995L12.272 17.0808L4.38925 17.0683L4.18985 17.2496Z" fill="#ED4422"/>
<path d="M16.7846 19.2628C16.645 19.3253 16.552 19.4691 16.4656 19.7067C16.4456 19.7692 16.3725 19.8192 16.2994 19.8192C15.7278 19.8192 14.8039 20.4757 14.4649 21.1134C14.2256 21.5761 14.1592 22.3076 14.3253 22.8265C14.5713 23.6456 15.3423 24.277 16.3127 24.4708L16.4922 24.5084V25.8213V27.1343L16.2462 27.0405C15.7876 26.8592 15.3689 26.3465 15.3622 25.9651C15.3622 25.5525 14.9834 25.2649 14.6045 25.3837C14.3121 25.4712 14.2057 25.6713 14.2456 26.0839C14.3187 26.8779 15.0498 27.7845 15.8607 28.0658C16.0668 28.1409 16.2728 28.1971 16.3326 28.1971C16.3858 28.1971 16.4456 28.2472 16.4656 28.3097C16.5586 28.5723 16.6583 28.6911 16.8311 28.7598C17.1502 28.8849 17.5158 28.7036 17.5889 28.3847C17.6221 28.2409 17.6753 28.2034 17.9013 28.1721C18.3067 28.1096 18.9248 27.7782 19.2173 27.4656C20.0681 26.5528 20.0814 25.2024 19.2372 24.3208C18.885 23.9519 18.5327 23.7456 18.0076 23.6018L17.6221 23.5018V22.1951V20.8821L17.8016 20.9509C18.2868 21.1197 18.752 21.7074 18.752 22.145C18.752 22.614 19.4034 22.839 19.7291 22.4764C19.882 22.3139 19.8953 22.2576 19.8554 21.9512C19.7956 21.4948 19.4965 20.9009 19.1508 20.5445C18.8584 20.2444 18.0541 19.8192 17.7816 19.8192C17.6686 19.8192 17.6221 19.7755 17.5889 19.6379C17.5158 19.3066 17.097 19.1127 16.7846 19.2628ZM16.4922 22.1388V23.3892L16.3459 23.3517C15.3689 23.0704 15.0565 21.92 15.781 21.276C15.9804 21.0947 16.3326 20.8884 16.4456 20.8821C16.4722 20.8821 16.4922 21.4448 16.4922 22.1388ZM17.981 24.7772C18.3266 24.9585 18.5925 25.2899 18.6922 25.64C18.7653 25.8963 18.7587 25.9714 18.6523 26.234C18.5194 26.5778 18.1339 26.9592 17.8281 27.0592L17.6221 27.128V25.8776C17.6221 25.1961 17.642 24.6334 17.6753 24.6334C17.7019 24.6334 17.8414 24.6959 17.981 24.7772Z" fill="#ED4422"/>
<path d="M4.35587 20.3193C3.99031 20.4568 3.89062 20.9132 4.16312 21.1632L4.32264 21.3195H8.53655H12.7505L12.89 21.1757C13.0363 21.032 13.0828 20.7506 12.9964 20.5381C12.8834 20.263 12.8103 20.2568 8.53655 20.263C6.3166 20.263 4.42899 20.288 4.35587 20.3193Z" fill="#ED4422"/>
<path d="M4.16299 25.7899C3.99683 25.94 3.99683 25.9462 3.99683 27.1966V28.4595L4.18957 28.6408L4.38232 28.8221H5.67838H6.97444L7.18048 28.6596C7.44634 28.4533 7.46628 28.1407 7.22036 27.9156C7.06749 27.7656 7.03426 27.7593 6.09046 27.7593H5.12672V26.8528C5.12672 25.965 5.12008 25.9337 4.96056 25.7899C4.85422 25.6836 4.72794 25.6336 4.56178 25.6336C4.39561 25.6336 4.26933 25.6836 4.16299 25.7899Z" fill="#ED4422"/>
</svg>
