<svg width="22" height="29" viewBox="0 0 22 29" fill="none" xmlns="http://www.w3.org/2000/svg">
<path d="M2.41076 0.0605145C2.26453 0.0880184 1.95452 0.192532 1.7147 0.302546C0.907496 0.665592 0.281623 1.41369 0.0885967 2.2498C-0.0225396 2.73936 -0.0283889 5.62723 0.0827474 5.83075C0.234829 6.11129 0.568238 6.17179 0.854852 5.97377C0.965989 5.89676 0.971838 5.81425 1.00108 4.14204C1.03033 2.39281 1.03033 2.39281 1.18241 2.08477C1.39884 1.65022 1.70885 1.35318 2.15924 1.14415L2.55114 0.962631L8.26589 0.946129L13.9806 0.935127L13.9982 3.0914C14.0216 5.15967 14.0274 5.26418 14.1503 5.57772C14.5071 6.47433 15.1154 7.04641 16.0571 7.36545C16.4724 7.50296 16.4841 7.50296 18.742 7.52497L21.0056 7.54697V16.4911C21.0056 23.741 20.9881 25.5013 20.9237 25.7488C20.7775 26.3539 20.3973 26.7884 19.7773 27.058L19.4556 27.201H11.0034H2.55114L2.15924 27.0195C1.70885 26.8104 1.39884 26.5134 1.18241 26.0788L1.03033 25.7708L1.01278 16.6616C1.00108 7.62398 1.00108 7.55247 0.884099 7.43696C0.644278 7.19493 0.240678 7.24443 0.0827474 7.53597C-0.0342382 7.7505 -0.0225396 25.4023 0.0885967 25.9138C0.334266 26.9975 1.32279 27.9106 2.46925 28.1086C2.68568 28.1471 5.62202 28.1581 11.2139 28.1526L19.631 28.1361L19.982 28.0041C21.0349 27.608 21.7719 26.7774 21.9415 25.7983C21.9766 25.5618 22 22.2724 22 16.2106C22 8.30607 21.9883 6.9584 21.9181 6.83188C21.8713 6.74937 20.2335 5.18167 18.274 3.33893L14.7176 7.62939e-06L8.69289 0.00550842C5.37635 0.0110092 2.55114 0.0330124 2.41076 0.0605145ZM17.6715 4.09803L20.2745 6.54584H18.4202C16.8292 6.54584 16.5251 6.53484 16.3145 6.45233C15.9343 6.31481 15.5365 6.02328 15.3377 5.73174C15.0218 5.26418 14.9809 4.99465 14.9809 3.23442C14.9809 2.36531 14.9984 1.65022 15.0277 1.65022C15.0511 1.65022 16.2385 2.75036 17.6715 4.09803Z" fill="#E6FFF2"/>
<path d="M3.66236 9.54373C3.47519 9.71426 3.47519 9.95629 3.65651 10.1598L3.7969 10.3138L10.6347 10.3303C14.3899 10.3358 17.5252 10.3303 17.6012 10.3138C17.9639 10.2313 18.0984 9.76376 17.8293 9.52723L17.6948 9.40622H10.7458H3.80275L3.66236 9.54373Z" fill="#E6FFF2"/>
<path d="M3.74453 12.2831C3.47546 12.4756 3.45206 12.7671 3.68603 12.9871L3.86151 13.1467L10.7988 13.1357L17.7419 13.1192L17.853 12.9871C18.0109 12.8056 17.9992 12.5141 17.8179 12.3491L17.6775 12.2115H10.7578C5.41157 12.217 3.81472 12.2281 3.74453 12.2831Z" fill="#E6FFF2"/>
<path d="M3.68596 15.1764C3.50463 15.3469 3.47538 15.501 3.58652 15.6935C3.73275 15.9575 3.42859 15.9465 10.7577 15.952H17.6774L17.8178 15.8145C17.9991 15.6495 18.0108 15.358 17.8529 15.1764L17.7418 15.0444L10.7987 15.0279L3.86144 15.0169L3.68596 15.1764Z" fill="#E6FFF2"/>
<path d="M14.7702 16.9476C14.6473 17.0026 14.5654 17.1292 14.4894 17.3382C14.4719 17.3932 14.4075 17.4372 14.3432 17.4372C13.8401 17.4372 13.0271 18.0148 12.7288 18.5758C12.5182 18.9829 12.4597 19.6265 12.6059 20.083C12.8224 20.8036 13.5009 21.3592 14.3549 21.5297L14.5128 21.5627V22.7179V23.873L14.2964 23.7905C13.8928 23.631 13.5243 23.1799 13.5184 22.8444C13.5184 22.4813 13.185 22.2283 12.8516 22.3328C12.5942 22.4098 12.5007 22.5858 12.5358 22.9489C12.6001 23.6475 13.2435 24.4451 13.9571 24.6926C14.1385 24.7586 14.3198 24.8081 14.3724 24.8081C14.4192 24.8081 14.4719 24.8521 14.4894 24.9071C14.5713 25.1382 14.659 25.2427 14.8111 25.3032C15.0919 25.4132 15.4136 25.2537 15.4779 24.9732C15.5072 24.8466 15.554 24.8136 15.7529 24.7861C16.1097 24.7311 16.6536 24.4396 16.911 24.1646C17.6597 23.3614 17.6714 22.1733 16.9286 21.3977C16.6185 21.0732 16.3085 20.8916 15.8464 20.7651L15.5072 20.6771V19.5275V18.3723L15.6651 18.4328C16.0921 18.5813 16.5016 19.0984 16.5016 19.4835C16.5016 19.896 17.0748 20.094 17.3614 19.775C17.4959 19.632 17.5076 19.5825 17.4725 19.3129C17.4199 18.9114 17.1567 18.3888 16.8525 18.0753C16.5951 17.8112 15.8874 17.4372 15.6476 17.4372C15.5481 17.4372 15.5072 17.3987 15.4779 17.2777C15.4136 16.9861 15.0451 16.8156 14.7702 16.9476ZM14.5128 19.478V20.5781L14.3841 20.5451C13.5243 20.2976 13.2494 19.2854 13.8869 18.7189C14.0624 18.5593 14.3724 18.3778 14.4719 18.3723C14.4953 18.3723 14.5128 18.8674 14.5128 19.478ZM15.823 21.7992C16.1272 21.9588 16.3612 22.2503 16.4489 22.5583C16.5133 22.7839 16.5074 22.8499 16.4138 23.0809C16.2968 23.3835 15.9576 23.719 15.6885 23.807L15.5072 23.8675V22.7674C15.5072 22.1678 15.5247 21.6727 15.554 21.6727C15.5774 21.6727 15.7002 21.7277 15.823 21.7992Z" fill="#E6FFF2"/>
<path d="M3.83219 17.8773C3.51048 17.9983 3.42274 18.3998 3.66256 18.6199L3.80294 18.7574H7.51138H11.2198L11.3427 18.6309C11.4713 18.5044 11.5123 18.2568 11.4362 18.0698C11.3368 17.8278 11.2725 17.8223 7.51138 17.8278C5.55773 17.8278 3.89653 17.8498 3.83219 17.8773Z" fill="#E6FFF2"/>
<path d="M3.66247 22.6904C3.51624 22.8224 3.51624 22.8279 3.51624 23.928V25.0392L3.68586 25.1987L3.85549 25.3582H4.9961H6.13671L6.31804 25.2152C6.55201 25.0337 6.56956 24.7586 6.35314 24.5606C6.2186 24.4286 6.18936 24.4231 5.35876 24.4231H4.51061V23.6255C4.51061 22.8444 4.50476 22.8169 4.36438 22.6904C4.27079 22.5969 4.15966 22.5529 4.01342 22.5529C3.86719 22.5529 3.75606 22.5969 3.66247 22.6904Z" fill="#E6FFF2"/>
</svg>
