<svg width="22" height="22" viewBox="0 0 22 22" fill="none" xmlns="http://www.w3.org/2000/svg">
<path d="M8.15831 8.29584L4.76665 11.6417L2.84165 9.7625L1.83331 10.7708L4.76665 13.7042L9.16665 9.30417L8.15831 8.29584Z" fill="#E6FFF2"/>
<path d="M8.15831 2.33752L4.76665 5.68336L2.84165 3.80419L1.83331 4.81252L4.76665 7.74586L9.16665 3.34586L8.15831 2.33752Z" fill="#E6FFF2"/>
<path d="M8.15831 14.2542L4.76665 17.6L2.84165 15.7209L1.83331 16.7292L4.76665 19.6625L9.16665 15.2625L8.15831 14.2542Z" fill="#E6FFF2"/>
<path d="M20.1667 10.0833H11V11.9166H20.1667V10.0833Z" fill="#E6FFF2"/>
<path d="M20.1667 4.125H11V5.95833H20.1667V4.125Z" fill="#E6FFF2"/>
<path d="M20.1667 16.0417H11V17.875H20.1667V16.0417Z" fill="#E6FFF2"/>
</svg>
