<svg width="22" height="22" viewBox="0 0 22 22" fill="none" xmlns="http://www.w3.org/2000/svg">
<path d="M11.1577 3.38866C13.2349 3.38866 15.1155 4.23063 16.4767 5.59188C17.838 6.95313 18.6799 8.83371 18.6799 10.9109C18.6799 12.9881 17.838 14.8686 16.4767 16.2299C15.1155 17.5911 13.2349 18.4331 11.1577 18.4331C10.4478 18.4331 9.75989 18.3342 9.10702 18.1494C8.47026 17.9692 7.86718 17.7067 7.30993 17.3743L3.63544 18.598L3.63577 18.599C3.51002 18.6408 3.37411 18.5728 3.33224 18.4471C3.31114 18.3837 3.31795 18.3178 3.34594 18.2626L4.74748 14.8468C4.39993 14.2819 4.12489 13.6678 3.93543 13.0173C3.74018 12.347 3.63547 11.6401 3.63547 10.9109C3.63547 8.83369 4.47745 6.95312 5.8387 5.59187C7.19995 4.23061 9.08053 3.38864 11.1577 3.38864L11.1577 3.38866ZM16.1373 5.93126C14.863 4.65689 13.1024 3.86866 11.1577 3.86866C9.21303 3.86866 7.45243 4.65689 6.17809 5.93126C4.90372 7.20562 4.11548 8.96621 4.11548 10.9109C4.11548 11.5979 4.213 12.26 4.39481 12.8842C4.58126 13.5243 4.85614 14.1267 5.20523 14.6773C5.25587 14.7429 5.27111 14.833 5.23739 14.9152L5.23661 14.915L3.97914 17.9798L7.24275 16.8929C7.31254 16.8622 7.39576 16.8652 7.46554 16.9083L7.46514 16.9091C8.00992 17.2452 8.6048 17.5094 9.23643 17.6882C9.84612 17.8607 10.4906 17.9531 11.1577 17.9531C13.1024 17.9531 14.863 17.1649 16.1373 15.8905C17.4117 14.6161 18.1999 12.8555 18.1999 10.9109C18.1999 8.96621 17.4117 7.20561 16.1373 5.93127L16.1373 5.93126Z" fill="#E6FFF2"/>
<path d="M10.5983 12.6968C10.5953 12.5913 10.5938 12.5114 10.5938 12.4587C10.5938 12.1468 10.6375 11.877 10.7264 11.651C10.7912 11.4807 10.8952 11.3089 11.0399 11.1341C11.1453 11.0075 11.3367 10.8237 11.611 10.5811C11.8867 10.337 12.0646 10.1441 12.1474 9.99942C12.2303 9.85626 12.271 9.69804 12.271 9.52776C12.271 9.21884 12.1505 8.9476 11.9094 8.71252C11.6682 8.47895 11.3714 8.36141 11.0218 8.36141C10.6827 8.36141 10.4009 8.46841 10.1749 8.67936C9.94736 8.89184 9.79968 9.22337 9.72887 9.67393L8.91211 9.57599C8.98595 8.97322 9.20446 8.5106 9.56762 8.18962C9.93079 7.86866 10.4115 7.70892 11.0082 7.70892C11.6411 7.70892 12.1459 7.8807 12.5227 8.22578C12.8994 8.56937 13.0878 8.98527 13.0878 9.47501C13.0878 9.75681 13.0215 10.0175 12.8888 10.2556C12.7562 10.4937 12.4986 10.7845 12.1128 11.1251C11.8536 11.3556 11.6848 11.5244 11.605 11.6329C11.5251 11.7429 11.4663 11.868 11.4286 12.0081C11.3895 12.1498 11.3684 12.3788 11.3624 12.6968H10.5983L10.5983 12.6968ZM10.5501 14.2911V13.3854H11.4543V14.2911H10.5501Z" fill="#E6FFF2"/>
<path fill-rule="evenodd" clip-rule="evenodd" d="M0 0H22V22H0V0ZM0.959988 0.959988H21.04V21.04H0.959988V0.959988Z" fill="#E6FFF2"/>
</svg>
