<svg width="1440" height="1024" viewBox="0 0 1440 1024" fill="none" xmlns="http://www.w3.org/2000/svg">
<rect width="1440" height="1024" fill="#E79F31"/>
<path d="M1907.93 329.539C1820.26 140.19 1609.85 68.8968 1443.82 196.031C1378.99 245.629 1338.54 324.566 1259.16 356.241C1184.68 385.947 1090.32 377.202 1009.78 393.29C838.257 427.335 607.334 556.505 624.951 755.533C632.667 842.714 694.749 939.541 725.438 1021.12C760.672 1114.97 781.812 1232.39 875.077 1288.5C1034.97 1384.83 1227.84 1306.09 1371.88 1228.42C1449.39 1186.67 1492.06 1161 1575.53 1175.32C1652.8 1188.67 1722.38 1235.4 1797.89 1179.96C1854.58 1138.34 1859.27 1053.99 1906.87 1004.46C1960.49 948.653 2014.86 944.615 2042.73 860.738C2076.52 758.971 2026.73 695.387 1993.09 604.468C1959.44 513.548 1949.22 418.623 1907.93 329.539Z" fill="#F4AB3A"/>
<path d="M769.926 789.539C682.263 600.19 471.846 528.897 305.824 656.031C240.993 705.629 200.544 784.566 121.162 816.241C46.6777 845.947 -47.6789 837.202 -128.224 853.29C-299.743 887.335 -530.666 1016.5 -513.049 1215.53C-505.333 1302.71 -443.251 1399.54 -412.562 1481.12C-377.328 1574.97 -356.188 1692.39 -262.923 1748.5C-103.031 1844.83 89.8393 1766.09 233.876 1688.42C311.391 1646.67 354.059 1621 437.528 1635.32C514.796 1648.67 584.383 1695.4 659.89 1639.96C716.581 1598.34 721.267 1513.99 768.869 1464.46C822.495 1408.65 876.861 1404.61 904.731 1320.74C938.52 1218.97 888.734 1155.39 855.086 1064.47C821.438 973.548 811.22 878.623 769.926 789.539Z" fill="#F4AB3A"/>
</svg>
