<svg width="519" height="529" viewBox="0 0 519 529" fill="none" xmlns="http://www.w3.org/2000/svg">
<path d="M175.105 231.014H201.053C201.606 231.014 202.137 230.795 202.528 230.404C202.919 230.013 203.139 229.482 203.139 228.929V167.485C202.853 167.35 202.61 167.14 202.435 166.877C202.26 166.615 202.16 166.31 202.145 165.995C202.129 165.679 202.2 165.366 202.349 165.088C202.498 164.81 202.719 164.577 202.99 164.415C203.261 164.253 203.57 164.168 203.886 164.168C204.201 164.168 204.511 164.253 204.781 164.416C205.052 164.578 205.274 164.811 205.422 165.089C205.571 165.367 205.641 165.68 205.626 165.996C205.612 166.311 205.511 166.617 205.335 166.88C205.159 167.143 204.915 167.352 204.628 167.485V228.914C204.63 229.384 204.539 229.85 204.36 230.285C204.181 230.719 203.918 231.114 203.585 231.446C203.253 231.779 202.858 232.042 202.424 232.221C201.989 232.4 201.523 232.491 201.053 232.489H175.105C174.552 232.489 174.022 232.709 173.631 233.1C173.24 233.491 173.02 234.021 173.02 234.574V269.743H171.53V234.589C171.53 234.12 171.623 233.655 171.802 233.221C171.982 232.788 172.245 232.393 172.577 232.061C172.909 231.73 173.303 231.466 173.737 231.287C174.171 231.107 174.636 231.014 175.105 231.014Z" fill="#EF4A29"/>
<path opacity="0.4" d="M175.105 231.014H201.053C201.606 231.014 202.137 230.795 202.528 230.404C202.919 230.013 203.139 229.482 203.139 228.929V167.485C202.853 167.35 202.61 167.14 202.435 166.877C202.26 166.615 202.16 166.31 202.145 165.995C202.129 165.679 202.2 165.366 202.349 165.088C202.498 164.81 202.719 164.577 202.99 164.415C203.261 164.253 203.57 164.168 203.886 164.168C204.201 164.168 204.511 164.253 204.781 164.416C205.052 164.578 205.274 164.811 205.422 165.089C205.571 165.367 205.641 165.68 205.626 165.996C205.612 166.311 205.511 166.617 205.335 166.88C205.159 167.143 204.915 167.352 204.628 167.485V228.914C204.63 229.384 204.539 229.85 204.36 230.285C204.181 230.719 203.918 231.114 203.585 231.446C203.253 231.779 202.858 232.042 202.424 232.221C201.989 232.4 201.523 232.491 201.053 232.489H175.105C174.552 232.489 174.022 232.709 173.631 233.1C173.24 233.491 173.02 234.021 173.02 234.574V269.743H171.53V234.589C171.53 234.12 171.623 233.655 171.802 233.221C171.982 232.788 172.245 232.393 172.577 232.061C172.909 231.73 173.303 231.466 173.737 231.287C174.171 231.107 174.636 231.014 175.105 231.014Z" fill="white"/>
<path d="M144.063 268.268H200.621C202.834 268.268 204.628 270.062 204.628 272.275V331.991C204.628 334.204 202.834 335.998 200.621 335.998H144.063C141.85 335.998 140.056 334.204 140.056 331.991V272.275C140.056 270.062 141.85 268.268 144.063 268.268Z" fill="#EF4A29"/>
<path opacity="0.4" d="M144.063 268.268H200.621C202.834 268.268 204.628 270.062 204.628 272.275V331.991C204.628 334.204 202.834 335.998 200.621 335.998H144.063C141.85 335.998 140.056 334.204 140.056 331.991V272.275C140.056 270.062 141.85 268.268 144.063 268.268Z" fill="white"/>
<path opacity="0.2" d="M168 307.22H176.684V315.904H168V307.22Z" fill="white"/>
<path opacity="0.2" d="M158.571 278.933H167.255V287.617H158.571V278.933Z" fill="white"/>
<path opacity="0.2" d="M177.429 316.649H186.113V325.333H177.429V316.649Z" fill="white"/>
<path opacity="0.2" d="M158.571 288.362H167.255V297.046H158.571V288.362Z" fill="white"/>
<path opacity="0.2" d="M158.571 297.791H167.255V306.475H158.571V297.791Z" fill="white"/>
<path opacity="0.2" d="M168 288.362H176.684V297.046H168V288.362Z" fill="white"/>
<path opacity="0.2" d="M168 269.013H176.684V278.188H168V269.013Z" fill="white"/>
<path opacity="0.2" d="M177.429 307.22H186.113V315.904H177.429V307.22Z" fill="white"/>
<path opacity="0.2" d="M168 278.933H176.684V287.617H168V278.933Z" fill="white"/>
<path opacity="0.2" d="M168 316.649H176.684V325.333H168V316.649Z" fill="white"/>
<path opacity="0.2" d="M158.571 316.649H167.255V325.333H158.571V316.649Z" fill="white"/>
<path opacity="0.2" d="M168 297.791H176.684V306.475H168V297.791Z" fill="white"/>
<path opacity="0.2" d="M158.571 269.013H167.255V278.188H158.571V269.013Z" fill="white"/>
<path opacity="0.2" d="M196.287 307.22H203.883V315.904H196.287V307.22Z" fill="white"/>
<path opacity="0.2" d="M196.287 278.933H203.883V287.617H196.287V278.933Z" fill="white"/>
<path opacity="0.2" d="M196.287 297.791H203.883V306.475H196.287V297.791Z" fill="white"/>
<path opacity="0.2" d="M196.287 288.362H203.883V297.046H196.287V288.362Z" fill="white"/>
<path opacity="0.2" d="M158.571 307.22H167.255V315.904H158.571V307.22Z" fill="white"/>
<path opacity="0.2" d="M148.398 278.188H140.846V272.23C140.846 271.365 141.189 270.535 141.801 269.924C142.413 269.312 143.242 268.968 144.108 268.968H148.442L148.398 278.188Z" fill="white"/>
<path opacity="0.2" d="M149.142 278.933H157.826V287.617H149.142V278.933Z" fill="white"/>
<path opacity="0.2" d="M196.287 316.649H203.883V325.333H196.287V316.649Z" fill="white"/>
<path opacity="0.2" d="M149.142 288.362H157.826V297.046H149.142V288.362Z" fill="white"/>
<path opacity="0.2" d="M149.142 297.791H157.826V306.475H149.142V297.791Z" fill="white"/>
<path opacity="0.2" d="M149.142 307.22H157.826V315.904H149.142V307.22Z" fill="white"/>
<path opacity="0.2" d="M149.142 316.649H157.826V325.333H149.142V316.649Z" fill="white"/>
<path opacity="0.2" d="M140.801 316.649H148.398V325.333H140.801V316.649Z" fill="white"/>
<path opacity="0.2" d="M149.142 269.013H157.826V278.188H149.142V269.013Z" fill="white"/>
<path opacity="0.2" d="M168 326.092H176.684V335.268H168V326.092Z" fill="white"/>
<path opacity="0.2" d="M158.571 326.092H167.255V335.268H158.571V326.092Z" fill="white"/>
<path opacity="0.2" d="M140.801 297.791H148.398V306.475H140.801V297.791Z" fill="white"/>
<path opacity="0.2" d="M149.142 326.092H157.826V335.268H149.142V326.092Z" fill="white"/>
<path opacity="0.2" d="M140.801 307.22H148.398V315.904H140.801V307.22Z" fill="white"/>
<path opacity="0.2" d="M196.301 326.092H203.883V332.051C203.879 332.913 203.534 333.739 202.923 334.348C202.311 334.956 201.484 335.298 200.621 335.298H196.301V326.092Z" fill="white"/>
<path opacity="0.2" d="M148.398 326.092V335.253H144.063C143.2 335.253 142.373 334.911 141.762 334.303C141.15 333.694 140.805 332.868 140.801 332.006V326.048L148.398 326.092Z" fill="white"/>
<path opacity="0.2" d="M196.301 278.188V269.013H200.621C201.486 269.013 202.316 269.356 202.928 269.968C203.54 270.58 203.883 271.41 203.883 272.275V278.233L196.301 278.188Z" fill="white"/>
<path opacity="0.2" d="M140.801 288.362H148.398V297.046H140.801V288.362Z" fill="white"/>
<path opacity="0.2" d="M140.801 278.933H148.398V287.617H140.801V278.933Z" fill="white"/>
<path opacity="0.2" d="M186.873 297.791H195.557V306.475H186.873V297.791Z" fill="white"/>
<path opacity="0.2" d="M186.873 316.649H195.557V325.333H186.873V316.649Z" fill="white"/>
<path opacity="0.2" d="M177.429 269.013H186.113V278.188H177.429V269.013Z" fill="white"/>
<path opacity="0.2" d="M186.873 307.22H195.557V315.904H186.873V307.22Z" fill="white"/>
<path opacity="0.2" d="M177.429 288.362H186.113V297.046H177.429V288.362Z" fill="white"/>
<path opacity="0.2" d="M177.429 278.933H186.113V287.617H177.429V278.933Z" fill="white"/>
<path opacity="0.2" d="M177.429 326.092H186.113V335.268H177.429V326.092Z" fill="white"/>
<path opacity="0.2" d="M186.873 326.092H195.557V335.268H186.873V326.092Z" fill="white"/>
<path opacity="0.2" d="M186.873 269.013H195.557V278.188H186.873V269.013Z" fill="white"/>
<path opacity="0.2" d="M177.429 297.791H186.113V306.475H177.429V297.791Z" fill="white"/>
<path opacity="0.2" d="M186.873 288.362H195.557V297.046H186.873V288.362Z" fill="white"/>
<path opacity="0.2" d="M186.873 278.933H195.557V287.617H186.873V278.933Z" fill="white"/>
<path d="M156.918 292.146C157.047 291.466 157.231 290.799 157.469 290.15C158.4 287.496 160.025 285.141 162.174 283.327C164.323 281.513 166.918 280.307 169.69 279.835C172.462 279.362 175.31 279.64 177.938 280.639C180.567 281.638 182.88 283.322 184.638 285.517C185.472 286.55 186.168 287.686 186.709 288.898C187.631 290.934 188.108 293.143 188.109 295.378V308.903C188.111 310.194 187.951 311.48 187.632 312.731C187.401 313.688 187.066 314.617 186.634 315.502C186.258 316.329 185.81 317.122 185.294 317.87C184.892 318.406 184.489 318.913 184.057 319.36C183.527 319.947 182.955 320.495 182.344 320.998C181.845 321.405 181.323 321.783 180.78 322.13C179.841 322.728 178.843 323.227 177.801 323.62C177.295 323.798 176.788 323.962 176.312 324.096C175.659 324.258 174.997 324.382 174.331 324.469C173.836 324.532 173.339 324.567 172.841 324.573H172.439C171.626 324.574 170.815 324.514 170.011 324.394C169.504 324.305 168.998 324.201 168.521 324.082C166.691 323.603 164.961 322.801 163.412 321.713C162.852 321.324 162.319 320.896 161.818 320.432C160.449 319.18 159.31 317.698 158.452 316.053C158.005 315.206 157.64 314.318 157.365 313.401C156.95 312.064 156.725 310.675 156.694 309.275C156.694 309.275 156.694 308.963 156.694 308.814V295.288C156.662 294.236 156.736 293.183 156.918 292.146ZM160.448 316.798C161.292 318.075 162.339 319.207 163.546 320.149C163.985 320.499 164.448 320.817 164.932 321.102C166.208 321.887 167.601 322.466 169.058 322.815C169.534 322.92 170.026 323.009 170.547 323.069C171.145 323.146 171.747 323.186 172.349 323.188H173.02C173.541 323.188 174.033 323.188 174.509 323.039C175.133 322.939 175.75 322.799 176.356 322.622C176.878 322.473 177.384 322.279 177.846 322.085C178.9 321.634 179.899 321.064 180.825 320.387C181.324 320.013 181.797 319.605 182.24 319.166C182.783 318.653 183.282 318.095 183.73 317.498C184.162 316.927 184.55 316.324 184.892 315.695C185.405 314.753 185.805 313.753 186.083 312.716C186.431 311.47 186.607 310.182 186.604 308.888V295.363C186.601 292.223 185.553 289.173 183.625 286.694C182.341 285.017 180.704 283.644 178.829 282.672C176.811 281.619 174.567 281.072 172.29 281.078C169.047 281.079 165.901 282.182 163.367 284.207C160.834 286.232 159.064 289.057 158.348 292.22C158.119 293.242 158.004 294.286 158.005 295.333V308.977C158.018 309.857 158.108 310.735 158.273 311.599C158.506 312.758 158.881 313.884 159.39 314.951C159.692 315.594 160.046 316.212 160.448 316.798Z" fill="white"/>
<path d="M170.547 303.749C172.141 308.799 174.211 315.442 173.02 323.113C172.945 323.605 172.856 324.096 172.752 324.603C173.25 324.597 173.747 324.562 174.241 324.499C174.346 323.977 174.435 323.471 174.494 323.009C175.627 315.114 173.526 308.397 171.932 303.287C170.234 297.865 169.534 295.214 172.096 294.127C172.498 293.959 172.938 293.9 173.37 293.958C173.801 294.015 174.21 294.187 174.554 294.454C178.621 297.15 182.255 308.784 183.7 317.468C183.819 318.153 183.923 318.808 184.013 319.434C184.445 318.943 184.847 318.436 185.249 317.945C185.145 317.23 185.011 316.455 184.862 315.725C183.223 307.116 179.723 296.167 175.373 293.292C174.825 292.889 174.181 292.635 173.505 292.554C172.829 292.473 172.144 292.568 171.515 292.831C167.657 294.454 168.924 298.551 170.547 303.749Z" fill="white"/>
<path d="M173.139 303.392C174.629 308.173 176.818 315.174 176.386 322.622C176.386 323.143 176.386 323.664 176.267 324.201C176.788 324.067 177.295 323.903 177.757 323.724C177.757 323.173 177.831 322.637 177.846 322.085C178.144 314.638 175.984 307.696 174.494 302.945C173.917 301.377 173.498 299.755 173.243 298.104C175.046 299.712 180.691 312.821 180.795 320.447C180.825 321.064 180.8 321.682 180.721 322.294C181.264 321.947 181.786 321.569 182.285 321.162C182.285 320.551 182.285 319.896 182.21 319.226C181.585 311.331 176.833 299.429 174.241 297.076C174.051 296.85 173.798 296.685 173.515 296.603C173.231 296.52 172.929 296.524 172.647 296.614C171.173 297.136 171.873 299.355 173.139 303.392Z" fill="white"/>
<path d="M169.058 322.756C168.875 323.224 168.666 323.682 168.432 324.126C168.909 324.245 169.415 324.35 169.922 324.439C170.161 323.956 170.37 323.459 170.547 322.949C171.769 319.762 172.409 314.921 170.19 308.307C165.855 295.408 166.615 292.339 169.832 290.641C170.654 290.16 171.583 289.891 172.535 289.86C173.487 289.829 174.432 290.036 175.284 290.462C179.753 292.667 183.611 300.636 186.098 312.612C186.292 313.521 186.47 314.444 186.634 315.397C187.066 314.513 187.401 313.584 187.632 312.627C187.319 311.137 186.977 309.648 186.619 308.158C184.028 297.91 180.319 291.252 175.939 289.092C174.881 288.548 173.702 288.279 172.513 288.311C171.323 288.342 170.161 288.672 169.132 289.271C164.663 291.654 164.559 296.197 168.775 308.724C170.934 315.159 170.264 319.747 169.073 322.651L169.058 322.756Z" fill="white"/>
<path d="M161.699 320.536C162.2 321 162.733 321.428 163.293 321.817L163.904 321.624C164.263 321.495 164.603 321.32 164.917 321.102C166.6 319.99 167.781 318.263 168.209 316.291C168.983 313.506 167.717 309.484 166.362 305.239C165.006 300.993 163.606 296.555 164.276 293.322C164.457 292.161 164.905 291.057 165.585 290.098C166.265 289.139 167.158 288.351 168.194 287.796C170.8 286.5 174.271 286.724 177.95 288.437C181.629 290.15 184.787 295.631 186.605 299.876C187.245 301.366 187.751 302.736 188.094 303.734V299.549C187.662 298.536 187.171 297.433 186.605 296.331C184.683 292.563 181.987 288.675 178.591 287.096C174.48 285.174 170.547 284.951 167.523 286.47C166.284 287.123 165.214 288.055 164.397 289.192C163.58 290.33 163.039 291.642 162.816 293.024C162.072 296.599 163.531 301.202 164.946 305.656C166.227 309.692 167.434 313.491 166.779 315.859C166.599 316.77 166.213 317.628 165.65 318.366C165.087 319.105 164.362 319.704 163.531 320.119L163.368 320.194C162.839 320.414 162.272 320.53 161.699 320.536Z" fill="white"/>
<path d="M157.231 313.506C157.506 314.423 157.871 315.311 158.318 316.157C158.972 316.499 159.685 316.716 160.418 316.798H160.835H161.208C162.027 316.732 162.804 316.408 163.427 315.872C164.051 315.337 164.489 314.618 164.678 313.818C165.334 311.599 164.261 307.428 163.189 303.019C162.341 300.229 161.782 297.359 161.52 294.454C161.52 289.867 162.712 284.951 171.515 283.387C175.984 282.583 182.419 285.443 186.187 291.55C186.932 292.741 185.964 288.168 186.783 288.839C186.247 287.617 185.413 287.677 184.594 286.649C182.94 285.577 178.338 281.033 171.262 281.912C161.118 283.164 160.031 289.926 160.031 294.454C160.279 297.488 160.859 300.484 161.759 303.392C162.742 307.22 163.844 311.569 163.248 313.401C163.14 313.906 162.873 314.363 162.488 314.706C162.102 315.048 161.617 315.259 161.103 315.308C160.536 315.344 159.969 315.242 159.45 315.01C158.615 314.667 157.859 314.154 157.231 313.506Z" fill="white"/>
<path d="M156.575 305.403V308.903C156.575 309.052 156.575 309.216 156.575 309.365C156.575 309.514 156.575 309.365 156.575 309.365C156.976 310.243 157.572 311.017 158.318 311.629C158.833 312.002 159.454 312.2 160.091 312.195H160.522C160.748 312.167 160.964 312.083 161.148 311.95C161.333 311.818 161.482 311.64 161.58 311.435C162.25 310.199 161.416 307.696 160.865 306.311C158.929 301.889 158.081 297.067 158.392 292.25C158.392 291.401 158.303 290.879 158.303 290.85C158.284 290.655 158.192 290.474 158.046 290.344C157.899 290.214 157.709 290.145 157.514 290.149C157.276 290.799 157.092 291.466 156.962 292.146C156.962 293.248 157.141 294.35 157.245 295.452C157.454 297.568 157.707 299.683 158.109 301.783C158.214 302.349 157.737 302.126 157.856 302.692C158.221 303.811 158.659 304.906 159.167 305.969C159.524 306.788 159.927 307.592 160.21 308.441C160.388 308.948 161.044 311.331 159.703 310.81C159.2 310.55 158.782 310.152 158.497 309.663C158.363 309.454 158.229 309.246 158.109 309.022C157.675 308.214 157.307 307.372 157.007 306.505C156.828 306.147 156.694 305.775 156.575 305.403Z" fill="white"/>
<path d="M266.4 52.745V90.7285C266.4 91.2816 266.619 91.812 267.011 92.2031C267.402 92.5942 267.932 92.8139 268.485 92.8139H307.109C307.241 92.5262 307.45 92.2806 307.713 92.1044C307.976 91.9283 308.282 91.8284 308.599 91.8159C308.914 91.8005 309.227 91.8709 309.505 92.0197C309.784 92.1684 310.016 92.3899 310.179 92.6605C310.341 92.9311 310.426 93.2406 310.427 93.5561C310.427 93.8716 310.341 94.1812 310.179 94.4519C310.017 94.7226 309.784 94.9442 309.506 95.0931C309.228 95.242 308.915 95.3126 308.6 95.2973C308.284 95.2821 307.979 95.1816 307.717 95.0065C307.454 94.8315 307.244 94.5885 307.109 94.3034H268.485C267.538 94.2995 266.631 93.9216 265.962 93.252C265.292 92.5824 264.914 91.6754 264.91 90.7285V52.745H266.4Z" fill="#EF4A29"/>
<path opacity="0.4" d="M266.4 52.745V90.7285C266.4 91.2816 266.619 91.812 267.011 92.2031C267.402 92.5942 267.932 92.8139 268.485 92.8139H307.109C307.241 92.5262 307.45 92.2806 307.713 92.1044C307.976 91.9283 308.282 91.8284 308.599 91.8159C308.914 91.8005 309.227 91.8709 309.505 92.0197C309.784 92.1684 310.016 92.3899 310.179 92.6605C310.341 92.9311 310.426 93.2406 310.427 93.5561C310.427 93.8716 310.341 94.1812 310.179 94.4519C310.017 94.7226 309.784 94.9442 309.506 95.0931C309.228 95.242 308.915 95.3126 308.6 95.2973C308.284 95.2821 307.979 95.1816 307.717 95.0065C307.454 94.8315 307.244 94.5885 307.109 94.3034H268.485C267.538 94.2995 266.631 93.9216 265.962 93.252C265.292 92.5824 264.914 91.6754 264.91 90.7285V52.745H266.4Z" fill="white"/>
<path d="M231.797 60.5651V4.00689C231.797 1.79395 233.591 0 235.804 0L295.52 0C297.733 0 299.527 1.79395 299.527 4.00689V60.5651C299.527 62.7781 297.733 64.572 295.52 64.572H235.804C233.591 64.572 231.797 62.7781 231.797 60.5651Z" fill="#EF4A29"/>
<path opacity="0.4" d="M231.797 60.5651V4.00689C231.797 1.79395 233.591 0 235.804 0L295.52 0C297.733 0 299.527 1.79395 299.527 4.00689V60.5651C299.527 62.7781 297.733 64.572 295.52 64.572H235.804C233.591 64.572 231.797 62.7781 231.797 60.5651Z" fill="white"/>
<path opacity="0.2" d="M270.749 27.944H279.433V36.6281H270.749V27.944Z" fill="white"/>
<path opacity="0.2" d="M242.463 37.3728H251.147V46.0569H242.463V37.3728Z" fill="white"/>
<path opacity="0.2" d="M280.178 18.5002H288.862V27.1843H280.178V18.5002Z" fill="white"/>
<path opacity="0.2" d="M251.891 37.3728H260.576V46.0569H251.891V37.3728Z" fill="white"/>
<path opacity="0.2" d="M261.32 37.3728H270.004V46.0569H261.32V37.3728Z" fill="white"/>
<path opacity="0.2" d="M251.891 27.944H260.576V36.6281H251.891V27.944Z" fill="white"/>
<path opacity="0.2" d="M232.527 27.944H241.703V36.6281H232.527V27.944Z" fill="white"/>
<path opacity="0.2" d="M270.749 18.5002H279.433V27.1843H270.749V18.5002Z" fill="white"/>
<path opacity="0.2" d="M242.463 27.944H251.147V36.6281H242.463V27.944Z" fill="white"/>
<path opacity="0.2" d="M280.178 27.944H288.862V36.6281H280.178V27.944Z" fill="white"/>
<path opacity="0.2" d="M280.178 37.3728H288.862V46.0569H280.178V37.3728Z" fill="white"/>
<path opacity="0.2" d="M261.32 27.944H270.004V36.6281H261.32V27.944Z" fill="white"/>
<path opacity="0.2" d="M232.527 37.3728H241.703V46.0569H232.527V37.3728Z" fill="white"/>
<path opacity="0.2" d="M270.749 0.744781H279.433V8.34149H270.749V0.744781Z" fill="white"/>
<path opacity="0.2" d="M242.463 0.744781H251.147V8.34149H242.463V0.744781Z" fill="white"/>
<path opacity="0.2" d="M261.32 0.744781H270.004V8.34149H261.32V0.744781Z" fill="white"/>
<path opacity="0.2" d="M251.891 0.744781H260.576V8.34149H251.891V0.744781Z" fill="white"/>
<path opacity="0.2" d="M270.749 37.3728H279.433V46.0569H270.749V37.3728Z" fill="white"/>
<path opacity="0.2" d="M241.703 56.2305V63.8272H235.745C234.882 63.8233 234.056 63.4779 233.448 62.8665C232.839 62.2552 232.498 61.4277 232.498 60.5651V56.2305H241.703Z" fill="white"/>
<path opacity="0.2" d="M242.463 46.8017H251.147V55.4858H242.463V46.8017Z" fill="white"/>
<path opacity="0.2" d="M280.178 0.744781H288.862V8.34149H280.178V0.744781Z" fill="white"/>
<path opacity="0.2" d="M251.891 46.8017H260.576V55.4858H251.891V46.8017Z" fill="white"/>
<path opacity="0.2" d="M261.32 46.8017H270.004V55.4858H261.32V46.8017Z" fill="white"/>
<path opacity="0.2" d="M270.749 46.8017H279.433V55.4858H270.749V46.8017Z" fill="white"/>
<path opacity="0.2" d="M280.178 46.8017H288.862V55.4858H280.178V46.8017Z" fill="white"/>
<path opacity="0.2" d="M280.178 56.2305H288.862V63.8272H280.178V56.2305Z" fill="white"/>
<path opacity="0.2" d="M232.527 46.8017H241.703V55.4858H232.527V46.8017Z" fill="white"/>
<path opacity="0.2" d="M289.607 27.944H298.783V36.6281H289.607V27.944Z" fill="white"/>
<path opacity="0.2" d="M289.607 37.3728H298.783V46.0569H289.607V37.3728Z" fill="white"/>
<path opacity="0.2" d="M261.32 56.2305H270.004V63.8272H261.32V56.2305Z" fill="white"/>
<path opacity="0.2" d="M289.607 46.8017H298.783V55.4858H289.607V46.8017Z" fill="white"/>
<path opacity="0.2" d="M270.749 56.2305H279.433V63.8272H270.749V56.2305Z" fill="white"/>
<path opacity="0.2" d="M289.607 8.3266V0.744781H295.565C296.412 0.767989 297.217 1.11986 297.809 1.72592C298.401 2.33199 298.734 3.14468 298.738 3.992V8.3266H289.607Z" fill="white"/>
<path opacity="0.2" d="M289.607 56.2305H298.738V60.5949C298.738 61.4601 298.394 62.2898 297.782 62.9016C297.171 63.5133 296.341 63.857 295.476 63.857H289.518L289.607 56.2305Z" fill="white"/>
<path opacity="0.2" d="M241.703 8.3266H232.542V3.992C232.546 3.13199 232.89 2.30832 233.498 1.7002C234.106 1.09207 234.929 0.7487 235.789 0.744781H241.748L241.703 8.3266Z" fill="white"/>
<path opacity="0.2" d="M251.891 56.2305H260.576V63.8272H251.891V56.2305Z" fill="white"/>
<path opacity="0.2" d="M242.463 56.2305H251.147V63.8272H242.463V56.2305Z" fill="white"/>
<path opacity="0.2" d="M261.32 9.07137H270.004V17.7554H261.32V9.07137Z" fill="white"/>
<path opacity="0.2" d="M280.178 9.07137H288.862V17.7554H280.178V9.07137Z" fill="white"/>
<path opacity="0.2" d="M232.527 18.5002H241.703V27.1843H232.527V18.5002Z" fill="white"/>
<path opacity="0.2" d="M270.749 9.07137H279.433V17.7554H270.749V9.07137Z" fill="white"/>
<path opacity="0.2" d="M251.891 18.5002H260.576V27.1843H251.891V18.5002Z" fill="white"/>
<path opacity="0.2" d="M242.463 18.5002H251.147V27.1843H242.463V18.5002Z" fill="white"/>
<path opacity="0.2" d="M289.607 18.5002H298.783V27.1843H289.607V18.5002Z" fill="white"/>
<path opacity="0.2" d="M289.607 9.07137H298.783V17.7554H289.607V9.07137Z" fill="white"/>
<path opacity="0.2" d="M232.527 9.07137H241.703V17.7554H232.527V9.07137Z" fill="white"/>
<path opacity="0.2" d="M261.32 18.5002H270.004V27.1843H261.32V18.5002Z" fill="white"/>
<path opacity="0.2" d="M251.891 9.07137H260.576V17.7554H251.891V9.07137Z" fill="white"/>
<path opacity="0.2" d="M242.463 9.07137H251.147V17.7554H242.463V9.07137Z" fill="white"/>
<path d="M285.332 32.0104C285.332 32.0104 276.544 42.4373 265.685 42.4373C254.826 42.4373 246.052 32.0104 246.052 32.0104C246.052 32.0104 254.841 21.5836 265.685 21.5836C276.529 21.5836 285.332 32.0104 285.332 32.0104Z" stroke="white" stroke-linecap="round" stroke-linejoin="round"/>
<path d="M258.818 30.5209C258.815 31.8773 259.215 33.2042 259.966 34.3332C260.718 35.4623 261.788 36.3428 263.041 36.8633C264.293 37.3837 265.672 37.5207 267.003 37.2568C268.333 36.9929 269.556 36.34 270.515 35.3808C271.474 34.4217 272.127 33.1994 272.391 31.8689C272.655 30.5384 272.518 29.1594 271.997 27.9068C271.477 26.6542 270.596 25.5842 269.467 24.8324C268.338 24.0807 267.011 23.6809 265.655 23.6839C263.842 23.6839 262.103 24.4042 260.82 25.6864C259.538 26.9686 258.818 28.7076 258.818 30.5209V30.5209Z" stroke="white" stroke-miterlimit="10"/>
<path d="M264.895 27.512C264.898 27.0724 264.771 26.6419 264.529 26.2749C264.286 25.908 263.941 25.6212 263.536 25.4509C263.13 25.2807 262.684 25.2346 262.252 25.3185C261.821 25.4025 261.424 25.6127 261.112 25.9225C260.8 26.2323 260.587 26.6277 260.5 27.0586C260.413 27.4895 260.456 27.9366 260.624 28.343C260.792 28.7494 261.076 29.0969 261.441 29.3414C261.807 29.586 262.236 29.7165 262.676 29.7165C263.262 29.7165 263.824 29.4848 264.24 29.0718C264.656 28.6587 264.891 28.0981 264.895 27.512Z" stroke="white" stroke-miterlimit="10"/>
<path d="M265.655 21.5687V14.5678" stroke="white" stroke-linecap="round" stroke-linejoin="round"/>
<path d="M259.563 22.0751L257.06 16.385" stroke="white" stroke-linecap="round" stroke-linejoin="round"/>
<path d="M253.709 24.667L250.208 20.5111" stroke="white" stroke-linecap="round" stroke-linejoin="round"/>
<path d="M249.017 27.8695L245.635 25.6203" stroke="white" stroke-linecap="round" stroke-linejoin="round"/>
<path d="M271.762 22.0751L274.265 16.385" stroke="white" stroke-linecap="round" stroke-linejoin="round"/>
<path d="M277.616 24.667L281.116 20.5111" stroke="white" stroke-linecap="round" stroke-linejoin="round"/>
<path d="M282.308 27.8695L285.689 25.6203" stroke="white" stroke-linecap="round" stroke-linejoin="round"/>
<path d="M366.9 95.1674C367.213 95.1771 367.517 95.2726 367.78 95.4433C368.042 95.614 368.253 95.8534 368.389 96.1356H407.996C408.943 96.1395 409.85 96.5174 410.52 97.187C411.189 97.8566 411.567 98.7636 411.571 99.7105V140.36C411.571 140.913 411.791 141.444 412.182 141.835C412.573 142.226 413.104 142.446 413.657 142.446H429.565V143.935H413.657C412.71 143.931 411.803 143.553 411.133 142.884C410.464 142.214 410.086 141.307 410.082 140.36V99.7105C410.082 99.1574 409.862 98.627 409.471 98.2359C409.08 97.8448 408.549 97.6251 407.996 97.6251H368.479C368.35 97.9113 368.146 98.1574 367.889 98.3375C367.632 98.5176 367.331 98.6249 367.018 98.6481C366.705 98.6714 366.392 98.6097 366.111 98.4696C365.83 98.3294 365.593 98.1161 365.423 97.8521C365.253 97.5881 365.158 97.2831 365.148 96.9695C365.137 96.6559 365.211 96.3452 365.362 96.0702C365.513 95.7952 365.736 95.5662 366.007 95.4073C366.277 95.2484 366.586 95.1655 366.9 95.1674Z" fill="#EF4A29"/>
<path opacity="0.4" d="M366.9 95.1674C367.213 95.1771 367.517 95.2726 367.78 95.4433C368.042 95.614 368.253 95.8534 368.389 96.1356H407.996C408.943 96.1395 409.85 96.5174 410.52 97.187C411.189 97.8566 411.567 98.7636 411.571 99.7105V140.36C411.571 140.913 411.791 141.444 412.182 141.835C412.573 142.226 413.104 142.446 413.657 142.446H429.565V143.935H413.657C412.71 143.931 411.803 143.553 411.133 142.884C410.464 142.214 410.086 141.307 410.082 140.36V99.7105C410.082 99.1574 409.862 98.627 409.471 98.2359C409.08 97.8448 408.549 97.6251 407.996 97.6251H368.479C368.35 97.9113 368.146 98.1574 367.889 98.3375C367.632 98.5176 367.331 98.6249 367.018 98.6481C366.705 98.6714 366.392 98.6097 366.111 98.4696C365.83 98.3294 365.593 98.1161 365.423 97.8521C365.253 97.5881 365.158 97.2831 365.148 96.9695C365.137 96.6559 365.211 96.3452 365.362 96.0702C365.513 95.7952 365.736 95.5662 366.007 95.4073C366.277 95.2484 366.586 95.1655 366.9 95.1674Z" fill="white"/>
<path d="M433.572 109.318H490.13C492.343 109.318 494.137 111.112 494.137 113.325V173.041C494.137 175.254 492.343 177.048 490.13 177.048H433.572C431.359 177.048 429.565 175.254 429.565 173.041V113.325C429.565 111.112 431.359 109.318 433.572 109.318Z" fill="#EF4A29"/>
<path opacity="0.4" d="M433.572 109.318H490.13C492.343 109.318 494.137 111.112 494.137 113.325V173.041C494.137 175.254 492.343 177.048 490.13 177.048H433.572C431.359 177.048 429.565 175.254 429.565 173.041V113.325C429.565 111.112 431.359 109.318 433.572 109.318Z" fill="white"/>
<path opacity="0.2" d="M457.509 148.27H466.193V156.954H457.509V148.27Z" fill="white"/>
<path opacity="0.2" d="M448.08 119.983H456.764V128.667H448.08V119.983Z" fill="white"/>
<path opacity="0.2" d="M466.953 157.714H475.637V166.398H466.953V157.714Z" fill="white"/>
<path opacity="0.2" d="M448.08 129.412H456.764V138.096H448.08V129.412Z" fill="white"/>
<path opacity="0.2" d="M448.08 138.841H456.764V147.525H448.08V138.841Z" fill="white"/>
<path opacity="0.2" d="M457.509 129.412H466.193V138.096H457.509V129.412Z" fill="white"/>
<path opacity="0.2" d="M457.509 110.063H466.193V119.239H457.509V110.063Z" fill="white"/>
<path opacity="0.2" d="M466.953 148.27H475.637V156.954H466.953V148.27Z" fill="white"/>
<path opacity="0.2" d="M457.509 119.983H466.193V128.667H457.509V119.983Z" fill="white"/>
<path opacity="0.2" d="M457.509 157.714H466.193V166.398H457.509V157.714Z" fill="white"/>
<path opacity="0.2" d="M448.08 157.714H456.764V166.398H448.08V157.714Z" fill="white"/>
<path opacity="0.2" d="M457.509 138.841H466.193V147.525H457.509V138.841Z" fill="white"/>
<path opacity="0.2" d="M448.08 110.063H456.764V119.239H448.08V110.063Z" fill="white"/>
<path opacity="0.2" d="M485.796 148.27H493.392V156.954H485.796V148.27Z" fill="white"/>
<path opacity="0.2" d="M485.796 119.983H493.392V128.667H485.796V119.983Z" fill="white"/>
<path opacity="0.2" d="M485.796 138.841H493.392V147.525H485.796V138.841Z" fill="white"/>
<path opacity="0.2" d="M485.796 129.412H493.392V138.096H485.796V129.412Z" fill="white"/>
<path opacity="0.2" d="M448.08 148.27H456.764V156.954H448.08V148.27Z" fill="white"/>
<path opacity="0.2" d="M437.907 119.239H430.31V113.28C430.31 112.415 430.654 111.585 431.265 110.974C431.877 110.362 432.707 110.018 433.572 110.018H437.907V119.239Z" fill="white"/>
<path opacity="0.2" d="M438.651 119.983H447.335V128.667H438.651V119.983Z" fill="white"/>
<path opacity="0.2" d="M485.796 157.714H493.392V166.398H485.796V157.714Z" fill="white"/>
<path opacity="0.2" d="M438.651 129.412H447.335V138.096H438.651V129.412Z" fill="white"/>
<path opacity="0.2" d="M438.651 138.841H447.335V147.525H438.651V138.841Z" fill="white"/>
<path opacity="0.2" d="M438.651 148.27H447.335V156.954H438.651V148.27Z" fill="white"/>
<path opacity="0.2" d="M438.651 157.714H447.335V166.398H438.651V157.714Z" fill="white"/>
<path opacity="0.2" d="M430.31 157.714H437.907V166.398H430.31V157.714Z" fill="white"/>
<path opacity="0.2" d="M438.651 110.063H447.335V119.239H438.651V110.063Z" fill="white"/>
<path opacity="0.2" d="M457.509 167.142H466.193V176.318H457.509V167.142Z" fill="white"/>
<path opacity="0.2" d="M448.08 167.142H456.764V176.318H448.08V167.142Z" fill="white"/>
<path opacity="0.2" d="M430.31 138.841H437.907V147.525H430.31V138.841Z" fill="white"/>
<path opacity="0.2" d="M438.651 167.142H447.335V176.318H438.651V167.142Z" fill="white"/>
<path opacity="0.2" d="M430.31 148.27H437.907V156.954H430.31V148.27Z" fill="white"/>
<path opacity="0.2" d="M485.811 167.142H493.392V173.101C493.388 173.961 493.045 174.784 492.437 175.392C491.829 176.001 491.005 176.344 490.145 176.348H485.811V167.142Z" fill="white"/>
<path opacity="0.2" d="M437.907 167.142V176.303H433.572C432.709 176.303 431.882 175.962 431.271 175.353C430.659 174.744 430.314 173.919 430.31 173.056V167.098L437.907 167.142Z" fill="white"/>
<path opacity="0.2" d="M485.811 119.239V110.063H490.145C491.008 110.067 491.834 110.412 492.442 111.024C493.051 111.635 493.392 112.462 493.392 113.325V119.283L485.811 119.239Z" fill="white"/>
<path opacity="0.2" d="M430.31 129.412H437.907V138.096H430.31V129.412Z" fill="white"/>
<path opacity="0.2" d="M430.31 119.983H437.907V128.667H430.31V119.983Z" fill="white"/>
<path opacity="0.2" d="M476.382 138.841H485.066V147.525H476.382V138.841Z" fill="white"/>
<path opacity="0.2" d="M476.382 157.714H485.066V166.398H476.382V157.714Z" fill="white"/>
<path opacity="0.2" d="M466.953 110.063H475.637V119.239H466.953V110.063Z" fill="white"/>
<path opacity="0.2" d="M476.382 148.27H485.066V156.954H476.382V148.27Z" fill="white"/>
<path opacity="0.2" d="M466.953 129.412H475.637V138.096H466.953V129.412Z" fill="white"/>
<path opacity="0.2" d="M466.953 119.983H475.637V128.667H466.953V119.983Z" fill="white"/>
<path opacity="0.2" d="M466.953 167.142H475.637V176.318H466.953V167.142Z" fill="white"/>
<path opacity="0.2" d="M476.382 167.142H485.066V176.318H476.382V167.142Z" fill="white"/>
<path opacity="0.2" d="M476.382 110.063H485.066V119.239H476.382V110.063Z" fill="white"/>
<path opacity="0.2" d="M466.953 138.841H475.637V147.525H466.953V138.841Z" fill="white"/>
<path opacity="0.2" d="M476.382 129.412H485.066V138.096H476.382V129.412Z" fill="white"/>
<path opacity="0.2" d="M476.382 119.983H485.066V128.667H476.382V119.983Z" fill="white"/>
<path d="M461.859 165.727C466.038 165.723 470.046 164.062 473.003 161.108C475.96 158.154 477.625 154.148 477.633 149.968V136.413C477.633 132.229 475.971 128.217 473.013 125.259C470.054 122.301 466.042 120.639 461.859 120.639C457.675 120.639 453.663 122.301 450.704 125.259C447.746 128.217 446.084 132.229 446.084 136.413V149.968C446.092 154.148 447.757 158.154 450.714 161.108C453.671 164.062 457.679 165.723 461.859 165.727ZM461.859 122.143C465.643 122.147 469.272 123.651 471.95 126.326C474.627 129.001 476.135 132.628 476.143 136.413V149.968C476.143 153.757 474.638 157.39 471.959 160.069C469.281 162.748 465.647 164.253 461.859 164.253C458.07 164.253 454.437 162.748 451.758 160.069C449.079 157.39 447.574 153.757 447.574 149.968V136.413C447.582 132.628 449.09 129.001 451.767 126.326C454.445 123.651 458.074 122.147 461.859 122.143Z" fill="white"/>
<path d="M454.739 141.343C453.817 141.343 453.07 140.33 453.07 139.079C453.07 137.829 453.817 136.815 454.739 136.815C455.66 136.815 456.407 137.829 456.407 139.079C456.407 140.33 455.66 141.343 454.739 141.343Z" fill="white"/>
<path d="M467.31 139.079C467.31 140.316 468.055 141.329 468.979 141.329C469.902 141.329 470.647 140.316 470.647 139.079C470.647 137.843 469.902 136.815 468.979 136.815C468.055 136.815 467.31 137.828 467.31 139.079Z" fill="white"/>
<path d="M461.769 141.329L464.912 149.387H461.769V141.329Z" fill="white"/>
<path d="M462.425 154.973C463.845 155.048 465.266 154.824 466.595 154.317L465.955 152.977L466.283 153.647L465.955 152.977C465.955 152.977 463.289 154.154 457.598 152.977L457.286 154.466C458.976 154.816 460.699 154.986 462.425 154.973Z" fill="white"/>
<path d="M29.159 10.3822H191.446C195.666 10.3822 199.087 13.8033 199.087 18.0236V180.31C199.087 184.53 195.666 187.951 191.446 187.951H29.159C24.9388 187.951 21.5176 184.53 21.5176 180.31V18.0236C21.5176 13.8033 24.9388 10.3822 29.159 10.3822Z" fill="#EF4A29"/>
<path opacity="0.5" d="M47.5252 119.834H173.079C176.888 119.834 179.976 122.922 179.976 126.731V149.7C179.976 153.509 176.888 156.596 173.079 156.596H47.5252C43.7163 156.596 40.6286 153.509 40.6286 149.7V126.731C40.6286 122.922 43.7163 119.834 47.5252 119.834Z" fill="white"/>
<path d="M155.071 138.23L151.004 140.435L152.762 143.488L156.948 141.031L156.873 145.499H160.374V140.941L164.485 143.399L166.168 140.435L162.101 138.23L166.168 135.996L164.38 132.927L160.269 135.4V130.842H156.769L156.843 135.4L152.732 132.927L150.9 135.996L155.071 138.23Z" fill="white"/>
<path d="M130.925 138.23L126.859 140.435L128.676 143.488L132.787 141.031V145.499H136.288V140.941L140.384 143.399L142.186 140.345L138.12 138.141L142.186 135.907L140.384 132.838L136.288 135.311V130.753H132.787V135.311L128.676 132.838L126.859 135.907L130.925 138.23Z" fill="white"/>
<path d="M106.765 138.23L102.698 140.435L104.53 143.488L108.627 141.031L108.552 145.499H112.067V140.941L116.179 143.399L117.966 140.345L113.9 138.141L117.966 135.907L116.179 132.838L112.067 135.311V130.753H108.552L108.627 135.311L104.53 132.838L102.698 135.907L106.765 138.23Z" fill="white"/>
<path d="M82.6041 138.23L78.5376 140.435L80.3698 143.488L84.4809 141.031L84.4064 145.499H87.9069V140.941L92.0031 143.399L93.7906 140.345L89.7241 138.141L93.7906 135.907L92.0031 132.838L87.9069 135.311V130.753H84.4064L84.4809 135.311L80.3698 132.838L78.5376 135.907L82.6041 138.23Z" fill="white"/>
<path d="M58.4585 138.23L54.4516 140.435L56.2688 143.488L60.3204 141.031L60.246 145.499H63.7464V140.941L67.8575 143.488L69.6599 140.435L65.5934 138.23L69.6599 135.996L67.8575 132.927L63.7613 135.4V130.842H60.2608L60.3353 135.4L56.2242 132.927L54.4069 135.996L58.4585 138.23Z" fill="white"/>
<path opacity="0.5" d="M82.1574 93.4804C66.6084 77.9315 66.6084 52.7215 82.1574 37.1725C97.7064 21.6236 122.916 21.6236 138.465 37.1726C154.014 52.7215 154.014 77.9315 138.465 93.4805C122.916 109.029 97.7064 109.029 82.1574 93.4804Z" fill="white"/>
<path d="M94.6695 63.0974H125.801C126.363 63.0954 126.92 63.2046 127.439 63.4188C127.959 63.6329 128.431 63.9477 128.828 64.3451C129.226 64.7425 129.541 65.2145 129.755 65.7341C129.969 66.2536 130.078 66.8104 130.076 67.3724V86.3344C130.076 87.4682 129.626 88.5555 128.824 89.3573C128.022 90.159 126.935 90.6094 125.801 90.6094H94.6695C93.5357 90.6094 92.4483 90.159 91.6466 89.3573C90.8449 88.5555 90.3945 87.4682 90.3945 86.3344V67.3724C90.3925 66.8104 90.5017 66.2536 90.7158 65.7341C90.93 65.2145 91.2448 64.7425 91.6422 64.3451C92.0395 63.9477 92.5116 63.6329 93.0312 63.4188C93.5507 63.2046 94.1075 63.0954 94.6695 63.0974ZM107.375 84.2043H113.095L111.904 76.4437C112.671 76.0669 113.287 75.4415 113.654 74.6694C114.02 73.8973 114.114 73.024 113.921 72.1916C113.727 71.3592 113.258 70.6168 112.588 70.0853C111.919 69.5538 111.09 69.2645 110.235 69.2645C109.381 69.2645 108.551 69.5538 107.882 70.0853C107.213 70.6168 106.743 71.3592 106.55 72.1916C106.357 73.024 106.451 73.8973 106.817 74.6694C107.183 75.4415 107.8 76.0669 108.567 76.4437L107.375 84.2043Z" fill="#EF4A29"/>
<path d="M119.277 60.0587L119.858 57.0796C120.357 54.5848 119.846 51.9937 118.435 49.8763C117.024 47.7588 114.83 46.2885 112.335 45.7888C109.841 45.289 107.25 45.8008 105.132 47.2115C103.015 48.6222 101.544 50.8163 101.045 53.311L100.464 56.2156L94.9674 55.1134L95.5632 52.1343C95.9205 50.1458 96.6707 48.2486 97.7701 46.5536C98.8695 44.8586 100.296 43.3999 101.966 42.2628C103.636 41.1257 105.516 40.3331 107.496 39.9313C109.476 39.5295 111.516 39.5267 113.497 39.9229C115.478 40.3191 117.36 41.1064 119.033 42.2388C120.706 43.3712 122.137 44.8259 123.241 46.5178C124.345 48.2097 125.101 50.1048 125.463 52.0923C125.826 54.0797 125.789 56.1196 125.354 58.0925L124.773 61.0716L119.277 60.0587Z" fill="#EF4A29"/>
<path opacity="0.2" d="M88.1154 169.839H132.504C133.025 169.839 133.526 169.631 133.894 169.263C134.263 168.894 134.47 168.394 134.47 167.872C134.466 167.353 134.257 166.857 133.889 166.492C133.521 166.126 133.023 165.921 132.504 165.921H88.1154C87.5965 165.921 87.0987 166.126 86.7303 166.492C86.362 166.857 86.1531 167.353 86.1492 167.872C86.1492 168.394 86.3564 168.894 86.7251 169.263C87.0939 169.631 87.594 169.839 88.1154 169.839Z" fill="black"/>
<path d="M235.149 169.019L219.896 156.06C219.896 156.06 206.907 142.297 204.166 141.999C201.426 141.701 195.512 142.878 193.948 144.844C192.384 146.81 204.107 159.59 206.862 161.944C209.618 164.297 215.114 163.91 215.114 163.91L229.653 177.957L235.149 169.019Z" fill="#EBB376"/>
<path d="M352.823 515.072H367.57C367.809 515.078 368.04 515.163 368.225 515.314C368.411 515.465 368.542 515.673 368.598 515.906L370.996 526.72C371.093 527.186 371.002 527.671 370.743 528.071C370.483 528.47 370.076 528.75 369.611 528.85H369.223C364.457 528.775 360.971 528.478 354.983 528.478C351.289 528.478 340.162 528.865 335.068 528.865C329.974 528.865 329.303 523.83 331.389 523.368C340.743 521.328 347.774 518.512 350.753 515.816C351.323 515.313 352.064 515.047 352.823 515.072Z" fill="#263238"/>
<path d="M290.292 514.699H305.039C305.279 514.701 305.512 514.784 305.699 514.936C305.886 515.087 306.016 515.298 306.066 515.533L308.465 526.333C308.562 526.799 308.471 527.284 308.211 527.683C307.952 528.082 307.545 528.363 307.079 528.463H306.692C301.911 528.388 298.44 528.09 292.452 528.09C288.758 528.09 277.631 528.478 272.537 528.478C267.442 528.478 266.772 523.443 268.857 522.981C278.212 520.941 285.243 518.125 288.222 515.429C288.794 514.931 289.534 514.67 290.292 514.699Z" fill="#263238"/>
<path d="M360.644 241.754H296.221C290.098 275.194 272.581 410.565 286.33 516.025L307.839 518.378C307.839 518.378 304.473 356.315 323.718 304.553C325.937 332.259 328.574 361.722 330.853 377.407C336.453 416.017 349.085 516.606 349.085 516.606L370.892 517.202C370.892 517.202 366.11 419.621 364.025 381.653C361.716 340.496 360.733 250.2 360.644 241.754Z" fill="#263238"/>
<path opacity="0.2" d="M360.644 241.754H296.221C290.098 275.194 272.581 410.565 286.33 516.025L307.839 518.378C307.839 518.378 304.473 356.315 323.718 304.553C325.937 332.259 328.574 361.722 330.853 377.407C336.453 416.017 349.085 516.606 349.085 516.606L370.892 517.202C370.892 517.202 366.11 419.621 364.025 381.653C361.716 340.496 360.733 250.2 360.644 241.754Z" fill="white"/>
<path opacity="0.2" d="M323.718 304.553C320.549 313.627 318.142 322.949 316.523 332.423C314.721 307.771 321.93 281.629 321.93 281.629L323.718 304.553Z" fill="black"/>
<path d="M302.104 130.291C291.931 131.527 271.896 177.778 264.24 181.904C256.584 186.03 226.227 160.097 226.227 160.097L218.57 169.526C218.57 169.526 253.038 206.362 266.593 202.296C280.148 198.229 299.363 163.404 305.188 152.5C311.012 141.597 302.104 130.291 302.104 130.291Z" fill="#EF4A29"/>
<path opacity="0.5" d="M218.57 169.526C218.57 169.526 253.038 206.347 266.593 202.296C272.552 200.493 279.493 192.852 285.958 183.915C293.004 173.854 299.421 163.368 305.173 152.515C306.429 150.029 307.111 147.293 307.167 144.509C307.224 141.724 306.654 138.963 305.5 136.428C304.63 134.263 303.484 132.221 302.089 130.351C291.916 131.587 271.881 177.852 264.225 181.978C256.569 186.104 226.212 160.171 226.212 160.171L218.57 169.526Z" fill="white"/>
<path opacity="0.2" d="M285.972 183.84C293.019 173.78 299.436 163.293 305.188 152.441C306.444 149.955 307.125 147.219 307.182 144.434C307.239 141.65 306.669 138.888 305.515 136.353C299.721 143.488 287.939 160.618 285.972 183.84Z" fill="black"/>
<path d="M302.104 130.291C302.104 130.291 343.082 128.355 373.603 136.056C373.603 136.056 362.163 224.699 362.669 263.308L289.681 259.375C289.681 259.375 291.454 170.122 302.104 130.291Z" fill="#EF4A29"/>
<path opacity="0.6" d="M362.669 263.308C362.431 245.359 364.785 216.596 367.361 190.945C368.345 181.159 369.357 171.82 370.341 163.716C372.203 147.406 373.662 136.07 373.662 136.07C343.141 128.369 302.164 130.306 302.164 130.306C291.514 170.136 289.667 259.39 289.667 259.39L362.669 263.308Z" fill="white"/>
<path opacity="0.2" d="M367.361 190.931C368.345 181.144 369.357 171.805 370.341 163.702L365.648 160.097C365.648 160.097 361.508 176.244 367.361 190.931Z" fill="black"/>
<path opacity="0.2" d="M302.64 225.935L306.647 226.129L317.521 226.635L324.194 226.948L338.092 227.603C338.092 227.603 338.092 226.918 338.166 225.667C338.285 222.971 338.524 217.638 338.926 210.92C339.209 205.915 339.596 200.136 340.073 194.088C340.415 189.918 340.788 185.628 341.22 181.383C341.86 175.082 342.605 168.855 343.484 163.255C343.946 160.276 344.452 157.431 344.974 154.869L310.401 152.619C310.401 152.619 309.954 154.809 309.284 158.578C308.837 161.05 308.301 164.208 307.72 167.902C304.603 187.095 302.906 206.492 302.64 225.935Z" fill="black"/>
<path opacity="0.2" d="M317.521 226.665L324.194 226.978C319.443 214.897 317.581 197.872 320.768 192.569C325.088 185.389 330.391 199.153 334.174 215.657C334.884 219.218 336.248 222.617 338.196 225.682C338.315 222.986 338.554 217.653 338.956 210.935C336.824 207.396 335.213 203.569 334.174 199.57C328.857 180.906 324.135 177.569 318.057 182.47C312.457 186.953 310.818 208.701 317.521 226.665Z" fill="black"/>
<path opacity="0.2" d="M306.647 226.158C305.292 210.325 307.377 183.647 312.025 175.439C317.342 166.025 329.08 165.817 334.725 182.887C335.965 186.871 337.765 190.657 340.073 194.133C340.415 189.962 340.788 185.672 341.22 181.427C339.631 179.439 338.211 177.321 336.975 175.097C330.54 163.702 320.59 158.399 310.759 165.027C309.61 165.851 308.604 166.858 307.779 168.006C304.648 187.164 302.93 206.526 302.64 225.935L306.647 226.158Z" fill="black"/>
<path opacity="0.2" d="M309.299 158.637C317.03 152.798 327.471 154.377 334.144 159.903C336.693 162.21 340.05 163.414 343.484 163.255C343.946 160.276 344.452 157.431 344.974 154.869L310.401 152.619C310.401 152.619 309.969 154.809 309.299 158.637Z" fill="black"/>
<path d="M349.68 132.987C343.797 138.335 329.378 136.353 329.378 136.353C329.378 136.353 320.441 133.896 322.273 131.08C327.576 130.202 330.138 127.729 331.21 124.571C331.8 122.608 331.982 120.545 331.746 118.509C331.662 117.374 331.513 116.245 331.299 115.127L349.174 101.93C346.776 110.644 343.916 126.671 349.68 132.987Z" fill="#EBB376"/>
<path opacity="0.2" d="M345.003 110.316C344.288 121.011 335.5 123.96 331.195 124.571C331.785 122.608 331.967 120.545 331.731 118.509L345.003 110.316Z" fill="black"/>
<path d="M318.951 74.2243C318.951 74.2243 313.976 90.3114 321.766 97.9528C329.557 105.594 334.144 74.9542 334.144 74.9542L318.951 74.2243Z" fill="#263238"/>
<path d="M345.167 114.829C342.931 117.267 339.956 118.903 336.699 119.484C333.442 120.065 330.085 119.56 327.144 118.047C323.297 116.169 320.313 112.892 318.802 108.886C318.59 108.33 318.406 107.763 318.251 107.188C315.466 96.4931 316.761 78.693 328.365 73.6881C330.928 72.5736 333.733 72.1332 336.515 72.4088C339.296 72.6843 341.96 73.6667 344.255 75.2625C346.549 76.8583 348.397 79.0144 349.623 81.5259C350.849 84.0374 351.412 86.8208 351.259 89.6114C350.798 101.558 351.096 108.618 345.167 114.829Z" fill="#EBB376"/>
<path d="M333.176 93.365C333.266 94.3183 332.7 95.1376 332.059 95.1376C331.419 95.1376 330.897 94.363 330.867 93.3948C330.838 92.4266 331.359 91.6222 331.985 91.6222C332.61 91.6222 333.146 92.3372 333.176 93.365Z" fill="#263238"/>
<path d="M322.168 93.5438C322.258 94.4971 321.677 95.3163 321.051 95.3163C320.426 95.3163 319.889 94.5418 319.86 93.5735C319.83 92.6053 320.351 91.801 320.977 91.801C321.602 91.801 322.139 92.6202 322.168 93.5438Z" fill="#263238"/>
<path d="M325.669 93.9459C324.58 96.9509 323.076 99.7887 321.2 102.377C321.882 102.84 322.656 103.149 323.468 103.283C324.281 103.416 325.114 103.372 325.907 103.151L325.669 93.9459Z" fill="#D58745"/>
<path d="M336.528 89.6858C336.423 89.703 336.316 89.6929 336.217 89.6563C336.118 89.6198 336.03 89.5581 335.962 89.4773C335.532 88.9029 334.975 88.4368 334.333 88.1162C333.692 87.7955 332.985 87.6291 332.268 87.6302C332.116 87.6427 331.965 87.5951 331.848 87.4975C331.731 87.4 331.657 87.2605 331.642 87.1089C331.636 87.0345 331.645 86.9597 331.668 86.8886C331.69 86.8176 331.727 86.7518 331.776 86.6951C331.824 86.6383 331.883 86.5917 331.95 86.5579C332.016 86.5241 332.089 86.5038 332.163 86.4982C333.07 86.471 333.969 86.6625 334.786 87.0566C335.603 87.4507 336.313 88.0358 336.855 88.7623C336.949 88.8774 336.993 89.0246 336.98 89.1722C336.966 89.3199 336.894 89.4562 336.781 89.5518C336.702 89.6065 336.617 89.6515 336.528 89.6858Z" fill="#263238"/>
<path d="M317.357 89.8348C317.251 89.8711 317.136 89.8711 317.03 89.8348C316.961 89.8056 316.899 89.7631 316.847 89.7098C316.795 89.6565 316.754 89.5935 316.726 89.5243C316.698 89.4551 316.684 89.3811 316.685 89.3066C316.686 89.232 316.702 89.1584 316.732 89.09C317.096 88.2553 317.655 87.5205 318.363 86.9475C319.071 86.3745 319.906 85.9803 320.798 85.7981C320.946 85.7768 321.097 85.8149 321.217 85.9043C321.337 85.9936 321.417 86.1268 321.439 86.2748C321.456 86.4222 321.416 86.5707 321.328 86.6899C321.239 86.809 321.108 86.8896 320.962 86.9153C320.261 87.0796 319.609 87.4065 319.057 87.8697C318.506 88.3329 318.072 88.9193 317.789 89.5816C317.739 89.6519 317.675 89.7108 317.6 89.7545C317.526 89.7981 317.443 89.8255 317.357 89.8348Z" fill="#263238"/>
<path d="M342.188 74.8648L341.399 80.108C342.277 80.5599 342.952 81.3255 343.292 82.2527C343.631 83.18 343.609 84.201 343.231 85.1129C341.413 89.5815 343.737 96.4484 347.059 99.2785C347.059 99.2785 347.223 97.3719 348.831 97.8635C350.44 98.355 349.725 108.29 346.418 113.042C350.62 108.7 353.623 103.342 355.132 97.4911C357.888 87.8537 357.605 80.7038 355.713 76.8906L342.188 74.8648Z" fill="#263238"/>
<path d="M324.999 106.071C325.497 107.454 325.89 108.873 326.175 110.316C326.433 110.331 326.692 110.331 326.95 110.316C330.465 110.167 332.044 108.931 332.729 107.605C333.047 106.951 333.205 106.232 333.191 105.505C333.195 105.092 333.139 104.681 333.027 104.283C330.906 105.352 328.579 105.947 326.205 106.026C325.46 106.071 324.999 106.071 324.999 106.071Z" fill="#263238"/>
<path d="M326.205 105.996L326.578 107.248C329.884 107.084 332.193 106.533 333.191 105.475C333.195 105.062 333.139 104.651 333.027 104.254C330.906 105.322 328.579 105.917 326.205 105.996Z" fill="white"/>
<path d="M326.95 110.286C330.465 110.137 332.044 108.901 332.729 107.575C331.392 107.662 330.081 107.985 328.857 108.529C328.05 108.897 327.383 109.513 326.95 110.286Z" fill="#DE5753"/>
<path d="M334.308 78.1269C333.925 77.6052 333.372 77.2325 332.745 77.0723C332.118 76.9121 331.454 76.9742 330.867 77.2481C328.35 77.978 326.131 80.5102 323.539 83.7276C320.947 86.9451 315.823 86.96 314.602 85.0533C313.38 83.1467 315.778 80.4804 315.778 80.4804C315.778 80.4804 313.574 68.2512 326.905 65.4509C340.237 62.6505 347.253 68.5491 347.253 68.5491C347.253 68.5491 358.32 68.9215 359.169 79.1547C359.457 83.3105 359.207 87.486 358.424 91.5776C358.424 91.5776 361.403 95.3163 355.803 95.0929C349.442 94.8397 341.801 91.3839 341.428 85.2023C341.056 79.0206 334.308 78.1269 334.308 78.1269Z" fill="#263238"/>
<path d="M356.681 99.3232C355.407 102.053 353.104 104.168 350.276 105.207C346.523 106.548 344.318 103.256 345.152 99.5616C345.897 96.2696 348.712 91.518 352.6 91.801C356.488 92.084 358.201 95.927 356.681 99.3232Z" fill="#EBB376"/>
<path d="M373.603 136.056C384.283 139.169 399.208 211.844 397.242 221.273C395.276 230.702 357.769 270.428 357.769 270.428L347.342 262.518C347.342 262.518 379.218 217.385 379.606 207.956C379.993 198.527 365.47 163.568 365.47 163.568C365.47 163.568 365.857 151.785 367.436 145.887C368.544 142.103 370.679 138.7 373.603 136.056Z" fill="#EF4A29"/>
<path opacity="0.5" d="M373.603 136.056C384.283 139.169 399.208 211.844 397.242 221.273C395.276 230.702 357.769 270.428 357.769 270.428L347.342 262.518C347.342 262.518 379.218 217.385 379.606 207.956C379.993 198.527 365.47 163.568 365.47 163.568C365.47 163.568 365.857 151.785 367.436 145.887C368.544 142.103 370.679 138.7 373.603 136.056Z" fill="white"/>
</svg>
