<svg width="483" height="751" viewBox="0 0 483 751" fill="none" xmlns="http://www.w3.org/2000/svg">
<path d="M306.839 145.587C306.719 139.788 307.757 134.024 309.893 128.632C312.029 123.24 315.219 118.328 319.278 114.185C323.336 110.042 328.18 106.75 333.527 104.503C338.874 102.255 344.615 101.098 350.415 101.098C356.214 101.098 361.956 102.255 367.303 104.503C372.649 106.75 377.494 110.042 381.552 114.185C385.61 118.328 388.801 123.24 390.937 128.632C393.073 134.024 394.111 139.788 393.991 145.587H306.839Z" stroke="white" stroke-linecap="round" stroke-linejoin="round"/>
<path d="M250.387 71.5961V1.84177" stroke="white" stroke-linecap="round" stroke-linejoin="round"/>
<path d="M220.282 101.701C220.199 97.6963 220.916 93.7148 222.392 89.9904C223.867 86.266 226.071 82.8734 228.874 80.0116C231.677 77.1497 235.023 74.8761 238.716 73.3239C242.409 71.7717 246.375 70.9722 250.381 70.9722C254.387 70.9722 258.353 71.7717 262.046 73.3239C265.739 74.8761 269.085 77.1497 271.888 80.0116C274.691 82.8734 276.895 86.266 278.37 89.9904C279.846 93.7148 280.563 97.6963 280.48 101.701H220.282Z" stroke="white" stroke-linecap="round" stroke-linejoin="round"/>
<path d="M40.6823 681.95H20.345" stroke="#263238" stroke-linecap="round" stroke-linejoin="round"/>
<path d="M123.12 549.394H101.79V681.96H123.12V549.394Z" stroke="white" stroke-linecap="round" stroke-linejoin="round"/>
<path d="M94.1612 559.232H7.97821V591.424H94.1612V559.232Z" stroke="white" stroke-linecap="round" stroke-linejoin="round"/>
<path d="M94.1612 594.934H7.97821V627.126H94.1612V594.934Z" stroke="white" stroke-linecap="round" stroke-linejoin="round"/>
<path d="M94.1612 630.647H7.97821V662.839H94.1612V630.647Z" stroke="white" stroke-linecap="round" stroke-linejoin="round"/>
<path d="M42.0054 561.558C42.0054 562.509 42.3831 563.421 43.0555 564.093C43.7279 564.766 44.6398 565.143 45.5906 565.143H56.5489C57.0206 565.145 57.4879 565.053 57.9241 564.873C58.3603 564.694 58.7568 564.43 59.0909 564.097C59.4249 563.764 59.69 563.368 59.8708 562.933C60.0516 562.497 60.1447 562.03 60.1447 561.558" stroke="white" stroke-linecap="round" stroke-linejoin="round"/>
<path d="M42.0054 597.26C42.0139 598.207 42.3949 599.112 43.0661 599.779C43.7372 600.446 44.6443 600.822 45.5906 600.824H56.5489C57.5026 600.824 58.4172 600.445 59.0915 599.771C59.7659 599.097 60.1447 598.182 60.1447 597.228" stroke="white" stroke-linecap="round" stroke-linejoin="round"/>
<path d="M42.0054 632.974C42.0054 633.925 42.3828 634.838 43.0548 635.512C43.7269 636.186 44.6388 636.567 45.5906 636.569H56.5489C57.0211 636.569 57.4887 636.476 57.9249 636.296C58.3612 636.115 58.7576 635.85 59.0915 635.516C59.4254 635.182 59.6903 634.786 59.871 634.35C60.0517 633.913 60.1447 633.446 60.1447 632.974" stroke="white" stroke-linecap="round" stroke-linejoin="round"/>
<path d="M98.3013 681.96H1V549.394H98.3013" stroke="white" stroke-linecap="round" stroke-linejoin="round"/>
<path d="M181.411 617.598V667.748L207.671 676.999C207.998 677.114 208.281 677.327 208.482 677.61C208.683 677.893 208.791 678.231 208.791 678.578V680.136C208.792 680.395 208.732 680.65 208.616 680.882C208.5 681.114 208.332 681.315 208.125 681.471C207.918 681.626 207.677 681.731 207.422 681.777C207.168 681.823 206.905 681.809 206.657 681.736L179.683 673.819L179.192 680.296C179.162 680.747 178.961 681.169 178.629 681.477C178.298 681.784 177.862 681.953 177.41 681.95H176.023C175.572 681.948 175.139 681.777 174.809 681.471C174.479 681.164 174.276 680.745 174.241 680.296L173.75 673.819L146.787 681.736C146.538 681.807 146.277 681.819 146.023 681.772C145.769 681.725 145.529 681.62 145.323 681.465C145.116 681.31 144.948 681.11 144.832 680.879C144.716 680.648 144.654 680.394 144.653 680.136V678.578C144.653 678.231 144.761 677.893 144.961 677.61C145.162 677.327 145.446 677.114 145.773 676.999L172.043 667.748V617.598" stroke="white" stroke-linecap="round" stroke-linejoin="round"/>
<path d="M169.429 599.437V584.904" stroke="white" stroke-linecap="round" stroke-linejoin="round"/>
<path d="M163.272 584.904V599.437" stroke="white" stroke-linecap="round" stroke-linejoin="round"/>
<path d="M142.785 582.322C138.41 582.151 135.316 579.313 135.316 574.405V548.957C135.387 547.416 135.904 545.93 136.804 544.678C137.703 543.426 138.947 542.462 140.384 541.904" stroke="white" stroke-linecap="round" stroke-linejoin="round"/>
<path d="M141.579 545.734V574.298C141.579 579.228 145.517 581.949 150.478 581.074C161.302 579.079 172.437 579.568 183.044 582.504C187.931 583.827 191.772 581.437 191.772 576.528V547.964C191.71 546.717 191.292 545.514 190.568 544.497C189.844 543.479 188.843 542.691 187.685 542.224C174.165 537.646 159.622 537.006 145.751 540.378C144.583 540.722 143.553 541.425 142.804 542.385C142.056 543.346 141.628 544.517 141.579 545.734V545.734Z" stroke="white" stroke-linecap="round" stroke-linejoin="round"/>
<path d="M161.725 601.55H147.533C146.337 601.548 145.153 601.783 144.047 602.24C142.942 602.696 141.937 603.367 141.091 604.212C140.244 605.057 139.573 606.061 139.115 607.166C138.657 608.271 138.421 609.455 138.421 610.651V610.651C138.421 611.758 138.861 612.819 139.643 613.602C140.425 614.384 141.487 614.823 142.593 614.823H159.1" stroke="white" stroke-linecap="round" stroke-linejoin="round"/>
<path d="M163.955 614.823H210.818C211.925 614.823 212.986 614.384 213.768 613.602C214.551 612.819 214.99 611.758 214.99 610.651C214.99 609.455 214.754 608.271 214.296 607.166C213.838 606.061 213.167 605.057 212.321 604.212C211.474 603.367 210.47 602.696 209.364 602.24C208.259 601.783 207.074 601.548 205.878 601.55H168.895C167.699 601.548 166.514 601.783 165.409 602.24C164.303 602.696 163.299 603.367 162.452 604.212C161.606 605.057 160.935 606.061 160.477 607.166C160.019 608.271 159.783 609.455 159.783 610.651V610.651C159.783 611.758 160.222 612.819 161.005 613.602C161.787 614.384 162.848 614.823 163.955 614.823V614.823Z" stroke="white" stroke-linecap="round" stroke-linejoin="round"/>
<path d="M384.603 527.029C385.161 527.018 385.696 526.806 386.11 526.431C386.523 526.057 386.788 525.545 386.855 524.991L391.528 481.489C391.564 481.232 391.543 480.971 391.468 480.722C391.392 480.474 391.264 480.245 391.092 480.052C390.919 479.858 390.707 479.704 390.469 479.6C390.231 479.496 389.974 479.446 389.714 479.451" stroke="white" stroke-linecap="round" stroke-linejoin="round"/>
<path d="M269.013 567.064H419.399V553.107H269.013V567.064Z" stroke="white" stroke-linecap="round" stroke-linejoin="round"/>
<path d="M215.481 553.097V567.053H266.687" stroke="white" stroke-linecap="round" stroke-linejoin="round"/>
<path d="M424.232 551.603V542.875H277.592" stroke="white" stroke-linecap="round" stroke-linejoin="round"/>
<path d="M210.637 551.614H275.255V542.885H210.637V551.614Z" stroke="white" stroke-linecap="round" stroke-linejoin="round"/>
<path d="M411.236 569.39V681.95H414.491L415.664 569.39" stroke="white" stroke-linecap="round" stroke-linejoin="round"/>
<path d="M406.819 569.39L407.982 681.95H411.236V569.39" stroke="white" stroke-linecap="round" stroke-linejoin="round"/>
<path d="M368.235 569.39V681.95H371.49L372.653 569.39" stroke="white" stroke-linecap="round" stroke-linejoin="round"/>
<path d="M363.818 569.39L364.981 681.95H368.235V569.39" stroke="white" stroke-linecap="round" stroke-linejoin="round"/>
<path d="M266.634 569.39V681.95H269.899L271.062 569.39" stroke="white" stroke-linecap="round" stroke-linejoin="round"/>
<path d="M262.216 569.39L263.38 681.95H266.634V569.39" stroke="white" stroke-linecap="round" stroke-linejoin="round"/>
<path d="M223.633 569.39V681.95H226.888L228.051 569.39" stroke="white" stroke-linecap="round" stroke-linejoin="round"/>
<path d="M219.216 569.39L220.379 681.95H223.633V569.39" stroke="white" stroke-linecap="round" stroke-linejoin="round"/>
<path d="M333.739 540.164H302.102V542.875H333.739V540.164Z" stroke="white" stroke-linecap="round" stroke-linejoin="round"/>
<path d="M391.88 542.875H384.539C384.05 542.875 383.58 542.68 383.234 542.334C382.888 541.988 382.693 541.518 382.693 541.029V538.703H393.726V541.029C393.726 541.518 393.532 541.988 393.186 542.334C392.84 542.68 392.37 542.875 391.88 542.875Z" stroke="white" stroke-linecap="round" stroke-linejoin="round"/>
<path d="M393.726 538.724C393.726 537.145 391.251 535.854 388.199 535.854C385.148 535.854 382.683 537.145 382.683 538.724H393.726Z" stroke="white" stroke-linecap="round" stroke-linejoin="round"/>
<path d="M382.683 538.724C382.683 537.145 385.158 535.854 388.199 535.854V538.724H382.683Z" stroke="white" stroke-linecap="round" stroke-linejoin="round"/>
<path d="M382.309 527.029H320.636C320.376 527.035 320.119 526.984 319.881 526.88C319.643 526.777 319.431 526.623 319.258 526.429C319.086 526.235 318.958 526.006 318.882 525.758C318.807 525.51 318.786 525.248 318.822 524.991L323.495 481.489C323.564 480.936 323.829 480.426 324.243 480.052C324.656 479.678 325.19 479.465 325.747 479.451H387.431C387.69 479.447 387.946 479.499 388.183 479.604C388.42 479.708 388.632 479.862 388.804 480.055C388.976 480.249 389.105 480.477 389.181 480.724C389.257 480.972 389.279 481.232 389.245 481.489L384.571 524.991C384.504 525.547 384.238 526.06 383.822 526.435C383.407 526.809 382.869 527.021 382.309 527.029Z" stroke="white" stroke-linecap="round" stroke-linejoin="round"/>
<path d="M360.393 528.192L361.449 537.988H363.775L362.719 528.192" stroke="white" stroke-linecap="round" stroke-linejoin="round"/>
<path d="M345.262 528.192L346.319 537.988H361.449L360.393 528.192" stroke="white" stroke-linecap="round" stroke-linejoin="round"/>
<path d="M379.738 523.882H323.89C323.664 523.887 323.44 523.843 323.233 523.753C323.026 523.663 322.841 523.529 322.691 523.361C322.541 523.193 322.429 522.993 322.364 522.778C322.298 522.562 322.28 522.334 322.311 522.11L326.366 484.37C326.425 483.888 326.656 483.443 327.016 483.118C327.377 482.792 327.843 482.608 328.329 482.599H384.177C384.402 482.594 384.626 482.637 384.833 482.727C385.04 482.817 385.225 482.951 385.375 483.12C385.526 483.288 385.637 483.487 385.703 483.703C385.769 483.919 385.787 484.147 385.756 484.37L381.701 522.11C381.642 522.593 381.411 523.037 381.05 523.363C380.689 523.688 380.223 523.872 379.738 523.882V523.882Z" stroke="white" stroke-linecap="round" stroke-linejoin="round"/>
<path d="M366.112 537.988H335.435V542.885H366.112V537.988Z" stroke="white" stroke-linecap="round" stroke-linejoin="round"/>
<path d="M375.086 537.988H366.112V542.885H375.086V537.988Z" stroke="white" stroke-linecap="round" stroke-linejoin="round"/>
<path d="M290.311 303.906H275.768V582.056H290.311C292.627 582.053 294.847 581.131 296.483 579.492C298.12 577.854 299.039 575.633 299.039 573.317V312.644C299.039 310.329 298.12 308.107 296.483 306.469C294.847 304.83 292.627 303.908 290.311 303.906Z" fill="#999999" stroke="#263238" stroke-linecap="round" stroke-linejoin="round"/>
<path d="M286.384 303.906H159.826C155.406 303.906 151.823 307.488 151.823 311.908V574.053C151.823 578.473 155.406 582.056 159.826 582.056H286.384C290.804 582.056 294.387 578.473 294.387 574.053V311.908C294.387 307.488 290.804 303.906 286.384 303.906Z" fill="#263238" stroke="#263238" stroke-linecap="round" stroke-linejoin="round"/>
<path d="M247.79 316.144C247.585 317.848 246.763 319.419 245.479 320.559C244.196 321.699 242.539 322.33 240.823 322.333H204.181C202.462 322.335 200.802 321.705 199.516 320.565C198.23 319.424 197.407 317.851 197.203 316.144C196.988 314.449 196.161 312.89 194.878 311.761C193.595 310.631 191.945 310.008 190.236 310.009H164.467C162.611 310.009 160.83 310.744 159.514 312.054C158.198 313.364 157.455 315.141 157.446 316.998V568.931C157.449 570.792 158.19 572.577 159.506 573.893C160.822 575.209 162.606 575.949 164.467 575.952H281.743C283.605 575.952 285.391 575.212 286.707 573.896C288.024 572.579 288.764 570.793 288.764 568.931V316.998C288.765 316.075 288.585 315.162 288.232 314.309C287.88 313.457 287.363 312.682 286.711 312.03C286.058 311.378 285.284 310.861 284.431 310.508C283.579 310.156 282.665 309.975 281.743 309.977H254.758C253.044 309.977 251.389 310.604 250.106 311.741C248.822 312.877 247.999 314.443 247.79 316.144Z" fill="url(#paint0_linear)"/>
<path d="M247.79 316.144C247.585 317.848 246.763 319.419 245.479 320.559C244.196 321.699 242.539 322.33 240.823 322.333H204.181C202.462 322.335 200.802 321.705 199.516 320.565C198.23 319.424 197.407 317.851 197.203 316.144C196.988 314.449 196.161 312.89 194.878 311.761C193.595 310.631 191.945 310.008 190.236 310.009H164.467C162.611 310.009 160.83 310.744 159.514 312.054C158.198 313.364 157.455 315.141 157.446 316.998V568.931C157.449 570.792 158.19 572.577 159.506 573.893C160.822 575.209 162.606 575.949 164.467 575.952H281.743C283.605 575.952 285.391 575.212 286.707 573.896C288.024 572.579 288.764 570.793 288.764 568.931V316.998C288.765 316.075 288.585 315.162 288.232 314.309C287.88 313.457 287.363 312.682 286.711 312.03C286.058 311.378 285.284 310.861 284.431 310.508C283.579 310.156 282.665 309.975 281.743 309.977H254.758C253.044 309.977 251.389 310.604 250.106 311.741C248.822 312.877 247.999 314.443 247.79 316.144Z" stroke="#263238" stroke-linecap="round" stroke-linejoin="round"/>
<path d="M210.498 313.615C210.498 314.249 210.31 314.867 209.959 315.394C209.607 315.92 209.107 316.331 208.522 316.573C207.937 316.815 207.294 316.878 206.673 316.755C206.052 316.631 205.481 316.327 205.034 315.879C204.586 315.431 204.281 314.861 204.158 314.24C204.034 313.619 204.097 312.975 204.34 312.39C204.582 311.805 204.992 311.306 205.519 310.954C206.045 310.602 206.664 310.414 207.297 310.414C208.146 310.414 208.96 310.752 209.561 311.352C210.161 311.952 210.498 312.766 210.498 313.615Z" fill="url(#paint1_linear)" stroke="#263238" stroke-linecap="round" stroke-linejoin="round"/>
<path d="M235.808 310.51H219.611C218.787 310.51 217.997 310.838 217.415 311.42C216.833 312.002 216.505 312.792 216.505 313.615C216.505 314.439 216.833 315.229 217.415 315.811C217.997 316.393 218.787 316.72 219.611 316.72H235.808C236.631 316.72 237.421 316.393 238.003 315.811C238.586 315.229 238.913 314.439 238.913 313.615C238.913 312.792 238.586 312.002 238.003 311.42C237.421 310.838 236.631 310.51 235.808 310.51Z" fill="#999999" stroke="#263238" stroke-linecap="round" stroke-linejoin="round"/>
<path d="M237.75 562.273H206.614C205.765 562.273 204.951 562.61 204.351 563.211C203.75 563.811 203.413 564.625 203.413 565.474C203.413 566.323 203.75 567.137 204.351 567.738C204.951 568.338 205.765 568.675 206.614 568.675H237.75C238.599 568.675 239.413 568.338 240.013 567.738C240.614 567.137 240.951 566.323 240.951 565.474C240.951 564.625 240.614 563.811 240.013 563.211C239.413 562.61 238.599 562.273 237.75 562.273Z" fill="#999999" stroke="#263238" stroke-linecap="round" stroke-linejoin="round"/>
<path d="M300.629 374.691V353.885C300.629 353.423 300.446 352.981 300.12 352.655C299.794 352.329 299.351 352.145 298.89 352.145C298.429 352.145 297.986 352.329 297.66 352.655C297.334 352.981 297.151 353.423 297.151 353.885V374.691C297.151 375.153 297.334 375.595 297.66 375.921C297.986 376.247 298.429 376.431 298.89 376.431C299.351 376.431 299.794 376.247 300.12 375.921C300.446 375.595 300.629 375.153 300.629 374.691Z" fill="#263238"/>
<path d="M300.629 390.142V383.217C300.629 382.756 300.446 382.313 300.12 381.987C299.794 381.661 299.351 381.478 298.89 381.478C298.429 381.478 297.986 381.661 297.66 381.987C297.334 382.313 297.151 382.756 297.151 383.217V390.142C297.151 390.603 297.334 391.046 297.66 391.372C297.986 391.698 298.429 391.881 298.89 391.881C299.351 391.881 299.794 391.698 300.12 391.372C300.446 391.046 300.629 390.603 300.629 390.142Z" fill="#263238"/>
<path d="M303.862 405.486H146.893V440.847H303.862V405.486Z" fill="white" stroke="#263238" stroke-linecap="round" stroke-linejoin="round"/>
<path d="M165.865 426.901L163.325 424.969L163.741 428.074C163.769 428.273 163.753 428.475 163.696 428.667C163.639 428.86 163.542 429.037 163.411 429.189C163.279 429.34 163.117 429.462 162.935 429.546C162.753 429.63 162.555 429.674 162.354 429.675C162.153 429.675 161.954 429.632 161.77 429.549C161.587 429.466 161.423 429.345 161.291 429.193C161.159 429.041 161.06 428.863 161.002 428.67C160.945 428.477 160.929 428.274 160.957 428.074L161.373 424.969L158.79 426.901C158.632 427.022 158.45 427.108 158.256 427.153C158.061 427.199 157.86 427.202 157.664 427.164C157.469 427.126 157.283 427.046 157.121 426.931C156.958 426.816 156.821 426.667 156.72 426.495V426.431C156.62 426.258 156.557 426.065 156.537 425.866C156.517 425.667 156.539 425.466 156.603 425.276C156.666 425.086 156.77 424.912 156.906 424.765C157.042 424.619 157.208 424.503 157.393 424.425L160.306 423.209L157.393 421.982C157.208 421.904 157.042 421.788 156.906 421.641C156.77 421.495 156.666 421.321 156.603 421.131C156.539 420.941 156.517 420.74 156.537 420.541C156.557 420.341 156.62 420.149 156.72 419.976V419.922C156.814 419.744 156.945 419.587 157.104 419.463C157.263 419.339 157.447 419.251 157.644 419.205C157.84 419.158 158.044 419.154 158.242 419.193C158.44 419.233 158.627 419.314 158.79 419.432L161.33 421.363L160.914 418.258C160.886 418.059 160.902 417.856 160.96 417.664C161.017 417.471 161.116 417.294 161.249 417.143C161.381 416.992 161.545 416.871 161.728 416.789C161.912 416.707 162.111 416.666 162.312 416.668C162.512 416.668 162.709 416.71 162.892 416.793C163.074 416.875 163.236 416.996 163.367 417.147C163.499 417.297 163.597 417.475 163.654 417.666C163.711 417.858 163.726 418.06 163.699 418.258L163.283 421.363L165.822 419.432C165.981 419.311 166.164 419.225 166.359 419.181C166.553 419.136 166.755 419.133 166.951 419.173C167.147 419.212 167.332 419.293 167.494 419.409C167.656 419.525 167.792 419.675 167.892 419.848V419.901C167.993 420.074 168.055 420.267 168.075 420.466C168.096 420.665 168.073 420.866 168.01 421.056C167.946 421.246 167.843 421.42 167.707 421.567C167.57 421.713 167.404 421.829 167.22 421.907L164.307 423.134L167.22 424.35C167.404 424.428 167.57 424.544 167.707 424.691C167.843 424.838 167.946 425.012 168.01 425.201C168.073 425.391 168.096 425.592 168.075 425.792C168.055 425.991 167.993 426.183 167.892 426.356V426.42C167.797 426.592 167.667 426.742 167.511 426.86C167.355 426.979 167.175 427.063 166.985 427.109C166.794 427.154 166.596 427.159 166.403 427.123C166.21 427.087 166.027 427.011 165.865 426.901Z" fill="#263238"/>
<path d="M188.496 426.901L185.957 424.969L186.373 428.074C186.399 428.274 186.382 428.476 186.323 428.668C186.265 428.86 186.166 429.038 186.034 429.189C185.902 429.341 185.739 429.462 185.557 429.546C185.374 429.63 185.176 429.674 184.975 429.675C184.775 429.674 184.577 429.63 184.395 429.546C184.212 429.462 184.05 429.34 183.919 429.189C183.788 429.037 183.69 428.86 183.633 428.667C183.576 428.475 183.561 428.273 183.588 428.074L183.993 424.969L181.465 426.901C181.306 427.022 181.124 427.108 180.93 427.153C180.736 427.199 180.534 427.202 180.338 427.164C180.143 427.126 179.957 427.046 179.795 426.931C179.632 426.816 179.496 426.667 179.395 426.495V426.431C179.294 426.258 179.232 426.065 179.211 425.866C179.191 425.667 179.213 425.466 179.277 425.276C179.341 425.086 179.444 424.912 179.58 424.765C179.716 424.619 179.882 424.503 180.067 424.425L182.969 423.209L180.067 421.982C179.882 421.904 179.716 421.788 179.58 421.641C179.444 421.495 179.341 421.321 179.277 421.131C179.213 420.941 179.191 420.74 179.211 420.541C179.232 420.341 179.294 420.149 179.395 419.976V419.922C179.495 419.75 179.63 419.6 179.793 419.484C179.955 419.367 180.14 419.287 180.336 419.247C180.532 419.208 180.733 419.211 180.928 419.255C181.123 419.3 181.306 419.386 181.465 419.506L183.993 421.438L183.588 418.332C183.561 418.134 183.576 417.933 183.633 417.741C183.69 417.549 183.788 417.372 183.919 417.221C184.051 417.071 184.213 416.95 184.395 416.867C184.577 416.785 184.775 416.742 184.975 416.743C185.175 416.742 185.374 416.785 185.556 416.868C185.739 416.95 185.902 417.071 186.034 417.221C186.166 417.372 186.265 417.549 186.323 417.74C186.382 417.932 186.399 418.134 186.373 418.332L185.957 421.438L188.496 419.506C188.654 419.386 188.837 419.3 189.03 419.256C189.224 419.211 189.425 419.209 189.62 419.248C189.815 419.287 189.999 419.368 190.161 419.484C190.322 419.6 190.457 419.75 190.556 419.922V419.976C190.656 420.149 190.719 420.341 190.739 420.541C190.759 420.74 190.737 420.941 190.673 421.131C190.61 421.321 190.506 421.495 190.37 421.641C190.234 421.788 190.068 421.904 189.883 421.982L186.97 423.209L189.883 424.425C190.068 424.503 190.234 424.619 190.37 424.765C190.506 424.912 190.61 425.086 190.673 425.276C190.737 425.466 190.759 425.667 190.739 425.866C190.719 426.065 190.656 426.258 190.556 426.431V426.495C190.456 426.667 190.32 426.815 190.159 426.93C189.997 427.046 189.812 427.125 189.618 427.163C189.423 427.202 189.222 427.198 189.029 427.153C188.835 427.108 188.654 427.022 188.496 426.901Z" fill="#263238"/>
<path d="M211.074 426.901L208.546 424.969L208.962 428.074C208.987 428.274 208.97 428.476 208.912 428.668C208.854 428.86 208.755 429.038 208.623 429.189C208.491 429.341 208.328 429.462 208.146 429.546C207.963 429.629 207.765 429.674 207.564 429.675C207.363 429.674 207.165 429.629 206.982 429.546C206.8 429.462 206.637 429.341 206.505 429.189C206.373 429.038 206.274 428.86 206.216 428.668C206.157 428.476 206.14 428.274 206.166 428.074L206.582 424.969L204.096 426.901C203.938 427.022 203.755 427.108 203.561 427.153C203.367 427.199 203.165 427.202 202.97 427.164C202.774 427.126 202.589 427.046 202.426 426.931C202.263 426.816 202.127 426.667 202.026 426.495V426.431C201.926 426.258 201.863 426.065 201.843 425.866C201.822 425.667 201.845 425.466 201.908 425.276C201.972 425.086 202.075 424.912 202.212 424.765C202.348 424.619 202.514 424.503 202.698 424.425L205.611 423.209L202.698 421.982C202.514 421.904 202.348 421.788 202.212 421.641C202.075 421.495 201.972 421.321 201.908 421.131C201.845 420.941 201.822 420.74 201.843 420.541C201.863 420.341 201.926 420.149 202.026 419.976V419.922C202.126 419.75 202.262 419.6 202.424 419.484C202.586 419.367 202.771 419.287 202.967 419.247C203.163 419.208 203.365 419.211 203.559 419.255C203.754 419.3 203.937 419.386 204.096 419.506L206.625 421.438L206.209 418.332C206.183 418.134 206.2 417.932 206.258 417.74C206.317 417.549 206.415 417.372 206.548 417.221C206.68 417.071 206.843 416.95 207.026 416.868C207.208 416.785 207.406 416.742 207.607 416.743C207.807 416.742 208.005 416.785 208.188 416.868C208.37 416.95 208.533 417.071 208.665 417.221C208.798 417.372 208.896 417.549 208.955 417.74C209.013 417.932 209.03 418.134 209.004 418.332L208.588 421.438L211.074 419.432C211.233 419.311 211.416 419.225 211.611 419.181C211.806 419.136 212.007 419.133 212.203 419.173C212.399 419.212 212.584 419.293 212.746 419.409C212.909 419.525 213.044 419.675 213.144 419.848V419.901C213.247 420.073 213.311 420.265 213.333 420.464C213.355 420.663 213.334 420.865 213.272 421.055C213.209 421.245 213.106 421.42 212.97 421.567C212.834 421.714 212.668 421.83 212.483 421.907L209.57 423.134L212.472 424.35C212.657 424.428 212.823 424.544 212.959 424.691C213.095 424.838 213.198 425.012 213.262 425.201C213.326 425.391 213.348 425.592 213.328 425.792C213.307 425.991 213.245 426.183 213.144 426.356V426.42C213.05 426.598 212.918 426.754 212.759 426.877C212.599 426.999 212.415 427.086 212.219 427.132C212.023 427.177 211.819 427.18 211.621 427.14C211.424 427.101 211.238 427.019 211.074 426.901Z" fill="#263238"/>
<path d="M233.748 426.901L231.209 424.969L231.625 428.074C231.652 428.273 231.637 428.475 231.58 428.667C231.523 428.86 231.426 429.037 231.294 429.189C231.163 429.34 231.001 429.462 230.819 429.546C230.636 429.63 230.439 429.674 230.238 429.675C230.037 429.675 229.837 429.632 229.654 429.549C229.471 429.466 229.307 429.345 229.175 429.193C229.042 429.041 228.944 428.863 228.886 428.67C228.828 428.477 228.813 428.274 228.84 428.074L229.256 424.969L226.717 426.901C226.558 427.022 226.376 427.108 226.182 427.153C225.988 427.199 225.786 427.202 225.591 427.164C225.395 427.126 225.21 427.046 225.047 426.931C224.884 426.816 224.748 426.667 224.647 426.495V426.431C224.546 426.258 224.484 426.065 224.463 425.866C224.443 425.667 224.466 425.466 224.529 425.276C224.593 425.086 224.696 424.912 224.832 424.765C224.969 424.619 225.135 424.503 225.319 424.425L228.232 423.209L225.319 421.982C225.135 421.904 224.969 421.788 224.832 421.641C224.696 421.495 224.593 421.321 224.529 421.131C224.466 420.941 224.443 420.74 224.463 420.541C224.484 420.341 224.546 420.149 224.647 419.976V419.922C224.747 419.75 224.883 419.6 225.045 419.484C225.207 419.367 225.392 419.287 225.588 419.247C225.784 419.208 225.986 419.211 226.18 419.255C226.375 419.3 226.558 419.386 226.717 419.506L229.256 421.438L228.84 418.332C228.813 418.133 228.828 417.931 228.886 417.738C228.944 417.546 229.042 417.368 229.175 417.217C229.308 417.067 229.471 416.946 229.655 416.864C229.838 416.782 230.037 416.741 230.238 416.743C230.438 416.742 230.636 416.785 230.818 416.867C231 416.95 231.162 417.071 231.294 417.221C231.425 417.372 231.523 417.549 231.58 417.741C231.637 417.933 231.653 418.134 231.625 418.332L231.209 421.438L233.748 419.506C233.908 419.386 234.09 419.3 234.285 419.255C234.48 419.211 234.682 419.208 234.877 419.247C235.073 419.287 235.258 419.367 235.421 419.484C235.583 419.6 235.718 419.75 235.819 419.922V419.976C235.919 420.149 235.982 420.341 236.002 420.541C236.022 420.74 236 420.941 235.936 421.131C235.873 421.321 235.769 421.495 235.633 421.641C235.497 421.788 235.331 421.904 235.146 421.982L232.244 423.209L235.146 424.425C235.331 424.503 235.497 424.619 235.633 424.765C235.769 424.912 235.873 425.086 235.936 425.276C236 425.466 236.022 425.667 236.002 425.866C235.982 426.065 235.919 426.258 235.819 426.431V426.495C235.718 426.667 235.581 426.816 235.418 426.931C235.256 427.046 235.07 427.126 234.875 427.164C234.679 427.202 234.478 427.199 234.283 427.153C234.089 427.108 233.907 427.022 233.748 426.901Z" fill="#263238"/>
<path d="M256.38 426.901L253.84 424.969L254.257 428.074C254.282 428.274 254.265 428.476 254.207 428.668C254.149 428.86 254.05 429.038 253.918 429.189C253.786 429.341 253.623 429.462 253.44 429.546C253.258 429.63 253.06 429.674 252.859 429.675C252.658 429.674 252.46 429.63 252.278 429.546C252.096 429.462 251.934 429.34 251.803 429.189C251.671 429.037 251.574 428.86 251.517 428.667C251.46 428.475 251.444 428.273 251.472 428.074L251.877 424.969L249.348 426.901C249.19 427.022 249.008 427.108 248.813 427.153C248.619 427.199 248.418 427.202 248.222 427.164C248.026 427.126 247.841 427.046 247.678 426.931C247.516 426.816 247.379 426.667 247.278 426.495V426.431C247.178 426.258 247.115 426.065 247.095 425.866C247.075 425.667 247.097 425.466 247.161 425.276C247.224 425.086 247.328 424.912 247.464 424.765C247.6 424.619 247.766 424.503 247.95 424.425L250.853 423.209L247.95 421.982C247.766 421.904 247.6 421.788 247.464 421.641C247.328 421.495 247.224 421.321 247.161 421.131C247.097 420.941 247.075 420.74 247.095 420.541C247.115 420.341 247.178 420.149 247.278 419.976V419.922C247.378 419.75 247.514 419.6 247.676 419.484C247.839 419.367 248.024 419.287 248.219 419.247C248.415 419.208 248.617 419.211 248.812 419.255C249.006 419.3 249.189 419.386 249.348 419.506L251.877 421.438L251.472 418.332C251.444 418.134 251.46 417.933 251.517 417.741C251.574 417.549 251.671 417.372 251.803 417.221C251.934 417.071 252.097 416.95 252.279 416.867C252.461 416.785 252.659 416.742 252.859 416.743C253.059 416.742 253.257 416.785 253.44 416.868C253.622 416.95 253.785 417.071 253.918 417.221C254.05 417.372 254.149 417.549 254.207 417.74C254.265 417.932 254.282 418.134 254.257 418.332L253.84 421.438L256.38 419.506C256.538 419.386 256.72 419.3 256.914 419.256C257.108 419.211 257.309 419.209 257.504 419.248C257.699 419.287 257.883 419.368 258.044 419.484C258.206 419.6 258.34 419.75 258.439 419.922V419.976C258.54 420.149 258.602 420.341 258.623 420.541C258.643 420.74 258.62 420.941 258.557 421.131C258.493 421.321 258.39 421.495 258.254 421.641C258.118 421.788 257.952 421.904 257.767 421.982L254.854 423.209L257.767 424.425C257.952 424.503 258.118 424.619 258.254 424.765C258.39 424.912 258.493 425.086 258.557 425.276C258.62 425.466 258.643 425.667 258.623 425.866C258.602 426.065 258.54 426.258 258.439 426.431V426.495C258.339 426.667 258.204 426.815 258.042 426.93C257.881 427.046 257.696 427.125 257.501 427.163C257.306 427.202 257.106 427.198 256.912 427.153C256.719 427.108 256.537 427.022 256.38 426.901Z" fill="#263238"/>
<path d="M294.206 423.166C294.206 423.166 289.596 428.917 283.909 428.917C278.222 428.917 273.623 423.166 273.623 423.166C273.623 423.166 278.222 417.404 283.909 417.404C289.596 417.404 294.206 423.166 294.206 423.166Z" fill="white" stroke="#263238" stroke-linecap="round" stroke-linejoin="round"/>
<path d="M287.451 423.166C287.451 423.867 287.244 424.552 286.854 425.134C286.465 425.717 285.912 426.171 285.265 426.439C284.617 426.707 283.905 426.777 283.218 426.64C282.531 426.504 281.899 426.166 281.404 425.671C280.909 425.176 280.571 424.544 280.435 423.857C280.298 423.17 280.368 422.458 280.636 421.81C280.904 421.163 281.358 420.61 281.941 420.221C282.523 419.831 283.208 419.624 283.909 419.624C284.849 419.624 285.75 419.997 286.414 420.661C287.078 421.325 287.451 422.227 287.451 423.166Z" fill="#999999" stroke="#263238" stroke-linecap="round" stroke-linejoin="round"/>
<path d="M177.442 458.506H168.084C165.745 458.506 163.848 460.402 163.848 462.742V474.799C163.848 477.139 165.745 479.035 168.084 479.035H177.442C179.781 479.035 181.678 477.139 181.678 474.799V462.742C181.678 460.402 179.781 458.506 177.442 458.506Z" fill="url(#paint2_linear)" stroke="#263238" stroke-linecap="round" stroke-linejoin="round"/>
<path d="M197.331 458.506H187.973C185.634 458.506 183.737 460.402 183.737 462.742V474.799C183.737 477.139 185.634 479.035 187.973 479.035H197.331C199.671 479.035 201.567 477.139 201.567 474.799V462.742C201.567 460.402 199.671 458.506 197.331 458.506Z" fill="url(#paint3_linear)" stroke="#263238" stroke-linecap="round" stroke-linejoin="round"/>
<path d="M217.21 458.506H207.852C205.512 458.506 203.616 460.402 203.616 462.742V474.799C203.616 477.139 205.512 479.035 207.852 479.035H217.21C219.549 479.035 221.446 477.139 221.446 474.799V462.742C221.446 460.402 219.549 458.506 217.21 458.506Z" fill="url(#paint4_linear)" stroke="#263238" stroke-linecap="round" stroke-linejoin="round"/>
<path d="M237.088 458.506H227.731C225.391 458.506 223.494 460.402 223.494 462.742V474.799C223.494 477.139 225.391 479.035 227.731 479.035H237.088C239.428 479.035 241.324 477.139 241.324 474.799V462.742C241.324 460.402 239.428 458.506 237.088 458.506Z" fill="url(#paint5_linear)" stroke="#263238" stroke-linecap="round" stroke-linejoin="round"/>
<path d="M256.977 458.506H247.62C245.28 458.506 243.384 460.402 243.384 462.742V474.799C243.384 477.139 245.28 479.035 247.62 479.035H256.977C259.317 479.035 261.214 477.139 261.214 474.799V462.742C261.214 460.402 259.317 458.506 256.977 458.506Z" fill="url(#paint6_linear)" stroke="#263238" stroke-linecap="round" stroke-linejoin="round"/>
<path d="M276.856 458.506H267.498C265.159 458.506 263.262 460.402 263.262 462.742V474.799C263.262 477.139 265.159 479.035 267.498 479.035H276.856C279.195 479.035 281.092 477.139 281.092 474.799V462.742C281.092 460.402 279.195 458.506 276.856 458.506Z" fill="url(#paint7_linear)" stroke="#263238" stroke-linecap="round" stroke-linejoin="round"/>
<path d="M187.387 482.3H178.029C175.689 482.3 173.793 484.197 173.793 486.536V498.593C173.793 500.933 175.689 502.83 178.029 502.83H187.387C189.726 502.83 191.623 500.933 191.623 498.593V486.536C191.623 484.197 189.726 482.3 187.387 482.3Z" fill="url(#paint8_linear)" stroke="#263238" stroke-linecap="round" stroke-linejoin="round"/>
<path d="M207.265 482.3H197.907C195.568 482.3 193.671 484.197 193.671 486.536V498.593C193.671 500.933 195.568 502.83 197.907 502.83H207.265C209.605 502.83 211.501 500.933 211.501 498.593V486.536C211.501 484.197 209.605 482.3 207.265 482.3Z" fill="url(#paint9_linear)" stroke="#263238" stroke-linecap="round" stroke-linejoin="round"/>
<path d="M227.154 482.3H217.797C215.457 482.3 213.561 484.197 213.561 486.536V498.593C213.561 500.933 215.457 502.83 217.797 502.83H227.154C229.494 502.83 231.39 500.933 231.39 498.593V486.536C231.39 484.197 229.494 482.3 227.154 482.3Z" fill="url(#paint10_linear)" stroke="#263238" stroke-linecap="round" stroke-linejoin="round"/>
<path d="M247.033 482.3H237.675C235.336 482.3 233.439 484.197 233.439 486.536V498.593C233.439 500.933 235.336 502.83 237.675 502.83H247.033C249.372 502.83 251.269 500.933 251.269 498.593V486.536C251.269 484.197 249.372 482.3 247.033 482.3Z" fill="url(#paint11_linear)" stroke="#263238" stroke-linecap="round" stroke-linejoin="round"/>
<path d="M266.911 482.3H257.554C255.214 482.3 253.318 484.197 253.318 486.536V498.593C253.318 500.933 255.214 502.83 257.554 502.83H266.911C269.251 502.83 271.147 500.933 271.147 498.593V486.536C271.147 484.197 269.251 482.3 266.911 482.3Z" fill="url(#paint12_linear)" stroke="#263238" stroke-linecap="round" stroke-linejoin="round"/>
<path d="M177.442 506.095H168.084C165.745 506.095 163.848 507.991 163.848 510.331V522.388C163.848 524.728 165.745 526.624 168.084 526.624H177.442C179.781 526.624 181.678 524.728 181.678 522.388V510.331C181.678 507.991 179.781 506.095 177.442 506.095Z" fill="url(#paint13_linear)" stroke="#263238" stroke-linecap="round" stroke-linejoin="round"/>
<path d="M197.331 506.095H187.973C185.634 506.095 183.737 507.991 183.737 510.331V522.388C183.737 524.728 185.634 526.624 187.973 526.624H197.331C199.671 526.624 201.567 524.728 201.567 522.388V510.331C201.567 507.991 199.671 506.095 197.331 506.095Z" fill="url(#paint14_linear)" stroke="#263238" stroke-linecap="round" stroke-linejoin="round"/>
<path d="M217.21 506.095H207.852C205.512 506.095 203.616 507.991 203.616 510.331V522.388C203.616 524.728 205.512 526.624 207.852 526.624H217.21C219.549 526.624 221.446 524.728 221.446 522.388V510.331C221.446 507.991 219.549 506.095 217.21 506.095Z" fill="url(#paint15_linear)" stroke="#263238" stroke-linecap="round" stroke-linejoin="round"/>
<path d="M237.088 506.095H227.731C225.391 506.095 223.494 507.991 223.494 510.331V522.388C223.494 524.728 225.391 526.624 227.731 526.624H237.088C239.428 526.624 241.324 524.728 241.324 522.388V510.331C241.324 507.991 239.428 506.095 237.088 506.095Z" fill="url(#paint16_linear)" stroke="#263238" stroke-linecap="round" stroke-linejoin="round"/>
<path d="M256.977 506.095H247.62C245.28 506.095 243.384 507.991 243.384 510.331V522.388C243.384 524.728 245.28 526.624 247.62 526.624H256.977C259.317 526.624 261.214 524.728 261.214 522.388V510.331C261.214 507.991 259.317 506.095 256.977 506.095Z" fill="url(#paint17_linear)" stroke="#263238" stroke-linecap="round" stroke-linejoin="round"/>
<path d="M276.856 506.095H267.498C265.159 506.095 263.262 507.991 263.262 510.331V522.388C263.262 524.728 265.159 526.624 267.498 526.624H276.856C279.195 526.624 281.092 524.728 281.092 522.388V510.331C281.092 507.991 279.195 506.095 276.856 506.095Z" fill="url(#paint18_linear)" stroke="#263238" stroke-linecap="round" stroke-linejoin="round"/>
<path d="M187.387 529.889H178.029C175.689 529.889 173.793 531.786 173.793 534.125V546.182C173.793 548.522 175.689 550.419 178.029 550.419H187.387C189.726 550.419 191.623 548.522 191.623 546.182V534.125C191.623 531.786 189.726 529.889 187.387 529.889Z" fill="url(#paint19_linear)" stroke="#263238" stroke-linecap="round" stroke-linejoin="round"/>
<path d="M207.265 529.889H197.907C195.568 529.889 193.671 531.786 193.671 534.125V546.182C193.671 548.522 195.568 550.419 197.907 550.419H207.265C209.605 550.419 211.501 548.522 211.501 546.182V534.125C211.501 531.786 209.605 529.889 207.265 529.889Z" fill="url(#paint20_linear)" stroke="#263238" stroke-linecap="round" stroke-linejoin="round"/>
<path d="M227.154 529.889H217.797C215.457 529.889 213.561 531.786 213.561 534.125V546.182C213.561 548.522 215.457 550.419 217.797 550.419H227.154C229.494 550.419 231.39 548.522 231.39 546.182V534.125C231.39 531.786 229.494 529.889 227.154 529.889Z" fill="url(#paint21_linear)" stroke="#263238" stroke-linecap="round" stroke-linejoin="round"/>
<path d="M247.033 529.889H237.675C235.336 529.889 233.439 531.786 233.439 534.125V546.182C233.439 548.522 235.336 550.419 237.675 550.419H247.033C249.372 550.419 251.269 548.522 251.269 546.182V534.125C251.269 531.786 249.372 529.889 247.033 529.889Z" fill="url(#paint22_linear)" stroke="#263238" stroke-linecap="round" stroke-linejoin="round"/>
<path d="M266.911 529.889H257.554C255.214 529.889 253.318 531.786 253.318 534.125V546.182C253.318 548.522 255.214 550.419 257.554 550.419H266.911C269.251 550.419 271.147 548.522 271.147 546.182V534.125C271.147 531.786 269.251 529.889 266.911 529.889Z" fill="url(#paint23_linear)" stroke="#263238" stroke-linecap="round" stroke-linejoin="round"/>
<path d="M248.459 377.069C256.159 362.569 250.647 344.572 236.147 336.872C221.647 329.172 203.65 334.684 195.95 349.184C188.25 363.684 193.762 381.681 208.262 389.381C222.762 397.081 240.759 391.569 248.459 377.069Z" fill="white" stroke="#263238" stroke-linecap="round" stroke-linejoin="round"/>
<path d="M222.203 392.841C228.7 392.855 235.02 390.725 240.183 386.781C233.215 384.194 225.848 382.851 218.415 382.811C213.092 382.852 207.815 383.809 202.816 385.639C208.203 390.291 215.085 392.847 222.203 392.841Z" fill="url(#paint24_linear)" stroke="#263238" stroke-linecap="round" stroke-linejoin="round"/>
<path d="M214.201 376.377C214.201 376.377 213.945 366.689 211.224 359.604C208.503 352.519 206.956 342.051 217.338 340.6C227.72 339.149 231.828 340.867 237.771 340.398C249.188 339.512 236.608 352.626 236.608 352.626L221.318 358.612C221.318 358.612 216.015 376.847 214.201 376.377Z" fill="#263238" stroke="#263238" stroke-linecap="round" stroke-linejoin="round"/>
<path d="M213.507 379.194L216.207 368.215L223.676 370.477L225.927 379.418C226.138 380.274 226.533 381.073 227.087 381.759C227.64 382.445 228.337 383.001 229.128 383.388C230.255 383.911 231.327 384.543 232.329 385.276C232.329 385.276 223.43 396.683 206.348 385.276C207.478 384.453 208.703 383.769 209.997 383.238C210.86 382.89 211.628 382.341 212.238 381.638C212.848 380.935 213.283 380.098 213.507 379.194Z" fill="white"/>
<path d="M236.843 352.967L237.825 359.508C237.923 360.198 237.864 360.902 237.654 361.567L237.088 363.349L237.419 367.617C237.435 367.837 237.435 368.058 237.419 368.279C237.27 370.413 236.213 380.891 229.95 381.371C224.369 381.798 218.8 376.036 216.826 373.304C216.332 372.623 215.97 371.856 215.759 371.042L214.916 367.724C214.121 367.718 213.348 367.462 212.708 366.99C212.067 366.519 211.593 365.857 211.352 365.099C210.509 362.421 209.111 360.692 211.821 359.358C214.532 358.025 215.471 361.813 215.471 361.813C215.471 361.813 216.175 357.406 216.922 356.147C217.669 354.888 219.973 353.693 220.678 352.615C221.076 351.759 221.397 350.87 221.638 349.958C221.638 349.958 229.886 351.548 236.149 350.278L236.843 352.967Z" fill="#263238" stroke="#263238" stroke-linecap="round" stroke-linejoin="round"/>
<path d="M213.507 379.194L216.207 368.215L223.676 370.477L225.927 379.418C226.138 380.274 226.533 381.073 227.087 381.759C227.64 382.445 228.337 383.001 229.128 383.388C230.255 383.911 231.327 384.543 232.329 385.276C232.329 385.276 223.43 396.683 206.348 385.276C207.478 384.453 208.703 383.769 209.997 383.238C210.86 382.89 211.628 382.341 212.238 381.638C212.848 380.935 213.283 380.098 213.507 379.194V379.194Z" stroke="#263238" stroke-linecap="round" stroke-linejoin="round"/>
<path d="M236.843 351.804L237.825 358.345C237.922 359.035 237.864 359.739 237.654 360.404L237.088 362.186L237.419 366.454C237.435 366.678 237.435 366.903 237.419 367.126C237.27 369.26 236.213 379.738 229.95 380.219C224.369 380.645 218.8 374.884 216.826 372.152C216.334 371.47 215.973 370.703 215.759 369.89L214.916 366.571C214.117 366.571 213.339 366.316 212.695 365.844C212.05 365.372 211.573 364.708 211.33 363.947C210.488 361.268 209.09 359.54 211.8 358.206C214.51 356.872 215.471 360.639 215.471 360.639C215.471 360.639 216.175 356.232 216.922 354.973C217.669 353.714 219.973 352.519 220.678 351.441C221.076 350.586 221.397 349.697 221.638 348.784C221.638 348.784 229.886 350.374 236.149 349.104L236.843 351.804Z" fill="white" stroke="#263238" stroke-linecap="round" stroke-linejoin="round"/>
<path d="M232.415 362.72L234.463 367.671C234.538 367.832 234.571 368.009 234.56 368.186C234.549 368.363 234.494 368.535 234.399 368.685C234.305 368.836 234.175 368.961 234.02 369.048C233.865 369.135 233.691 369.183 233.514 369.186L230.964 369.356" stroke="#263238" stroke-width="0.75" stroke-linecap="round" stroke-linejoin="round"/>
<path d="M226.066 371.202C226.271 371.624 226.566 371.995 226.93 372.291C227.294 372.586 227.719 372.797 228.174 372.91C228.629 373.023 229.103 373.035 229.563 372.944C230.023 372.854 230.457 372.664 230.836 372.387" stroke="#263238" stroke-width="0.75" stroke-linecap="round" stroke-linejoin="round"/>
<path d="M226.013 343.993C214.958 342.734 212.92 347.098 212.92 347.098" stroke="#7F7F7F" stroke-width="0.75" stroke-linecap="round" stroke-linejoin="round"/>
<path d="M238.145 342.788C234.971 343.581 231.716 344 228.445 344.036" stroke="#7F7F7F" stroke-width="0.75" stroke-linecap="round" stroke-linejoin="round"/>
<path d="M228.147 347.173C231.294 347.173 237.654 346.586 240.193 343.684" stroke="#7F7F7F" stroke-width="0.75" stroke-linecap="round" stroke-linejoin="round"/>
<path d="M223.494 346.64C224.31 346.826 225.137 346.962 225.97 347.045" stroke="#7F7F7F" stroke-width="0.75" stroke-linecap="round" stroke-linejoin="round"/>
<path d="M227.976 362.005C227.976 362.858 227.634 363.541 227.208 363.541C226.781 363.541 226.439 362.858 226.439 362.005C226.439 361.151 226.792 360.468 227.208 360.468C227.624 360.468 227.976 361.162 227.976 362.005Z" fill="#263238"/>
<path d="M235.21 361.813C235.21 362.549 234.912 363.146 234.549 363.146C234.186 363.146 233.877 362.549 233.877 361.813C233.877 361.076 234.175 360.479 234.549 360.479C234.922 360.479 235.21 361.066 235.21 361.813Z" fill="#263238"/>
<path d="M224.7 359.743C224.7 359.743 225.618 357 227.208 357.075C227.698 357.121 228.169 357.293 228.574 357.573C228.98 357.853 229.306 358.233 229.523 358.676" stroke="#263238" stroke-width="0.75" stroke-linecap="round" stroke-linejoin="round"/>
<path d="M235.712 358.612C235.413 357.875 234.954 357.043 234.346 357.086C233.279 357.15 232.756 358.686 232.756 358.686" stroke="#263238" stroke-width="0.75" stroke-linecap="round" stroke-linejoin="round"/>
<path d="M70.3241 488.169C72.4581 482.983 67.2404 467.298 64.9037 460.864C64.7678 460.492 64.5428 460.158 64.2483 459.893C63.9537 459.628 63.5987 459.44 63.2142 459.344C62.8298 459.248 62.4277 459.248 62.0433 459.344C61.6588 459.439 61.3037 459.628 61.0091 459.893C58.875 461.781 56.3248 465.452 55.898 472.259C55.898 472.259 39.6154 500.93 39.6154 514.012C39.6154 526.272 63.858 551.806 63.858 551.806C66.5914 550.957 68.9018 549.104 70.3241 546.62C70.3241 546.62 61.2651 524.213 54.2335 514.609C54.2228 514.62 67.9233 493.909 70.3241 488.169Z" fill="#263238"/>
<path opacity="0.2" d="M67.6032 496.555C67.6032 496.555 59.846 480.027 56.933 481.511C54.0201 482.994 46.4656 510.864 49.3572 515.303C52.2488 519.742 68.0194 551.08 71.9673 550.451C75.9153 549.821 67.6032 496.555 67.6032 496.555Z" fill="black"/>
<path d="M70.3241 488.169C72.4581 482.983 67.2404 467.298 64.9037 460.864C64.7678 460.492 64.5428 460.158 64.2483 459.893C63.9537 459.628 63.5987 459.44 63.2142 459.344C62.8298 459.248 62.4277 459.248 62.0433 459.344C61.6588 459.439 61.3037 459.628 61.0091 459.893C58.875 461.781 56.3248 465.452 55.898 472.259C55.898 472.259 39.6154 500.93 39.6154 514.012C39.6154 526.272 63.858 551.806 63.858 551.806C66.5914 550.957 68.9018 549.104 70.3241 546.62C70.3241 546.62 61.2651 524.213 54.2335 514.609C54.2228 514.62 67.9233 493.909 70.3241 488.169Z" stroke="#263238" stroke-linecap="round" stroke-linejoin="round"/>
<path d="M68.2647 544.593L71.9246 550.451C71.9246 550.451 83.3203 554.014 84.5047 557.781C85.6891 561.548 79.8525 566.797 76.3847 565.741C72.9169 564.685 67.2617 554.228 67.2617 554.228L62.6522 548.893L68.2647 544.593Z" fill="white" stroke="#263238" stroke-linecap="round" stroke-linejoin="round"/>
<path d="M61.0837 550.323L63.5485 553.161C67.0147 552.191 69.9778 549.931 71.8285 546.844L70.3347 543.291C70.3347 543.291 68.2327 548.22 61.0837 550.323Z" fill="#92E3A9" stroke="#263238" stroke-linecap="round" stroke-linejoin="round"/>
<path d="M75.6912 707.366L72.4901 720.65C72.3838 721.096 72.3796 721.559 72.478 722.006C72.5763 722.453 72.7746 722.872 73.058 723.231C73.3414 723.59 73.7025 723.881 74.1142 724.081C74.5258 724.281 74.9775 724.385 75.4351 724.385H94.1292C94.572 724.385 95.0094 724.289 95.411 724.102C95.8126 723.916 96.1686 723.644 96.4541 723.305C96.7396 722.967 96.9479 722.57 97.0642 722.143C97.1805 721.716 97.2021 721.268 97.1276 720.832C96.9829 719.833 96.631 718.876 96.0945 718.022C95.5579 717.167 94.8485 716.434 94.0119 715.87C89.7438 713.096 87.7165 704.41 87.7165 704.41L75.6912 707.366Z" fill="#263238" stroke="#263238" stroke-linecap="round" stroke-linejoin="round"/>
<path d="M121.754 709.586C121.754 709.586 118.735 713.928 118.244 721.675C118.228 722.025 118.283 722.375 118.406 722.703C118.53 723.031 118.718 723.331 118.96 723.585C119.203 723.838 119.494 724.04 119.817 724.177C120.139 724.315 120.486 724.385 120.837 724.385H153.989C154.636 724.389 155.268 724.191 155.797 723.818C156.327 723.446 156.727 722.919 156.943 722.309C157.159 721.699 157.179 721.037 157.002 720.414C156.824 719.792 156.457 719.241 155.952 718.837C154.541 717.787 152.869 717.145 151.119 716.98C142.988 715.913 135.786 712.178 134.484 707.377L121.754 709.586Z" fill="#263238" stroke="#263238" stroke-linecap="round" stroke-linejoin="round"/>
<path d="M70.3241 546.62C70.3241 546.62 66.5682 562.156 68.0514 595.703L69.0117 633.689C69.0117 633.689 63.6126 660.364 73.9733 708.657C73.9733 708.657 77.1744 715.806 90.0746 706.865L91.5684 633.187L105.066 551.806L70.3241 546.62Z" fill="#999999"/>
<path opacity="0.2" d="M97.1703 580.903C97.1703 580.903 91.6645 602.852 89.4451 615.677C87.2257 628.503 74.0267 627.521 72.4368 635.951C70.847 644.38 86.3081 634.467 84.8036 664.76C83.2991 695.053 77.8893 711.613 86.3827 711.367C94.8762 711.122 95.1216 687.253 95.1216 687.253L100.297 614.504V604.388L101.534 585.182L97.1703 580.903Z" fill="black"/>
<path d="M70.3241 546.62C70.3241 546.62 66.5682 562.156 68.0514 595.703L69.0117 633.689C69.0117 633.689 63.6126 660.364 73.9733 708.657C73.9733 708.657 77.1744 715.806 90.0746 706.865L91.5684 633.187L105.066 551.806L70.3241 546.62Z" stroke="#263238" stroke-linecap="round" stroke-linejoin="round"/>
<path d="M72.4368 641.926C71.8628 642.685 71.332 643.476 70.8469 644.295" stroke="#263238" stroke-linecap="round" stroke-linejoin="round"/>
<path d="M73.109 633.56C73.109 633.56 85.4864 630.605 86.3294 633.56C87.0549 636.132 80.3647 633.112 73.7599 640.325" stroke="#263238" stroke-linecap="round" stroke-linejoin="round"/>
<path d="M94.5667 586.238C104.17 601.742 117.689 632.248 117.689 632.248C117.689 632.248 115.651 635.78 117.689 641.702C117.689 641.702 112.354 662.306 120.09 711.57C120.09 711.57 126.748 715.838 136.372 708.369C136.372 708.369 141.174 634.318 139.328 624.331C137.482 614.344 120.122 548.381 120.122 548.381H81.9652" fill="#999999"/>
<path opacity="0.2" d="M92.4007 587.316C92.4007 587.316 98.2159 590.272 109.366 587.316C120.517 584.36 111.276 596.919 114.968 610.62C118.66 624.32 129.031 630.605 127.367 636.516C125.702 642.427 120.773 643.921 119.716 659.83C118.66 675.74 132.617 705.125 127.121 711.143C121.626 717.161 108.31 702.927 108.31 702.927L97.1702 627.5L92.4007 587.316Z" fill="black"/>
<path d="M94.5667 586.238C104.17 601.742 117.689 632.248 117.689 632.248C117.689 632.248 115.651 635.78 117.689 641.702C117.689 641.702 112.354 662.306 120.09 711.57C120.09 711.57 126.748 715.838 136.372 708.369C136.372 708.369 141.174 634.318 139.328 624.331C137.482 614.344 120.122 548.381 120.122 548.381H81.9652" stroke="#263238" stroke-linecap="round" stroke-linejoin="round"/>
<path d="M124.753 634.862C129.138 634.201 134.74 633.795 134.516 635.78C134.153 639.109 126.332 635.727 121.573 641.328" stroke="#263238" stroke-linecap="round" stroke-linejoin="round"/>
<path d="M119.716 635.78C119.716 635.78 120.485 635.609 121.669 635.385" stroke="#263238" stroke-linecap="round" stroke-linejoin="round"/>
<path d="M150.254 443.674L150.948 436.632C150.948 436.632 149.561 429.301 150.254 426.815C150.948 424.329 157.03 408.569 158.961 409.263C160.893 409.956 156.059 418.525 156.198 421C156.198 421 158.769 421.139 159.399 422.793C159.399 422.793 161.842 423.209 161.981 425.417C162.577 425.798 163.059 426.334 163.375 426.967C163.691 427.601 163.829 428.308 163.773 429.013C163.507 431.361 158.801 437.72 158.801 437.72L159.079 446.843L150.254 443.674Z" fill="white" stroke="#263238" stroke-linecap="round" stroke-linejoin="round"/>
<path d="M109.345 431.777C109.345 431.777 106.624 426.442 106.229 424.436C105.941 423.038 106.517 420.168 106.229 418.759C105.568 415.505 101.011 406.553 101.011 406.553C100.829 406.168 100.549 405.837 100.201 405.592L97.533 408.879H90.2986L79.2443 423.475L84.6861 436.578L83.0963 438.467C84.0672 439.427 84.6861 439.982 84.6861 439.982L83.0963 449.489L98.6747 451.069L99.0375 445.04H103.775C104.415 445.04 105.028 444.786 105.48 444.334C105.932 443.881 106.187 443.268 106.187 442.628V434.37L108.321 433.751C108.526 433.703 108.72 433.611 108.887 433.482C109.054 433.352 109.191 433.188 109.288 433C109.385 432.812 109.441 432.606 109.451 432.395C109.461 432.184 109.424 431.973 109.345 431.777Z" fill="white" stroke="#263238" stroke-linecap="round" stroke-linejoin="round"/>
<path d="M71.6685 427.029C77.9426 436.269 84.6861 439.982 84.6861 439.982L87.343 433.377C87.343 433.377 82.0079 432.812 82.8082 427.626C84.0566 419.976 90.2773 426.858 90.2773 426.858L91.6217 420.947C91.6217 420.947 94.9401 417.383 94.7054 416.134C94.5277 415.228 94.2925 414.333 94.0012 413.456C94.0012 413.456 106.005 402.028 104.735 395.658C104.735 395.658 94.7374 397.686 82.8082 399.926C68.286 402.551 64.5835 416.615 71.6685 427.029Z" fill="#263238" stroke="#263238" stroke-linecap="round" stroke-linejoin="round"/>
<path d="M103.818 445.04C103.818 445.04 95.463 443.621 92.2726 439.705C89.0823 435.789 91.6218 439.982 93.1156 442.383C96.3166 447.515 99.0375 445.04 103.818 445.04Z" fill="#263238"/>
<path d="M98.6747 433.025C99.251 433.678 99.9782 434.179 100.793 434.486C101.607 434.793 102.485 434.896 103.348 434.786" stroke="#263238" stroke-width="0.75" stroke-linecap="round" stroke-linejoin="round"/>
<path d="M104.757 422.814C104.757 423.561 104.479 424.158 104.127 424.158C103.775 424.158 103.508 423.561 103.508 422.814C103.508 422.067 103.786 421.469 104.127 421.469C104.469 421.469 104.757 422.078 104.757 422.814Z" fill="#263238"/>
<path d="M104.639 418.887C103.775 418.698 102.872 418.821 102.09 419.235C101.309 419.65 100.699 420.328 100.371 421.149" stroke="#263238" stroke-width="0.75" stroke-linecap="round" stroke-linejoin="round"/>
<path d="M74.955 453.64C74.955 453.64 74.955 446.342 87.5351 447.473C102.825 448.86 108.993 456.692 108.993 456.692L74.955 453.64Z" fill="#92E3A9" stroke="#263238" stroke-linecap="round" stroke-linejoin="round"/>
<path d="M99.6244 452.328C109.153 453.395 125.766 455.689 124.774 481.308C123.782 506.927 120.09 548.359 120.09 548.359C120.09 548.359 72.4368 568.718 67.027 549.832C67.027 549.832 69.5025 528.491 61.6066 495.275C53.7106 462.059 57.2851 447.707 99.6244 452.328Z" fill="#263238"/>
<path opacity="0.2" d="M127.185 524.181C127.185 524.181 120.965 525.674 101.908 515.303C72.0313 499.01 68.6809 475.098 60.2941 479.024C51.9074 482.951 68.5849 560.064 68.5849 560.064L99.5284 562.006H128.21L127.185 524.181Z" fill="black"/>
<path d="M99.6244 452.328C109.153 453.395 125.766 455.689 124.774 481.308C123.782 506.927 120.09 548.359 120.09 548.359C120.09 548.359 72.4368 568.718 67.027 549.832C67.027 549.832 69.5025 528.491 61.6066 495.275C53.7106 462.059 57.2851 447.707 99.6244 452.328Z" stroke="#263238" stroke-linecap="round" stroke-linejoin="round"/>
<path d="M44.6196 513.542C44.0861 513.67 43.5206 513.831 42.9231 514.023" stroke="#7F7F7F" stroke-width="0.75" stroke-linecap="round" stroke-linejoin="round"/>
<path d="M52.4942 514.023C52.4942 514.023 50.4882 512.593 46.0921 513.254" stroke="#7F7F7F" stroke-width="0.75" stroke-linecap="round" stroke-linejoin="round"/>
<path d="M103.306 452.797C103.306 452.797 119.812 452.904 127.207 457.343C127.207 457.343 140.278 455.123 145.463 457.343L150.148 439.833C150.148 439.833 156.315 436.867 159.271 441.305C159.271 441.305 161.49 467.981 157.798 470.168C154.106 472.356 124.785 479.046 124.785 479.046C124.785 479.046 106.058 473.412 103.306 452.797Z" fill="#263238"/>
<path opacity="0.2" d="M124.646 474.522C124.646 474.522 123.782 467.661 136.383 468.546C148.985 469.432 158.79 469.677 160.039 463.755C161.287 457.833 175.105 447.59 170.709 466.764L166.26 485.971L139.755 487.721L124.646 474.522Z" fill="black"/>
<path d="M103.306 452.797C103.306 452.797 119.812 452.904 127.207 457.343C127.207 457.343 140.278 455.123 145.463 457.343L150.148 439.833C150.148 439.833 156.315 436.867 159.271 441.305C159.271 441.305 161.49 467.981 157.798 470.168C154.106 472.356 124.785 479.046 124.785 479.046C124.785 479.046 106.058 473.412 103.306 452.797Z" stroke="#263238" stroke-linecap="round" stroke-linejoin="round"/>
<path d="M148.526 458.655C149.951 459.817 151.176 461.205 152.154 462.763" stroke="#7F7F7F" stroke-width="0.75" stroke-linecap="round" stroke-linejoin="round"/>
<path d="M145.858 457.513C146.26 457.512 146.657 457.599 147.021 457.769" stroke="#7F7F7F" stroke-width="0.75" stroke-linecap="round" stroke-linejoin="round"/>
<path d="M61.2545 487.721C60.6783 482.193 59.1204 472.046 59.7286 465.025" stroke="#7F7F7F" stroke-width="0.75" stroke-linecap="round" stroke-linejoin="round"/>
<path d="M56.8904 474.522C56.8904 474.522 59.7713 491.594 61.1585 491.594" stroke="#7F7F7F" stroke-width="0.75" stroke-linecap="round" stroke-linejoin="round"/>
<path d="M67.251 537.924V547.506" stroke="#7F7F7F" stroke-width="0.75" stroke-linecap="round" stroke-linejoin="round"/>
<path d="M83.5124 562.028C83.5124 562.028 85.0596 572.858 89.8185 579.548L83.5124 562.028Z" fill="#999999"/>
<path d="M83.5124 562.028C83.5124 562.028 85.0596 572.858 89.8185 579.548" stroke="#263238" stroke-linecap="round" stroke-linejoin="round"/>
<path d="M148.803 437.816L147.736 441.785C147.736 441.785 154.949 440.078 161.33 443.503L160.679 438.862C160.679 438.862 156.55 435.778 148.803 437.816Z" fill="#92E3A9" stroke="#263238" stroke-linecap="round" stroke-linejoin="round"/>
<path d="M109.398 540.143C104.202 542.448 93.8945 544.475 73.6532 542.48" stroke="#7F7F7F" stroke-width="0.75" stroke-linecap="round" stroke-linejoin="round"/>
<path d="M114.605 535.896C114.163 536.877 113.453 537.713 112.557 538.308" stroke="#7F7F7F" stroke-width="0.75" stroke-linecap="round" stroke-linejoin="round"/>
<path d="M128.914 457.844L137.333 463.051" stroke="#7F7F7F" stroke-width="0.75" stroke-linecap="round" stroke-linejoin="round"/>
<path d="M115.768 501.667C121.15 495.333 124.496 487.524 125.371 479.259" stroke="#7F7F7F" stroke-width="0.75" stroke-linecap="round" stroke-linejoin="round"/>
<path d="M110.86 500.119C104.019 508.02 95.4747 514.266 85.8705 518.387" stroke="#7F7F7F" stroke-width="0.75" stroke-linecap="round" stroke-linejoin="round"/>
<path d="M115.043 494.699C114.242 495.851 113.4 496.972 112.514 498.071" stroke="#7F7F7F" stroke-width="0.75" stroke-linecap="round" stroke-linejoin="round"/>
<path d="M117.614 490.836C117.209 491.519 116.782 492.181 116.355 492.842" stroke="#7F7F7F" stroke-width="0.75" stroke-linecap="round" stroke-linejoin="round"/>
<path d="M71.4872 531.468C82.2859 536.403 94.2991 538.047 106.027 536.195" stroke="#7F7F7F" stroke-width="0.75" stroke-linecap="round" stroke-linejoin="round"/>
<path d="M100.371 398.966C101.473 398.486 102.524 397.896 103.508 397.206" stroke="#7F7F7F" stroke-width="0.75" stroke-linecap="round" stroke-linejoin="round"/>
<path d="M74.3788 424.158C74.3788 424.158 68.4569 413.296 75.2964 407.374C80.5142 402.871 89.8185 402.445 97.2663 400.118" stroke="#7F7F7F" stroke-width="0.75" stroke-linecap="round" stroke-linejoin="round"/>
<path d="M79.3618 416.444C79.0291 415.456 78.9745 414.397 79.2041 413.38C79.4337 412.364 79.9386 411.43 80.6635 410.682C84.7289 406.819 96.5941 406.414 102.505 400.535" stroke="#7F7F7F" stroke-width="0.75" stroke-linecap="round" stroke-linejoin="round"/>
<path d="M81.7732 421.469C81.2831 420.794 80.8478 420.08 80.4714 419.335" stroke="#7F7F7F" stroke-width="0.75" stroke-linecap="round" stroke-linejoin="round"/>
<path d="M350.424 102.001V1.01373" stroke="white" stroke-linecap="round" stroke-linejoin="round"/>
<defs>
<linearGradient id="paint0_linear" x1="223.105" y1="309.977" x2="223.105" y2="575.952" gradientUnits="userSpaceOnUse">
<stop stop-color="#45C130"/>
<stop offset="1" stop-color="#06BB5B"/>
</linearGradient>
<linearGradient id="paint1_linear" x1="207.297" y1="310.414" x2="207.297" y2="316.816" gradientUnits="userSpaceOnUse">
<stop stop-color="#45C130"/>
<stop offset="1" stop-color="#06BB5B"/>
</linearGradient>
<linearGradient id="paint2_linear" x1="172.763" y1="458.506" x2="172.763" y2="479.035" gradientUnits="userSpaceOnUse">
<stop stop-color="#45C130"/>
<stop offset="1" stop-color="#06BB5B"/>
</linearGradient>
<linearGradient id="paint3_linear" x1="192.652" y1="458.506" x2="192.652" y2="479.035" gradientUnits="userSpaceOnUse">
<stop stop-color="#45C130"/>
<stop offset="1" stop-color="#06BB5B"/>
</linearGradient>
<linearGradient id="paint4_linear" x1="212.531" y1="458.506" x2="212.531" y2="479.035" gradientUnits="userSpaceOnUse">
<stop stop-color="#45C130"/>
<stop offset="1" stop-color="#06BB5B"/>
</linearGradient>
<linearGradient id="paint5_linear" x1="232.409" y1="458.506" x2="232.409" y2="479.035" gradientUnits="userSpaceOnUse">
<stop stop-color="#45C130"/>
<stop offset="1" stop-color="#06BB5B"/>
</linearGradient>
<linearGradient id="paint6_linear" x1="252.299" y1="458.506" x2="252.299" y2="479.035" gradientUnits="userSpaceOnUse">
<stop stop-color="#45C130"/>
<stop offset="1" stop-color="#06BB5B"/>
</linearGradient>
<linearGradient id="paint7_linear" x1="272.177" y1="458.506" x2="272.177" y2="479.035" gradientUnits="userSpaceOnUse">
<stop stop-color="#45C130"/>
<stop offset="1" stop-color="#06BB5B"/>
</linearGradient>
<linearGradient id="paint8_linear" x1="182.708" y1="482.3" x2="182.708" y2="502.83" gradientUnits="userSpaceOnUse">
<stop stop-color="#45C130"/>
<stop offset="1" stop-color="#06BB5B"/>
</linearGradient>
<linearGradient id="paint9_linear" x1="202.586" y1="482.3" x2="202.586" y2="502.83" gradientUnits="userSpaceOnUse">
<stop stop-color="#45C130"/>
<stop offset="1" stop-color="#06BB5B"/>
</linearGradient>
<linearGradient id="paint10_linear" x1="222.475" y1="482.3" x2="222.475" y2="502.83" gradientUnits="userSpaceOnUse">
<stop stop-color="#45C130"/>
<stop offset="1" stop-color="#06BB5B"/>
</linearGradient>
<linearGradient id="paint11_linear" x1="242.354" y1="482.3" x2="242.354" y2="502.83" gradientUnits="userSpaceOnUse">
<stop stop-color="#45C130"/>
<stop offset="1" stop-color="#06BB5B"/>
</linearGradient>
<linearGradient id="paint12_linear" x1="262.232" y1="482.3" x2="262.232" y2="502.83" gradientUnits="userSpaceOnUse">
<stop stop-color="#45C130"/>
<stop offset="1" stop-color="#06BB5B"/>
</linearGradient>
<linearGradient id="paint13_linear" x1="172.763" y1="506.095" x2="172.763" y2="526.624" gradientUnits="userSpaceOnUse">
<stop stop-color="#45C130"/>
<stop offset="1" stop-color="#06BB5B"/>
</linearGradient>
<linearGradient id="paint14_linear" x1="192.652" y1="506.095" x2="192.652" y2="526.624" gradientUnits="userSpaceOnUse">
<stop stop-color="#45C130"/>
<stop offset="1" stop-color="#06BB5B"/>
</linearGradient>
<linearGradient id="paint15_linear" x1="212.531" y1="506.095" x2="212.531" y2="526.624" gradientUnits="userSpaceOnUse">
<stop stop-color="#45C130"/>
<stop offset="1" stop-color="#06BB5B"/>
</linearGradient>
<linearGradient id="paint16_linear" x1="232.409" y1="506.095" x2="232.409" y2="526.624" gradientUnits="userSpaceOnUse">
<stop stop-color="#45C130"/>
<stop offset="1" stop-color="#06BB5B"/>
</linearGradient>
<linearGradient id="paint17_linear" x1="252.299" y1="506.095" x2="252.299" y2="526.624" gradientUnits="userSpaceOnUse">
<stop stop-color="#45C130"/>
<stop offset="1" stop-color="#06BB5B"/>
</linearGradient>
<linearGradient id="paint18_linear" x1="272.177" y1="506.095" x2="272.177" y2="526.624" gradientUnits="userSpaceOnUse">
<stop stop-color="#45C130"/>
<stop offset="1" stop-color="#06BB5B"/>
</linearGradient>
<linearGradient id="paint19_linear" x1="182.708" y1="529.889" x2="182.708" y2="550.419" gradientUnits="userSpaceOnUse">
<stop stop-color="#45C130"/>
<stop offset="1" stop-color="#06BB5B"/>
</linearGradient>
<linearGradient id="paint20_linear" x1="202.586" y1="529.889" x2="202.586" y2="550.419" gradientUnits="userSpaceOnUse">
<stop stop-color="#45C130"/>
<stop offset="1" stop-color="#06BB5B"/>
</linearGradient>
<linearGradient id="paint21_linear" x1="222.475" y1="529.889" x2="222.475" y2="550.419" gradientUnits="userSpaceOnUse">
<stop stop-color="#45C130"/>
<stop offset="1" stop-color="#06BB5B"/>
</linearGradient>
<linearGradient id="paint22_linear" x1="242.354" y1="529.889" x2="242.354" y2="550.419" gradientUnits="userSpaceOnUse">
<stop stop-color="#45C130"/>
<stop offset="1" stop-color="#06BB5B"/>
</linearGradient>
<linearGradient id="paint23_linear" x1="262.232" y1="529.889" x2="262.232" y2="550.419" gradientUnits="userSpaceOnUse">
<stop stop-color="#45C130"/>
<stop offset="1" stop-color="#06BB5B"/>
</linearGradient>
<linearGradient id="paint24_linear" x1="221.499" y1="382.811" x2="221.499" y2="392.842" gradientUnits="userSpaceOnUse">
<stop stop-color="#45C130"/>
<stop offset="1" stop-color="#06BB5B"/>
</linearGradient>
</defs>
</svg>
