<svg width="519" height="657" viewBox="0 0 519 657" fill="none" xmlns="http://www.w3.org/2000/svg">
<path d="M45 0H453C464.046 0 473 8.9543 473 20V637C473 648.046 464.046 657 453 657H45V0Z" fill="#FFFDCB"/>
<path d="M175.105 359.014H201.053C201.606 359.014 202.137 358.795 202.528 358.404C202.919 358.013 203.139 357.482 203.139 356.929V295.485C202.854 295.35 202.61 295.14 202.435 294.877C202.26 294.615 202.16 294.31 202.145 293.995C202.129 293.679 202.2 293.366 202.349 293.088C202.498 292.81 202.719 292.577 202.99 292.415C203.261 292.253 203.57 292.168 203.886 292.168C204.201 292.168 204.511 292.253 204.781 292.416C205.052 292.578 205.274 292.811 205.422 293.089C205.571 293.367 205.641 293.68 205.626 293.996C205.612 294.311 205.511 294.617 205.335 294.88C205.159 295.143 204.915 295.352 204.628 295.485V356.914C204.63 357.384 204.539 357.85 204.36 358.285C204.181 358.719 203.918 359.114 203.585 359.446C203.253 359.779 202.858 360.042 202.424 360.221C201.989 360.4 201.523 360.491 201.053 360.489H175.105C174.552 360.489 174.022 360.709 173.631 361.1C173.24 361.491 173.02 362.021 173.02 362.574V397.743H171.53V362.589C171.53 362.12 171.623 361.655 171.802 361.221C171.982 360.788 172.245 360.393 172.577 360.061C172.909 359.73 173.303 359.466 173.737 359.287C174.171 359.107 174.636 359.014 175.105 359.014Z" fill="#E79F31"/>
<path opacity="0.4" d="M175.105 359.014H201.053C201.606 359.014 202.137 358.795 202.528 358.404C202.919 358.013 203.139 357.482 203.139 356.929V295.485C202.854 295.35 202.61 295.14 202.435 294.877C202.26 294.615 202.16 294.31 202.145 293.995C202.129 293.679 202.2 293.366 202.349 293.088C202.498 292.81 202.719 292.577 202.99 292.415C203.261 292.253 203.57 292.168 203.886 292.168C204.201 292.168 204.511 292.253 204.781 292.416C205.052 292.578 205.274 292.811 205.422 293.089C205.571 293.367 205.641 293.68 205.626 293.996C205.612 294.311 205.511 294.617 205.335 294.88C205.159 295.143 204.915 295.352 204.628 295.485V356.914C204.63 357.384 204.539 357.85 204.36 358.285C204.181 358.719 203.918 359.114 203.585 359.446C203.253 359.779 202.858 360.042 202.424 360.221C201.989 360.4 201.523 360.491 201.053 360.489H175.105C174.552 360.489 174.022 360.709 173.631 361.1C173.24 361.491 173.02 362.021 173.02 362.574V397.743H171.53V362.589C171.53 362.12 171.623 361.655 171.802 361.221C171.982 360.788 172.245 360.393 172.577 360.061C172.909 359.73 173.303 359.466 173.737 359.287C174.171 359.107 174.636 359.014 175.105 359.014Z" fill="white"/>
<path d="M144.063 396.268H200.621C202.834 396.268 204.628 398.062 204.628 400.275V459.991C204.628 462.204 202.834 463.998 200.621 463.998H144.063C141.85 463.998 140.056 462.204 140.056 459.991V400.275C140.056 398.062 141.85 396.268 144.063 396.268Z" fill="#E79F31"/>
<path opacity="0.4" d="M144.063 396.268H200.621C202.834 396.268 204.628 398.062 204.628 400.275V459.991C204.628 462.204 202.834 463.998 200.621 463.998H144.063C141.85 463.998 140.056 462.204 140.056 459.991V400.275C140.056 398.062 141.85 396.268 144.063 396.268Z" fill="white"/>
<path opacity="0.2" d="M168 435.22H176.684V443.904H168V435.22Z" fill="white"/>
<path opacity="0.2" d="M158.571 406.933H167.255V415.617H158.571V406.933Z" fill="white"/>
<path opacity="0.2" d="M177.429 444.649H186.113V453.333H177.429V444.649Z" fill="white"/>
<path opacity="0.2" d="M158.571 416.362H167.255V425.046H158.571V416.362Z" fill="white"/>
<path opacity="0.2" d="M158.571 425.791H167.255V434.475H158.571V425.791Z" fill="white"/>
<path opacity="0.2" d="M168 416.362H176.684V425.046H168V416.362Z" fill="white"/>
<path opacity="0.2" d="M168 397.013H176.684V406.188H168V397.013Z" fill="white"/>
<path opacity="0.2" d="M177.429 435.22H186.113V443.904H177.429V435.22Z" fill="white"/>
<path opacity="0.2" d="M168 406.933H176.684V415.617H168V406.933Z" fill="white"/>
<path opacity="0.2" d="M168 444.649H176.684V453.333H168V444.649Z" fill="white"/>
<path opacity="0.2" d="M158.571 444.649H167.255V453.333H158.571V444.649Z" fill="white"/>
<path opacity="0.2" d="M168 425.791H176.684V434.475H168V425.791Z" fill="white"/>
<path opacity="0.2" d="M158.571 397.013H167.255V406.188H158.571V397.013Z" fill="white"/>
<path opacity="0.2" d="M196.287 435.22H203.883V443.904H196.287V435.22Z" fill="white"/>
<path opacity="0.2" d="M196.287 406.933H203.883V415.617H196.287V406.933Z" fill="white"/>
<path opacity="0.2" d="M196.287 425.791H203.883V434.475H196.287V425.791Z" fill="white"/>
<path opacity="0.2" d="M196.287 416.362H203.883V425.046H196.287V416.362Z" fill="white"/>
<path opacity="0.2" d="M158.571 435.22H167.255V443.904H158.571V435.22Z" fill="white"/>
<path opacity="0.2" d="M148.398 406.188H140.846V400.23C140.846 399.365 141.189 398.535 141.801 397.924C142.413 397.312 143.242 396.968 144.108 396.968H148.442L148.398 406.188Z" fill="white"/>
<path opacity="0.2" d="M149.142 406.933H157.826V415.617H149.142V406.933Z" fill="white"/>
<path opacity="0.2" d="M196.287 444.649H203.883V453.333H196.287V444.649Z" fill="white"/>
<path opacity="0.2" d="M149.142 416.362H157.826V425.046H149.142V416.362Z" fill="white"/>
<path opacity="0.2" d="M149.142 425.791H157.826V434.475H149.142V425.791Z" fill="white"/>
<path opacity="0.2" d="M149.142 435.22H157.826V443.904H149.142V435.22Z" fill="white"/>
<path opacity="0.2" d="M149.142 444.649H157.826V453.333H149.142V444.649Z" fill="white"/>
<path opacity="0.2" d="M140.801 444.649H148.398V453.333H140.801V444.649Z" fill="white"/>
<path opacity="0.2" d="M149.142 397.013H157.826V406.188H149.142V397.013Z" fill="white"/>
<path opacity="0.2" d="M168 454.092H176.684V463.268H168V454.092Z" fill="white"/>
<path opacity="0.2" d="M158.571 454.092H167.255V463.268H158.571V454.092Z" fill="white"/>
<path opacity="0.2" d="M140.801 425.791H148.398V434.475H140.801V425.791Z" fill="white"/>
<path opacity="0.2" d="M149.142 454.092H157.826V463.268H149.142V454.092Z" fill="white"/>
<path opacity="0.2" d="M140.801 435.22H148.398V443.904H140.801V435.22Z" fill="white"/>
<path opacity="0.2" d="M196.302 454.092H203.883V460.051C203.879 460.913 203.534 461.739 202.923 462.348C202.311 462.956 201.484 463.298 200.621 463.298H196.302V454.092Z" fill="white"/>
<path opacity="0.2" d="M148.398 454.092V463.253H144.063C143.2 463.253 142.373 462.911 141.762 462.303C141.15 461.694 140.805 460.868 140.801 460.006V454.048L148.398 454.092Z" fill="white"/>
<path opacity="0.2" d="M196.302 406.188V397.013H200.621C201.486 397.013 202.316 397.356 202.928 397.968C203.54 398.58 203.883 399.41 203.883 400.275V406.233L196.302 406.188Z" fill="white"/>
<path opacity="0.2" d="M140.801 416.362H148.398V425.046H140.801V416.362Z" fill="white"/>
<path opacity="0.2" d="M140.801 406.933H148.398V415.617H140.801V406.933Z" fill="white"/>
<path opacity="0.2" d="M186.873 425.791H195.557V434.475H186.873V425.791Z" fill="white"/>
<path opacity="0.2" d="M186.873 444.649H195.557V453.333H186.873V444.649Z" fill="white"/>
<path opacity="0.2" d="M177.429 397.013H186.113V406.188H177.429V397.013Z" fill="white"/>
<path opacity="0.2" d="M186.873 435.22H195.557V443.904H186.873V435.22Z" fill="white"/>
<path opacity="0.2" d="M177.429 416.362H186.113V425.046H177.429V416.362Z" fill="white"/>
<path opacity="0.2" d="M177.429 406.933H186.113V415.617H177.429V406.933Z" fill="white"/>
<path opacity="0.2" d="M177.429 454.092H186.113V463.268H177.429V454.092Z" fill="white"/>
<path opacity="0.2" d="M186.873 454.092H195.557V463.268H186.873V454.092Z" fill="white"/>
<path opacity="0.2" d="M186.873 397.013H195.557V406.188H186.873V397.013Z" fill="white"/>
<path opacity="0.2" d="M177.429 425.791H186.113V434.475H177.429V425.791Z" fill="white"/>
<path opacity="0.2" d="M186.873 416.362H195.557V425.046H186.873V416.362Z" fill="white"/>
<path opacity="0.2" d="M186.873 406.933H195.557V415.617H186.873V406.933Z" fill="white"/>
<path d="M156.918 420.146C157.047 419.466 157.231 418.799 157.469 418.15C158.4 415.496 160.025 413.141 162.174 411.327C164.323 409.513 166.918 408.307 169.69 407.835C172.462 407.362 175.31 407.64 177.938 408.639C180.567 409.638 182.88 411.322 184.638 413.517C185.472 414.55 186.168 415.686 186.709 416.898C187.631 418.934 188.108 421.143 188.109 423.378V436.903C188.111 438.194 187.951 439.48 187.632 440.731C187.401 441.688 187.066 442.617 186.634 443.502C186.258 444.329 185.81 445.122 185.294 445.87C184.892 446.406 184.489 446.913 184.057 447.36C183.527 447.947 182.955 448.495 182.344 448.998C181.845 449.405 181.323 449.783 180.78 450.13C179.841 450.728 178.843 451.227 177.801 451.62C177.295 451.798 176.788 451.962 176.312 452.096C175.659 452.258 174.997 452.382 174.331 452.469C173.837 452.532 173.339 452.567 172.841 452.573H172.439C171.626 452.574 170.815 452.514 170.011 452.394C169.504 452.305 168.998 452.201 168.521 452.082C166.691 451.603 164.961 450.801 163.412 449.713C162.852 449.324 162.319 448.896 161.818 448.432C160.449 447.18 159.31 445.698 158.452 444.053C158.005 443.206 157.64 442.318 157.365 441.401C156.95 440.064 156.725 438.675 156.694 437.275C156.694 437.275 156.694 436.963 156.694 436.814V423.288C156.662 422.236 156.736 421.183 156.918 420.146ZM160.448 444.798C161.292 446.075 162.339 447.207 163.546 448.149C163.985 448.499 164.448 448.817 164.932 449.102C166.208 449.887 167.601 450.466 169.058 450.815C169.534 450.92 170.026 451.009 170.547 451.069C171.145 451.146 171.747 451.186 172.35 451.188H173.02C173.541 451.188 174.033 451.188 174.509 451.039C175.133 450.939 175.75 450.799 176.356 450.622C176.878 450.473 177.384 450.279 177.846 450.085C178.9 449.634 179.899 449.064 180.825 448.387C181.324 448.013 181.797 447.605 182.24 447.166C182.783 446.653 183.282 446.095 183.73 445.498C184.162 444.927 184.55 444.324 184.892 443.695C185.405 442.753 185.805 441.753 186.083 440.716C186.431 439.47 186.607 438.182 186.605 436.888V423.363C186.601 420.223 185.553 417.173 183.625 414.694C182.341 413.017 180.704 411.644 178.829 410.672C176.811 409.619 174.567 409.072 172.29 409.078C169.047 409.079 165.901 410.182 163.367 412.207C160.834 414.232 159.064 417.057 158.348 420.22C158.119 421.242 158.005 422.286 158.005 423.333V436.977C158.018 437.857 158.108 438.735 158.273 439.599C158.506 440.758 158.881 441.884 159.39 442.951C159.692 443.594 160.046 444.212 160.448 444.798Z" fill="white"/>
<path d="M170.547 431.749C172.141 436.799 174.212 443.442 173.02 451.113C172.945 451.605 172.856 452.096 172.752 452.603C173.25 452.597 173.747 452.562 174.241 452.499C174.346 451.977 174.435 451.471 174.495 451.009C175.627 443.114 173.526 436.397 171.932 431.287C170.234 425.865 169.534 423.214 172.096 422.127C172.498 421.959 172.938 421.9 173.37 421.958C173.801 422.015 174.21 422.187 174.554 422.454C178.621 425.15 182.255 436.784 183.7 445.468C183.819 446.153 183.923 446.808 184.013 447.434C184.445 446.943 184.847 446.436 185.249 445.945C185.145 445.23 185.011 444.455 184.862 443.725C183.223 435.116 179.723 424.167 175.373 421.292C174.825 420.889 174.181 420.635 173.505 420.554C172.829 420.473 172.144 420.568 171.515 420.831C167.657 422.454 168.924 426.551 170.547 431.749Z" fill="white"/>
<path d="M173.139 431.392C174.629 436.173 176.818 443.174 176.386 450.622C176.386 451.143 176.386 451.664 176.267 452.201C176.788 452.067 177.295 451.903 177.757 451.724C177.757 451.173 177.831 450.637 177.846 450.085C178.144 442.638 175.984 435.696 174.494 430.945C173.917 429.377 173.498 427.755 173.243 426.104C175.046 427.712 180.691 440.821 180.795 448.447C180.825 449.064 180.8 449.682 180.721 450.294C181.264 449.947 181.786 449.569 182.285 449.162C182.285 448.551 182.285 447.896 182.21 447.226C181.585 439.331 176.833 427.429 174.241 425.076C174.051 424.85 173.798 424.685 173.515 424.603C173.231 424.52 172.929 424.524 172.647 424.614C171.173 425.136 171.873 427.355 173.139 431.392Z" fill="white"/>
<path d="M169.058 450.756C168.875 451.224 168.666 451.682 168.432 452.126C168.909 452.245 169.415 452.35 169.922 452.439C170.161 451.956 170.37 451.459 170.547 450.949C171.769 447.762 172.409 442.921 170.19 436.307C165.855 423.408 166.615 420.339 169.832 418.641C170.654 418.16 171.583 417.891 172.535 417.86C173.487 417.829 174.432 418.036 175.284 418.462C179.753 420.667 183.611 428.636 186.098 440.612C186.292 441.521 186.47 442.444 186.634 443.397C187.066 442.513 187.401 441.584 187.632 440.627C187.32 439.137 186.977 437.648 186.619 436.158C184.028 425.91 180.319 419.252 175.939 417.092C174.881 416.548 173.702 416.279 172.513 416.311C171.323 416.342 170.161 416.672 169.132 417.271C164.663 419.654 164.559 424.197 168.775 436.724C170.934 443.159 170.264 447.747 169.073 450.651L169.058 450.756Z" fill="white"/>
<path d="M161.699 448.536C162.2 449 162.733 449.428 163.293 449.817L163.904 449.624C164.263 449.495 164.603 449.32 164.917 449.102C166.6 447.99 167.781 446.263 168.209 444.291C168.983 441.506 167.717 437.484 166.362 433.239C165.006 428.993 163.606 424.555 164.276 421.322C164.457 420.161 164.905 419.057 165.585 418.098C166.265 417.139 167.158 416.351 168.194 415.796C170.8 414.5 174.271 414.724 177.95 416.437C181.629 418.15 184.787 423.631 186.605 427.876C187.245 429.366 187.752 430.736 188.094 431.734V427.549C187.662 426.536 187.171 425.433 186.605 424.331C184.683 420.563 181.987 416.675 178.591 415.096C174.48 413.174 170.547 412.951 167.523 414.47C166.284 415.123 165.214 416.055 164.397 417.192C163.58 418.33 163.039 419.642 162.816 421.024C162.072 424.599 163.531 429.202 164.946 433.656C166.228 437.692 167.434 441.491 166.779 443.859C166.599 444.77 166.213 445.628 165.65 446.366C165.087 447.105 164.362 447.704 163.531 448.119L163.368 448.194C162.839 448.414 162.272 448.53 161.699 448.536Z" fill="white"/>
<path d="M157.231 441.506C157.506 442.423 157.871 443.311 158.318 444.157C158.972 444.499 159.685 444.716 160.418 444.798H160.835H161.208C162.027 444.732 162.804 444.408 163.427 443.872C164.051 443.337 164.489 442.618 164.678 441.818C165.334 439.599 164.261 435.428 163.189 431.019C162.341 428.229 161.782 425.359 161.52 422.454C161.52 417.867 162.712 412.951 171.515 411.387C175.984 410.583 182.419 413.443 186.187 419.55C186.932 420.741 185.964 416.168 186.783 416.839C186.247 415.617 185.413 415.677 184.594 414.649C182.94 413.577 178.338 409.033 171.262 409.912C161.118 411.164 160.031 417.926 160.031 422.454C160.279 425.488 160.859 428.484 161.759 431.392C162.742 435.22 163.844 439.569 163.248 441.401C163.14 441.906 162.873 442.363 162.488 442.706C162.102 443.048 161.617 443.259 161.103 443.308C160.536 443.344 159.969 443.242 159.45 443.01C158.615 442.667 157.859 442.154 157.231 441.506Z" fill="white"/>
<path d="M156.575 433.403V436.903C156.575 437.052 156.575 437.216 156.575 437.365C156.575 437.514 156.575 437.365 156.575 437.365C156.976 438.243 157.572 439.017 158.318 439.629C158.833 440.002 159.454 440.2 160.091 440.195H160.522C160.748 440.167 160.964 440.083 161.148 439.95C161.333 439.818 161.482 439.64 161.58 439.435C162.25 438.199 161.416 435.696 160.865 434.311C158.929 429.889 158.081 425.067 158.392 420.25C158.392 419.401 158.303 418.879 158.303 418.85C158.284 418.655 158.192 418.474 158.046 418.344C157.899 418.214 157.709 418.145 157.514 418.149C157.276 418.799 157.092 419.466 156.962 420.146C156.962 421.248 157.141 422.35 157.245 423.452C157.454 425.568 157.707 427.683 158.109 429.783C158.214 430.349 157.737 430.126 157.856 430.692C158.221 431.811 158.659 432.906 159.167 433.969C159.524 434.788 159.927 435.592 160.21 436.441C160.388 436.948 161.044 439.331 159.703 438.81C159.2 438.55 158.782 438.152 158.497 437.663C158.363 437.454 158.229 437.246 158.109 437.022C157.675 436.214 157.307 435.372 157.007 434.505C156.828 434.147 156.694 433.775 156.575 433.403Z" fill="white"/>
<path d="M266.4 180.745V218.729C266.4 219.282 266.619 219.812 267.011 220.203C267.402 220.594 267.932 220.814 268.485 220.814H307.109C307.241 220.526 307.45 220.281 307.713 220.104C307.976 219.928 308.282 219.828 308.599 219.816C308.914 219.8 309.227 219.871 309.505 220.02C309.784 220.168 310.016 220.39 310.179 220.66C310.341 220.931 310.426 221.241 310.427 221.556C310.427 221.872 310.341 222.181 310.179 222.452C310.017 222.723 309.784 222.944 309.506 223.093C309.228 223.242 308.915 223.313 308.6 223.297C308.284 223.282 307.979 223.182 307.717 223.007C307.454 222.832 307.244 222.588 307.109 222.303H268.485C267.538 222.3 266.631 221.922 265.962 221.252C265.292 220.582 264.914 219.675 264.91 218.729V180.745H266.4Z" fill="#E79F31"/>
<path opacity="0.4" d="M266.4 180.745V218.729C266.4 219.282 266.619 219.812 267.011 220.203C267.402 220.594 267.932 220.814 268.485 220.814H307.109C307.241 220.526 307.45 220.281 307.713 220.104C307.976 219.928 308.282 219.828 308.599 219.816C308.914 219.8 309.227 219.871 309.505 220.02C309.784 220.168 310.016 220.39 310.179 220.66C310.341 220.931 310.426 221.241 310.427 221.556C310.427 221.872 310.341 222.181 310.179 222.452C310.017 222.723 309.784 222.944 309.506 223.093C309.228 223.242 308.915 223.313 308.6 223.297C308.284 223.282 307.979 223.182 307.717 223.007C307.454 222.832 307.244 222.588 307.109 222.303H268.485C267.538 222.3 266.631 221.922 265.962 221.252C265.292 220.582 264.914 219.675 264.91 218.729V180.745H266.4Z" fill="white"/>
<path d="M231.797 188.565V132.007C231.797 129.794 233.591 128 235.804 128H295.52C297.733 128 299.527 129.794 299.527 132.007V188.565C299.527 190.778 297.733 192.572 295.52 192.572H235.804C233.591 192.572 231.797 190.778 231.797 188.565Z" fill="#E79F31"/>
<path opacity="0.4" d="M231.797 188.565V132.007C231.797 129.794 233.591 128 235.804 128H295.52C297.733 128 299.527 129.794 299.527 132.007V188.565C299.527 190.778 297.733 192.572 295.52 192.572H235.804C233.591 192.572 231.797 190.778 231.797 188.565Z" fill="white"/>
<path opacity="0.2" d="M270.749 155.944H279.433V164.628H270.749V155.944Z" fill="white"/>
<path opacity="0.2" d="M242.463 165.373H251.147V174.057H242.463V165.373Z" fill="white"/>
<path opacity="0.2" d="M280.178 146.5H288.862V155.184H280.178V146.5Z" fill="white"/>
<path opacity="0.2" d="M251.892 165.373H260.576V174.057H251.892V165.373Z" fill="white"/>
<path opacity="0.2" d="M261.32 165.373H270.004V174.057H261.32V165.373Z" fill="white"/>
<path opacity="0.2" d="M251.892 155.944H260.576V164.628H251.892V155.944Z" fill="white"/>
<path opacity="0.2" d="M232.527 155.944H241.703V164.628H232.527V155.944Z" fill="white"/>
<path opacity="0.2" d="M270.749 146.5H279.433V155.184H270.749V146.5Z" fill="white"/>
<path opacity="0.2" d="M242.463 155.944H251.147V164.628H242.463V155.944Z" fill="white"/>
<path opacity="0.2" d="M280.178 155.944H288.862V164.628H280.178V155.944Z" fill="white"/>
<path opacity="0.2" d="M280.178 165.373H288.862V174.057H280.178V165.373Z" fill="white"/>
<path opacity="0.2" d="M261.32 155.944H270.004V164.628H261.32V155.944Z" fill="white"/>
<path opacity="0.2" d="M232.527 165.373H241.703V174.057H232.527V165.373Z" fill="white"/>
<path opacity="0.2" d="M270.749 128.745H279.433V136.341H270.749V128.745Z" fill="white"/>
<path opacity="0.2" d="M242.463 128.745H251.147V136.341H242.463V128.745Z" fill="white"/>
<path opacity="0.2" d="M261.32 128.745H270.004V136.341H261.32V128.745Z" fill="white"/>
<path opacity="0.2" d="M251.892 128.745H260.576V136.341H251.892V128.745Z" fill="white"/>
<path opacity="0.2" d="M270.749 165.373H279.433V174.057H270.749V165.373Z" fill="white"/>
<path opacity="0.2" d="M241.703 184.231V191.827H235.745C234.882 191.823 234.056 191.478 233.448 190.867C232.839 190.255 232.498 189.428 232.498 188.565V184.231H241.703Z" fill="white"/>
<path opacity="0.2" d="M242.463 174.802H251.147V183.486H242.463V174.802Z" fill="white"/>
<path opacity="0.2" d="M280.178 128.745H288.862V136.341H280.178V128.745Z" fill="white"/>
<path opacity="0.2" d="M251.892 174.802H260.576V183.486H251.892V174.802Z" fill="white"/>
<path opacity="0.2" d="M261.32 174.802H270.004V183.486H261.32V174.802Z" fill="white"/>
<path opacity="0.2" d="M270.749 174.802H279.433V183.486H270.749V174.802Z" fill="white"/>
<path opacity="0.2" d="M280.178 174.802H288.862V183.486H280.178V174.802Z" fill="white"/>
<path opacity="0.2" d="M280.178 184.231H288.862V191.827H280.178V184.231Z" fill="white"/>
<path opacity="0.2" d="M232.527 174.802H241.703V183.486H232.527V174.802Z" fill="white"/>
<path opacity="0.2" d="M289.607 155.944H298.783V164.628H289.607V155.944Z" fill="white"/>
<path opacity="0.2" d="M289.607 165.373H298.783V174.057H289.607V165.373Z" fill="white"/>
<path opacity="0.2" d="M261.32 184.231H270.004V191.827H261.32V184.231Z" fill="white"/>
<path opacity="0.2" d="M289.607 174.802H298.783V183.486H289.607V174.802Z" fill="white"/>
<path opacity="0.2" d="M270.749 184.231H279.433V191.827H270.749V184.231Z" fill="white"/>
<path opacity="0.2" d="M289.607 136.327V128.745H295.565C296.412 128.768 297.217 129.12 297.809 129.726C298.401 130.332 298.734 131.145 298.738 131.992V136.327H289.607Z" fill="white"/>
<path opacity="0.2" d="M289.607 184.231H298.738V188.595C298.738 189.46 298.394 190.29 297.782 190.902C297.171 191.513 296.341 191.857 295.476 191.857H289.518L289.607 184.231Z" fill="white"/>
<path opacity="0.2" d="M241.703 136.327H232.542V131.992C232.546 131.132 232.89 130.308 233.498 129.7C234.106 129.092 234.929 128.749 235.789 128.745H241.748L241.703 136.327Z" fill="white"/>
<path opacity="0.2" d="M251.892 184.231H260.576V191.827H251.892V184.231Z" fill="white"/>
<path opacity="0.2" d="M242.463 184.231H251.147V191.827H242.463V184.231Z" fill="white"/>
<path opacity="0.2" d="M261.32 137.071H270.004V145.755H261.32V137.071Z" fill="white"/>
<path opacity="0.2" d="M280.178 137.071H288.862V145.755H280.178V137.071Z" fill="white"/>
<path opacity="0.2" d="M232.527 146.5H241.703V155.184H232.527V146.5Z" fill="white"/>
<path opacity="0.2" d="M270.749 137.071H279.433V145.755H270.749V137.071Z" fill="white"/>
<path opacity="0.2" d="M251.892 146.5H260.576V155.184H251.892V146.5Z" fill="white"/>
<path opacity="0.2" d="M242.463 146.5H251.147V155.184H242.463V146.5Z" fill="white"/>
<path opacity="0.2" d="M289.607 146.5H298.783V155.184H289.607V146.5Z" fill="white"/>
<path opacity="0.2" d="M289.607 137.071H298.783V145.755H289.607V137.071Z" fill="white"/>
<path opacity="0.2" d="M232.527 137.071H241.703V145.755H232.527V137.071Z" fill="white"/>
<path opacity="0.2" d="M261.32 146.5H270.004V155.184H261.32V146.5Z" fill="white"/>
<path opacity="0.2" d="M251.892 137.071H260.576V145.755H251.892V137.071Z" fill="white"/>
<path opacity="0.2" d="M242.463 137.071H251.147V145.755H242.463V137.071Z" fill="white"/>
<path d="M285.332 160.01C285.332 160.01 276.544 170.437 265.685 170.437C254.826 170.437 246.052 160.01 246.052 160.01C246.052 160.01 254.841 149.584 265.685 149.584C276.529 149.584 285.332 160.01 285.332 160.01Z" stroke="white" stroke-linecap="round" stroke-linejoin="round"/>
<path d="M258.818 158.521C258.815 159.877 259.215 161.204 259.966 162.333C260.718 163.462 261.788 164.343 263.041 164.863C264.293 165.384 265.672 165.521 267.003 165.257C268.333 164.993 269.556 164.34 270.515 163.381C271.474 162.422 272.127 161.199 272.391 159.869C272.655 158.538 272.518 157.159 271.997 155.907C271.477 154.654 270.596 153.584 269.467 152.832C268.338 152.081 267.011 151.681 265.655 151.684C263.842 151.684 262.103 152.404 260.82 153.686C259.538 154.969 258.818 156.708 258.818 158.521V158.521Z" stroke="white" stroke-miterlimit="10"/>
<path d="M264.895 155.512C264.898 155.072 264.771 154.642 264.529 154.275C264.286 153.908 263.941 153.621 263.536 153.451C263.13 153.281 262.684 153.235 262.252 153.319C261.821 153.402 261.424 153.613 261.112 153.922C260.8 154.232 260.587 154.628 260.5 155.059C260.413 155.49 260.456 155.937 260.624 156.343C260.792 156.749 261.076 157.097 261.441 157.341C261.807 157.586 262.236 157.717 262.676 157.717C263.262 157.717 263.824 157.485 264.24 157.072C264.656 156.659 264.891 156.098 264.895 155.512Z" stroke="white" stroke-miterlimit="10"/>
<path d="M265.655 149.569V142.568" stroke="white" stroke-linecap="round" stroke-linejoin="round"/>
<path d="M259.563 150.075L257.06 144.385" stroke="white" stroke-linecap="round" stroke-linejoin="round"/>
<path d="M253.709 152.667L250.208 148.511" stroke="white" stroke-linecap="round" stroke-linejoin="round"/>
<path d="M249.017 155.869L245.635 153.62" stroke="white" stroke-linecap="round" stroke-linejoin="round"/>
<path d="M271.762 150.075L274.265 144.385" stroke="white" stroke-linecap="round" stroke-linejoin="round"/>
<path d="M277.616 152.667L281.116 148.511" stroke="white" stroke-linecap="round" stroke-linejoin="round"/>
<path d="M282.308 155.869L285.689 153.62" stroke="white" stroke-linecap="round" stroke-linejoin="round"/>
<path d="M366.9 223.167C367.213 223.177 367.517 223.273 367.78 223.443C368.042 223.614 368.253 223.853 368.389 224.136H407.996C408.943 224.14 409.85 224.517 410.52 225.187C411.189 225.857 411.567 226.764 411.571 227.71V268.36C411.571 268.913 411.791 269.444 412.182 269.835C412.573 270.226 413.104 270.446 413.657 270.446H429.565V271.935H413.657C412.71 271.931 411.803 271.553 411.133 270.884C410.464 270.214 410.086 269.307 410.082 268.36V227.71C410.082 227.157 409.862 226.627 409.471 226.236C409.08 225.845 408.549 225.625 407.996 225.625H368.479C368.35 225.911 368.146 226.157 367.889 226.337C367.632 226.518 367.331 226.625 367.018 226.648C366.705 226.671 366.392 226.61 366.111 226.47C365.83 226.329 365.593 226.116 365.423 225.852C365.253 225.588 365.158 225.283 365.148 224.97C365.137 224.656 365.211 224.345 365.362 224.07C365.513 223.795 365.736 223.566 366.007 223.407C366.277 223.248 366.586 223.165 366.9 223.167Z" fill="#E79F31"/>
<path opacity="0.4" d="M366.9 223.167C367.213 223.177 367.517 223.273 367.78 223.443C368.042 223.614 368.253 223.853 368.389 224.136H407.996C408.943 224.14 409.85 224.517 410.52 225.187C411.189 225.857 411.567 226.764 411.571 227.71V268.36C411.571 268.913 411.791 269.444 412.182 269.835C412.573 270.226 413.104 270.446 413.657 270.446H429.565V271.935H413.657C412.71 271.931 411.803 271.553 411.133 270.884C410.464 270.214 410.086 269.307 410.082 268.36V227.71C410.082 227.157 409.862 226.627 409.471 226.236C409.08 225.845 408.549 225.625 407.996 225.625H368.479C368.35 225.911 368.146 226.157 367.889 226.337C367.632 226.518 367.331 226.625 367.018 226.648C366.705 226.671 366.392 226.61 366.111 226.47C365.83 226.329 365.593 226.116 365.423 225.852C365.253 225.588 365.158 225.283 365.148 224.97C365.137 224.656 365.211 224.345 365.362 224.07C365.513 223.795 365.736 223.566 366.007 223.407C366.277 223.248 366.586 223.165 366.9 223.167Z" fill="white"/>
<path d="M433.572 237.318H490.13C492.343 237.318 494.137 239.112 494.137 241.325V301.041C494.137 303.254 492.343 305.048 490.13 305.048H433.572C431.359 305.048 429.565 303.254 429.565 301.041V241.325C429.565 239.112 431.359 237.318 433.572 237.318Z" fill="#E79F31"/>
<path opacity="0.4" d="M433.572 237.318H490.13C492.343 237.318 494.137 239.112 494.137 241.325V301.041C494.137 303.254 492.343 305.048 490.13 305.048H433.572C431.359 305.048 429.565 303.254 429.565 301.041V241.325C429.565 239.112 431.359 237.318 433.572 237.318Z" fill="white"/>
<path opacity="0.2" d="M457.509 276.27H466.193V284.954H457.509V276.27Z" fill="white"/>
<path opacity="0.2" d="M448.08 247.983H456.764V256.667H448.08V247.983Z" fill="white"/>
<path opacity="0.2" d="M466.953 285.714H475.637V294.398H466.953V285.714Z" fill="white"/>
<path opacity="0.2" d="M448.08 257.412H456.764V266.096H448.08V257.412Z" fill="white"/>
<path opacity="0.2" d="M448.08 266.841H456.764V275.525H448.08V266.841Z" fill="white"/>
<path opacity="0.2" d="M457.509 257.412H466.193V266.096H457.509V257.412Z" fill="white"/>
<path opacity="0.2" d="M457.509 238.063H466.193V247.239H457.509V238.063Z" fill="white"/>
<path opacity="0.2" d="M466.953 276.27H475.637V284.954H466.953V276.27Z" fill="white"/>
<path opacity="0.2" d="M457.509 247.983H466.193V256.667H457.509V247.983Z" fill="white"/>
<path opacity="0.2" d="M457.509 285.714H466.193V294.398H457.509V285.714Z" fill="white"/>
<path opacity="0.2" d="M448.08 285.714H456.764V294.398H448.08V285.714Z" fill="white"/>
<path opacity="0.2" d="M457.509 266.841H466.193V275.525H457.509V266.841Z" fill="white"/>
<path opacity="0.2" d="M448.08 238.063H456.764V247.239H448.08V238.063Z" fill="white"/>
<path opacity="0.2" d="M485.796 276.27H493.392V284.954H485.796V276.27Z" fill="white"/>
<path opacity="0.2" d="M485.796 247.983H493.392V256.667H485.796V247.983Z" fill="white"/>
<path opacity="0.2" d="M485.796 266.841H493.392V275.525H485.796V266.841Z" fill="white"/>
<path opacity="0.2" d="M485.796 257.412H493.392V266.096H485.796V257.412Z" fill="white"/>
<path opacity="0.2" d="M448.08 276.27H456.764V284.954H448.08V276.27Z" fill="white"/>
<path opacity="0.2" d="M437.907 247.239H430.31V241.28C430.31 240.415 430.654 239.585 431.265 238.974C431.877 238.362 432.707 238.018 433.572 238.018H437.907V247.239Z" fill="white"/>
<path opacity="0.2" d="M438.651 247.983H447.335V256.667H438.651V247.983Z" fill="white"/>
<path opacity="0.2" d="M485.796 285.714H493.392V294.398H485.796V285.714Z" fill="white"/>
<path opacity="0.2" d="M438.651 257.412H447.335V266.096H438.651V257.412Z" fill="white"/>
<path opacity="0.2" d="M438.651 266.841H447.335V275.525H438.651V266.841Z" fill="white"/>
<path opacity="0.2" d="M438.651 276.27H447.335V284.954H438.651V276.27Z" fill="white"/>
<path opacity="0.2" d="M438.651 285.714H447.335V294.398H438.651V285.714Z" fill="white"/>
<path opacity="0.2" d="M430.31 285.714H437.907V294.398H430.31V285.714Z" fill="white"/>
<path opacity="0.2" d="M438.651 238.063H447.335V247.239H438.651V238.063Z" fill="white"/>
<path opacity="0.2" d="M457.509 295.142H466.193V304.318H457.509V295.142Z" fill="white"/>
<path opacity="0.2" d="M448.08 295.142H456.764V304.318H448.08V295.142Z" fill="white"/>
<path opacity="0.2" d="M430.31 266.841H437.907V275.525H430.31V266.841Z" fill="white"/>
<path opacity="0.2" d="M438.651 295.142H447.335V304.318H438.651V295.142Z" fill="white"/>
<path opacity="0.2" d="M430.31 276.27H437.907V284.954H430.31V276.27Z" fill="white"/>
<path opacity="0.2" d="M485.811 295.142H493.392V301.101C493.388 301.961 493.045 302.784 492.437 303.392C491.829 304.001 491.005 304.344 490.145 304.348H485.811V295.142Z" fill="white"/>
<path opacity="0.2" d="M437.907 295.142V304.303H433.572C432.709 304.303 431.882 303.962 431.271 303.353C430.659 302.744 430.314 301.919 430.31 301.056V295.098L437.907 295.142Z" fill="white"/>
<path opacity="0.2" d="M485.811 247.239V238.063H490.145C491.008 238.067 491.834 238.412 492.442 239.024C493.051 239.635 493.392 240.462 493.392 241.325V247.283L485.811 247.239Z" fill="white"/>
<path opacity="0.2" d="M430.31 257.412H437.907V266.096H430.31V257.412Z" fill="white"/>
<path opacity="0.2" d="M430.31 247.983H437.907V256.667H430.31V247.983Z" fill="white"/>
<path opacity="0.2" d="M476.382 266.841H485.066V275.525H476.382V266.841Z" fill="white"/>
<path opacity="0.2" d="M476.382 285.714H485.066V294.398H476.382V285.714Z" fill="white"/>
<path opacity="0.2" d="M466.953 238.063H475.637V247.239H466.953V238.063Z" fill="white"/>
<path opacity="0.2" d="M476.382 276.27H485.066V284.954H476.382V276.27Z" fill="white"/>
<path opacity="0.2" d="M466.953 257.412H475.637V266.096H466.953V257.412Z" fill="white"/>
<path opacity="0.2" d="M466.953 247.983H475.637V256.667H466.953V247.983Z" fill="white"/>
<path opacity="0.2" d="M466.953 295.142H475.637V304.318H466.953V295.142Z" fill="white"/>
<path opacity="0.2" d="M476.382 295.142H485.066V304.318H476.382V295.142Z" fill="white"/>
<path opacity="0.2" d="M476.382 238.063H485.066V247.239H476.382V238.063Z" fill="white"/>
<path opacity="0.2" d="M466.953 266.841H475.637V275.525H466.953V266.841Z" fill="white"/>
<path opacity="0.2" d="M476.382 257.412H485.066V266.096H476.382V257.412Z" fill="white"/>
<path opacity="0.2" d="M476.382 247.983H485.066V256.667H476.382V247.983Z" fill="white"/>
<path d="M461.859 293.727C466.038 293.723 470.046 292.062 473.003 289.108C475.96 286.154 477.625 282.148 477.633 277.968V264.413C477.633 260.229 475.971 256.217 473.013 253.259C470.054 250.301 466.042 248.639 461.859 248.639C457.675 248.639 453.663 250.301 450.704 253.259C447.746 256.217 446.084 260.229 446.084 264.413V277.968C446.092 282.148 447.757 286.154 450.714 289.108C453.671 292.062 457.679 293.723 461.859 293.727ZM461.859 250.143C465.643 250.147 469.272 251.651 471.95 254.326C474.627 257.001 476.135 260.628 476.143 264.413V277.968C476.143 281.757 474.638 285.39 471.959 288.069C469.281 290.748 465.647 292.253 461.859 292.253C458.07 292.253 454.437 290.748 451.758 288.069C449.079 285.39 447.574 281.757 447.574 277.968V264.413C447.582 260.628 449.09 257.001 451.767 254.326C454.445 251.651 458.074 250.147 461.859 250.143Z" fill="white"/>
<path d="M454.739 269.343C453.817 269.343 453.07 268.33 453.07 267.079C453.07 265.829 453.817 264.815 454.739 264.815C455.66 264.815 456.407 265.829 456.407 267.079C456.407 268.33 455.66 269.343 454.739 269.343Z" fill="white"/>
<path d="M467.31 267.079C467.31 268.316 468.055 269.329 468.979 269.329C469.902 269.329 470.647 268.316 470.647 267.079C470.647 265.843 469.902 264.815 468.979 264.815C468.055 264.815 467.31 265.828 467.31 267.079Z" fill="white"/>
<path d="M461.769 269.329L464.912 277.387H461.769V269.329Z" fill="white"/>
<path d="M462.425 282.973C463.845 283.048 465.266 282.824 466.595 282.317L465.955 280.977L466.283 281.647L465.955 280.977C465.955 280.977 463.289 282.154 457.598 280.977L457.286 282.466C458.976 282.816 460.699 282.986 462.425 282.973Z" fill="white"/>
<path d="M29.159 138.382H191.446C195.666 138.382 199.087 141.803 199.087 146.024V308.31C199.087 312.53 195.666 315.951 191.446 315.951H29.159C24.9388 315.951 21.5176 312.53 21.5176 308.31V146.024C21.5176 141.803 24.9388 138.382 29.159 138.382Z" fill="#E79F31"/>
<path opacity="0.5" d="M47.5251 247.834H173.079C176.888 247.834 179.976 250.922 179.976 254.731V277.7C179.976 281.509 176.888 284.596 173.079 284.596H47.5251C43.7162 284.596 40.6285 281.509 40.6285 277.7V254.731C40.6285 250.922 43.7162 247.834 47.5251 247.834Z" fill="white"/>
<path d="M155.071 266.23L151.004 268.435L152.762 271.488L156.948 269.031L156.873 273.499H160.373V268.941L164.485 271.399L166.168 268.435L162.101 266.23L166.168 263.996L164.38 260.927L160.269 263.4V258.842H156.769L156.843 263.4L152.732 260.927L150.9 263.996L155.071 266.23Z" fill="white"/>
<path d="M130.925 266.23L126.859 268.435L128.676 271.488L132.787 269.031V273.499H136.287V268.941L140.384 271.399L142.186 268.345L138.12 266.141L142.186 263.907L140.384 260.838L136.287 263.311V258.753H132.787V263.311L128.676 260.838L126.859 263.907L130.925 266.23Z" fill="white"/>
<path d="M106.765 266.23L102.698 268.435L104.53 271.488L108.626 269.031L108.552 273.499H112.067V268.941L116.179 271.399L117.966 268.345L113.9 266.141L117.966 263.907L116.179 260.838L112.067 263.311V258.753H108.552L108.626 263.311L104.53 260.838L102.698 263.907L106.765 266.23Z" fill="white"/>
<path d="M82.604 266.23L78.5376 268.435L80.3697 271.488L84.4809 269.031L84.4064 273.499H87.9068V268.941L92.0031 271.399L93.7906 268.345L89.7241 266.141L93.7906 263.907L92.0031 260.838L87.9068 263.311V258.753H84.4064L84.4809 263.311L80.3697 260.838L78.5376 263.907L82.604 266.23Z" fill="white"/>
<path d="M58.4584 266.23L54.4516 268.435L56.2688 271.488L60.3204 269.031L60.2459 273.499H63.7463V268.941L67.8575 271.488L69.6599 268.435L65.5934 266.23L69.6599 263.996L67.8575 260.927L63.7612 263.4V258.842H60.2608L60.3353 263.4L56.2241 260.927L54.4069 263.996L58.4584 266.23Z" fill="white"/>
<path opacity="0.5" d="M82.1574 221.48C66.6084 205.931 66.6084 180.722 82.1574 165.173C97.7064 149.624 122.916 149.624 138.465 165.173C154.014 180.722 154.014 205.931 138.465 221.48C122.916 237.029 97.7064 237.029 82.1574 221.48Z" fill="white"/>
<path d="M94.6694 191.097H125.801C126.363 191.095 126.92 191.205 127.439 191.419C127.959 191.633 128.431 191.948 128.828 192.345C129.226 192.742 129.54 193.215 129.755 193.734C129.969 194.254 130.078 194.81 130.076 195.372V214.334C130.076 215.468 129.626 216.556 128.824 217.357C128.022 218.159 126.935 218.609 125.801 218.609H94.6694C93.5356 218.609 92.4483 218.159 91.6465 217.357C90.8448 216.556 90.3944 215.468 90.3944 214.334V195.372C90.3925 194.81 90.5017 194.254 90.7158 193.734C90.93 193.215 91.2448 192.742 91.6421 192.345C92.0395 191.948 92.5116 191.633 93.0311 191.419C93.5507 191.205 94.1075 191.095 94.6694 191.097ZM107.375 212.204H113.095L111.904 204.444C112.671 204.067 113.287 203.442 113.654 202.669C114.02 201.897 114.114 201.024 113.92 200.192C113.727 199.359 113.258 198.617 112.588 198.085C111.919 197.554 111.09 197.265 110.235 197.265C109.381 197.265 108.551 197.554 107.882 198.085C107.213 198.617 106.743 199.359 106.55 200.192C106.357 201.024 106.451 201.897 106.817 202.669C107.183 203.442 107.8 204.067 108.567 204.444L107.375 212.204Z" fill="#E79F31"/>
<path d="M119.277 188.059L119.858 185.08C120.357 182.585 119.846 179.994 118.435 177.876C117.024 175.759 114.83 174.289 112.335 173.789C109.841 173.289 107.25 173.801 105.132 175.212C103.015 176.622 101.544 178.816 101.045 181.311L100.464 184.216L94.9674 183.113L95.5632 180.134C95.9205 178.146 96.6707 176.249 97.7701 174.554C98.8694 172.859 100.296 171.4 101.966 170.263C103.636 169.126 105.516 168.333 107.496 167.931C109.476 167.53 111.516 167.527 113.497 167.923C115.478 168.319 117.36 169.106 119.033 170.239C120.706 171.371 122.137 172.826 123.241 174.518C124.345 176.21 125.101 178.105 125.463 180.092C125.826 182.08 125.789 184.12 125.354 186.092L124.773 189.072L119.277 188.059Z" fill="#E79F31"/>
<path opacity="0.2" d="M88.1154 297.839H132.504C133.025 297.839 133.526 297.631 133.894 297.263C134.263 296.894 134.47 296.394 134.47 295.872C134.466 295.353 134.257 294.857 133.889 294.492C133.521 294.126 133.023 293.921 132.504 293.921H88.1154C87.5965 293.921 87.0986 294.126 86.7303 294.492C86.362 294.857 86.1531 295.353 86.1492 295.872C86.1492 296.394 86.3564 296.894 86.7251 297.263C87.0938 297.631 87.5939 297.839 88.1154 297.839Z" fill="black"/>
<path d="M235.149 297.019L219.896 284.06C219.896 284.06 206.907 270.297 204.166 269.999C201.426 269.701 195.512 270.878 193.948 272.844C192.384 274.81 204.107 287.59 206.862 289.944C209.618 292.297 215.114 291.91 215.114 291.91L229.652 305.957L235.149 297.019Z" fill="#EBB376"/>
<path d="M352.823 643.072H367.57C367.809 643.078 368.04 643.163 368.225 643.314C368.411 643.465 368.542 643.673 368.598 643.906L370.996 654.72C371.093 655.186 371.002 655.671 370.743 656.071C370.483 656.47 370.076 656.75 369.611 656.85H369.223C364.457 656.775 360.971 656.478 354.983 656.478C351.289 656.478 340.162 656.865 335.068 656.865C329.974 656.865 329.303 651.83 331.389 651.368C340.743 649.328 347.774 646.512 350.753 643.816C351.323 643.313 352.064 643.047 352.823 643.072Z" fill="#263238"/>
<path d="M290.292 642.699H305.039C305.279 642.701 305.512 642.784 305.699 642.936C305.886 643.087 306.016 643.298 306.066 643.533L308.465 654.333C308.562 654.799 308.471 655.284 308.211 655.683C307.952 656.082 307.545 656.363 307.079 656.463H306.692C301.911 656.388 298.44 656.09 292.452 656.09C288.758 656.09 277.631 656.478 272.537 656.478C267.442 656.478 266.772 651.443 268.857 650.981C278.212 648.941 285.243 646.125 288.222 643.429C288.794 642.931 289.534 642.67 290.292 642.699Z" fill="#263238"/>
<path d="M360.644 369.754H296.221C290.098 403.194 272.581 538.565 286.33 644.025L307.839 646.378C307.839 646.378 304.473 484.315 323.718 432.553C325.937 460.259 328.574 489.722 330.853 505.407C336.453 544.017 349.085 644.606 349.085 644.606L370.892 645.202C370.892 645.202 366.11 547.621 364.025 509.653C361.716 468.496 360.733 378.2 360.644 369.754Z" fill="#263238"/>
<path opacity="0.2" d="M360.644 369.754H296.221C290.098 403.194 272.581 538.565 286.33 644.025L307.839 646.378C307.839 646.378 304.473 484.315 323.718 432.553C325.937 460.259 328.574 489.722 330.853 505.407C336.453 544.017 349.085 644.606 349.085 644.606L370.892 645.202C370.892 645.202 366.11 547.621 364.025 509.653C361.716 468.496 360.733 378.2 360.644 369.754Z" fill="white"/>
<path opacity="0.2" d="M323.718 432.553C320.549 441.627 318.142 450.949 316.523 460.423C314.721 435.771 321.93 409.629 321.93 409.629L323.718 432.553Z" fill="black"/>
<path d="M302.104 258.291C291.931 259.527 271.896 305.778 264.24 309.904C256.584 314.03 226.227 288.097 226.227 288.097L218.57 297.526C218.57 297.526 253.038 334.362 266.593 330.296C280.148 326.229 299.363 291.404 305.188 280.5C311.012 269.597 302.104 258.291 302.104 258.291Z" fill="#E79F31"/>
<path opacity="0.5" d="M218.57 297.526C218.57 297.526 253.038 334.347 266.593 330.296C272.552 328.493 279.493 320.852 285.958 311.915C293.004 301.854 299.421 291.368 305.173 280.515C306.429 278.029 307.111 275.293 307.167 272.509C307.224 269.724 306.654 266.963 305.5 264.428C304.63 262.263 303.484 260.221 302.089 258.351C291.916 259.587 271.881 305.852 264.225 309.978C256.569 314.104 226.212 288.171 226.212 288.171L218.57 297.526Z" fill="white"/>
<path opacity="0.2" d="M285.972 311.84C293.019 301.78 299.436 291.293 305.188 280.441C306.444 277.955 307.125 275.219 307.182 272.434C307.239 269.65 306.669 266.888 305.515 264.353C299.721 271.488 287.939 288.618 285.972 311.84Z" fill="black"/>
<path d="M302.104 258.291C302.104 258.291 343.082 256.355 373.603 264.056C373.603 264.056 362.163 352.699 362.669 391.308L289.681 387.375C289.681 387.375 291.454 298.122 302.104 258.291Z" fill="#E79F31"/>
<path opacity="0.6" d="M362.669 391.308C362.431 373.359 364.785 344.596 367.361 318.945C368.345 309.159 369.357 299.82 370.341 291.716C372.203 275.406 373.662 264.07 373.662 264.07C343.141 256.369 302.164 258.306 302.164 258.306C291.514 298.136 289.667 387.39 289.667 387.39L362.669 391.308Z" fill="white"/>
<path opacity="0.2" d="M367.361 318.931C368.345 309.144 369.357 299.805 370.341 291.702L365.648 288.097C365.648 288.097 361.508 304.244 367.361 318.931Z" fill="black"/>
<path opacity="0.2" d="M302.64 353.935L306.647 354.129L317.521 354.635L324.194 354.948L338.092 355.603C338.092 355.603 338.092 354.918 338.166 353.667C338.285 350.971 338.524 345.638 338.926 338.92C339.209 333.915 339.596 328.136 340.073 322.088C340.415 317.918 340.788 313.628 341.22 309.383C341.86 303.082 342.605 296.855 343.484 291.255C343.946 288.276 344.452 285.431 344.974 282.869L310.401 280.619C310.401 280.619 309.954 282.809 309.284 286.578C308.837 289.05 308.301 292.208 307.72 295.902C304.603 315.095 302.906 334.492 302.64 353.935Z" fill="black"/>
<path opacity="0.2" d="M317.521 354.665L324.194 354.978C319.443 342.897 317.581 325.872 320.768 320.569C325.088 313.389 330.391 327.153 334.174 343.657C334.884 347.218 336.248 350.617 338.196 353.682C338.315 350.986 338.554 345.653 338.956 338.935C336.824 335.396 335.213 331.569 334.174 327.57C328.857 308.906 324.135 305.569 318.057 310.47C312.457 314.953 310.818 336.701 317.521 354.665Z" fill="black"/>
<path opacity="0.2" d="M306.647 354.158C305.292 338.325 307.377 311.647 312.025 303.439C317.342 294.025 329.08 293.817 334.725 310.887C335.965 314.871 337.765 318.657 340.073 322.133C340.415 317.962 340.788 313.672 341.22 309.427C339.631 307.439 338.211 305.321 336.975 303.097C330.54 291.702 320.59 286.399 310.759 293.027C309.61 293.851 308.604 294.858 307.779 296.006C304.648 315.164 302.93 334.526 302.64 353.935L306.647 354.158Z" fill="black"/>
<path opacity="0.2" d="M309.299 286.637C317.03 280.798 327.471 282.377 334.144 287.903C336.693 290.21 340.05 291.414 343.484 291.255C343.946 288.276 344.452 285.431 344.974 282.869L310.401 280.619C310.401 280.619 309.969 282.809 309.299 286.637Z" fill="black"/>
<path d="M349.68 260.987C343.797 266.335 329.378 264.353 329.378 264.353C329.378 264.353 320.441 261.896 322.273 259.08C327.576 258.202 330.138 255.729 331.21 252.571C331.8 250.608 331.982 248.545 331.746 246.509C331.662 245.374 331.513 244.245 331.299 243.127L349.174 229.93C346.776 238.644 343.916 254.671 349.68 260.987Z" fill="#EBB376"/>
<path opacity="0.2" d="M345.003 238.316C344.288 249.011 335.5 251.96 331.195 252.571C331.785 250.608 331.967 248.545 331.731 246.509L345.003 238.316Z" fill="black"/>
<path d="M318.951 202.224C318.951 202.224 313.976 218.311 321.766 225.953C329.557 233.594 334.144 202.954 334.144 202.954L318.951 202.224Z" fill="#263238"/>
<path d="M345.167 242.829C342.931 245.267 339.956 246.903 336.699 247.484C333.442 248.065 330.085 247.56 327.144 246.047C323.297 244.169 320.313 240.892 318.802 236.886C318.59 236.33 318.406 235.763 318.251 235.188C315.466 224.493 316.761 206.693 328.365 201.688C330.928 200.574 333.733 200.133 336.515 200.409C339.296 200.684 341.96 201.667 344.255 203.262C346.549 204.858 348.397 207.014 349.623 209.526C350.849 212.037 351.412 214.821 351.259 217.611C350.798 229.558 351.096 236.618 345.167 242.829Z" fill="#EBB376"/>
<path d="M333.176 221.365C333.266 222.318 332.7 223.138 332.059 223.138C331.419 223.138 330.897 222.363 330.867 221.395C330.838 220.427 331.359 219.622 331.985 219.622C332.61 219.622 333.146 220.337 333.176 221.365Z" fill="#263238"/>
<path d="M322.168 221.544C322.258 222.497 321.677 223.316 321.051 223.316C320.426 223.316 319.889 222.542 319.86 221.574C319.83 220.605 320.351 219.801 320.977 219.801C321.602 219.801 322.139 220.62 322.168 221.544Z" fill="#263238"/>
<path d="M325.669 221.946C324.58 224.951 323.076 227.789 321.2 230.377C321.882 230.84 322.656 231.149 323.468 231.283C324.281 231.416 325.114 231.372 325.907 231.151L325.669 221.946Z" fill="#D58745"/>
<path d="M336.528 217.686C336.423 217.703 336.316 217.693 336.217 217.656C336.118 217.62 336.03 217.558 335.962 217.477C335.532 216.903 334.975 216.437 334.333 216.116C333.692 215.795 332.985 215.629 332.268 215.63C332.116 215.643 331.965 215.595 331.848 215.498C331.731 215.4 331.657 215.26 331.642 215.109C331.636 215.035 331.645 214.96 331.668 214.889C331.69 214.818 331.727 214.752 331.776 214.695C331.824 214.638 331.883 214.592 331.95 214.558C332.016 214.524 332.089 214.504 332.163 214.498C333.07 214.471 333.969 214.663 334.786 215.057C335.603 215.451 336.313 216.036 336.855 216.762C336.949 216.877 336.993 217.025 336.98 217.172C336.966 217.32 336.894 217.456 336.781 217.552C336.702 217.606 336.617 217.651 336.528 217.686Z" fill="#263238"/>
<path d="M317.357 217.835C317.251 217.871 317.136 217.871 317.03 217.835C316.961 217.806 316.899 217.763 316.847 217.71C316.795 217.657 316.754 217.593 316.726 217.524C316.698 217.455 316.684 217.381 316.685 217.307C316.686 217.232 316.702 217.158 316.732 217.09C317.096 216.255 317.655 215.52 318.363 214.947C319.071 214.375 319.906 213.98 320.798 213.798C320.946 213.777 321.097 213.815 321.217 213.904C321.337 213.994 321.417 214.127 321.439 214.275C321.456 214.422 321.416 214.571 321.328 214.69C321.239 214.809 321.108 214.89 320.962 214.915C320.261 215.08 319.609 215.407 319.057 215.87C318.506 216.333 318.072 216.919 317.789 217.582C317.739 217.652 317.675 217.711 317.6 217.754C317.526 217.798 317.443 217.825 317.357 217.835Z" fill="#263238"/>
<path d="M342.188 202.865L341.399 208.108C342.277 208.56 342.952 209.325 343.292 210.253C343.631 211.18 343.609 212.201 343.231 213.113C341.413 217.582 343.737 224.448 347.059 227.279C347.059 227.279 347.223 225.372 348.831 225.863C350.44 226.355 349.725 236.29 346.418 241.042C350.62 236.7 353.623 231.342 355.132 225.491C357.888 215.854 357.605 208.704 355.713 204.891L342.188 202.865Z" fill="#263238"/>
<path d="M324.999 234.071C325.497 235.454 325.89 236.873 326.175 238.316C326.433 238.331 326.692 238.331 326.95 238.316C330.465 238.167 332.044 236.931 332.729 235.605C333.047 234.951 333.205 234.232 333.191 233.505C333.195 233.092 333.139 232.681 333.027 232.283C330.906 233.352 328.579 233.947 326.205 234.026C325.46 234.071 324.999 234.071 324.999 234.071Z" fill="#263238"/>
<path d="M326.205 233.996L326.578 235.248C329.884 235.084 332.193 234.533 333.191 233.475C333.195 233.062 333.139 232.651 333.027 232.254C330.906 233.322 328.579 233.917 326.205 233.996Z" fill="white"/>
<path d="M326.95 238.286C330.465 238.137 332.044 236.901 332.729 235.575C331.392 235.662 330.081 235.985 328.857 236.529C328.05 236.897 327.383 237.513 326.95 238.286Z" fill="#DE5753"/>
<path d="M334.308 206.127C333.925 205.605 333.372 205.233 332.745 205.072C332.118 204.912 331.454 204.974 330.867 205.248C328.35 205.978 326.131 208.51 323.539 211.728C320.947 214.945 315.823 214.96 314.602 213.053C313.38 211.147 315.778 208.48 315.778 208.48C315.778 208.48 313.574 196.251 326.905 193.451C340.237 190.65 347.253 196.549 347.253 196.549C347.253 196.549 358.32 196.922 359.169 207.155C359.457 211.31 359.207 215.486 358.424 219.578C358.424 219.578 361.403 223.316 355.803 223.093C349.442 222.84 341.801 219.384 341.428 213.202C341.056 207.021 334.308 206.127 334.308 206.127Z" fill="#263238"/>
<path d="M356.681 227.323C355.407 230.053 353.104 232.168 350.276 233.207C346.523 234.548 344.318 231.256 345.152 227.562C345.897 224.27 348.712 219.518 352.6 219.801C356.488 220.084 358.201 223.927 356.681 227.323Z" fill="#EBB376"/>
<path d="M373.603 264.056C384.283 267.169 399.208 339.844 397.242 349.273C395.276 358.702 357.769 398.428 357.769 398.428L347.342 390.518C347.342 390.518 379.218 345.385 379.606 335.956C379.993 326.527 365.47 291.568 365.47 291.568C365.47 291.568 365.857 279.785 367.436 273.887C368.544 270.103 370.679 266.7 373.603 264.056Z" fill="#E79F31"/>
<path opacity="0.5" d="M373.603 264.056C384.283 267.169 399.208 339.844 397.242 349.273C395.276 358.702 357.769 398.428 357.769 398.428L347.342 390.518C347.342 390.518 379.218 345.385 379.606 335.956C379.993 326.527 365.47 291.568 365.47 291.568C365.47 291.568 365.857 279.785 367.436 273.887C368.544 270.103 370.679 266.7 373.603 264.056Z" fill="white"/>
</svg>
