<svg width="22" height="22" viewBox="0 0 22 22" fill="none" xmlns="http://www.w3.org/2000/svg">
<path d="M9.36045 16.445C10.2955 15.2948 10.9172 13.9223 11.1651 12.4609C11.1651 12.0106 11.6017 10.7662 10.9417 10.6837C10.3504 10.7147 10.677 11.9178 10.4879 12.3475C10.2929 13.5004 9.84463 14.5957 9.17532 15.5545C8.50601 16.5133 7.63236 17.3117 6.61732 17.8922C6.5387 17.9375 6.4812 18.0121 6.45737 18.0997C6.43354 18.1873 6.44532 18.2807 6.49014 18.3597C6.96107 19.0678 8.99264 16.8918 9.36045 16.445Z" fill="#26547C"/>
<path d="M10.8764 16.7303C12.0727 15.1249 14.3346 9.37057 10.8008 9.31213C10.368 9.34512 9.96365 9.54067 9.66905 9.85949C9.37446 10.1783 9.21142 10.5968 9.21267 11.0309C9.21477 12.1789 8.91229 13.307 8.33611 14.2999C7.65371 15.4804 6.62038 16.4188 5.37986 16.9846C5.33878 17.0034 5.30179 17.03 5.27101 17.063C5.24023 17.0961 5.21625 17.1348 5.20045 17.1771C5.16854 17.2625 5.17187 17.3571 5.2097 17.4401C5.24754 17.5231 5.31678 17.5876 5.4022 17.6195C5.48762 17.6514 5.58221 17.6481 5.66517 17.6103C6.57306 17.1953 7.38547 16.5973 8.05151 15.8538C8.71755 15.1103 9.22287 14.2372 9.5358 13.2893C9.77917 12.5601 9.90223 11.7962 9.90017 11.0274C9.89996 10.7609 10.0029 10.5047 10.1875 10.3124C10.3721 10.1202 10.6239 10.0069 10.8902 9.9962C13.2964 10.0649 11.172 15.314 10.3127 16.3349C9.70573 17.2083 8.95347 17.971 8.08861 18.5899C8.0517 18.6163 8.02036 18.6496 7.99639 18.6881C7.97243 18.7266 7.9563 18.7694 7.94896 18.8141C7.94161 18.8588 7.94318 18.9046 7.95358 18.9487C7.96398 18.9928 7.983 19.0345 8.00955 19.0712C8.55955 19.7278 10.5361 17.2046 10.8764 16.7303Z" fill="#26547C"/>
<path d="M13.4645 14.6472C13.8736 13.4292 14.0724 12.1505 14.0523 10.8659C14.0008 8.4184 10.8692 7.01246 8.99578 8.59371C6.78891 10.4362 8.93047 12.9731 5.55828 15.2934C5.19029 15.5458 4.79031 15.7481 4.36891 15.895C4.32618 15.91 4.28684 15.9333 4.25315 15.9636C4.21946 15.9939 4.19208 16.0305 4.1726 16.0714C4.15311 16.1123 4.1419 16.1566 4.1396 16.2018C4.13731 16.2471 4.14397 16.2923 4.15922 16.335C4.55797 17.1256 6.69609 15.345 7.04672 14.8912C7.99783 13.8253 8.52177 12.4457 8.51797 11.0172C8.51819 10.6548 8.60023 10.2973 8.75796 9.97108C8.91569 9.6449 9.14504 9.35855 9.42891 9.1334C10.8864 7.89246 13.3305 8.98559 13.3683 10.8968C13.3863 12.4241 13.0757 13.9373 12.4577 15.334C11.8397 16.7308 10.9287 17.9783 9.78641 18.9922C9.71811 19.0524 9.67649 19.1372 9.67069 19.2281C9.66489 19.319 9.69538 19.4084 9.75547 19.4768C10.247 19.9718 11.1889 18.4628 11.5533 18.1328C12.39 17.0921 13.037 15.9122 13.4645 14.6472Z" fill="#26547C"/>
<path d="M15.441 11.0275C15.496 6.7616 9.80693 4.90878 7.32162 8.37378C6.74925 9.13983 6.44159 10.0713 6.44506 11.0275C6.43963 11.8695 6.15633 12.6862 5.63918 13.3506C5.12202 14.0151 4.39994 14.4902 3.58506 14.7022C3.54086 14.7134 3.49933 14.7333 3.46288 14.7607C3.42644 14.7881 3.39581 14.8225 3.37277 14.8618C3.34974 14.9011 3.33476 14.9447 3.32872 14.9899C3.32267 15.0351 3.32568 15.081 3.33756 15.125C3.5885 15.7747 4.7435 14.96 5.13194 14.7572C8.27381 12.7257 5.97756 9.77628 8.82725 7.88222C11.2335 6.16347 14.8532 8.09534 14.7535 11.0378C14.7511 13.9757 13.6739 16.8111 11.7251 19.0094C11.6769 19.0585 11.6445 19.1209 11.6322 19.1886C11.6198 19.2563 11.6281 19.3261 11.6558 19.389C11.6836 19.452 11.7296 19.5051 11.7879 19.5416C11.8462 19.5781 11.9141 19.5963 11.9829 19.5938C14.3307 17.5485 15.3894 14.0938 15.441 11.0275Z" fill="#26547C"/>
<path d="M14.4994 6.36284C11.7081 4.12846 7.18437 5.18721 5.67187 8.42534C4.62344 10.2266 5.76469 12.8631 3.03875 13.4097C2.99361 13.4172 2.95037 13.4334 2.91152 13.4576C2.87266 13.4817 2.83895 13.5133 2.81229 13.5505C2.78564 13.5877 2.76657 13.6298 2.75618 13.6743C2.74579 13.7189 2.74427 13.765 2.75172 13.8102C2.75917 13.8553 2.77543 13.8986 2.79959 13.9374C2.82375 13.9763 2.85532 14.01 2.89251 14.0366C2.92969 14.0633 2.97177 14.0824 3.01632 14.0927C3.06088 14.1031 3.10705 14.1047 3.15219 14.0972C3.87536 13.9736 4.53187 13.5992 5.00648 13.0397C5.48108 12.4803 5.74344 11.7715 5.7475 11.0378C5.75025 9.96563 6.08432 8.92047 6.70398 8.04544C7.32363 7.17042 8.19859 6.50829 9.20906 6.14971C12.43 4.90534 16.2456 7.56252 16.1356 11.0275C16.1374 13.6726 15.3551 16.2588 13.8875 18.4594C13.8623 18.4971 13.8448 18.5393 13.8361 18.5837C13.8273 18.6282 13.8274 18.6739 13.8363 18.7183C13.8452 18.7627 13.8629 18.8049 13.8882 18.8425C13.9135 18.88 13.946 18.9122 13.9837 18.9372C14.6025 19.3703 15.5031 16.8541 15.7678 16.3797C17.0569 13.1656 17.6962 8.68315 14.4994 6.36284Z" fill="#26547C"/>
<path d="M3.37228 6.85088C3.11103 7.35619 1.90103 9.81056 2.68478 9.99275C2.73049 10.0021 2.77763 10.0021 2.82333 9.99271C2.86903 9.9833 2.91234 9.96467 2.95061 9.93798C2.98888 9.91128 3.02132 9.87708 3.04594 9.83744C3.07057 9.79781 3.08687 9.75358 3.09384 9.70744C3.31925 8.36303 3.8902 7.1003 4.75072 6.04306C9.41884 0.274939 18.9063 3.58525 18.9063 11.0274C18.9065 11.8343 18.7836 12.6364 18.542 13.4062C18.5281 13.4493 18.5229 13.4947 18.5266 13.5399C18.5303 13.585 18.5429 13.6289 18.5637 13.6692C18.5844 13.7094 18.6129 13.7452 18.6476 13.7744C18.6822 13.8036 18.7222 13.8256 18.7654 13.8393C19.5251 14.0456 19.556 11.5465 19.5938 11.0274C19.5285 2.15869 7.71041 -0.85256 3.37228 6.85088Z" fill="#26547C"/>
<path d="M15.6957 5.55495C12.0004 2.16557 5.46919 3.95995 4.03919 8.76557C3.79746 9.49517 3.67444 10.2588 3.67481 11.0274C3.67558 11.2878 3.57785 11.5388 3.40123 11.7301C3.22462 11.9213 2.9822 12.0387 2.72262 12.0587C2.63145 12.066 2.54692 12.1092 2.48761 12.1788C2.4283 12.2484 2.39908 12.3388 2.40637 12.4299C2.41367 12.5211 2.45688 12.6056 2.5265 12.665C2.59612 12.7243 2.68645 12.7535 2.77762 12.7462C4.84012 12.5159 4.15262 10.3606 4.69231 8.98213C8.037 0.388382 21.7183 4.61307 16.2904 16.9434C16.2595 17.0258 16.2613 17.1169 16.2956 17.198C16.3298 17.2791 16.3939 17.344 16.4745 17.3793C16.5552 17.4145 16.6463 17.4175 16.7291 17.3876C16.8119 17.3576 16.88 17.2971 16.9195 17.2184C17.7743 15.2678 18.2133 13.1605 18.2086 11.0309C18.2102 9.99078 17.9864 8.96268 17.5526 8.01736C17.1189 7.07204 16.4854 6.23195 15.6957 5.55495Z" fill="#26547C"/>
<path d="M1.375 4.46875C1.46617 4.46875 1.5536 4.43253 1.61807 4.36807C1.68253 4.3036 1.71875 4.21617 1.71875 4.125V1.71875H4.125C4.21617 1.71875 4.3036 1.68253 4.36807 1.61807C4.43253 1.5536 4.46875 1.46617 4.46875 1.375C4.46875 1.28383 4.43253 1.1964 4.36807 1.13193C4.3036 1.06747 4.21617 1.03125 4.125 1.03125H1.375C1.28383 1.03125 1.1964 1.06747 1.13193 1.13193C1.06747 1.1964 1.03125 1.28383 1.03125 1.375V4.125C1.03125 4.21617 1.06747 4.3036 1.13193 4.36807C1.1964 4.43253 1.28383 4.46875 1.375 4.46875Z" fill="#26547C"/>
<path d="M20.625 1.03125H17.875C17.7838 1.03125 17.6964 1.06747 17.6319 1.13193C17.5675 1.1964 17.5312 1.28383 17.5312 1.375C17.5312 1.46617 17.5675 1.5536 17.6319 1.61807C17.6964 1.68253 17.7838 1.71875 17.875 1.71875H20.2812V4.125C20.2812 4.21617 20.3175 4.3036 20.3819 4.36807C20.4464 4.43253 20.5338 4.46875 20.625 4.46875C20.7162 4.46875 20.8036 4.43253 20.8681 4.36807C20.9325 4.3036 20.9688 4.21617 20.9688 4.125V1.375C20.9688 1.28383 20.9325 1.1964 20.8681 1.13193C20.8036 1.06747 20.7162 1.03125 20.625 1.03125Z" fill="#26547C"/>
<path d="M20.625 17.5312C20.5338 17.5312 20.4464 17.5675 20.3819 17.6319C20.3175 17.6964 20.2812 17.7838 20.2812 17.875V20.2812H17.875C17.7838 20.2812 17.6964 20.3175 17.6319 20.3819C17.5675 20.4464 17.5312 20.5338 17.5312 20.625C17.5312 20.7162 17.5675 20.8036 17.6319 20.8681C17.6964 20.9325 17.7838 20.9688 17.875 20.9688H20.625C20.7162 20.9688 20.8036 20.9325 20.8681 20.8681C20.9325 20.8036 20.9688 20.7162 20.9688 20.625V17.875C20.9688 17.7838 20.9325 17.6964 20.8681 17.6319C20.8036 17.5675 20.7162 17.5312 20.625 17.5312Z" fill="#26547C"/>
<path d="M4.125 20.2812H1.71875V17.875C1.71875 17.7838 1.68253 17.6964 1.61807 17.6319C1.5536 17.5675 1.46617 17.5312 1.375 17.5312C1.28383 17.5312 1.1964 17.5675 1.13193 17.6319C1.06747 17.6964 1.03125 17.7838 1.03125 17.875V20.625C1.03125 20.7162 1.06747 20.8036 1.13193 20.8681C1.1964 20.9325 1.28383 20.9688 1.375 20.9688H4.125C4.21617 20.9688 4.3036 20.9325 4.36807 20.8681C4.43253 20.8036 4.46875 20.7162 4.46875 20.625C4.46875 20.5338 4.43253 20.4464 4.36807 20.3819C4.3036 20.3175 4.21617 20.2812 4.125 20.2812Z" fill="#26547C"/>
</svg>
