<svg width="30" height="30" viewBox="0 0 30 30" fill="none" xmlns="http://www.w3.org/2000/svg">
<rect width="30" height="30" rx="3" fill="#DAECFF"/>
<path d="M13.3604 20.445C14.2955 19.2948 14.9172 17.9224 15.1651 16.4609C15.1651 16.0106 15.6016 14.7662 14.9416 14.6837C14.3504 14.7147 14.6769 15.9178 14.4879 16.3475C14.2929 17.5004 13.8446 18.5957 13.1753 19.5545C12.506 20.5133 11.6323 21.3117 10.6173 21.8922C10.5386 21.9375 10.4811 22.0121 10.4573 22.0997C10.4335 22.1873 10.4453 22.2808 10.4901 22.3597C10.961 23.0678 12.9926 20.8919 13.3604 20.445Z" fill="#0C78D8"/>
<path d="M14.8762 20.7303C16.0724 19.125 18.3343 13.3706 14.8006 13.3122C14.3677 13.3452 13.9634 13.5407 13.6688 13.8596C13.3742 14.1784 13.2112 14.5969 13.2124 15.0309C13.2145 16.179 12.912 17.307 12.3359 18.3C11.6535 19.4804 10.6201 20.4188 9.37962 20.9847C9.33854 21.0034 9.30155 21.0301 9.27077 21.0631C9.23998 21.0961 9.21601 21.1349 9.20021 21.1772C9.1683 21.2626 9.17163 21.3572 9.20946 21.4402C9.2473 21.5231 9.31654 21.5877 9.40195 21.6196C9.48737 21.6515 9.58197 21.6482 9.66493 21.6103C10.5728 21.1954 11.3852 20.5974 12.0513 19.8539C12.7173 19.1103 13.2226 18.2373 13.5356 17.2894C13.7789 16.5602 13.902 15.7962 13.8999 15.0275C13.8997 14.761 14.0027 14.5048 14.1872 14.3125C14.3718 14.1203 14.6236 14.0069 14.8899 13.9963C17.2962 14.065 15.1718 19.3141 14.3124 20.335C13.7055 21.2083 12.9532 21.9711 12.0884 22.59C12.0515 22.6163 12.0201 22.6497 11.9961 22.6881C11.9722 22.7266 11.9561 22.7695 11.9487 22.8142C11.9414 22.8589 11.9429 22.9047 11.9533 22.9488C11.9637 22.9929 11.9828 23.0345 12.0093 23.0713C12.5593 23.7278 14.5359 21.2047 14.8762 20.7303Z" fill="#0C78D8"/>
<path d="M17.4646 18.6472C17.8737 17.4293 18.0725 16.1506 18.0524 14.8659C18.0009 12.4184 14.8693 11.0125 12.9959 12.5937C10.789 14.4362 12.9306 16.9731 9.55837 19.2934C9.19038 19.5459 8.79041 19.7482 8.369 19.895C8.32627 19.91 8.28693 19.9333 8.25324 19.9636C8.21955 19.9939 8.19217 20.0305 8.17269 20.0714C8.1532 20.1123 8.14199 20.1566 8.13969 20.2019C8.1374 20.2471 8.14406 20.2923 8.15931 20.335C8.55806 21.1256 10.6962 19.345 11.0468 18.8912C11.9979 17.8253 12.5219 16.4457 12.5181 15.0172C12.5183 14.6549 12.6003 14.2973 12.7581 13.9711C12.9158 13.6449 13.1451 13.3586 13.429 13.1334C14.8865 11.8925 17.3306 12.9856 17.3684 14.8969C17.3863 16.4241 17.0758 17.9373 16.4578 19.3341C15.8398 20.7308 14.9288 21.9783 13.7865 22.9922C13.7182 23.0524 13.6766 23.1373 13.6708 23.2281C13.665 23.319 13.6955 23.4085 13.7556 23.4769C14.2471 23.9719 15.189 22.4628 15.5534 22.1328C16.3901 21.0921 17.0371 19.9122 17.4646 18.6472Z" fill="#0C78D8"/>
<path d="M19.4411 15.0275C19.4961 10.7616 13.8071 8.90875 11.3218 12.3738C10.7494 13.1398 10.4417 14.0712 10.4452 15.0275C10.4398 15.8695 10.1565 16.6861 9.63933 17.3506C9.12217 18.0151 8.40009 18.4902 7.58521 18.7022C7.54101 18.7134 7.49948 18.7333 7.46304 18.7607C7.42659 18.788 7.39596 18.8224 7.37293 18.8618C7.34989 18.9011 7.33492 18.9447 7.32887 18.9898C7.32283 19.035 7.32583 19.081 7.33771 19.125C7.58865 19.7747 8.74365 18.96 9.13209 18.7572C12.274 16.7256 9.97771 13.7763 12.8274 11.8822C15.2336 10.1634 18.8533 12.0953 18.7536 15.0378C18.7513 17.9756 17.6741 20.8111 15.7252 23.0094C15.677 23.0585 15.6446 23.1209 15.6323 23.1885C15.62 23.2562 15.6282 23.326 15.656 23.389C15.6837 23.4519 15.7297 23.5051 15.7881 23.5416C15.8464 23.5781 15.9143 23.5963 15.983 23.5938C18.3308 21.5484 19.3896 18.0938 19.4411 15.0275Z" fill="#0C78D8"/>
<path d="M18.4994 10.3628C15.7081 8.12843 11.1844 9.18718 9.67187 12.4253C8.62344 14.2266 9.76469 16.8631 7.03875 17.4097C6.99361 17.4171 6.95037 17.4334 6.91152 17.4576C6.87266 17.4817 6.83895 17.5133 6.81229 17.5505C6.78564 17.5877 6.76657 17.6297 6.75618 17.6743C6.74579 17.7188 6.74427 17.765 6.75172 17.8101C6.75917 17.8553 6.77543 17.8985 6.79959 17.9374C6.82375 17.9762 6.85532 18.01 6.89251 18.0366C6.92969 18.0633 6.97177 18.0823 7.01632 18.0927C7.06088 18.1031 7.10705 18.1046 7.15219 18.0972C7.87536 17.9736 8.53187 17.5992 9.00648 17.0397C9.48108 16.4802 9.74344 15.7715 9.7475 15.0378C9.75025 13.9656 10.0843 12.9204 10.704 12.0454C11.3236 11.1704 12.1986 10.5083 13.2091 10.1497C16.43 8.90531 20.2456 11.5625 20.1356 15.0275C20.1374 17.6726 19.3551 20.2588 17.8875 22.4594C17.8623 22.497 17.8448 22.5393 17.8361 22.5837C17.8273 22.6281 17.8274 22.6739 17.8363 22.7183C17.8452 22.7627 17.8629 22.8049 17.8882 22.8424C17.9135 22.88 17.946 22.9122 17.9837 22.9372C18.6025 23.3703 19.5031 20.8541 19.7678 20.3797C21.0569 17.1656 21.6962 12.6831 18.4994 10.3628Z" fill="#0C78D8"/>
<path d="M7.37222 10.8509C7.11097 11.3563 5.90097 13.8106 6.68472 13.9928C6.73043 14.0022 6.77757 14.0022 6.82327 13.9928C6.86897 13.9834 6.91228 13.9647 6.95055 13.938C6.98882 13.9113 7.02126 13.8771 7.04588 13.8375C7.07051 13.7979 7.08681 13.7536 7.09378 13.7075C7.31919 12.3631 7.89014 11.1004 8.75066 10.0431C13.4188 4.275 22.9063 7.58531 22.9063 15.0275C22.9064 15.8343 22.7836 16.6365 22.5419 17.4062C22.528 17.4494 22.5228 17.4948 22.5265 17.5399C22.5302 17.5851 22.5428 17.629 22.5636 17.6693C22.5844 17.7095 22.6129 17.7452 22.6475 17.7744C22.6821 17.8036 22.7222 17.8257 22.7653 17.8394C23.525 18.0456 23.556 15.5466 23.5938 15.0275C23.5285 6.15875 11.7103 3.1475 7.37222 10.8509Z" fill="#0C78D8"/>
<path d="M19.6956 9.55501C16.0003 6.16563 9.46906 7.96001 8.03906 12.7656C7.79734 13.4952 7.67432 14.2589 7.67469 15.0275C7.67545 15.2878 7.57772 15.5388 7.40111 15.7301C7.2245 15.9214 6.98208 16.0388 6.7225 16.0588C6.63133 16.0661 6.5468 16.1093 6.48749 16.1789C6.42818 16.2485 6.39896 16.3388 6.40625 16.43C6.41354 16.5212 6.45675 16.6057 6.52638 16.665C6.596 16.7243 6.68633 16.7536 6.7775 16.7463C8.84 16.5159 8.1525 14.3606 8.69219 12.9822C12.0369 4.38844 25.7181 8.61313 20.2903 20.9434C20.2594 21.0259 20.2612 21.117 20.2954 21.1981C20.3297 21.2792 20.3937 21.3441 20.4744 21.3793C20.5551 21.4146 20.6462 21.4176 20.729 21.3876C20.8118 21.3577 20.8799 21.2971 20.9194 21.2184C21.7742 19.2679 22.2132 17.1606 22.2084 15.0309C22.2101 13.9908 21.9863 12.9627 21.5525 12.0174C21.1187 11.0721 20.4852 10.232 19.6956 9.55501Z" fill="#0C78D8"/>
<path d="M5.375 8.46875C5.46617 8.46875 5.5536 8.43253 5.61807 8.36807C5.68253 8.3036 5.71875 8.21617 5.71875 8.125V5.71875H8.125C8.21617 5.71875 8.3036 5.68253 8.36807 5.61807C8.43253 5.5536 8.46875 5.46617 8.46875 5.375C8.46875 5.28383 8.43253 5.1964 8.36807 5.13193C8.3036 5.06747 8.21617 5.03125 8.125 5.03125H5.375C5.28383 5.03125 5.1964 5.06747 5.13193 5.13193C5.06747 5.1964 5.03125 5.28383 5.03125 5.375V8.125C5.03125 8.21617 5.06747 8.3036 5.13193 8.36807C5.1964 8.43253 5.28383 8.46875 5.375 8.46875Z" fill="#0C78D8"/>
<path d="M24.625 5.03125H21.875C21.7838 5.03125 21.6964 5.06747 21.6319 5.13193C21.5675 5.1964 21.5312 5.28383 21.5312 5.375C21.5312 5.46617 21.5675 5.5536 21.6319 5.61807C21.6964 5.68253 21.7838 5.71875 21.875 5.71875H24.2812V8.125C24.2812 8.21617 24.3175 8.3036 24.3819 8.36807C24.4464 8.43253 24.5338 8.46875 24.625 8.46875C24.7162 8.46875 24.8036 8.43253 24.8681 8.36807C24.9325 8.3036 24.9688 8.21617 24.9688 8.125V5.375C24.9688 5.28383 24.9325 5.1964 24.8681 5.13193C24.8036 5.06747 24.7162 5.03125 24.625 5.03125Z" fill="#0C78D8"/>
<path d="M24.625 21.5312C24.5338 21.5312 24.4464 21.5675 24.3819 21.6319C24.3175 21.6964 24.2812 21.7838 24.2812 21.875V24.2812H21.875C21.7838 24.2812 21.6964 24.3175 21.6319 24.3819C21.5675 24.4464 21.5312 24.5338 21.5312 24.625C21.5312 24.7162 21.5675 24.8036 21.6319 24.8681C21.6964 24.9325 21.7838 24.9688 21.875 24.9688H24.625C24.7162 24.9688 24.8036 24.9325 24.8681 24.8681C24.9325 24.8036 24.9688 24.7162 24.9688 24.625V21.875C24.9688 21.7838 24.9325 21.6964 24.8681 21.6319C24.8036 21.5675 24.7162 21.5312 24.625 21.5312Z" fill="#0C78D8"/>
<path d="M8.125 24.2812H5.71875V21.875C5.71875 21.7838 5.68253 21.6964 5.61807 21.6319C5.5536 21.5675 5.46617 21.5312 5.375 21.5312C5.28383 21.5312 5.1964 21.5675 5.13193 21.6319C5.06747 21.6964 5.03125 21.7838 5.03125 21.875V24.625C5.03125 24.7162 5.06747 24.8036 5.13193 24.8681C5.1964 24.9325 5.28383 24.9688 5.375 24.9688H8.125C8.21617 24.9688 8.3036 24.9325 8.36807 24.8681C8.43253 24.8036 8.46875 24.7162 8.46875 24.625C8.46875 24.5338 8.43253 24.4464 8.36807 24.3819C8.3036 24.3175 8.21617 24.2812 8.125 24.2812Z" fill="#0C78D8"/>
</svg>
