<svg width="48" height="48" viewBox="0 0 48 48" fill="none" xmlns="http://www.w3.org/2000/svg">
<g clip-path="url(#clip0_32_3287)">
<path d="M18.2915 0.703125H43.8384C44.5691 0.703125 45.27 0.993416 45.7867 1.51014C46.3034 2.02686 46.5937 2.72768 46.5937 3.45844V6.53625H40.9321" fill="#27547C"/>
<path d="M43.7109 0.703125C42.9464 0.703125 42.2131 1.00685 41.6725 1.54748C41.1319 2.08811 40.8281 2.82137 40.8281 3.58594V44.4844C40.8281 45.2303 40.5318 45.9457 40.0044 46.4731C39.4769 47.0006 38.7615 47.2969 38.0156 47.2969H5.76562V3.51562C5.76562 2.7697 6.06194 2.05433 6.58939 1.52689C7.11683 0.999441 7.8322 0.703125 8.57812 0.703125H43.7344" fill="#05D79F"/>
<path d="M37.9116 47.2969C37.1808 47.2969 36.48 47.0066 35.9633 46.4899C35.4465 45.9731 35.1563 45.2723 35.1563 44.5416V41.4637H1.40625V44.5416C1.40625 44.9034 1.47752 45.2617 1.61599 45.596C1.75445 45.9303 1.95741 46.234 2.21326 46.4899C2.46912 46.7457 2.77286 46.9487 3.10715 47.0871C3.44144 47.2256 3.79973 47.2969 4.16156 47.2969H37.9116Z" fill="#27547C"/>
<path d="M30.1733 4.92188H17.8264C17.0498 4.92188 16.4202 5.55147 16.4202 6.32812V7.73438C16.4202 8.51103 17.0498 9.14062 17.8264 9.14062H30.1733C30.9499 9.14062 31.5795 8.51103 31.5795 7.73438V6.32812C31.5795 5.55147 30.9499 4.92188 30.1733 4.92188Z" fill="#27547C"/>
<path d="M30.1736 4.92188H27.3611C27.734 4.92188 28.0917 5.07003 28.3555 5.33376C28.6192 5.59748 28.7673 5.95516 28.7673 6.32812V7.73438C28.7673 8.10734 28.6192 8.46502 28.3555 8.72874C28.0917 8.99247 27.734 9.14062 27.3611 9.14062H30.1736C30.5465 9.14062 30.9042 8.99247 31.168 8.72874C31.4317 8.46502 31.5798 8.10734 31.5798 7.73438V6.32812C31.5798 5.95516 31.4317 5.59748 31.168 5.33376C30.9042 5.07003 30.5465 4.92188 30.1736 4.92188Z" fill="#2A6CA7"/>
<path d="M24.0006 34.2209H24C21.9426 34.22 19.9491 33.5059 18.3592 32.2C16.7693 30.8942 15.6813 29.0776 15.2807 27.0595C14.88 25.0415 15.1913 22.947 16.1617 21.1328C17.1321 19.3186 18.7015 17.897 20.6025 17.1102C22.5035 16.3233 24.6186 16.2199 26.5873 16.8176C28.5559 17.4152 30.2565 18.677 31.3993 20.3878C32.542 22.0987 33.0562 24.1529 32.8543 26.2003C32.6524 28.2478 31.7468 30.162 30.2919 31.6166L30.2915 31.617C29.4669 32.4452 28.4864 33.1017 27.4066 33.5486C26.3269 33.9956 25.1692 34.2241 24.0006 34.2209Z" fill="#E4FFCF" stroke="#E4FFCF" stroke-width="0.5"/>
<path d="M30.4687 18.8662C29.621 18.0146 28.6128 17.3395 27.5024 16.8801C26.3921 16.4207 25.2016 16.186 24 16.1897C23.5292 16.1893 23.0591 16.225 22.5938 16.2966C24.7493 16.6313 26.7141 17.7258 28.1332 19.3824C29.5524 21.039 30.3325 23.1485 30.3325 25.3298C30.3325 27.5112 29.5524 29.6207 28.1332 31.2773C26.7141 32.9339 24.7493 34.0284 22.5938 34.3631C23.0591 34.435 23.5292 34.471 24 34.4709C25.8084 34.4721 27.5766 33.9369 29.0807 32.9328C30.5848 31.9288 31.7574 30.5012 32.4499 28.8306C33.1424 27.16 33.3238 25.3216 32.9712 23.5478C32.6185 21.7741 31.7476 20.1449 30.4687 18.8662Z" fill="#E4FFCF"/>
<path d="M27.085 21.7607H25.587C25.8578 22.1035 26.0292 22.5225 26.1011 23.0176H27.377L27.085 24.0205H26.1202C26.044 24.7738 25.7457 25.3408 25.2252 25.7217C24.7047 26.1025 23.981 26.293 23.0543 26.293L26.1837 29.9238V30H24.7427L21.3785 26.0835L21.3721 25.29H22.9527C23.4817 25.2858 23.9112 25.1715 24.2413 24.9473C24.5714 24.7188 24.7808 24.4098 24.8697 24.0205H21.1944L21.4864 23.0176H24.857C24.6539 22.2135 24.0318 21.7946 22.9908 21.7607H21.2071L21.5054 20.7578H27.377L27.085 21.7607Z" fill="#27547C"/>
<path d="M10 12H16" stroke="#E4FFCF"/>
<path d="M10 15H15" stroke="#E4FFCF"/>
<path d="M30 12H35" stroke="#E4FFCF"/>
<path d="M30 15H34" stroke="#E4FFCF"/>
<path d="M10 18H13" stroke="#E4FFCF"/>
<path d="M9 37H19" stroke="#E4FFCF"/>
</g>
<defs>
<clipPath id="clip0_32_3287">
<rect width="48" height="48" fill="white"/>
</clipPath>
</defs>
</svg>
