<svg width="48" height="48" viewBox="0 0 48 48" fill="none" xmlns="http://www.w3.org/2000/svg">
<path d="M32.3576 36.6116H12.0623C9.85765 36.6116 8.08276 34.8367 8.08276 32.6321V7.16341C8.08276 4.95878 9.85765 3.18393 12.0623 3.18393H32.3576" fill="#05D79F"/>
<path d="M24.0007 41.387H7.28685C4.20037 41.387 1.71558 38.9022 1.71558 35.8157V33.4463L24.0007 33.4097V41.387Z" fill="#00BE8B"/>
<path fill-rule="evenodd" clip-rule="evenodd" d="M10.4695 7.16187V8.75366H12.0613V7.16187H10.4695ZM13.6531 7.16187V8.75366H26.3874V7.16187H13.6531ZM10.4695 10.3455V11.9372H12.0613V10.3455H10.4695ZM13.6531 10.3455V11.9372H26.3874V10.3455H13.6531ZM10.4695 13.529V15.1208H12.0613V13.529H10.4695ZM13.6531 13.529V15.1208H26.3874V13.529H13.6531ZM10.4695 16.7126V18.3044H12.0613V16.7126H10.4695ZM13.6531 16.7126V18.3044H21.612V16.7126H13.6531ZM10.4695 19.8962V21.488H12.0613V19.8962H10.4695ZM13.6531 19.8962V21.488H21.612V19.8962H13.6531ZM15.2449 23.0798V24.6716H21.612V23.0798H15.2449ZM15.2449 26.2634V27.8552H21.612V26.2634H15.2449Z" fill="white"/>
<path d="M28.7761 17.5V7.20888C28.7761 4.97894 30.551 3.18393 32.7556 3.18393C34.9602 3.18393 36.7351 4.97894 36.7351 7.20888V17.5" fill="#00BE8B"/>
<path d="M25.5923 17.5105H44.6942C45.576 17.5105 46.2858 18.2202 46.2858 19.1019V44.5713C46.2858 45.453 45.576 46.1627 44.6942 46.1627H25.5923C24.7106 46.1627 24.0007 45.453 24.0007 44.5713V19.1019C24.0007 18.2202 24.7106 17.5105 25.5923 17.5105Z" fill="#27547C"/>
<path d="M27.1843 39.7956H30.3679V42.9792H27.1843V39.7956ZM33.5515 39.7956H36.7351V42.9792H33.5515V39.7956ZM39.9187 33.4284H43.1023V42.9792H39.9187V33.4284ZM27.1843 33.4284H30.3679V36.612H27.1843V33.4284ZM33.5515 33.4284H36.7351V36.612H33.5515V33.4284ZM27.1843 27.0612H30.3679V30.2448H27.1843V27.0612ZM33.5515 27.0612H36.7351V30.2448H33.5515V27.0612ZM39.9187 27.0612H43.1023V30.2448H39.9187V27.0612Z" fill="#05D79F"/>
<path d="M26.3884 19.8981H43.8981V24.6735H26.3884V19.8981Z" fill="white"/>
</svg>
