<svg width="48" height="48" viewBox="0 0 48 48" fill="none" xmlns="http://www.w3.org/2000/svg">
<path d="M7.53048 4.74736C3.38966 7.36076 0 9.53232 0 9.56052C0 9.62633 10.7981 16.4512 10.8262 16.4042C10.8356 16.3854 11.0892 16.0094 11.3802 15.5676C13.23 12.785 15.9624 10.698 19.1455 9.64513C20.5257 9.18449 21.3802 9.01528 22.8074 8.90247C27.9341 8.52644 32.92 10.7638 36.0374 14.8625L36.2534 15.1445L36.2158 13.4994C36.1782 12.0611 36.1501 11.7509 35.9341 11.0458C35.5961 9.91775 35.2956 9.2785 34.6759 8.34783C33.1266 6.01646 30.7135 4.54054 27.8872 4.19272C27.4177 4.13631 24.6666 4.09871 21.1079 4.09871H15.1173L15.0985 2.04936L15.0704 1.90735e-06L7.53048 4.74736Z" fill="#27547C"/>
<path d="M22.9012 11.7227C20.0562 11.9577 17.474 13.1422 15.3989 15.1539C12.9388 17.5417 11.6431 20.5875 11.6431 23.9718C11.6431 33.1281 21.1454 39.0787 29.3613 35.074C34.8354 32.4042 37.5209 26.0869 35.6617 20.2303C35.0514 18.3032 34.0092 16.6298 32.4974 15.1633C30.8542 13.5652 29.1359 12.6063 26.9388 12.0517C26.1407 11.8449 25.69 11.7885 24.2252 11.6757C23.9904 11.6569 23.3989 11.6757 22.9012 11.7227ZM25.258 17.5887C25.258 18.0305 25.2768 18.3878 25.2956 18.3878C25.3144 18.3878 25.6806 18.4536 26.1031 18.5382C26.873 18.6792 27.9998 19.0552 28.2252 19.2338C28.3097 19.309 28.2064 19.6287 27.8214 20.5781C27.5303 21.255 27.2862 21.8378 27.2674 21.8566C27.2486 21.8754 26.9388 21.7814 26.5914 21.6404C24.8355 20.9542 23.089 20.973 22.8637 21.678C22.7322 22.101 23.136 22.3173 24.7604 22.6651C26.6289 23.0693 27.258 23.3231 27.9341 23.9436C28.9575 24.8837 29.0702 26.5852 28.2158 27.8449C27.6993 28.5875 26.5632 29.2926 25.6336 29.443L25.258 29.5088V30.3831V31.2667H24.1313H23.0045V30.4301V29.6028L22.366 29.5464C21.5116 29.4618 20.366 29.161 19.6524 28.832L19.0703 28.5593L19.643 27.2526C19.9529 26.5382 20.2252 25.9459 20.2346 25.9271C20.2534 25.9083 20.4693 26.0023 20.7228 26.1245C21.5397 26.5476 22.4318 26.7732 23.474 26.8202C24.704 26.886 25.1641 26.745 25.1641 26.3032C25.1641 25.8895 24.9012 25.7673 23.136 25.3443C21.3519 24.9119 20.5444 24.564 19.9998 23.9718C19.4458 23.3701 19.3144 22.9941 19.305 22.007C19.2956 20.9824 19.4834 20.5123 20.1595 19.7885C20.6759 19.2338 21.6149 18.7356 22.4599 18.557L23.0045 18.4442V17.6169V16.7896H24.1313H25.258V17.5887Z" fill="#05D79F"/>
<path d="M36.4414 32.5452C35.6809 33.7015 34.2161 35.2244 32.9767 36.1551C28.1786 39.765 21.634 40.1504 16.3946 37.1328C14.9016 36.2773 13.1176 34.7356 11.9439 33.2879L11.634 32.9119L11.6716 34.51C11.7185 36.3431 11.8688 37.067 12.4697 38.3549C12.9955 39.4736 13.5307 40.2256 14.4509 41.1375C15.7749 42.4536 17.3429 43.2996 19.2021 43.6851C19.9814 43.8449 20.5636 43.8637 26.4133 43.8637H32.7701V45.9318C32.7701 47.0693 32.7889 48 32.8076 48C32.8264 48 34.3006 47.0881 36.0752 45.9694C40.7419 43.0176 44.1879 40.8367 45.5869 39.9624C46.263 39.5394 47.0705 39.0223 47.3991 38.8155L48.0001 38.4395L47.493 38.1293C47.2207 37.96 44.7888 36.4371 42.1034 34.7356C39.4085 33.0341 37.1738 31.6428 37.1269 31.6428C37.0799 31.6428 36.7701 32.047 36.4414 32.5452Z" fill="#27547C"/>
</svg>
