<svg width="48" height="48" viewBox="0 0 48 48" fill="none" xmlns="http://www.w3.org/2000/svg">
<path d="M44.4844 0.703125H3.51562C1.96232 0.703125 0.703125 1.96232 0.703125 3.51562V16.9219C0.703125 18.4752 1.96232 19.7344 3.51562 19.7344H44.4844C46.0377 19.7344 47.2969 18.4752 47.2969 16.9219V3.51562C47.2969 1.96232 46.0377 0.703125 44.4844 0.703125Z" fill="#27547C"/>
<path d="M44.4844 0.703125H40.2656C41.0115 0.703125 41.7269 0.999441 42.2544 1.52689C42.7818 2.05433 43.0781 2.7697 43.0781 3.51562V16.9219C43.0781 17.6678 42.7818 18.3832 42.2544 18.9106C41.7269 19.4381 41.0115 19.7344 40.2656 19.7344H44.4844C45.2303 19.7344 45.9457 19.4381 46.4731 18.9106C47.0006 18.3832 47.2969 17.6678 47.2969 16.9219V3.51562C47.2969 2.7697 47.0006 2.05433 46.4731 1.52689C45.9457 0.999441 45.2303 0.703125 44.4844 0.703125Z" fill="#2A6CA7"/>
<path d="M38.3906 10.2188V44.4844C38.3906 45.2303 38.0943 45.9457 37.5669 46.4731C37.0394 47.0006 36.324 47.2969 35.5781 47.2969H12.4219C11.676 47.2969 10.9606 47.0006 10.4331 46.4731C9.90569 45.9457 9.60938 45.2303 9.60938 44.4844L9.60938 10.2188L38.3906 10.2188Z" fill="#05D79F"/>
<path d="M24.5594 20.0725H23.6376C23.8042 20.2835 23.9097 20.5413 23.954 20.846H24.7391L24.5594 21.4632H23.9657C23.9188 21.9267 23.7352 22.2757 23.4149 22.51C23.0946 22.7444 22.6493 22.8616 22.079 22.8616L24.0047 25.096V25.1429H23.118L21.0477 22.7327L21.0438 22.2444H22.0165C22.342 22.2418 22.6063 22.1715 22.8094 22.0335C23.0126 21.8929 23.1415 21.7027 23.1961 21.4632H20.9344L21.1141 20.846H23.1883C23.0633 20.3512 22.6805 20.0934 22.0399 20.0725H20.9422L21.1258 19.4554H24.7391L24.5594 20.0725Z" fill="#E4FFCF"/>
<path d="M34.1719 10.2188V44.4844C34.1719 45.2303 33.8756 45.9457 33.3481 46.4731C32.8207 47.0006 32.1053 47.2969 31.3594 47.2969H35.5781C36.324 47.2969 37.0394 47.0006 37.5669 46.4731C38.0943 45.9457 38.3906 45.2303 38.3906 44.4844V10.2188H34.1719Z" fill="#05D79F"/>
<path d="M18.6094 10.2188V13.3594C18.6094 13.608 18.5106 13.8465 18.3348 14.0223C18.159 14.1981 17.9205 14.2969 17.6719 14.2969H14.7656C14.517 14.2969 14.2785 14.1981 14.1027 14.0223C13.9269 13.8465 13.8281 13.608 13.8281 13.3594V10.2188H18.6094Z" fill="#27547D"/>
<path d="M17.2031 10.2188V13.3594C17.2031 13.4825 17.1789 13.6044 17.1318 13.7181C17.0847 13.8319 17.0156 13.9352 16.9285 14.0223C16.8415 14.1093 16.7381 14.1784 16.6244 14.2255C16.5106 14.2726 16.3887 14.2969 16.2656 14.2969H17.6719C17.795 14.2969 17.9169 14.2726 18.0306 14.2255C18.1444 14.1784 18.2477 14.1093 18.3348 14.0223C18.4218 13.9352 18.4909 13.8319 18.538 13.7181C18.5851 13.6044 18.6094 13.4825 18.6094 13.3594V10.2188H17.2031Z" fill="#27547D"/>
<path d="M40.4531 10.9219H7.54688C7.36039 10.9219 7.18155 10.8478 7.04969 10.7159C6.91783 10.5841 6.84375 10.4052 6.84375 10.2188C6.84375 10.0323 6.91783 9.85343 7.04969 9.72157C7.18155 9.5897 7.36039 9.51562 7.54688 9.51562H40.4531C40.6396 9.51562 40.8185 9.5897 40.9503 9.72157C41.0822 9.85343 41.1562 10.0323 41.1562 10.2188C41.1562 10.4052 41.0822 10.5841 40.9503 10.7159C40.8185 10.8478 40.6396 10.9219 40.4531 10.9219Z" fill="white"/>
<path d="M34.1719 43.7813C34.0795 43.7813 33.9881 43.7631 33.9028 43.7277C33.8175 43.6924 33.74 43.6406 33.6747 43.5753C33.6094 43.51 33.5576 43.4325 33.5223 43.3472C33.4869 43.2619 33.4687 43.1705 33.4687 43.0781V37.6406C33.4687 37.4542 33.5428 37.2753 33.6747 37.1434C33.8065 37.0116 33.9854 36.9375 34.1719 36.9375C34.3583 36.9375 34.5372 37.0116 34.669 37.1434C34.8009 37.2753 34.875 37.4542 34.875 37.6406V43.0781C34.875 43.1705 34.8568 43.2619 34.8215 43.3472C34.7861 43.4325 34.7343 43.51 34.669 43.5753C34.6037 43.6406 34.5262 43.6924 34.4409 43.7277C34.3556 43.7631 34.2642 43.7813 34.1719 43.7813ZM34.1719 33.9375C34.0795 33.9375 33.9881 33.9193 33.9028 33.884C33.8175 33.8487 33.74 33.7969 33.6747 33.7316C33.6094 33.6663 33.5576 33.5888 33.5223 33.5035C33.4869 33.4182 33.4687 33.3267 33.4687 33.2344V27.7969C33.4687 27.6104 33.5428 27.4316 33.6747 27.2997C33.8065 27.1678 33.9854 27.0938 34.1719 27.0938C34.3583 27.0938 34.5372 27.1678 34.669 27.2997C34.8009 27.4316 34.875 27.6104 34.875 27.7969V33.2344C34.875 33.3267 34.8568 33.4182 34.8215 33.5035C34.7861 33.5888 34.7343 33.6663 34.669 33.7316C34.6037 33.7969 34.5262 33.8487 34.4409 33.884C34.3556 33.9193 34.2642 33.9375 34.1719 33.9375ZM34.1719 24.0938C34.0795 24.0938 33.9881 24.0756 33.9028 24.0402C33.8175 24.0049 33.74 23.9531 33.6747 23.8878C33.6094 23.8225 33.5576 23.745 33.5223 23.6597C33.4869 23.5744 33.4687 23.483 33.4687 23.3906V17.9531C33.4687 17.7666 33.5428 17.5878 33.6747 17.4559C33.8065 17.3241 33.9854 17.25 34.1719 17.25C34.3583 17.25 34.5372 17.3241 34.669 17.4559C34.8009 17.5878 34.875 17.7666 34.875 17.9531V23.3906C34.875 23.483 34.8568 23.5744 34.8215 23.6597C34.7861 23.745 34.7343 23.8225 34.669 23.8878C34.6037 23.9531 34.5262 24.0049 34.4409 24.0402C34.3556 24.0756 34.2642 24.0938 34.1719 24.0938ZM34.1716 14.25C33.987 14.25 33.8098 14.1773 33.6783 14.0477C33.5468 13.9181 33.4716 13.742 33.4688 13.5574L33.422 10.4168C33.4206 10.3245 33.4374 10.2328 33.4714 10.1469C33.5055 10.0611 33.5561 9.98282 33.6204 9.91656C33.6847 9.8503 33.7615 9.79736 33.8462 9.76075C33.931 9.72415 34.0222 9.7046 34.1145 9.70322C34.118 9.70312 34.1216 9.70313 34.1252 9.70313C34.3098 9.70317 34.487 9.77584 34.6185 9.90542C34.75 10.035 34.8253 10.2111 34.828 10.3957L34.8749 13.5363C34.8763 13.6287 34.8594 13.7204 34.8254 13.8062C34.7913 13.892 34.7407 13.9703 34.6764 14.0366C34.6121 14.1028 34.5354 14.1558 34.4506 14.1924C34.3658 14.229 34.2747 14.2485 34.1823 14.2499C34.1788 14.25 34.1752 14.25 34.1716 14.25Z" fill="white"/>
<path d="M13.8281 38.1094C13.8275 38.6257 14.013 39.1249 14.3505 39.5156C14.0812 39.8284 13.9072 40.212 13.8494 40.6207C13.7916 41.0294 13.8523 41.4462 14.0243 41.8214C14.1964 42.1967 14.4725 42.5147 14.82 42.7376C15.1674 42.9605 15.5716 43.079 15.9844 43.079C16.3972 43.079 16.8013 42.9605 17.1488 42.7376C17.4962 42.5147 17.7724 42.1967 17.9444 41.8214C18.1165 41.4462 18.1772 41.0294 18.1194 40.6207C18.0615 40.212 17.8876 39.8284 17.6182 39.5156C17.8451 39.2521 18.0048 38.9375 18.0838 38.5989C18.1628 38.2602 18.1587 37.9074 18.0718 37.5707C17.985 37.234 17.818 36.9232 17.585 36.665C17.3521 36.4068 17.0602 36.2087 16.7341 36.0878C16.4081 35.9668 16.0576 35.9265 15.7126 35.9703C15.3677 36.0141 15.0384 36.1407 14.7529 36.3393C14.4674 36.5379 14.2342 36.8026 14.0732 37.1108C13.9122 37.419 13.8281 37.7616 13.8281 38.1094Z" fill="#27547D"/>
<path d="M18.1406 38.1094C18.1406 37.7658 18.0586 37.4272 17.9012 37.1218C17.7439 36.8164 17.5158 36.553 17.2361 36.3536C16.9563 36.1541 16.6329 36.0244 16.2929 35.9753C15.9529 35.9262 15.606 35.959 15.2812 36.071C15.614 36.1857 15.9137 36.3802 16.154 36.6374C16.3943 36.8946 16.5679 37.2068 16.6598 37.5466C16.7516 37.8864 16.7588 38.2436 16.6807 38.5868C16.6026 38.93 16.4417 39.2489 16.212 39.5156C16.4417 39.7823 16.6026 40.1012 16.6807 40.4445C16.7588 40.7877 16.7516 41.1448 16.6598 41.4847C16.5679 41.8245 16.3943 42.1366 16.154 42.3939C15.9137 42.6511 15.614 42.8455 15.2812 42.9602C15.7292 43.1149 16.2156 43.1177 16.6653 42.9681C17.1149 42.8186 17.5028 42.525 17.7688 42.1328C18.0349 41.7407 18.1643 41.2718 18.1371 40.7987C18.1098 40.3256 17.9275 39.8747 17.6182 39.5156C17.9558 39.1249 18.1412 38.6257 18.1406 38.1094Z" fill="#27547D"/>
</svg>
