<svg width="49" height="45" viewBox="0 0 49 45" fill="none" xmlns="http://www.w3.org/2000/svg">
<rect x="13" width="36" height="44.5714" rx="2" fill="#05D79F"/>
<path d="M30.1428 6.85715H45.5714" stroke="white"/>
<path d="M18.1428 20.5714L45.5714 20.5714" stroke="white"/>
<path d="M28.4285 24H45.5713" stroke="white"/>
<path d="M28.4285 30.8571H45.5713" stroke="white"/>
<path d="M28.4285 27.4286H45.5713" stroke="white"/>
<path d="M28.4285 34.2857H45.5713" stroke="white"/>
<path d="M28.4285 39.4286H45.5713" stroke="white"/>
<path d="M30.1428 10.2857H40.4285" stroke="white"/>
<path d="M42.1428 10.2857H45.5714" stroke="white"/>
<path d="M30.1428 13.7143H45.5714" stroke="white"/>
<path d="M38.7144 20.5714L38.7144 34.2857" stroke="white"/>
<path d="M23.1176 6.35826H22.1957C22.3623 6.5692 22.4678 6.82701 22.5121 7.1317H23.2972L23.1176 7.74889H22.5238C22.4769 8.21243 22.2933 8.56139 21.973 8.79576C21.6527 9.03014 21.2074 9.14732 20.6371 9.14732L22.5629 11.3817V11.4286H21.6761L19.6058 9.01842L19.6019 8.53014H20.5746C20.9001 8.52753 21.1644 8.45722 21.3676 8.3192C21.5707 8.17857 21.6996 7.98847 21.7543 7.74889H19.4926L19.6722 7.1317H21.7465C21.6215 6.63691 21.2386 6.37909 20.598 6.35826H19.5004L19.684 5.74107H23.2972L23.1176 6.35826Z" fill="white"/>
<path d="M12 22.2L24 27V28.6H22.4C22.4 28.8167 22.3146 29.0042 22.1438 29.1625C21.9729 29.3208 21.7708 29.4 21.5375 29.4H2.4625C2.22917 29.4 2.02708 29.3208 1.85625 29.1625C1.68542 29.0042 1.6 28.8167 1.6 28.6H0V27L12 22.2ZM3.2 30.2H6.4V39.8H8V30.2H11.2V39.8H12.8V30.2H16V39.8H17.6V30.2H20.8V39.8H21.5375C21.7708 39.8 21.9729 39.8792 22.1438 40.0375C22.3146 40.1958 22.4 40.3833 22.4 40.6V41.4H1.6V40.6C1.6 40.3833 1.68542 40.1958 1.85625 40.0375C2.02708 39.8792 2.22917 39.8 2.4625 39.8H3.2V30.2ZM23.1375 42.2C23.3708 42.2 23.5729 42.2792 23.7438 42.4375C23.9146 42.5958 24 42.7833 24 43V44.6H0V43C0 42.7833 0.0854166 42.5958 0.25625 42.4375C0.427083 42.2792 0.629167 42.2 0.8625 42.2H23.1375Z" fill="#27547C"/>
</svg>
