<svg width="46" height="46" viewBox="0 0 46 46" fill="none" xmlns="http://www.w3.org/2000/svg">
<g clip-path="url(#clip0_34_3330)">
<path d="M33.4668 0.673828H12.5332C11.0446 0.673828 9.83789 1.88056 9.83789 3.36914V42.6309C9.83789 44.1194 11.0446 45.3262 12.5332 45.3262H33.4668C34.9554 45.3262 36.1621 44.1194 36.1621 42.6309V3.36914C36.1621 1.88056 34.9554 0.673828 33.4668 0.673828Z" fill="#05D79F"/>
<path d="M33.4668 0.673828H29.4238C30.1387 0.673828 30.8242 0.957798 31.3297 1.46327C31.8352 1.96874 32.1191 2.6543 32.1191 3.36914V42.6309C32.1191 43.3457 31.8352 44.0313 31.3297 44.5367C30.8242 45.0422 30.1387 45.3262 29.4238 45.3262H33.4668C34.1816 45.3262 34.8672 45.0422 35.3727 44.5367C35.8781 44.0313 36.1621 43.3457 36.1621 42.6309V3.36914C36.1621 2.6543 35.8781 1.96874 35.3727 1.46327C34.8672 0.957798 34.1816 0.673828 33.4668 0.673828Z" fill="#0AB386"/>
<path d="M36.1621 6.06445H9.83789V37.2402H36.1621V6.06445Z" fill="#E1E1E3"/>
<path d="M36.1621 6.06445H32.1191V37.2402H36.1621V6.06445Z" fill="#C8C5CC"/>
<path d="M23 42.6309C23.7443 42.6309 24.3477 42.0275 24.3477 41.2832C24.3477 40.5389 23.7443 39.9355 23 39.9355C22.2557 39.9355 21.6523 40.5389 21.6523 41.2832C21.6523 42.0275 22.2557 42.6309 23 42.6309Z" fill="#E4FFCF"/>
<path d="M17.8778 20.7531L21.2136 23.6632C21.2994 23.738 21.3593 23.8381 21.3847 23.9491C21.4101 24.06 21.3998 24.1762 21.3551 24.2809L18.4126 31.1816C18.3648 31.2936 18.3564 31.4185 18.3887 31.536C18.4209 31.6534 18.4921 31.7564 18.5904 31.8283C18.6887 31.9002 18.8085 31.9366 18.9302 31.9317C19.0519 31.9268 19.1683 31.8808 19.2605 31.8012L28.1225 24.1571C28.1784 24.1089 28.2238 24.0497 28.2559 23.9832C28.288 23.9167 28.3061 23.8443 28.309 23.7705C28.312 23.6967 28.2998 23.6231 28.2731 23.5543C28.2464 23.4854 28.2059 23.4228 28.154 23.3702L24.4514 19.6197C24.3779 19.5452 24.3276 19.4509 24.3068 19.3483C24.2859 19.2457 24.2954 19.1393 24.3341 19.042L26.9805 12.3819C27.0263 12.2668 27.031 12.1395 26.9939 12.0214C26.9568 11.9033 26.8802 11.8015 26.777 11.7332C26.6737 11.6649 26.5501 11.6342 26.4268 11.6463C26.3036 11.6584 26.1883 11.7126 26.1003 11.7997L17.8529 19.9638C17.8003 20.016 17.7589 20.0784 17.7315 20.1472C17.704 20.2161 17.691 20.2898 17.6934 20.3639C17.6957 20.438 17.7133 20.5108 17.745 20.5777C17.7768 20.6447 17.822 20.7044 17.8778 20.7531Z" fill="#27547C"/>
<path d="M28.1542 23.3702L24.4516 19.6197C24.3781 19.5452 24.3278 19.4509 24.307 19.3483C24.2861 19.2457 24.2956 19.1393 24.3343 19.042L26.9808 12.3819C27.0265 12.2668 27.0312 12.1395 26.9941 12.0214C26.957 11.9033 26.8804 11.8015 26.7772 11.7332C26.6739 11.6649 26.5503 11.6342 26.4271 11.6463C26.3038 11.6584 26.1885 11.7126 26.1006 11.7997L23.4899 14.384L21.639 19.042C21.6003 19.1393 21.5908 19.2457 21.6117 19.3483C21.6325 19.4509 21.6828 19.5452 21.7563 19.6197L25.4589 23.3702C25.5108 23.4228 25.5513 23.4854 25.578 23.5543C25.6047 23.6231 25.6169 23.6967 25.6139 23.7705C25.611 23.8443 25.5929 23.9167 25.5608 23.9832C25.5287 24.0497 25.4833 24.1089 25.4274 24.1571L19.0697 29.6411L18.4128 31.1816C18.3651 31.2936 18.3566 31.4185 18.3889 31.536C18.4212 31.6534 18.4923 31.7564 18.5906 31.8283C18.689 31.9001 18.8087 31.9366 18.9304 31.9317C19.0521 31.9268 19.1686 31.8808 19.2608 31.8012L28.1227 24.1571C28.1786 24.1089 28.224 24.0497 28.2561 23.9832C28.2882 23.9167 28.3063 23.8443 28.3092 23.7705C28.3122 23.6967 28.3 23.6231 28.2733 23.5543C28.2466 23.4854 28.2061 23.4228 28.1542 23.3702Z" fill="#2A6CA7"/>
</g>
<defs>
<clipPath id="clip0_34_3330">
<rect width="46" height="46" fill="white"/>
</clipPath>
</defs>
</svg>
