<svg width="48" height="48" viewBox="0 0 48 48" fill="none" xmlns="http://www.w3.org/2000/svg">
<g clip-path="url(#clip0_32_3221)">
<path d="M6 42.742V4.742C6 3.637 6.895 2.742 8 2.742H26C27.105 2.742 28 3.637 28 4.742V42.742C28 43.847 27.105 44.742 26 44.742H8C6.895 44.742 6 43.847 6 42.742Z" fill="#00943F"/>
<path d="M20.984 40.726C20.984 39.069 22.327 37.726 23.984 37.726L24 9.74199C22.343 9.74199 21 8.39899 21 6.74199L13.031 6.72699C13.031 8.38399 11.688 9.72699 10.031 9.72699L10 37.711C11.657 37.711 13 39.054 13 40.711L20.984 40.726Z" fill="#06D7A0"/>
<path d="M17 27.242C18.933 27.242 20.5 25.675 20.5 23.742C20.5 21.809 18.933 20.242 17 20.242C15.067 20.242 13.5 21.809 13.5 23.742C13.5 25.675 15.067 27.242 17 27.242Z" fill="#C7E7DF"/>
<path d="M17 13.742C18.1046 13.742 19 12.8466 19 11.742C19 10.6374 18.1046 9.742 17 9.742C15.8954 9.742 15 10.6374 15 11.742C15 12.8466 15.8954 13.742 17 13.742Z" fill="#E4FFCF"/>
<path d="M17 37.742C18.1046 37.742 19 36.8466 19 35.742C19 34.6374 18.1046 33.742 17 33.742C15.8954 33.742 15 34.6374 15 35.742C15 36.8466 15.8954 37.742 17 37.742Z" fill="#C7E7DF"/>
<path d="M7.31796 38.56L18.961 2.38701C19.299 1.33601 20.426 0.758008 21.478 1.09601L38.612 6.61101C39.663 6.94901 40.241 8.07601 39.903 9.12801L28.26 45.301C27.922 46.352 26.795 46.93 25.743 46.592L8.60896 41.076C7.55796 40.738 6.97996 39.611 7.31796 38.56Z" fill="#00943F"/>
<path d="M22.2 41.232C22.708 39.655 24.398 38.788 25.975 39.295L34.564 12.661C32.987 12.153 32.12 10.463 32.627 8.88599L25.046 6.42999C24.538 8.00699 22.848 8.87399 21.271 8.36699L12.667 34.996C14.244 35.504 15.111 37.194 14.604 38.771L22.2 41.232Z" fill="#06D7A0"/>
<path d="M26.942 24.9154C27.5343 23.0754 26.5227 21.1036 24.6827 20.5114C22.8427 19.9191 20.8709 20.9306 20.2787 22.7707C19.6864 24.6107 20.6979 26.5824 22.538 27.1747C24.378 27.767 26.3498 26.7554 26.942 24.9154Z" fill="#E4FFCF"/>
<path d="M29.1917 13.0338C29.5301 11.9823 28.9521 10.8556 27.9006 10.5172C26.8492 10.1787 25.7225 10.7567 25.384 11.8082C25.0456 12.8596 25.6236 13.9864 26.6751 14.3248C27.7265 14.6632 28.8532 14.0852 29.1917 13.0338Z" fill="#E4FFCF"/>
<path d="M21.8376 35.8798C22.1761 34.8284 21.5981 33.7016 20.5466 33.3632C19.4952 33.0248 18.3685 33.6028 18.03 34.6542C17.6916 35.7057 18.2696 36.8324 19.321 37.1708C20.3725 37.5093 21.4992 36.9313 21.8376 35.8798Z" fill="#C7E7DF"/>
<path d="M38 21.142H22H20H10C7.8 21.142 6 22.942 6 25.142V43.142C6 45.342 7.8 47.142 10 47.142H26H28H38C40.2 47.142 42 45.342 42 43.142V25.142C42 22.942 40.2 21.142 38 21.142Z" fill="#27547C"/>
<path d="M41 41.142H32.895C30.744 41.142 29 39.351 29 37.142C29 34.933 30.744 33.142 32.895 33.142H41" fill="#06D7A0"/>
<path d="M32.974 38.01C33.5119 38.01 33.948 37.5623 33.948 37.01C33.948 36.4577 33.5119 36.01 32.974 36.01C32.4361 36.01 32 36.4577 32 37.01C32 37.5623 32.4361 38.01 32.974 38.01Z" fill="#27547C"/>
</g>
<defs>
<clipPath id="clip0_32_3221">
<rect width="48" height="48" fill="white"/>
</clipPath>
</defs>
</svg>
