<svg width="22" height="22" viewBox="0 0 22 22" fill="none" xmlns="http://www.w3.org/2000/svg">
<path d="M20.46 10.698H20.35V7.69297C20.35 6.75511 19.6555 5.97873 18.7541 5.84541V5.16935C18.7541 4.13821 17.9153 3.29935 16.8841 3.29935H16.0556L15.6194 2.13665C15.5575 1.97165 15.3765 1.88431 15.2093 1.93843L10.9851 3.29935H2.36172C1.48414 3.29935 0.77002 4.01347 0.77002 4.89105V18.2072C0.77002 19.2384 1.60888 20.0772 2.64002 20.0772H18.48C19.5112 20.0772 20.35 19.2384 20.35 18.2072V15.2022H20.46C20.8846 15.2022 21.23 14.8568 21.23 14.4322V11.468C21.23 11.0436 20.8846 10.698 20.46 10.698ZM16.3033 3.95957H16.8841C17.5512 3.95957 18.0941 4.50231 18.0941 5.16957V5.82319H17.0027L16.9369 5.64785L16.3033 3.95957ZM15.3507 3.29957L15.8869 4.72825L16.2978 5.82319H5.304L15.112 2.66355L15.3507 3.29957ZM2.36172 3.95957H8.9362L4.7914 5.29497L3.15174 5.82319H2.36172C1.84802 5.82319 1.43002 5.40519 1.43002 4.89149C1.43002 4.37779 1.84802 3.95957 2.36172 3.95957ZM19.69 18.2072C19.69 18.8745 19.1471 19.4172 18.48 19.4172H2.64002C1.97298 19.4172 1.43002 18.8745 1.43002 18.2072V6.18113C1.43464 6.18465 1.44014 6.18685 1.44498 6.19037C1.50262 6.23107 1.56268 6.26825 1.6256 6.30125C1.63726 6.30741 1.64958 6.31269 1.66146 6.31863C1.71976 6.34745 1.77982 6.37275 1.84186 6.39431C1.85242 6.39805 1.86254 6.40223 1.8731 6.40575C1.94174 6.42797 2.01236 6.44469 2.08474 6.45745C2.1008 6.46031 2.11708 6.46251 2.13336 6.46493C2.20816 6.47571 2.28406 6.48319 2.36172 6.48319H3.20344H3.25514H16.5453H16.7739H18.48C19.1471 6.48319 19.69 7.02593 19.69 7.69319V10.6982H17.5037C16.4725 10.6982 15.6337 11.537 15.6337 12.5682V13.3325C15.6337 14.3636 16.4725 15.2025 17.5037 15.2025H19.69V18.2072ZM20.57 14.4322C20.57 14.493 20.5205 14.5422 20.46 14.5422H20.35H17.5037C16.8366 14.5422 16.2937 13.9995 16.2937 13.3322V12.568C16.2937 11.9007 16.8366 11.358 17.5037 11.358H20.35H20.46C20.5205 11.358 20.57 11.4072 20.57 11.468V14.4322Z" fill="#26547C"/>
<path d="M18.3588 11.9948C17.8319 11.9948 17.4033 12.4234 17.4033 12.9501C17.4033 13.477 17.8319 13.9053 18.3588 13.9053C18.8857 13.9053 19.314 13.4768 19.314 12.9501C19.314 12.4234 18.8857 11.9948 18.3588 11.9948ZM18.3588 13.2455C18.196 13.2455 18.0633 13.1131 18.0633 12.9503C18.0633 12.7875 18.196 12.6551 18.3588 12.6551C18.5216 12.6551 18.654 12.7875 18.654 12.9503C18.654 13.1129 18.5216 13.2455 18.3588 13.2455Z" fill="#26547C"/>
</svg>
